<svg xmlns="http://www.w3.org/2000/svg" viewBox="0 0 113.4 25.77"><defs><style>.cls-1{fill:#999;fill-rule:evenodd;}</style></defs><title>logo-footer</title><g id="Слой_2" data-name="Слой 2"><g id="Слой_1-2" data-name="Слой 1"><path class="cls-1" d="M16.83,11.92a5.31,5.31,0,0,0,.25,1.6,4.2,4.2,0,0,0,.69,1.25,4.11,4.11,0,0,0,1,.9,4.59,4.59,0,0,0,1.22.54,5,5,0,0,0,1.34.18,5.17,5.17,0,0,0,1.11-.12,3.85,3.85,0,0,0,1.06-.39,3.74,3.74,0,0,0,.92-.67,3.7,3.7,0,0,0,.68-1,3.45,3.45,0,0,0,.2-.48l-2-.84a1.79,1.79,0,0,1-.39.78,1.68,1.68,0,0,1-.68.46,2.41,2.41,0,0,1-.87.15,2.26,2.26,0,0,1-.92-.19,2,2,0,0,1-.69-.53,2.3,2.3,0,0,1-.44-.76,2.72,2.72,0,0,1-.16-.91,2.93,2.93,0,0,1,.28-1.27,2,2,0,0,1,.76-.84,2.21,2.21,0,0,1,1.17-.3,2.75,2.75,0,0,1,.84.12,1.64,1.64,0,0,1,.65.41,1.91,1.91,0,0,1,.43.73h0l2-.83a4.08,4.08,0,0,0-.19-.42,3.14,3.14,0,0,0-.69-.94,3.66,3.66,0,0,0-.92-.65,3.91,3.91,0,0,0-1-.37,4.57,4.57,0,0,0-1.09-.13A5,5,0,0,0,20,7.59a4.59,4.59,0,0,0-1.22.54,3.88,3.88,0,0,0-1,.89,4.25,4.25,0,0,0-.69,1.26,5.48,5.48,0,0,0-.25,1.64Zm-15.58.45a6.42,6.42,0,0,0,1.85,4h0a6.42,6.42,0,0,0,4.56,1.89h0a6.45,6.45,0,0,0,4.57-1.89h0a6.78,6.78,0,0,0,1.48-2.3c.24-.56-.44-1-1.16-1.18s-1.54-.39-1.78.27a3.44,3.44,0,0,1-3.11,2h0A3.37,3.37,0,0,1,5.29,9.4h0a3.42,3.42,0,0,1,2.39-1,3.38,3.38,0,0,1,2.39,1h0a3.45,3.45,0,0,1,.72,1c.16.39.9.39,1.61.23s1.55-.57,1.34-1.14a6.4,6.4,0,0,0-1-1.8h0A6.55,6.55,0,0,0,8,5.4c-.24,0-.13-.59.07-.58s.49,0,.73.09a8,8,0,0,1,1.07.27l.12,0,2.75-2.44c.56-.49-.34-1.81-1.17-2.27h0a.76.76,0,0,0-.84,0L5.29,5.36c-.18.16-.6-.24-.41-.41L8.27,1.88l.29-.28C9,.67,6.19-.61,5.77.32L2.82,7l0,0c-.11.16-.63,0-.49-.26L4.25,2.38h0c-.34-.83-3-.79-3,.16v7.79c0,.68,0,1.37,0,2Zm4.58-.55a1.91,1.91,0,1,1,1.91,1.9,1.92,1.92,0,0,1-1.91-1.9Zm-3.36,6.8h0l.23-.44c.46-.88,3.16.52,2.7,1.4L2.76,24.66c-.46.88-3.17-.52-2.71-1.4L.73,22l1.74-3.34Zm7.86,5.82a1.52,1.52,0,0,1-.62-.11A1.25,1.25,0,0,1,9.22,24h0a1.4,1.4,0,0,1-.31-.51,1.89,1.89,0,0,1-.1-.65h0a2.19,2.19,0,0,1,.1-.7,1.69,1.69,0,0,1,.33-.53,1.25,1.25,0,0,1,.51-.33,1.67,1.67,0,0,1,.65-.11,1.57,1.57,0,0,1,.63.11,1.27,1.27,0,0,1,.47.32,1.58,1.58,0,0,1,.3.52,2.26,2.26,0,0,1,.09.67h0a2,2,0,0,1-.1.67,1.51,1.51,0,0,1-.32.53,1.31,1.31,0,0,1-.5.34,1.62,1.62,0,0,1-.64.11Zm0-2.76a1,1,0,0,0-.4.07.76.76,0,0,0-.3.23,1,1,0,0,0-.2.36,1.75,1.75,0,0,0-.06.48,1.17,1.17,0,0,0,.26.82.89.89,0,0,0,.3.22,1,1,0,0,0,.4.07.94.94,0,0,0,.39-.07.78.78,0,0,0,.29-.21,1.06,1.06,0,0,0,.18-.35,1.87,1.87,0,0,0,.07-.49,1.81,1.81,0,0,0-.07-.49h0a1,1,0,0,0-.18-.35.7.7,0,0,0-.29-.22h0a.94.94,0,0,0-.39-.07Zm5.21,3.8h-.47V24.37H12.57V21.24h.59v2.62H14.6V21.24h.59v2.62h.44v1.62ZM18.69,23H16.61a1,1,0,0,0,.25.69.84.84,0,0,0,.29.2,1.23,1.23,0,0,0,.39.06,1.51,1.51,0,0,0,.48-.08,1.67,1.67,0,0,0,.43-.24l.08-.07v.59h0a1.43,1.43,0,0,1-.48.23,2.25,2.25,0,0,1-.6.07,1.46,1.46,0,0,1-.6-.11h0a1.28,1.28,0,0,1-.45-.32,1.42,1.42,0,0,1-.29-.51,2.38,2.38,0,0,1-.09-.68h0a2,2,0,0,1,.1-.66,1.48,1.48,0,0,1,.31-.53,1.56,1.56,0,0,1,.47-.35,1.48,1.48,0,0,1,.57-.11,1.3,1.3,0,0,1,.54.1,1,1,0,0,1,.42.3,1.37,1.37,0,0,1,.25.48,2,2,0,0,1,.09.62h0V23Zm-.55-.52a1.36,1.36,0,0,0,0-.3.79.79,0,0,0-.15-.27.6.6,0,0,0-.22-.16.84.84,0,0,0-.29-.05.73.73,0,0,0-.3.06.66.66,0,0,0-.25.17.85.85,0,0,0-.18.27,1.15,1.15,0,0,0-.09.28Zm3.8,1.91h-.53V23H20v1.37h-.6V21.24H20v1.24h1.44V21.24H22v3.13Zm3.5,0h-.72L23.46,23v1.39h-.59V21.24h.59v1.32l1.2-1.31h.79l-.08.09L24,22.75l1.48,1.54.08.08Zm2.67,0h-.54V24a1,1,0,0,1-.32.3,1.17,1.17,0,0,1-.57.14,1,1,0,0,1-.75-.25h0a1,1,0,0,1-.2-.3,1.11,1.11,0,0,1-.07-.37.93.93,0,0,1,.27-.71,1.23,1.23,0,0,1,.78-.33l.86-.12a.8.8,0,0,0-.14-.51.55.55,0,0,0-.43-.17,1.44,1.44,0,0,0-.51.09A1.79,1.79,0,0,0,26,22l-.08.07v-.64h0a1.86,1.86,0,0,1,.5-.22,2,2,0,0,1,.56-.07c.75,0,1.12.39,1.12,1.18h0v2Zm-.54-1.52-.67.09a1.84,1.84,0,0,0-.29.06h0a.75.75,0,0,0-.2.1h0a.4.4,0,0,0-.11.14h0a.8.8,0,0,0,0,.24h0a.34.34,0,0,0,0,.18.45.45,0,0,0,.1.14h0a.42.42,0,0,0,.17.1h0a.73.73,0,0,0,.22,0,.78.78,0,0,0,.31-.06.85.85,0,0,0,.25-.17,1,1,0,0,0,.17-.27,1.21,1.21,0,0,0,.05-.34v-.24Zm5.63,1.52h-.72L31.22,23v1.39h-.59V21.24h.59v1.32l1.2-1.31h.79l-.08.09-1.37,1.42,1.48,1.54.08.08Zm2.67,0h-.54V24a1,1,0,0,1-.32.3,1.2,1.2,0,0,1-.57.14,1.06,1.06,0,0,1-.75-.25h0a.83.83,0,0,1-.2-.3.9.9,0,0,1-.07-.37.93.93,0,0,1,.27-.71,1.23,1.23,0,0,1,.78-.33l.86-.12a.79.79,0,0,0-.15-.51.51.51,0,0,0-.42-.17,1.44,1.44,0,0,0-.51.09,1.63,1.63,0,0,0-.45.27l-.08.07v-.64h0a1.86,1.86,0,0,1,.5-.22,2,2,0,0,1,.56-.07c.75,0,1.12.39,1.12,1.18h0v2Zm-.54-1.52-.67.09a1.84,1.84,0,0,0-.29.06h0a.93.93,0,0,0-.2.1h0a.31.31,0,0,0-.11.14h0a.57.57,0,0,0,0,.24h0a.34.34,0,0,0,0,.18.45.45,0,0,0,.1.14h0a.37.37,0,0,0,.17.1h0a.73.73,0,0,0,.22,0,.78.78,0,0,0,.31-.06,1,1,0,0,0,.25-.17.74.74,0,0,0,.16-.27.93.93,0,0,0,.06-.34v-.24Zm3.82,1.52h-.53V23.19a2.63,2.63,0,0,1-.45.18,1.69,1.69,0,0,1-.48.07,1.06,1.06,0,0,1-.81-.28,1.19,1.19,0,0,1-.27-.85V21.24h.59v1.05h0a.71.71,0,0,0,.14.47.47.47,0,0,0,.39.14,2,2,0,0,0,.89-.23V21.24h.58v3.13ZM42.57,23H40.48a1,1,0,0,0,.26.69.84.84,0,0,0,.29.2,1.14,1.14,0,0,0,.39.06,1.5,1.5,0,0,0,.47-.08,1.73,1.73,0,0,0,.44-.24l.08-.07v.59h0a1.53,1.53,0,0,1-.48.23,2.27,2.27,0,0,1-.61.07,1.41,1.41,0,0,1-.59-.11h0a1.2,1.2,0,0,1-.45-.32A1.28,1.28,0,0,1,40,23.5a2.37,2.37,0,0,1-.1-.68h0a1.94,1.94,0,0,1,.11-.66,1.48,1.48,0,0,1,.31-.53,1.45,1.45,0,0,1,.47-.35,1.47,1.47,0,0,1,.56-.11,1.35,1.35,0,0,1,.55.1,1,1,0,0,1,.41.3,1.24,1.24,0,0,1,.26.48,2.33,2.33,0,0,1,.08.62h0V23ZM42,22.46a1.34,1.34,0,0,0-.05-.3.77.77,0,0,0-.14-.27.6.6,0,0,0-.22-.16.85.85,0,0,0-.3-.05.72.72,0,0,0-.29.06.53.53,0,0,0-.25.17.88.88,0,0,0-.19.27.83.83,0,0,0-.08.28Zm3.38,1.77a1.76,1.76,0,0,1-.4.16,2.24,2.24,0,0,1-.46.05A1.37,1.37,0,0,1,43.46,24h0a1.36,1.36,0,0,1-.31-.5,1.71,1.71,0,0,1-.11-.62h0a1.94,1.94,0,0,1,.12-.7,1.43,1.43,0,0,1,.33-.54h0a1.43,1.43,0,0,1,.52-.36,2,2,0,0,1,.66-.11,1.61,1.61,0,0,1,.39,0,1.35,1.35,0,0,1,.34.11h0V22l-.08-.06a1.17,1.17,0,0,0-.34-.16,1.09,1.09,0,0,0-.36-.06h0a.92.92,0,0,0-.72.31h0a1,1,0,0,0-.21.37,1.41,1.41,0,0,0-.07.47,1.68,1.68,0,0,0,.06.47,1.05,1.05,0,0,0,.2.34h0a.84.84,0,0,0,.31.22,1,1,0,0,0,.4.07,1.15,1.15,0,0,0,.37-.06,1.33,1.33,0,0,0,.35-.19l.08-.06v.59l0,0ZM48,21.76h-.86v2.61h-.59V21.76h-.91v-.52h2.41v.52Zm.53,2.56V21.24h1.37a1.42,1.42,0,0,1,.42.05.88.88,0,0,1,.32.16.72.72,0,0,1,.21.25h0a.88.88,0,0,1,.07.33h0a.82.82,0,0,1-.16.51h0a.66.66,0,0,1-.27.19.7.7,0,0,1,.35.2.69.69,0,0,1,.19.52.86.86,0,0,1-.07.36.93.93,0,0,1-.23.3h0a1.05,1.05,0,0,1-.34.2,1.29,1.29,0,0,1-.4.06H48.54v-.05Zm.59-2.56v.75h.67a.65.65,0,0,0,.41-.11h0a.33.33,0,0,0,.13-.3c0-.23-.16-.34-.48-.34Zm0,1.26v.83h.79a.67.67,0,0,0,.41-.1.41.41,0,0,0,.12-.32.33.33,0,0,0-.14-.3.82.82,0,0,0-.46-.11ZM54,24.37h-.54V24a1,1,0,0,1-.32.3,1.15,1.15,0,0,1-.57.14,1,1,0,0,1-.74-.25h0a1,1,0,0,1-.21-.3,1.1,1.1,0,0,1-.06-.37,1,1,0,0,1,.26-.71,1.28,1.28,0,0,1,.78-.33l.86-.12a.8.8,0,0,0-.14-.51.54.54,0,0,0-.43-.17,1.39,1.39,0,0,0-.5.09,1.5,1.5,0,0,0-.45.27l-.09.07v-.64h0a1.67,1.67,0,0,1,.49-.22,2,2,0,0,1,.56-.07c.75,0,1.12.39,1.12,1.18h0v2Zm-.54-1.52-.67.09a2.11,2.11,0,0,0-.29.06h0a1.24,1.24,0,0,0-.2.1h0a.3.3,0,0,0-.1.14h0a.57.57,0,0,0,0,.24h0a.48.48,0,0,0,0,.18.36.36,0,0,0,.11.14h0a.37.37,0,0,0,.17.1h0a.66.66,0,0,0,.21,0,.83.83,0,0,0,.32-.06.81.81,0,0,0,.24-.17.77.77,0,0,0,.17-.27.93.93,0,0,0,0-.34v-.24Zm5.64,1.52h-.73L57.09,23v1.39H56.5V21.24h.59v1.32l1.19-1.31h.8l-.09.09-1.37,1.42,1.48,1.54.09.08Zm2.82,0h-.53V21.75h-.61A10.26,10.26,0,0,1,60.59,23a3.45,3.45,0,0,1-.25.83h0a1.53,1.53,0,0,1-.36.47.83.83,0,0,1-.48.15h-.15l-.13,0h0v-.54l.07,0a.29.29,0,0,0,.1,0h.1c.2,0,.36-.21.49-.63a9,9,0,0,0,.3-2v-.05h1.69v3.13Zm3.52,0h-.48V22.11a1.42,1.42,0,0,0-.11.18h0l-1.4,2.06v0h-.59V21.24h.55v2.22l.06-.1h0l1.44-2.1,0,0h.58v3.13ZM68.83,23H66.75a1,1,0,0,0,.25.69.94.94,0,0,0,.29.2,1.23,1.23,0,0,0,.39.06,1.51,1.51,0,0,0,.48-.08,1.67,1.67,0,0,0,.43-.24l.08-.07v.59h0a1.34,1.34,0,0,1-.48.23,2.25,2.25,0,0,1-.6.07,1.38,1.38,0,0,1-.59-.11h0a1.23,1.23,0,0,1-.46-.32,1.42,1.42,0,0,1-.29-.51,2.38,2.38,0,0,1-.09-.68h0a2,2,0,0,1,.1-.66,1.65,1.65,0,0,1,.31-.53,1.56,1.56,0,0,1,.47-.35,1.48,1.48,0,0,1,.57-.11,1.3,1.3,0,0,1,.54.1,1,1,0,0,1,.42.3,1.22,1.22,0,0,1,.25.48,2,2,0,0,1,.09.62h0V23Zm-.55-.52a1.36,1.36,0,0,0,0-.3,1,1,0,0,0-.14-.27.82.82,0,0,0-.22-.16.94.94,0,0,0-.3-.05.73.73,0,0,0-.3.06.66.66,0,0,0-.25.17,1.06,1.06,0,0,0-.18.27,1.15,1.15,0,0,0-.09.28Zm3.81,1.91h-.54V23H70.11v1.37h-.59V21.24h.59v1.24h1.44V21.24h.59v3.13ZM75,21.76h-.86v2.61h-.59V21.76h-.91v-.52H75v.52Zm2.57,2.47a1.76,1.76,0,0,1-.4.16,2.16,2.16,0,0,1-.46.05A1.39,1.39,0,0,1,75.6,24h0a1.36,1.36,0,0,1-.31-.5,1.72,1.72,0,0,1-.1-.62h0a1.94,1.94,0,0,1,.11-.7,1.43,1.43,0,0,1,.33-.54h0a1.43,1.43,0,0,1,.52-.36,2,2,0,0,1,.66-.11,1.61,1.61,0,0,1,.39,0,1.35,1.35,0,0,1,.34.11h0V22l-.08-.06a1.17,1.17,0,0,0-.34-.16,1,1,0,0,0-.36-.06h0a.92.92,0,0,0-.72.31h0a1,1,0,0,0-.21.37,1.41,1.41,0,0,0-.07.47,1.68,1.68,0,0,0,.06.47,1.05,1.05,0,0,0,.2.34h0a.84.84,0,0,0,.31.22,1,1,0,0,0,.41.07,1.13,1.13,0,0,0,.36-.06,1.33,1.33,0,0,0,.35-.19l.08-.06v.59l0,0Zm3.22.14H80L78.78,23v1.39h-.59V21.24h.59v1.32L80,21.25h.79l-.08.09-1.37,1.42,1.48,1.54.08.08Zm1.64.07a1.62,1.62,0,0,0,.64-.11,1.31,1.31,0,0,0,.5-.34,1.51,1.51,0,0,0,.32-.53,2,2,0,0,0,.1-.67h0a2.26,2.26,0,0,0-.09-.67,1.58,1.58,0,0,0-.3-.52,1.27,1.27,0,0,0-.47-.32,1.57,1.57,0,0,0-.63-.11,1.67,1.67,0,0,0-.65.11,1.25,1.25,0,0,0-.51.33,1.53,1.53,0,0,0-.33.53,2.19,2.19,0,0,0-.1.7h0a1.89,1.89,0,0,0,.1.65,1.4,1.4,0,0,0,.31.51h0a1.25,1.25,0,0,0,.49.33,1.56,1.56,0,0,0,.62.11Zm0-2.76a.94.94,0,0,1,.39.07h0a.7.7,0,0,1,.29.22,1,1,0,0,1,.18.35h0a1.83,1.83,0,0,1,.06.49,1.88,1.88,0,0,1-.06.49,1.06,1.06,0,0,1-.18.35.78.78,0,0,1-.29.21.94.94,0,0,1-.39.07,1,1,0,0,1-.4-.07.89.89,0,0,1-.3-.22,1.22,1.22,0,0,1-.26-.82,1.75,1.75,0,0,1,.06-.48,1,1,0,0,1,.2-.36.76.76,0,0,1,.3-.23,1,1,0,0,1,.4-.07Zm3.93.08H85.23v2.61h-.59V21.24h1.79v.52Zm1.8,2.68a1.61,1.61,0,0,1-.63-.11,1.29,1.29,0,0,1-.48-.33h0a1.28,1.28,0,0,1-.31-.51,1.88,1.88,0,0,1-.11-.65h0a2.19,2.19,0,0,1,.11-.7,1.51,1.51,0,0,1,.32-.53,1.4,1.4,0,0,1,.51-.33,1.76,1.76,0,0,1,.66-.11,1.52,1.52,0,0,1,.62.11,1.27,1.27,0,0,1,.47.32,1.29,1.29,0,0,1,.3.52,2,2,0,0,1,.1.67h0a2,2,0,0,1-.11.67,1.37,1.37,0,0,1-.32.53,1.28,1.28,0,0,1-.49.34,1.66,1.66,0,0,1-.64.11Zm0-2.76a.94.94,0,0,0-.39.07.87.87,0,0,0-.31.23,1,1,0,0,0-.19.36,1.43,1.43,0,0,0-.07.48,1.22,1.22,0,0,0,.26.82.84.84,0,0,0,.31.22,1,1,0,0,0,.39.07,1,1,0,0,0,.4-.07.86.86,0,0,0,.29-.21,1.06,1.06,0,0,0,.18-.35,1.88,1.88,0,0,0,.06-.49,1.83,1.83,0,0,0-.06-.49h0a1,1,0,0,0-.18-.35.77.77,0,0,0-.29-.22h0a1,1,0,0,0-.4-.07Zm6,2.55a1.59,1.59,0,0,1-.4.16,2.16,2.16,0,0,1-.46.05A1.39,1.39,0,0,1,92.27,24h0a1.36,1.36,0,0,1-.31-.5,1.71,1.71,0,0,1-.11-.62h0a1.94,1.94,0,0,1,.12-.7,1.43,1.43,0,0,1,.33-.54h0a1.43,1.43,0,0,1,.52-.36,2,2,0,0,1,.66-.11,1.61,1.61,0,0,1,.39,0,1.35,1.35,0,0,1,.34.11h0V22l-.08-.06a1.17,1.17,0,0,0-.34-.16,1.09,1.09,0,0,0-.36-.06h0a.92.92,0,0,0-.72.31h0a1,1,0,0,0-.21.37,1.41,1.41,0,0,0-.07.47,1.68,1.68,0,0,0,.06.47,1.05,1.05,0,0,0,.2.34h0a.84.84,0,0,0,.31.22,1,1,0,0,0,.4.07,1.15,1.15,0,0,0,.37-.06,1.33,1.33,0,0,0,.35-.19l.08-.06v.59l0,0ZM97.35,23H95.26a1,1,0,0,0,.26.69.84.84,0,0,0,.29.2,1.14,1.14,0,0,0,.39.06,1.5,1.5,0,0,0,.47-.08,1.73,1.73,0,0,0,.44-.24l.08-.07v.59h0a1.53,1.53,0,0,1-.48.23,2.27,2.27,0,0,1-.61.07,1.41,1.41,0,0,1-.59-.11h0A1.12,1.12,0,0,1,95,24a1.28,1.28,0,0,1-.29-.51,2.38,2.38,0,0,1-.09-.68h0a2,2,0,0,1,.1-.66,1.48,1.48,0,0,1,.31-.53,1.45,1.45,0,0,1,.47-.35,1.47,1.47,0,0,1,.56-.11,1.35,1.35,0,0,1,.55.1,1,1,0,0,1,.41.3,1.24,1.24,0,0,1,.26.48,2.33,2.33,0,0,1,.08.62h0V23Zm-.55-.52a.94.94,0,0,0,0-.3.77.77,0,0,0-.14-.27.6.6,0,0,0-.22-.16.84.84,0,0,0-.29-.05.73.73,0,0,0-.3.06.59.59,0,0,0-.25.17.88.88,0,0,0-.19.27,1.15,1.15,0,0,0-.08.28ZM98.62,24v1.74H98V21.24h.59v.43a1.21,1.21,0,0,1,.38-.34,1.18,1.18,0,0,1,.63-.16,1.33,1.33,0,0,1,.54.1,1.07,1.07,0,0,1,.41.32,1.4,1.4,0,0,1,.26.5,2,2,0,0,1,.08.63,2.58,2.58,0,0,1-.09.7,1.53,1.53,0,0,1-.29.55h0a1.37,1.37,0,0,1-.45.35,1.46,1.46,0,0,1-.6.12h0a1.12,1.12,0,0,1-.55-.13,1.19,1.19,0,0,1-.32-.28Zm0-1.37v.42h0a.88.88,0,0,0,.06.33,1.17,1.17,0,0,0,.17.28h0a.76.76,0,0,0,.26.18.83.83,0,0,0,.32.06.84.84,0,0,0,.37-.08h0a.7.7,0,0,0,.28-.23,1.17,1.17,0,0,0,.18-.39,2.06,2.06,0,0,0,.06-.52,1.9,1.9,0,0,0,0-.44.82.82,0,0,0-.17-.32.63.63,0,0,0-.26-.2.7.7,0,0,0-.33-.07.81.81,0,0,0-.64.27.88.88,0,0,0-.19.32,1.23,1.23,0,0,0-.06.39Zm3,1.66V21.24H103a1.32,1.32,0,0,1,.41.05.8.8,0,0,1,.32.16.56.56,0,0,1,.21.25h0A.72.72,0,0,1,104,22h0a.81.81,0,0,1-.15.51h0a.66.66,0,0,1-.27.19.81.81,0,0,1,.35.2.69.69,0,0,1,.19.52.73.73,0,0,1-.08.36.89.89,0,0,1-.22.3h0a1.17,1.17,0,0,1-.34.2,1.31,1.31,0,0,1-.41.06h-1.46v-.05Zm.59-2.56v.75h.68a.65.65,0,0,0,.41-.11h0a.36.36,0,0,0,.13-.3c0-.23-.16-.34-.48-.34Zm0,1.26v.83H103a.65.65,0,0,0,.41-.1.38.38,0,0,0,.13-.32.35.35,0,0,0-.14-.3.83.83,0,0,0-.47-.11Zm5.22,1.35h-.49V22.11a1.45,1.45,0,0,0-.1.18h0l-1.41,2.06v0h-.58V21.24h.55v2.22l0-.1h0l1.43-2.1,0,0h.58v3.13Zm3.07-.14a1.68,1.68,0,0,1-.39.16,2.24,2.24,0,0,1-.46.05,1.37,1.37,0,0,1-1.08-.44h0a1.24,1.24,0,0,1-.31-.5,1.71,1.71,0,0,1-.11-.62h0a2.19,2.19,0,0,1,.11-.7,1.6,1.6,0,0,1,.34-.54h0a1.43,1.43,0,0,1,.52-.36,1.9,1.9,0,0,1,.66-.11,1.67,1.67,0,0,1,.39,0,1.35,1.35,0,0,1,.34.11h0V22l-.09-.06a1.12,1.12,0,0,0-.33-.16,1.13,1.13,0,0,0-.36-.06h0A.92.92,0,0,0,109,22h0a1.07,1.07,0,0,0-.22.37,1.72,1.72,0,0,0-.07.47,1.66,1.66,0,0,0,.07.47.9.9,0,0,0,.2.34h0a.84.84,0,0,0,.31.22,1,1,0,0,0,.4.07,1.15,1.15,0,0,0,.37-.06,1.51,1.51,0,0,0,.35-.19l.08-.06v.59l0,0Zm2.88.14h-.54V24a1,1,0,0,1-.32.3,1.17,1.17,0,0,1-.57.14,1,1,0,0,1-.74-.25h0a1,1,0,0,1-.21-.3,1.1,1.1,0,0,1-.06-.37.93.93,0,0,1,.26-.71,1.28,1.28,0,0,1,.78-.33l.86-.12a.8.8,0,0,0-.14-.51.54.54,0,0,0-.43-.17,1.39,1.39,0,0,0-.5.09,1.5,1.5,0,0,0-.45.27l-.09.07v-.64h0a1.86,1.86,0,0,1,.5-.22,2,2,0,0,1,.56-.07c.75,0,1.12.39,1.12,1.18h0v2Zm-.54-1.52-.67.09a2.11,2.11,0,0,0-.29.06h0a1.24,1.24,0,0,0-.2.1h0a.4.4,0,0,0-.11.14h0a.83.83,0,0,0,0,.24h0a.48.48,0,0,0,0,.18.36.36,0,0,0,.11.14h0a.34.34,0,0,0,.16.1h0a.78.78,0,0,0,.22,0,.77.77,0,0,0,.56-.23.77.77,0,0,0,.17-.27,1.21,1.21,0,0,0,0-.34v-.24ZM93.05,9.48a2.53,2.53,0,0,1,.85.12,1.58,1.58,0,0,1,.64.4,1,1,0,0,1,.35.54h0l2-.83a1.15,1.15,0,0,0-.1-.23,3.63,3.63,0,0,0-.69-.93,3.85,3.85,0,0,0-.92-.65,4.25,4.25,0,0,0-1-.38,5.06,5.06,0,0,0-1.09-.12,5,5,0,0,0-1.33.18A4.18,4.18,0,0,0,89.5,9a4.06,4.06,0,0,0-.7,1.26,4.94,4.94,0,0,0-.25,1.63,4.83,4.83,0,0,0,.25,1.62,4.11,4.11,0,0,0,.7,1.27,4.32,4.32,0,0,0,1,.9,5.43,5.43,0,0,0,3,.71c1.61,0,3.19-.61,3.74-2.13v-3H93.37v1.8h1.74v.67a2.73,2.73,0,0,1-3.08.32,2.51,2.51,0,0,1-.88-.92A3.07,3.07,0,0,1,91,10.94a2,2,0,0,1,2-1.46Zm-27-2h-2.3v8.8h2.3V7.5Zm21.35,0h-2.3v8.8h2.3V7.5ZM74.2,16.33h1.48V7.5h-2.3v4.3L69.59,7.46H68.07V16.3h2.3V11.76l3.83,4.57Zm2.7-2a2.29,2.29,0,0,0,.12.37,2.32,2.32,0,0,0,.53.81,2.78,2.78,0,0,0,.81.58,3.85,3.85,0,0,0,1,.34,4.92,4.92,0,0,0,1.09.11,4.74,4.74,0,0,0,1.07-.11,4.54,4.54,0,0,0,1-.34,3.61,3.61,0,0,0,.8-.57,2.55,2.55,0,0,0,.55-.79,2.48,2.48,0,0,0,.2-1,2.91,2.91,0,0,0-.19-1.09,2.24,2.24,0,0,0-.5-.76,3,3,0,0,0-.77-.47,5.64,5.64,0,0,0-1-.28A9.26,9.26,0,0,0,80.53,11a5.38,5.38,0,0,1-.72-.12.88.88,0,0,1-.46-.25.61.61,0,0,1-.16-.45.73.73,0,0,1,.11-.41.68.68,0,0,1,.29-.24A1.27,1.27,0,0,1,80,9.36a1.35,1.35,0,0,1,.4,0,1.81,1.81,0,0,1,.58.08,1,1,0,0,1,.44.28.93.93,0,0,1,.21.56l2-.74a1.89,1.89,0,0,0-.11-.36A2.42,2.42,0,0,0,83,8.34a3.33,3.33,0,0,0-.76-.58,4.15,4.15,0,0,0-.93-.35,4.88,4.88,0,0,0-1-.11,5,5,0,0,0-1,.11,4.05,4.05,0,0,0-.94.35,2.89,2.89,0,0,0-.75.58,2.59,2.59,0,0,0-.51.81,3.21,3.21,0,0,0-.18,1,2.74,2.74,0,0,0,.18,1,2,2,0,0,0,.49.71,2.78,2.78,0,0,0,.72.49,5,5,0,0,0,.88.29,7.48,7.48,0,0,0,1,.13l.53,0a2.19,2.19,0,0,1,.52.12.83.83,0,0,1,.41.26.72.72,0,0,1,.16.5.63.63,0,0,1-.11.35,1,1,0,0,1-.31.26,1.91,1.91,0,0,1-.44.16,2,2,0,0,1-.48.05,2.24,2.24,0,0,1-.52-.05,2.2,2.2,0,0,1-.45-.17,1.05,1.05,0,0,1-.31-.28.89.89,0,0,1-.12-.4l-2.12.69Zm28.8,2V7.5h-2.31v3.18h-2.72V7.5H98.36v8.8h2.31V12.78h2.72V16.3ZM109,9.51V16.3h2.22V9.51h2.15v-2h-6.53v2ZM42,11.92a5,5,0,0,0,.26,1.6,4,4,0,0,0,.68,1.25,4.11,4.11,0,0,0,1,.9,4.59,4.59,0,0,0,1.22.54,5,5,0,0,0,1.34.18,5.17,5.17,0,0,0,1.11-.12,3.85,3.85,0,0,0,1.06-.39,3.58,3.58,0,0,0,1.6-1.66,3.45,3.45,0,0,0,.2-.48l-2-.84a1.79,1.79,0,0,1-.39.78,1.68,1.68,0,0,1-.68.46,2.41,2.41,0,0,1-.87.15,2.26,2.26,0,0,1-.92-.19,2,2,0,0,1-.69-.53,2.3,2.3,0,0,1-.44-.76,2.71,2.71,0,0,1-.15-.91,2.8,2.8,0,0,1,.27-1.27,2,2,0,0,1,.76-.84,2.21,2.21,0,0,1,1.17-.3,2.75,2.75,0,0,1,.84.12A1.64,1.64,0,0,1,48,10a1.79,1.79,0,0,1,.43.73h0l2-.83a4.08,4.08,0,0,0-.19-.42,3.14,3.14,0,0,0-.69-.94,3.79,3.79,0,0,0-.91-.65,4.11,4.11,0,0,0-1.05-.37,4.51,4.51,0,0,0-1.09-.13,5,5,0,0,0-1.34.18,4.59,4.59,0,0,0-1.22.54,3.88,3.88,0,0,0-1,.89,4,4,0,0,0-.68,1.26A5.17,5.17,0,0,0,42,11.92ZM33.76,16.3V7.5h-2.3v3.18H28.73V7.5h-2.3v8.8h2.3V12.78h2.73V16.3ZM41,7.5H35.23v8.8h5.88V14.2H37.53V12.77h3.21v-2H37.53V9.5H41v-2Zm15.78,8.8h2.61l-2.72-4.41L59.38,7.5H56.77l-2,3.31h-1V7.5H51.45v8.8h2.31V13h1Z"/></g></g></svg>