<?xml version="1.0" encoding="iso-8859-1"?>
<!-- Generator: Adobe Illustrator 19.0.0, SVG Export Plug-In . SVG Version: 6.00 Build 0)  -->
<svg version="1.1" id="Capa_1" xmlns="http://www.w3.org/2000/svg" xmlns:xlink="http://www.w3.org/1999/xlink" x="0px" y="0px"
	 viewBox="0 0 469.333 469.333" style="enable-background:new 0 0 469.333 469.333;" xml:space="preserve">
<g>
	<g>
		<path d="M466.208,451.125L316.681,301.587c28.503-32.043,45.986-74.095,45.986-120.254c0-23.109-4.512-45.142-12.428-65.484
			l55.095-59.007V96c0,5.896,4.771,10.667,10.667,10.667c5.896,0,10.667-4.771,10.667-10.667V32c0-5.896-4.771-10.667-10.667-10.667
			h-64c-5.896,0-10.667,4.771-10.667,10.667c0,5.896,4.771,10.667,10.667,10.667h37.388l-48.717,52.174
			C309.904,38.391,250.016,0,181.333,0C81.354,0,0,81.344,0,181.333c0,33.191,9.115,64.228,24.749,91.017L3.687,290.604
			c-4.458,3.865-4.938,10.594-1.083,15.052c2.104,2.427,5.083,3.677,8.063,3.677c2.479,0,4.958-0.854,6.979-2.604l19.039-16.501
			c33.128,43.891,85.553,72.439,144.648,72.439c46.161,0,88.22-17.486,120.266-45.995l149.526,149.536
			c2.083,2.083,4.813,3.125,7.542,3.125c2.729,0,5.458-1.042,7.542-3.125C470.375,462.042,470.375,455.292,466.208,451.125z
			 M21.333,181.333c0-88.229,71.771-160,160-160c63.184,0,117.763,36.9,143.751,90.199l-90.689,97.124l-56.188-56.198
			c-4-3.969-10.313-4.167-14.521-0.521L41.076,258.202C28.514,235.372,21.333,209.182,21.333,181.333z M181.333,341.333
			c-52.676,0-99.341-25.694-128.513-65.089l117.326-101.682l56.979,56.979c2.042,2.042,4.896,2.896,7.729,3.125
			c2.896-0.052,5.625-1.271,7.604-3.385l91.486-97.98c4.785,15.171,7.389,31.301,7.389,48.033
			C341.333,269.563,269.562,341.333,181.333,341.333z"/>
	</g>
</g>
<g>
</g>
<g>
</g>
<g>
</g>
<g>
</g>
<g>
</g>
<g>
</g>
<g>
</g>
<g>
</g>
<g>
</g>
<g>
</g>
<g>
</g>
<g>
</g>
<g>
</g>
<g>
</g>
<g>
</g>
</svg>
