<svg xmlns="http://www.w3.org/2000/svg" viewBox="0 0 469.333 469.333"><path d="M466.208 451.125L316.681 301.587c28.503-32.043 45.986-74.095 45.986-120.254 0-23.109-4.512-45.142-12.428-65.484l55.095-59.007V96a10.66 10.66 0 0010.667 10.667A10.66 10.66 0 00426.668 96V32a10.66 10.66 0 00-10.667-10.667h-64A10.66 10.66 0 00341.334 32a10.66 10.66 0 0010.667 10.667h37.388l-48.717 52.174C309.904 38.391 250.016 0 181.333 0 81.354 0 0 81.344 0 181.333c0 33.191 9.115 64.228 24.749 91.017L3.687 290.604a10.671 10.671 0 00-1.083 15.052 10.658 10.658 0 008.063 3.677c2.479 0 4.958-.854 6.979-2.604l19.039-16.501c33.128 43.891 85.553 72.439 144.648 72.439 46.161 0 88.22-17.486 120.266-45.995l149.526 149.536a10.634 10.634 0 007.542 3.125c2.729 0 5.458-1.042 7.542-3.125 4.166-4.166 4.166-10.916-.001-15.083zM21.333 181.333c0-88.229 71.771-160 160-160 63.184 0 117.763 36.9 143.751 90.199l-90.689 97.124-56.188-56.198c-4-3.969-10.313-4.167-14.521-.521L41.076 258.202c-12.562-22.83-19.743-49.02-19.743-76.869zm160 160c-52.676 0-99.341-25.694-128.513-65.089l117.326-101.682 56.979 56.979c2.042 2.042 4.896 2.896 7.729 3.125a10.656 10.656 0 007.604-3.385l91.486-97.98a159.413 159.413 0 017.389 48.033c0 88.229-71.771 159.999-160 159.999z"/></svg>