<svg height="512pt" viewBox="-53 0 512 512" width="512pt" xmlns="http://www.w3.org/2000/svg"><path d="M365.887 332V111c0-22.055-17.942-40-40-40H200v143c0 33.086-26.914 60-60 60s-60-26.914-60-60v-86c0-11.047 8.953-20 20-20s20 8.953 20 20v86c0 11.027 8.973 20 20 20s20-8.973 20-20V60c0-11.027-8.973-20-20-20-9.23 0-17.43 6.512-19.492 15.48-2.242 9.762-11.285 16.176-20.977 15.442C99.027 70.96 98.52 71 98 71H80c-22.055 0-40 17.945-40 40v321c0 22.055 17.945 40 40 40h245.89c22.055 0 40-17.945 40-40 0-11.047 8.954-20 20-20 11.044 0 20 8.953 20 20 0 44.113-35.89 80-80 80H80c-44.113 0-80-35.887-80-80V111c0-44.113 35.887-80 80-80h7.43C97.734 12.176 117.562 0 140 0c22.57 0 42.262 12.531 52.504 31h133.383c44.113 0 80 35.887 80 80v221c0 11.047-8.953 20-20 20-11.043 0-20-8.953-20-20zM100 392c-11.047 0-20 8.953-20 20s8.953 20 20 20h145c11.047 0 20-8.953 20-20s-8.953-20-20-20zm225-59c0-11.047-8.953-20-20-20H100c-11.047 0-20 8.953-20 20s8.953 20 20 20h205c11.047 0 20-8.953 20-20zm-20-98h-46c-11.047 0-20 8.953-20 20s8.953 20 20 20h46c11.047 0 20-8.953 20-20s-8.953-20-20-20zm0-79h-46c-11.047 0-20 8.953-20 20s8.953 20 20 20h46c11.047 0 20-8.953 20-20s-8.953-20-20-20zm0 0"/></svg>