<svg xmlns="http://www.w3.org/2000/svg" viewBox="0 0 456.556 456.556"><path d="M228.442 456.556c-9.2 0-17.922-2.906-25.22-8.403-76.41-56.188-129.867-138.012-150.387-230.303a13.382 13.382 0 01-.283-1.867 181.579 181.579 0 01-3.71-36.56C48.841 80.488 129.33 0 228.264 0c98.948 0 179.451 80.488 179.451 179.423 0 13.138-1.409 26.153-4.193 38.711a12.666 12.666 0 01-.28 1.811c-20.544 90.119-72.82 170.46-147.192 226.225l-5.543 4.06c-.399.29-.815.56-1.245.804a42.062 42.062 0 01-20.82 5.522zM79.422 213.682c19.383 85.269 68.994 160.833 139.838 212.927 4.735 3.57 11.036 4.032 16.124 1.409l4.64-3.399c68.728-51.53 117.227-125.679 136.631-208.898.052-.615.15-1.227.29-1.836 2.598-11.131 3.913-22.726 3.913-34.462 0-84.125-68.452-152.566-152.594-152.566-84.125 0-152.566 68.441-152.566 152.566 0 11.012 1.168 21.996 3.476 32.64.115.542.199 1.08.248 1.619z"/><path d="M228.267 256.194c-42.341 0-76.785-34.441-76.785-76.775 0-42.344 34.445-76.796 76.785-76.796 42.351 0 76.806 34.452 76.806 76.796.001 42.334-34.455 76.775-76.806 76.775zm0-126.714c-27.531 0-49.929 22.401-49.929 49.939 0 27.524 22.398 49.918 49.929 49.918 27.542 0 49.95-22.394 49.95-49.918 0-27.538-22.408-49.939-49.95-49.939z"/></svg>