<svg xmlns="http://www.w3.org/2000/svg" viewBox="0 0 512.001 512.001"><path d="M481.283 441.672l-77.852-77.852c21.198-31.713 33.178-68.131 34.992-106.283h27.386c5.633 0 10.2-4.566 10.2-10.2 0-66.066-25.727-128.177-72.444-174.893C356.848 25.727 294.737 0 228.671 0c-5.633 0-10.2 4.566-10.2 10.2v27.385C107.394 42.923 18.668 134.961 18.668 247.338c0 115.796 94.207 210.003 210.003 210.003 41.859 0 81.958-12.16 116.484-35.242l77.851 77.851c8.033 8.033 18.587 12.05 29.138 12.05 10.552 0 21.105-4.017 29.139-12.051 16.067-16.066 16.067-42.21 0-58.277zm-92.589-92.591l-12.62-12.62c-3.983-3.983-10.441-3.982-14.424 0l-14.715 14.715-19.98-19.98c17.23-20.165 28.381-45.672 30.576-73.658h60.477c-1.725 32.726-11.748 64.009-29.314 91.543zM238.871 20.626c117.047 5.197 211.316 99.465 216.513 216.512h-97.851c-4.953-63.159-55.503-113.708-118.662-118.662v-97.85zm0 118.332c51.902 4.846 93.334 46.278 98.18 98.179h-98.18v-98.179zm-10.2 118.579h108.388c-5.161 55.26-51.802 98.662-108.388 98.662-60.027 0-108.861-48.835-108.861-108.861 0-56.586 43.401-103.227 98.662-108.387v108.387c0 5.632 4.566 10.199 10.199 10.199zm89.124 137.201l12.624 12.624c-30.382 19.386-65.325 29.58-101.748 29.58-104.548 0-189.604-85.056-189.604-189.604 0-101.128 79.578-184.018 179.405-189.334v60.475c-66.525 5.217-119.061 61.017-119.061 128.859 0 71.275 57.986 129.26 129.26 129.26 31.974 0 61.268-11.675 83.858-30.978l19.98 19.98-14.714 14.714a10.2 10.2 0 000 14.424zm149.064 90.787c-8.112 8.114-21.314 8.115-29.428 0l-98-98 29.429-29.429 97.999 97.999c8.113 8.115 8.113 21.317 0 29.43z"/><path d="M209.502 164.452c-1.919-5.297-7.768-8.034-13.064-6.117-23.462 8.499-42.982 26.36-53.556 49.002-2.384 5.104-.178 11.174 4.925 13.557a10.16 10.16 0 004.309.961c3.839 0 7.516-2.179 9.248-5.886 8.298-17.771 23.614-31.787 42.02-38.453 5.298-1.919 8.036-7.768 6.118-13.064zm-64.196 65.957c-5.615-.453-10.528 3.749-10.972 9.364a96.339 96.339 0 00-.298 7.565c0 5.633 4.566 10.2 10.2 10.2 5.633 0 10.2-4.566 10.2-10.2 0-1.983.08-3.987.235-5.957.443-5.616-3.749-10.529-9.365-10.972z"/></svg>