<svg xmlns="http://www.w3.org/2000/svg" viewBox="0 0 123.92 56.33"><defs><style>.cls-1{fill:#17425c;}.cls-1,.cls-2,.cls-3,.cls-4,.cls-5,.cls-6,.cls-7{fill-rule:evenodd;}.cls-2{fill:#00911d;}.cls-3{fill:#106f91;}.cls-4{fill:#409cbd;}.cls-5{fill:#00a120;}.cls-6{fill:#3ede4e;}.cls-7{fill:#f60;}</style></defs><title>new logo-header</title><g id="Слой_2" data-name="Слой 2"><g id="Слой_1-2" data-name="Слой 1"><path class="cls-1" d="M36,19.85a8.77,8.77,0,0,0,.44,2.81,7.18,7.18,0,0,0,1.2,2.2,7.49,7.49,0,0,0,1.76,1.57,8.08,8.08,0,0,0,2.15.94,8.73,8.73,0,0,0,4.29.1,7.58,7.58,0,0,0,1.85-.67,6.56,6.56,0,0,0,1.6-1.18,6.2,6.2,0,0,0,1.2-1.73,5.79,5.79,0,0,0,.34-.85l-3.54-1.47a3.11,3.11,0,0,1-.7,1.38,2.92,2.92,0,0,1-1.18.8,4.17,4.17,0,0,1-1.53.26,3.64,3.64,0,0,1-1.6-.34,3.75,3.75,0,0,1-1.21-.91,4.15,4.15,0,0,1-.77-1.34A4.66,4.66,0,0,1,40,19.83a4.89,4.89,0,0,1,.48-2.23,3.51,3.51,0,0,1,1.33-1.47,4,4,0,0,1,2-.52,4.56,4.56,0,0,1,1.48.21,2.83,2.83,0,0,1,1.13.71,3.48,3.48,0,0,1,.76,1.28h0l3.5-1.45a5.5,5.5,0,0,0-.32-.74A5.92,5.92,0,0,0,49.22,14a6.64,6.64,0,0,0-1.61-1.14,7.82,7.82,0,0,0-1.83-.65A8.23,8.23,0,0,0,43.87,12a8.73,8.73,0,0,0-2.33.32,7.74,7.74,0,0,0-2.15.93,7.27,7.27,0,0,0-1.76,1.57A7.12,7.12,0,0,0,36.43,17,9,9,0,0,0,36,19.85Zm44,0a9.05,9.05,0,0,0,.44,2.81,7.18,7.18,0,0,0,1.2,2.2,7.34,7.34,0,0,0,1.77,1.57,7.88,7.88,0,0,0,2.14.94,8.73,8.73,0,0,0,4.29.1,7.44,7.44,0,0,0,1.85-.67,6.56,6.56,0,0,0,1.6-1.18,6.2,6.2,0,0,0,1.2-1.73,5.79,5.79,0,0,0,.34-.85l-3.54-1.47A3.21,3.21,0,0,1,90.56,23a3,3,0,0,1-1.19.8,4.17,4.17,0,0,1-1.53.26,3.64,3.64,0,0,1-1.6-.34A3.75,3.75,0,0,1,85,22.76a4.34,4.34,0,0,1-.77-1.34A4.66,4.66,0,0,1,84,19.83a4.89,4.89,0,0,1,.48-2.23,3.51,3.51,0,0,1,1.33-1.47,4,4,0,0,1,2-.52,4.63,4.63,0,0,1,1.49.21,3,3,0,0,1,1.13.71,3.34,3.34,0,0,1,.75,1.28h0l3.49-1.45a5.5,5.5,0,0,0-.32-.74A5.92,5.92,0,0,0,93.19,14a6.58,6.58,0,0,0-1.6-1.14,8.06,8.06,0,0,0-1.84-.65A8.23,8.23,0,0,0,87.84,12a8.73,8.73,0,0,0-2.33.32,7.56,7.56,0,0,0-2.14.93,7.05,7.05,0,0,0-3,3.78A9.26,9.26,0,0,0,80,19.85ZM65.62,27.54V12.13h-4V17.7H56.81V12.13h-4V27.54h4V21.37h4.78v6.17ZM78.28,12.13H68.2V27.54H78.48V23.86H72.22V21.35h5.62V17.83H72.22v-2.2h6.06v-3.5ZM105.9,27.54h4.56l-4.76-7.73,4.76-7.68H105.9l-3.52,5.79h-1.76V12.13h-4V27.54h4V21.7h1.74Z"/><path class="cls-1" d="M88.29,37.76a4.62,4.62,0,0,1,1.49.22,3,3,0,0,1,1.13.71,1.84,1.84,0,0,1,.61.94h0L95,38.18a1.62,1.62,0,0,0-.18-.4,6,6,0,0,0-1.21-1.65A6.54,6.54,0,0,0,92,35a7.64,7.64,0,0,0-1.84-.66,8.86,8.86,0,0,0-4.24.1,7.48,7.48,0,0,0-3.89,2.5,7.19,7.19,0,0,0-1.21,2.22A9.06,9.06,0,0,0,80.41,42a9,9,0,0,0,.45,2.84,7.25,7.25,0,0,0,1.21,2.21,7.36,7.36,0,0,0,1.78,1.57,9.47,9.47,0,0,0,5.21,1.26c2.83-.1,5.59-1.08,6.55-3.74V41H88.85v3.15h3v1.16c-.89,1.09-3.61,1.64-5.39.56A4.3,4.3,0,0,1,85,44.23a5.42,5.42,0,0,1-.22-3.89,3.5,3.5,0,0,1,3.55-2.58Zm-47.2-3.45h-4v15.4h4V34.31Zm37.37,0h-4v15.4h4V34.31ZM55.29,49.76h2.59V34.31h-4v7.53l-6.63-7.6H44.56V49.71h4V41.77l6.7,8ZM60,46.19a3.5,3.5,0,0,0,.2.65,4.31,4.31,0,0,0,.93,1.43,5.46,5.46,0,0,0,1.41,1,7.16,7.16,0,0,0,1.74.6,9.31,9.31,0,0,0,1.91.2,8.93,8.93,0,0,0,1.87-.2,7.55,7.55,0,0,0,1.71-.61,5.42,5.42,0,0,0,1.41-1,4.4,4.4,0,0,0,1-1.38,4.48,4.48,0,0,0,.35-1.75,5.33,5.33,0,0,0-.32-1.91,3.56,3.56,0,0,0-.9-1.32A4.48,4.48,0,0,0,70,41.07a8.54,8.54,0,0,0-1.69-.48,15.69,15.69,0,0,0-1.89-.25,8.82,8.82,0,0,1-1.27-.21,1.74,1.74,0,0,1-.81-.43,1.1,1.1,0,0,1-.28-.79,1.27,1.27,0,0,1,.2-.71,1.25,1.25,0,0,1,.51-.43,2.17,2.17,0,0,1,.68-.22,4.27,4.27,0,0,1,.7,0,3.31,3.31,0,0,1,1,.15,1.76,1.76,0,0,1,.76.49,1.65,1.65,0,0,1,.38,1l3.59-1.29a4.21,4.21,0,0,0-.2-.63,4.43,4.43,0,0,0-.89-1.42,5.1,5.1,0,0,0-1.34-1,6,6,0,0,0-1.62-.61,7.42,7.42,0,0,0-1.76-.2,7.84,7.84,0,0,0-1.83.2,6,6,0,0,0-1.64.61,5,5,0,0,0-1.32,1,4.59,4.59,0,0,0-.88,1.42A4.87,4.87,0,0,0,60.06,39a4.16,4.16,0,0,0,.32,1.68,3.61,3.61,0,0,0,.85,1.24,4.87,4.87,0,0,0,1.27.85,7.23,7.23,0,0,0,1.53.51,10.2,10.2,0,0,0,1.66.23c.29,0,.6,0,.92.07a3.94,3.94,0,0,1,.93.2,1.67,1.67,0,0,1,.71.47,1.24,1.24,0,0,1,.28.86,1,1,0,0,1-.2.62,1.88,1.88,0,0,1-.54.46,3,3,0,0,1-.76.28,4,4,0,0,1-.85.1,4.43,4.43,0,0,1-.9-.1,3,3,0,0,1-.78-.3,1.55,1.55,0,0,1-.55-.49,1.18,1.18,0,0,1-.21-.7L60,46.19Zm50.4,3.52V34.31h-4v5.57h-4.78V34.31h-4v15.4h4V43.55h4.78v6.16Zm5.83-11.88V49.71h3.9V37.83h3.76V34.31H112.47v3.52Z"/><path class="cls-2" d="M2.76,5.72,2.81,24.8l0,.09A14.62,14.62,0,0,1,7,16.31H7a14.59,14.59,0,0,1,9.17-4.22.94.94,0,0,0,.5.11h.76a14.67,14.67,0,0,1,4.05.56l7.37-6.5C30.61,4.71,26-.49,24.29,1.05L17.83,6.88l1.49-3.26c1-2.1-5.33-5-6.3-2.88L9.66,8.33l0-2.54C9.71,3.48,2.78,3.42,2.76,5.72Z"/><path class="cls-3" d="M6.1,41.06l-6,11.47c-1,2,5.07,5.15,6.1,3.16l6-11.46C13.24,42.24,7.14,39.07,6.1,41.06Z"/><path class="cls-4" d="M5.58,42.06.2,52.37c-.54,1.05,2.24.25,2.73-.66L6.5,45.06C7,44.05,6.48,41.77,5.58,42.06Z"/><path class="cls-5" d="M16.19,12.09A14.59,14.59,0,0,0,7,16.31H7A14.61,14.61,0,0,0,7,36.93H7a14.57,14.57,0,0,0,10.31,4.28h0a14.47,14.47,0,0,0,10.31-4.27h0A15.85,15.85,0,0,0,31,31.72c.52-1.25-1-2.18-2.63-2.66-1.79-.51-3.47-.87-4,.6A6.62,6.62,0,0,1,22.72,32h0a7.57,7.57,0,0,1-5.38,2.25h0a7.62,7.62,0,0,1-5.39-13h0a7.62,7.62,0,0,1,10.79,0h0a7.63,7.63,0,0,1,1.62,2.37c.36.88,2.05.88,3.64.53,1.81-.4,3.5-1.28,3-2.59a14.43,14.43,0,0,0-2.31-4.06v0h0a14.57,14.57,0,0,0-11.23-5.27h-.76A.94.94,0,0,1,16.19,12.09Z"/><path class="cls-6" d="M2.76,5.72c0,7,0,13.94,0,20.9,0,.39,0,.78,0,1.16A14.26,14.26,0,0,0,6.16,36,17,17,0,0,1,5,24.35,14.43,14.43,0,0,1,15,14.3a16.78,16.78,0,0,1,11.49,1.06,14.24,14.24,0,0,0-5.15-2.63,16.15,16.15,0,0,0-6.88-.4l12.09-11c-.86-.57-1.72-.81-2.29-.29l-14,12.56a13.87,13.87,0,0,1-1.53,1.22L15.25.06c-1-.16-1.91,0-2.23.68L5.25,18.22c-.25.55-.53,1-.81,1.57V4.24C3.48,4.49,2.76,5,2.76,5.72Z"/><path class="cls-7" d="M13.17,26.69a4.31,4.31,0,1,0,4.3-4.3A4.31,4.31,0,0,0,13.17,26.69Z"/></g></g></svg>