<?xml version="1.0" encoding="utf-8"?>
<!-- Generator: Adobe Illustrator 21.0.0, SVG Export Plug-In . SVG Version: 6.00 Build 0)  -->
<svg version="1.1" id="Слой_1" xmlns="http://www.w3.org/2000/svg" xmlns:xlink="http://www.w3.org/1999/xlink" x="0px" y="0px"
	 viewBox="0 0 342.4 549.4" style="enable-background:new 0 0 342.4 549.4;" xml:space="preserve">
<style type="text/css">
	.st0{fill:#FFFFFF;}
	.st1{fill:none;stroke:#000000;stroke-width:0.74;stroke-miterlimit:10;}
</style>
<title>ferrari</title>
<path class="st0" d="M324.7,1c9.4-0.1,17.1,7.6,17.2,17c0,0,0,0,0,0v515.4c0,9.4-7.7,17-17.2,17c0,0,0,0,0,0h-308
	c-9.4,0-17.1-7.6-17.2-17c0,0,0,0,0,0V18c0-9.4,7.7-17,17.2-17c0,0,0,0,0,0H324.7 M324.7,7.8h-308C11.1,7.8,6.4,12.4,6.4,18v515.4
	c0,5.7,4.6,10.2,10.3,10.2c0,0,0,0,0,0h308c5.7,0,10.3-4.5,10.3-10.2c0,0,0,0,0,0V18C335,12.4,330.4,7.8,324.7,7.8L324.7,7.8z"/>
<path class="st0" d="M164.7,106.3c-0.1,1.1-0.3,2.1-0.7,3.2c-0.4,1.1-1.6,1.8-1.5,2.5c0.3,1,1,1.8,2,2.2c0.9,0.6,1.8,1,2.8,1.4
	c1.1,0.3,2.5,1.1,2.9,0.2s-0.2-2.1-0.9-3.2c-1.1-1.9-1.7-2.3-3.4-5C165.5,107,165.2,106.4,164.7,106.3"/>
<path class="st0" d="M156,310.7c0.1-0.3,2.8,1.4,4.3,2.2c2.4,1.5,4.8,3.1,7,4.8c2.1,1.6,3.1,2.4,5.2,4.2c2.6,2.2,4,4.1,4.6,3.7
	c1-1.2-1.6-4.7-4-6.6c-2.1-1.6-4.2-3.2-6.4-4.6c-2.3-1.5-2.5-1.9-6-4.3c-2.5-1.7-4.8-3.6-7-5.7l-3.6-2.9l-5.7-4.8L138,291l-4.8-5.3
	c0,0-3.7-4.6-4.3-5.4s-2.3-3.7-3.8-6.1c-1.3-2.1-3.8-5.5-4-5.8c-1.3-1.6-4.4-1-8-3.1c-4.4-2.6-5.4-4.9-5.4-4.9
	c-0.1-0.2-0.2-0.4-0.3-0.5c-0.2-0.2-0.3-0.3-0.5-0.4l-2.3-1.6l-1.3-0.9c-0.7-0.5-1.4-1-2.2-1.4c-1.3-0.6-4-2.2-4-2.2l-5-3.2
	l-2.6-2.1c-0.7-0.5-1.9-1.2-1.9-1.2c-0.3-0.2-0.7-0.3-1-0.4c-0.2,0-1.3-0.1-1.3-0.1c-0.8-0.1-1.5,0.3-1.9,0.9c-1,1.1-0.7,0.5,0.9,7
	c0.6,2.6,0.6,11.6,1.2,14.3c0.9,3,2.1,5.9,3.6,8.6c0.2,0.8,0.4,1.7,0.4,2.5c-0.1,0.9,0,1.7,0.1,2.6c0.8,4.6,7.6,1.6,9.1,8
	c0.8,4.2,0.4,8.5-1,12.6c0,0-1.5,3.1-3.5,3.6s-5.3-4.1-7.6-7.8c-1.9-3.2-3.4-6.5-4.8-9.9c-0.4-1-1-2-1.6-3c-1-1.6-1.8-1.3-3-3.9
	s-0.1-3.6-0.7-5.9c-0.3-1.3-0.6-1.4-1-3.2s-0.9-7.4-0.9-7.4l-0.7-5.3c0,0-0.3-2.4-0.6-3.9c-0.7-3.4-1.2-6.9-1.5-10.3l-0.2-2.1
	l-0.1-2.2c-0.1-1.4,0.3-2.8,1-4.1c0,0,1.1-1.8,1.2-2.2c0.7-1,1.5-2,2.3-2.9c1-0.8,2-1.5,3-2.1c1.1-0.6,2.3-1,3.5-1
	c1.3,0,2.5,0.2,3.8,0.4c3.3,0.4,10.1,2.2,11.8,2.6c1.7,0.4,3.4,1.1,5,1.9c3.8,2.1,4.9,1.2,1.9-1.2c-2-1.6-2.6-2.3-4.2-3.8
	c-1.2-1-2.4-2.1-3.5-3.3c-1-1.2-3.9-5.5-3.9-5.5l-1.9-2.7c-0.4-0.4-0.7-0.8-1.1-1.2c-0.2-0.1-0.6-0.5-0.6-0.5c-0.8,0-1.6,0-2.5-0.2
	c-1.3-0.3-1.8,1.5-1.8,1.5c-1.6,2.9-3.4,5.6-5.5,8.1c-4.5,5-7.7,8.4-9.3,11.1c-2.3,3.7-1.8,7.8-3,9.6c-0.6,0.7-1,1.4-1.4,2.2
	c-1.2,2.9,3,4.5,2.1,7.7c-1.5,5.1-13.5,10.2-15.1,9.4s-0.3-7.8,0.3-10c0.6-2,1.4-4,2.4-5.8c0.3-0.5,0.6-1,0.7-1.6
	c0.1-0.7,0.2-2.2,0.3-3c0.1-0.7,0.2-1.4,0.4-2.2c0.3-0.9,0.7-1.7,1.1-2.6c1.1-2.3,5-7.7,7.8-12.8c1.8-3.4,2.6-5.4,4.5-8.7
	c1.7-3.1,4.6-7.8,4.6-7.8s1.2-2.4,1.8-3.3s1.8-2.6,3-4.4s1.4-3,3-4.4c1-1.1,2.3-1.8,3.7-2.3c2.4-0.8,4.1-0.4,6.6,0.3
	c2.2,0.6,4.3,1.8,6,3.3c1.1,0.9,2,1.9,2.9,3l0.8,1.2l0.5,0.3l1.6,1l3.6,2.4c0,0,8.5,5.8,9,6.1s2,1.6,2.3,1.7s2.6-2.4,7-5.4
	c5.2-3.6,7-3.3,8.7-4.2c1.4-0.8,2.6-1.8,3.7-3c2-2,2-3.1,4.3-5.9c1.3-1.6,2.8-3.1,4.4-4.4c0,0,0.3-0.3,4.4-4.9
	c2.2-2.5,4.2-5.2,5.9-8.1l2.2-4.5c0,0,3.2-6.9,4.3-9.7c0.5-1.2,0.9-2.4,1.1-3.7c0-0.8-0.2-1.5-0.6-2.1c-0.8-1.4-1.6-0.8-3.2-0.4
	c-3,0.6-4.8-0.1-7.8-0.7c-2.7-0.4-4.2-1.3-6.9-1.7s-4.4-0.9-7.2-0.7c-0.6,0.1-1.1,0.2-1.7,0.4c-1.1,0.3-2.2,0.8-3.2,1.3
	c-1.2,0.6-2.4,0.9-3.7,0.9c-0.9,0.1-1.8,0-2.6-0.3c-0.6-0.2-1.1-0.5-1.6-0.9c-0.3-0.2-0.5-0.5-0.7-0.8c0-0.3-0.1-0.3,0.2-0.8
	c0.1-0.3,0.4-0.6,0.7-0.7l1.3-0.3l2-0.5c0.2,0,1.9-0.6,2.6-0.8c0.6-0.2,1.1-0.4,1.6-0.7c0,0,0.5-0.7,0.3-1.2s-1.2-0.5-1.2-0.5
	s-1.4,0.5-1.6,0.6s-2.4,0.8-2.4,0.8s-1.8,0.4-3.2,0.7c-1.1,0.2-2.3,0.4-3.4,0.5l-0.6-0.2c0,0-0.7-0.4-0.8-0.9s-0.2-0.7-0.2-1.2
	c-0.3-1.8-0.7-2.8-0.2-4.6c0.1-0.6,0.4-1.2,0.7-1.8c0.2-0.5,0.5-1,0.8-1.4l1.1-1.8l2.1-3.1c0.6-0.6,1.3-1.2,2.1-1.6
	c1.1-0.7,2.4-1.1,3.8-1.1c1.4-0.1,2.8-0.3,4.1-0.7c1.4-0.3,2.7-0.8,4-1.4c0,0,5.5-2,8.9-3.7c3.5-1.7,5.1-3.6,8.7-5
	c1.3-0.5,2.6-1,4-1.3c0.2-0.1,0.3-0.3,0.4-0.5c0.1-0.6-0.7-0.8-1.4-0.8s-1.8,0.6-2.1,0s1.2-0.8,1.2-0.8s0.6-0.3,0.7-0.7
	c0-0.6-0.9-0.2-1.4-0.2c-1.3-0.2-2.6-0.5-3.8-1c-1.5-0.5-3-0.8-4.5-1c-1.4,0-2.8,0.2-4.1,0.5c-1,0.3-1-0.7-0.6-0.9
	c2.8-1.3,2.9-1.4,4.9-1.5c0.9,0,1.9,0.1,2.8,0.3c0.2,0.1,2.3,0,2.9-0.6s-1.8-0.5-2.9-1s-2.6-0.5-2.6-1.2s0.8-0.3,1.4-0.4
	c0.6-0.1,1.2-0.2,1.8-0.2c1.2-0.2,1.4-0.3,3.2-0.4c1.5,0,3,0.2,4.4,0.6c0,0,2.8,1.2,4.1,1.9c1,0.4,2,0.8,3,1
	c1.2,0.1,2.3-0.1,3.4-0.6c1.5-0.9,0.6-1.5,0.1-2.3c-0.9-1.2-0.9-2.8-0.2-4.1c0.8-1.9,1.3-4.1,1.5-4.3s1.5,1.4,2.2,2.1
	c2.7,2.5,6.3,3.8,9.6,9c0.3,0.4,1.5-0.3,5.4,0.3s7.3,4.8,8.2,5.8c0.5,0.6,1.2,1,2,1l1.9,0.3l6.8,0.1c0,0,3.1-0.6,4.9,0.1
	c1.2,0.5,5.4,3.2,3.5,4.3c-1.3,0.7-2.6-0.9-3.8-1c-1.1,0-2.2,0.1-3.3,0.5c-2.6,0.7-8.3,2.4-6.3,3.1c0.1,0.1,0.3,0.1,0.4,0.1l1,0.2
	c1.4,0.3,2.7,0.7,4,1.2c2.3,0.9,3.4,1.9,5.4,3.1c1.2,0.7,1.7,1.4,3,1.8s2,0,3.2,0.2c1.4,0.2,2.7,0.7,4,1.3c2.2,1.1,3,2.3,5,3.8
	c1,0.7,1.8,0.8,2.6,1.8c0.2,0.2,0.3,0.4,0.4,0.6c0.3,0.9-1.4,0.4-2.4,0.2c-0.8-0.2-1.6-0.6-2.3-1c-1.4-0.6-2-1.4-3.5-1.6
	c-0.9-0.1-1.9-0.1-2.8,0c-1.1,0-1.6,0.2-2.7,0.2c-1.6,0-3.1-0.1-4.7-0.5c-2-0.4-3-1.2-5-1.6c-2.3-0.5-6.3-2.4-5.9-0.5
	c0.2,0.9,2.3,1.7,2.3,1.7s1.5,0.8,2.9,1.4c0.8,0.3,1.5,0.9,2.1,1.5l1,0.7c0,0,1,1.4,2.3,2.9c0.9,0.9,2.2,1.5,3.5,1.5
	c1.4,0.1,2.9,0.3,4.3,0.6c2.1,0.5,4.1,1.3,5.9,2.4c1.3,0.9,2.5,2,3.6,3.1c1.3,1.6,0.6,2.4,0.4,2.5s-0.1,0.1-0.3,0.2
	c-0.7-0.6-1.3-1.3-1.8-2l-1.2-1c-0.8-0.5-1.7-1-2.6-1.3c-1.5-0.5-2-0.2-2-0.2c-1.9,0.5-3.9,0.8-5.9,0.8c-1.5,0-2.9-0.4-4.1-1.2
	l-1.8-1.1c0,0-2.6-2.4-2.7-1.3c-0.1,0.8,1.1,1.6,1.1,1.6s0.8,0.8,1.4,1.4c1,1,1.5,1.6,2.7,2.6c0.5,0.6,1.2,0.9,1.9,1.1
	c0,0,0.6,0.2,0.9,0.2l0.7,0.2l2.3,0.9c1.4,0.6,2.7,1.4,3.9,2.4c0.1,0.1,0.3,0.2,0.5,0.2c0.3,0.1,0.7,0.2,1,0.4c0.2,0,0.6,0,1.7,0.2
	s0.7,0.9,0.7,0.9l-0.2,0.3l-0.9,0.6c-0.6,0.2-1.3,0.3-1.9,0.4c-0.7,0-1.3-0.2-1.9-0.4l-2.4-0.9c0,0-2.4-0.6-3-0.7s-2.7-0.5-3.1-0.6
	c-0.6-0.2-1.2-0.4-1.7-0.6c-0.3-0.2-0.8-0.3-2.1-0.9s-1.8-1.4-3.5-1.9s-2.6-0.6-3.9,0.2c-2.1,1.5,3.2,1.7,5.9,3
	c3.9,1.9,6.1,3.3,7,5.4c0.4,1.1,1.1,2,1.9,2.8c1.5,0.7,2.8,1.7,4,2.8c0.7,0.8,0.8,1.4,1.4,2.2c1.5,1.8,4.4,1.7,5,3.2
	s-2.4,0.8-3.9,0.6c-2.7-0.3-3.4-2.8-6-3.8c-1.4-0.6-2.4-0.6-3.8-1.1c-2.7-0.9-3.9-2.1-6.6-2.9c-1.6-0.5-4.6-2.6-4.2-1
	c0.1,0.3,0.2,0.7,0.4,0.9c0.1,0.2,0.8,1.1,0.8,1.1c0.4,0.5,0.8,1.1,1.3,1.5c1.4,1.1,3,2.1,4.6,3c1.7,1.1,3.3,2.4,4.6,3.9
	c0.4,0.6,0.8,1.2,1.1,1.8c0.4,0.8,0.1,1.1,0.7,2.2c0.3,0.8,0.9,1.5,1.5,2.1c1.8,1.7,3.7,1.4,6,2.3c0.6,0.3,0.7,0.4,1.4,1.1
	s-0.1,1-0.1,1c-1.4,0.4-2.8,0.5-4.2,0.5c-2.1-0.2-3.1-0.8-5.2-1.9c-1.3-0.8-2.5-1.8-3.4-3c-0.2-0.1-0.7-0.7-1.1-1
	c-0.8-0.3-1.5-0.6-2.4-0.8c-0.9-0.3-1.5-0.3-2.4-0.6c-1.3-0.4-2.6-0.9-3.2-1.1c-1-0.4-2.1-0.3-3,0.1c-2,1.2,3.1,2,4.7,3.7
	c0.8,0.9,1.2,1.5,1.9,2.4c0.4,0.6,1,1.2,1.6,1.7c0.4,0.3,0.9,0.5,1.4,0.8c0,0,1.2,0.6,3,1.6c1.5,1,2.8,2.3,3.9,3.8l1.3,1.9l0.8,1.1
	l0.2,0.5l0.3,0.6c0.5,0.6,1,1.1,1.6,1.6c0.7,0.4,0.6,0.8,0.6,0.8s-0.1,0.3-0.6,0.5s-0.7,0.1-1.4-0.1s-1.1-0.8-1.7-1.3
	s-1.3-1.7-2.4-2.4c-0.9-0.4-1.8-0.8-2.7-0.9c-0.5-0.2-1.7-0.9-2.1-1.1s-1.7-0.8-1.7-0.8c-1.2-0.7-2.4-1.2-3.7-1.7
	c-1.3-0.4-0.5,0.4-0.5,0.4c0.6,1,1.4,1.9,2.3,2.6c1.5,1,3.6,1.8,2.9,2.6c-0.5,0.5-1.1,0.3-1.8,0.3c-0.9-0.3-1.8-0.8-2.4-1.5
	c-1-0.5-2-0.9-3-1.1c-2.5-0.8-1.6,0.5-1,1.3c0.4,0.4,0.8,0.8,1.3,1.1l1.7,0.8l0.8,0.2c0,0,0.7,0.1,2.9,0.6c1.3,0.3,2.4,0.8,3.5,1.6
	c0,0,1.2,1.1,2.9,2.4c1.3,0.9,2.7,1.5,4.3,1.7c0.9,0.1,0.9,0.8,0.9,0.8c0.1,0.3,0.1,0.5,0.1,0.8c0,0.2-0.2,0.4-0.4,0.4
	c-0.2,0-0.3,0.1-0.5,0.2c-0.4,0.1-0.8,0.2-1.2,0.3c-1.5-0.1-3-0.2-4.5-0.6c-1.4-0.4-2.7-1.1-3.9-1.9c-1-0.6-2.1-1.1-3.2-1.5
	c-1.1-0.3-2.3-0.3-3.4-0.1c-0.2,0.1-0.9,0.2-2,0.5s0.3,0.8,0.3,0.8l0.8,0.1l2,0.1c1.3,0.2,2.6,0.5,3.8,0.9c1.6,0.7,2.9,1.8,4,3.1
	c0.7,0.7,1.6,1.4,2.4,1.9l0.9,0.6l0.5,0.4l0.1,0.3c0,0,0,0.2-0.1,0.4s-0.4,0.4-0.4,0.4c-0.2,0-0.4-0.1-0.6-0.1
	c-0.2,0-1.5-0.7-2.5-1.1c-0.8-0.5-1.7-0.8-2.6-1.1c-0.8-0.2-1.6-0.3-2.4-0.2c-0.3,0.1-2.3,0.4-3.9,0.5c-1.6,0.1-3.2,0.1-4.8-0.1
	c-2.6-0.3-6.1-2.4-6.6-1.8c-0.9,1.2,1.9,1.6,3.2,2.3c1.6,0.8,3.3,1.5,5.1,2c1.3,0.3,2.5,0.7,3.7,1.2c3,1.4,3.9,3.5,6.3,5.6
	c1.1,1.1,2.6,1.8,4.2,2c1.5,0.2,1.5,0,3.9-0.4s3.9-2.8,4.6-1.9c0.1,0.2,0.1,0.3,0.1,0.6c-0.1,0.2-0.1,0.5-0.3,0.7
	c-0.2,0.3-0.5,0.6-0.7,0.8c-0.9,0.7-1.9,1.3-3,1.7c-1.8,0.7-3.8,1-5.7,0.9c-2.7-0.1-6.5-2.2-6.5-2.2l-2.7-1.1c0,0-1.3-0.6-2.1-0.9
	c-2.3-0.9-3.7-0.8-6.1-1.4c-1.4-0.4-2.4-0.8-3.7-1.1s-0.6,0.2-0.4,0.4c0.7,0.7,1.5,1.3,2.5,1.6c1.4,0.7,2.4,0.5,3.8,1.1
	c1.3,0.6,2.6,1.3,3.9,2.1c0.9,0.6,1.7,1.3,2.4,2.1l2.9,2.5c0,0,0.7,0.6,0.8,0.8c0.3,0.6,0.3,1.2,0.3,1.8c-0.2,1-1,0.3-1,0.3
	l-0.8-0.5L208,234l-1.2-1c-0.9-0.7-1.8-1.4-2.9-1.9c-1.2-0.6-2.6-1-3.9-1.2c0,0-1.9-0.3-1.8,0.3s0.5,0.6,2,1
	c0.9,0.2,1.8,0.6,2.5,1.2c1,0.7,1.9,1.5,2.7,2.4c0.6,0.7,1.1,1.6,1.4,2.5c0.6,0.9,1.2,1.7,2,2.4c1.4,1.4,2.2,0.9,2.1,1.6
	c0,0.4-0.3,0.7-0.7,0.8h-0.5c-0.3-0.1-0.6-0.2-0.9-0.4c-0.7-0.4-1.3-0.8-1.9-1.2c0,0-2.4-1.9-2.6-2.1s-2.5-1.9-2.5-1.9
	s-1.3-0.9-2.3-1.3c-1-0.5-2-0.9-3-1.2c-0.7-0.2-1.3-0.3-2-0.3c-0.9-0.1-1.7-0.3-2.6-0.6c-1.3-0.6-2.4-1.4-3.5-2.3
	c-0.6-0.2-1.2-0.4-1.9-0.5c-0.3,0-0.9,2.7-1.1,4.3c-0.6,6.5,1.1,10.8,3.8,16.7c3.9,8.6,14.6,19.4,14.6,19.4c1.3,0.7,2.6,1.6,3.8,2.4
	c3.2,2.5,8.5,6.1,13.3,10.8c3.3,3.6,6.5,7.3,9.4,11.2c1.7,2.3,3.2,4.8,4.6,7.4c1.3,3.1,2.4,6.2,3.2,9.5c0,0.4,0.1,0.8,0.2,1.2
	c0.1,0.2,0.4,0.5,0.6,0.5l1.9,0.1c1.3-0.1,2.5-0.2,3.7-0.5c2.4-0.8,4.7-1.8,6.9-3c1.7-1,3.3-2.1,4.8-3.4c0,0,0.5-0.4,3.1-3.3
	s4.3-7.2,4.9-8.8s1.1-4.7,1.5-10c0.2-3.6,0.1-7.3-0.3-10.9c0,0-1-7.8-1.6-10.5s-2-7-2-7s-1-3.9-1.3-6.3s-0.4-6.4-0.4-6.4
	c0.1-2.3,0.3-4.6,0.8-6.9c0.7-3.2,1.9-6.2,3.5-9c1.1-1.8,2.3-3.5,3.7-5c2-2.5,4.3-4.7,7-6.4c2.4-1.7,5.4-4.4,6.4-3.8
	s-1.1,2.1-1.8,2.8c-3.2,2.9-5.9,6.3-8.1,10c-1.9,3-3.2,6.4-4,9.9c-0.4,2.3-0.5,4.6-0.3,6.9c0.1,1,0.7,0.7,0.7,0.7
	c3.3-2.6,6.3-5.4,9.2-8.4c3.5-3.9,6.7-10.9,7.9-11c0.8,0,1.2,1.8,1,2.7c-0.3,2.3-1.1,4.5-2.2,6.5c-1.4,2.8-2.6,4-4.5,6.6
	c-1.8,2.2-3.4,4.6-4.5,7.3c-1.4,2.8-1.7,6-1,9c0,0,0.3,2.4,1.4,2.4c1.8-0.1,5.8-5.1,8.3-9.1c1.9-3,2.6-6.4,3.9-8.3
	c1.1-1.6,2.1,2.6,1.6,5.1c-0.6,3-2,5.6-5.3,9.8c-1.8,2.3-2.9,5.1-3,8c0,0-0.3,1.8-0.6,5.6c0,3.3,0.3,6.5,0.9,9.7
	c0.6,2.8,1,5.7,1.2,8.6c0.2,3.7,0.1,12.2-3.4,18.8c-1.3,2.2-2.7,4.3-4.4,6.3c-1.3,1.3-2.7,2.6-4.2,3.7c-2,1.3-4.2,2.5-6.4,3.5
	c0,0-3.1,1.1-3.6,1.2c-0.3,0.1-0.5,0.3-0.7,0.5c0,0,0.3,0.6,0.4,0.9s1,2.4,1,2.4c0.6,1.8,1.1,3.6,1.5,5.5c0.4,2.4-0.1,3-0.4,4.8
	s-1.1,1-1.3,4.4c-0.2,3.1,1.2,4.6,1,8.1c-0.1,1.5-1.8-1.9-2.6-3.4c-1.8-3.1-1.3-8-1.4-9.2c0-1.4-0.2-2.7-0.6-4
	c-0.4-1.7-1.2-3.3-2.3-4.7c-0.9-1.2-1.9-1.9-2.2-1.7s-0.4,0.7-0.4,1c0.2,0.6,0.4,1.2,0.8,1.7c0.2,0.2,1.3,2.3,1.3,2.3
	c0.4,1.6,0.6,3.2,0.7,4.8c0,2.4-0.2,4.7-0.8,7c-0.7,2.4-1.5,4.7-2.6,7c-1.4,2.4-3,4.6-4.8,6.7c-1.7,1.7-3.1,3.6-4.1,5.7
	c-1.7,3.5-0.3,5.1-0.9,5.5s-2.1-2-2.4-3.7c-0.3-1.4-0.2-2.8,0.5-4.1c0.6-1.4,1.2-2.8,2-4.1l2.1-3.6c1.4-2.7,2.5-5.5,3.4-8.4
	c0.4-2.5,0.4-5-0.1-7.4c0,0-0.1-1.3-1-1.2s-1.5,0.8-1.9,1.8c-0.7,1.9,0.3,1.6-0.8,4.8c-0.9,2.5-1.1,2.2-1.6,3.7
	c-0.5,1.5-0.8,3.1-0.8,4.8c0,1.1-0.6,0.6-0.6,0.6c-0.7-1.4-1.1-2.9-1.1-4.5c0-1.2,0.1-2.3,0.2-3.5c0.3-1.9,0.7-3.7,1.1-5.5
	c0.6-2,0.8-4.1,0.8-6.3c-0.2-3-1.3-3.6-1.3-3.6s-0.3-0.4-1.4-0.3s-1.1,2.2-1.1,2.2s-0.4,3-0.8,4.8c-1.3,5.1-3,7.8-6,12.1
	c-2.4,3.3-5.2,6.3-8.3,8.9c-1.8,1.6-7.5,5.8-7.5,5.8l-6.7,4.4c-1.6,1.6-2.9,3.6-3.9,5.7c-1.1,2.6-1.3,5.6-0.5,8.3
	c0.4,1.8,1.2,3.5,2.3,4.9c0.9,1.1,1.5,2.4,1.9,3.8c0.1,0.9,0.2,1.7,0.1,2.6c0.1,0.8,0.1,1.5,0.1,2.3c0,1.4,0.2,2.4-0.6,3.6
	c-0.6,0.7-1.4,1.3-2.2,1.6c-1,0.4-2,0.9-2.9,1.5c-11.4,6.9-15.4,11.3-21.8,18.9c-2,2.5-0.5,2.3-2.7,5.2c-1.3,1.7-4.4,1.7-5.5,3.8
	c-1.5,2.8,3.4,5.6-2.3,8.1c-7.4,3.2-20.1,0.9-20.4-0.1c-0.7-2.7,2.5-5.9,3.6-7.2c5.2-5.7,9.8-5.8,11.5-10.5c0.4-1,0.2-1.9,4.4-4.9
	c2.9-2.1,14.5-10.9,19.5-16.7c1.7-2,3.2-3.3,4-5.5c0.5-1.2,0.2-2.6-0.8-3.5l-2.1-3.4l-4-7.1c0,0-1.7-3.8-2.6-6s-2.7-8.1-2.7-8.1
	c-0.7-2.9-1.2-5.8-1.5-8.7c-0.4-6.2,0.5-9.8,2.1-15.8c2.1-7.8,6.9-11,8.8-18.8c0.6-2.2,0.7-6.1-0.5-5.9s-1.2,3.2-2,5.3
	c-3.1,7.7-7.1,11-9.4,19c-1.4,4.6-2.1,9.3-2.1,14.1c0,3.2-0.1,2.6,0.7,8.1c0.3,1.7,0.8,3.4,1.4,5.1c0.4,1.4,1.6,4.1,1.6,4.1
	c0.9,1.9,1.6,3.9,2.1,5.9c0.2,0.7,0.3,1.4,0.3,2.2c-0.1,1.5,0.1,1.8-0.6,3.1c-0.9,1.6-0.3,2.6-3.1,3.2c-2.5,0.5-7.6-1.1-7.6-1.1
	s-20.9-6.3-34.3-4.5c-2.6,0.4-4.1,1.3-6.7,1.3c-2.4,0-3.7-1.9-6.1-1.2c-0.5,0.1-0.6,0.5-1.1,0.8c-3.5,2.5-0.8,6.5-10.2,4.4
	c-5.7-1.3-12.7-4.8-11.4-7c1.6-2.9,3.8-3.4,8.3-5.3c4.8-2,12.1-1.4,13.5-1.5c1.8-0.1,4.2-1.4,7.4-1.4c5.4-0.1,6.4,0.6,6.4,0.6
	l9.2,0.8l17.5,0.2c0,0,3.1-0.2,4.4-0.5s2.3-2.7,2.9-3.9c0.4-0.9,0.4-2,0-2.9l-0.5-0.8l-1.7-2.7l-3.1-5.2l-3.4-6.8
	c0,0-2.2-4.8-3.4-7.9c-1.1-2.6-2-5.3-2.7-8.1c-0.8-2.8-1.3-5.7-1.4-8.6C155.2,316.8,155,313.9,156,310.7"/>
<path class="st0" d="M269.9,304.4c3.7-4.7,4-9.1,4.3-15.3c0.2-4.5-1.5-11.5-1.5-11.5l-0.2-0.5c0,0-0.6-0.8-1,0.3
	c0.1,1,0.2,1.8,0.2,1.8l0.2,8.9c-0.3,3.1-0.9,6.2-1.8,9.2c-2.6,7.8-9.5,11.3-10.5,14.2C257.8,316.1,265.5,310.1,269.9,304.4"/>
<path class="st0" d="M231.2,318.9c-0.9,0.3-1.5,1-1.5,1.9c0,1.5,0.4,2.8,0.3,4.6c0,2.3-2.1,4.9-0.8,5.8c2.3,1.5,4.3-8.9,3.6-10.5
	S231.4,318.9,231.2,318.9"/>
<path class="st0" d="M205.2,391c-0.4-0.1-0.9-0.1-1.3,0.1c-0.5,0.2-0.8,0.7-0.8,1.2c0,0-0.2,0.9,0.5,1s1.8-1.5,1.8-1.7
	C205.4,391.3,205.3,391.1,205.2,391"/>
<path class="st0" d="M180.6,408.4c0,0-0.2,0.3,0,0.4s0.6,0,0.6,0s4.2-3.3,6.7-5.6c2.6-2.5,6.5-6.8,6.5-6.8c0.2-0.2,0.2-0.4,0-0.6
	c-0.3-0.3-1,0.1-1.6,0.4c-0.4,0.2-0.9,0.5-1.2,0.8c-0.4,0.3-1.6,1.6-1.6,1.6l-3.3,3.2l-2.1,2l-2,1.9l-0.8,1l-0.3,0.5
	c-0.1,0.1-0.3,0.4-0.3,0.4s-0.3,0.3-0.3,0.4s-0.1,0.2-0.1,0.3C180.7,408.2,180.7,408.3,180.6,408.4"/>
<path class="st0" d="M173.3,413.2c-0.4-0.2-0.8-0.2-1.2,0c-0.6,0.4-1.1,0.9-1.6,1.5c-0.1,0.1-0.5,0.7-0.2,1.1s1.2-0.2,1.3-0.3
	c0.5-0.3,0.9-0.6,1.3-1C173.5,414.3,173.6,413.7,173.3,413.2"/>
<path class="st0" d="M159.3,427.4c0,0-0.6-1.1-1.4-0.6c-0.8,0.4-1.5,0.9-1.9,1.6c-0.1,0.2-0.9,1.2-1,1.4s-0.9,1.7,0.7,1.8
	c2.7,0.1,0.9-1.6,1.9-2.3c0.8-0.5,2.2-0.4,2.2-0.9C159.7,428.1,159.6,427.7,159.3,427.4"/>
<path class="st0" d="M111.3,370.7c0,0-1.6,0.4-1.7,1s0.9,1.1,1.1,1.2s0.6,0.5,1.6-0.3s1-1.3,1-1.3S114,370.5,111.3,370.7"/>
<path class="st0" d="M137.7,369.9c0,0,0-0.6-1.2-0.5s-1.4,0.3-1.4,0.5s0.1,0.5,1.1,0.6S137.7,370.4,137.7,369.9"/>
<path class="st0" d="M162.7,370.6c-0.9,0-1.8,0-2.7,0.1c-2,0.1-4,0.1-5.9-0.1c-3.2-0.2-8.3-1-8.3-1s-0.6-0.2-0.9,0.3
	s0.6,1.3,1.4,1.5c2.3,0.9,4.7,1.3,7.1,1.1c1.6,0,2.4-0.1,4-0.2c2-0.1,2.9,0.1,5-0.4C162.9,371.7,163.5,370.6,162.7,370.6"/>
<path class="st0" d="M176.7,366.4c0,0-0.4-0.5-1.3-0.1c-0.6,0.3-1.1,0.8-1.4,1.4c0,0-0.4,0.6,0.5,0.5c0.6-0.1,1.2-0.3,1.8-0.6
	C176.6,367.5,177.2,366.9,176.7,366.4"/>
<path class="st0" d="M164.5,197.6c3.9-3.8,7.4-8.2,10.2-12.9c2.5-4.4,3.6-14.6,1.5-12.1c-1,1.2-2.2,6.4-4,10.4
	c-2.5,4.7-5.3,9.2-8.4,13.5C163.8,196.5,162.6,199.2,164.5,197.6"/>
<path class="st0" d="M140.8,211.8c-0.4,0.3-0.5,0.8-0.4,1.3c0.3,0.8,1.5,0.2,1.5,0.2c1.8-0.6,3.7-1,5.6-1.1c2.3,0,4.6,0.3,6.9,0.7
	c0,0,1.9,0.5,2.2,0.6s1.4,0.6,1.5,0.7s1.1,0.6,1.7,0.1s-3.5-4.2-7.6-4.7c-3.9-0.6-7.9,0.1-11.3,2L140.8,211.8"/>
<path class="st0" d="M112.6,235.9c0.5,0.4,2.8-3.9,4.7-6.7c1.4-2,3.9-5.4,3.9-5.4s1.2-1.6-0.8-0.7c-2,1.2-3.5,2.9-4.5,5
	C114.6,230.7,112.1,235.4,112.6,235.9"/>
<path class="st0" d="M96.8,216.9c0,0-0.5,1.7,1.5,3.8s2.5,3.9,3.8,2.6c0.3-0.4-1.2-3.2-2-4s-1.4-1.4-1.4-1.4l-0.5-0.4l-0.7-0.4
	l-0.4-0.1C97,216.9,96.9,216.9,96.8,216.9"/>
<path class="st0" d="M90.4,200.8c0,0-2.1,0.4-2.7,1.4s2.5,0.4,2.5,0.4s2,0.1,2-0.6S92,201.1,90.4,200.8"/>
<path class="st0" d="M56.4,257.1c-1.1-0.3-1.3,1.8-1.4,2.5s0.5,2.1,0.8,2.1c0.6-0.5,1-1.2,1.2-2C56.9,259,57.4,257.4,56.4,257.1"/>
<path class="st0" d="M91.7,299c0,0-2-1.5-2.3-0.9s1.6,3.3,1.6,3.3c0.3,0.5,0.9,0.7,1.5,0.5c0.5-0.3,0.7-0.9,0.6-1.4
	C93.1,300.5,92.5,299.2,91.7,299"/>
<path class="st0" d="M77,253.7c-0.3-0.1-0.6,0.1-0.7,0.4c0,0,0,0,0,0c-0.2,0.9-0.3,1.8-0.3,2.8c0,1.1,0.1,2.3,0.2,3.4
	c0.1,1.1,0.3,2.1,0.6,3.1c0.4,1.1,0.9,2.1,1.6,3.1c0,0,0.4,0.9,1,0.9s0.4-0.7,0.4-0.7s-1.6-6.5-1.7-7.1c-0.2-2.2-0.2-4.8-0.2-4.8
	v-0.4C77.9,254,77.5,253.6,77,253.7C77.1,253.7,77.1,253.7,77,253.7"/>
<path class="st0" d="M79.5,233.9c0,0-0.9-0.2-1.7,1.6s-0.7,2.5-0.6,2.5s0.7,0.1,1.8-1.6s0.8-2.2,0.8-2.2S79.7,233.9,79.5,233.9"/>
<path class="st0" d="M104.3,251.8c0,0,1.1,1.6-1,1.3s-6.5-3.8-8.2-4.8s-4.7-1.2-3.4-2.3c0.2-0.2,0.3-0.4,0.6-0.4
	c0.6,0.1,1.1,0.3,1.6,0.5c0.1,0,3.1,1.3,3.3,1.3c1,0.5,2.1,1,3.1,1.5c1.2,0.7,3.2,2.1,3.2,2.1L104.3,251.8"/>
<path class="st0" d="M162,301.5c0.6,1.8-6.6-3.8-10.4-6.7c-10.1-7.8-22.5-23.8-21-25.2c1.3-1.2,6.4,6.2,13.8,14.2
	C152.4,292.4,161.6,300.4,162,301.5"/>
<path class="st0" d="M191.8,293.8c-2.2,2.4-3,5.4-1.7,7.6s1.6-3.2,3-4.8c1.2-1.4,1.9-1.2,3.9-2.6
	C200.3,291.8,194.6,290.8,191.8,293.8"/>
<path class="st0" d="M179.1,243.4c-1.5-0.3-1.5,2.1-1.3,3.7c1,7.3,4.3,13,8.7,18.3c2.7,3.3,10,9,10.9,8.1c0.3-0.3-7-6-11.6-13.2
	c-3.3-5.1-5-9.5-5.5-13.7C180.3,246,180.4,243.6,179.1,243.4"/>
<path class="st0" d="M150.7,134.6c-2.9,1.4-5.9,2.5-9,3.4c0,0-0.3,0.6,0.5,0.5c4.9-0.4,6.8-1,9.4-2.2s4.5-4.3,4.5-4.3s1.1-2-0.9-0.4
	C153.8,132.8,152.3,133.7,150.7,134.6"/>
<path class="st0" d="M190.6,122c-0.6-0.1-1.3-0.1-1.9,0.2c-0.8,0.5-0.5,0.8-0.5,0.8c0.6,0.4,1.3,0.8,2,1c0.8,0.1,2.6,0.9,2.6,0.3
	c-0.3-0.8-0.8-1.5-1.4-2C191.1,122.2,190.9,122.1,190.6,122"/>
<path class="st0" d="M171.8,156.5c0.2,0.4,3.6-0.5,4.8-1.2c1-0.6,1.4-2.5,1.4-2.5s0.3-1.9-0.2-1.1
	C176,154.7,171.6,156.1,171.8,156.5"/>
<path class="st0" d="M171.7,147.9c1.4-2.6-3.7,2.7-6.3,4.1c-1.6,0.8-4.1,1.9-4.1,1.9s-0.7,0.9,0.3,0.8s3.4,0.8,5.3-0.8
	c0.9-1.1,1.7-2.2,2.5-3.3C170.3,149.8,171.1,148.9,171.7,147.9"/>
<path class="st0" d="M170.9,158.9c0.1,0.4,5.8,0.3,7.2-0.1c1.1-0.3,1.7-2.3,1.7-2.3s0.7-1.7,0.1-1.2
	C177.4,158,170.8,158.5,170.9,158.9"/>
<path class="st0" d="M79.6,211c0,0-0.9-0.3-1.9,1.3s-5.8,8.9-5,9.9c1,1.3,5.2-6.5,6.4-7.9c0.8-0.8,1.1-1.9,0.8-3
	C79.9,211.3,79.9,211,79.6,211"/>
<path class="st0" d="M183.8,342c-0.5,2.4,0.1,7.4,0.9,8.3c2,2.5,0.8-3.8,1.1-6c0.2-1.7,0.7-3.4,1.5-4.9
	C189.2,335.5,184.9,336.9,183.8,342"/>
<path class="st0" d="M166.4,132c-1,0-1.9,0.3-2.8,0.7c-0.7,0.3-1.2,0.9-1.6,1.6c-0.1,0.3-0.2,0.7-0.1,1.1c0.4,0.8,2.1-0.4,3.3,0
	c0.9,0.3,1.6,0.8,2.2,1.5c0.6,0.8,1.8,1.9,2.5,1.2s0.5-2.2,0.5-2.2s-0.8-2.6-1.9-3.3C167.8,132.3,167.1,132.1,166.4,132"/>
<path class="st0" d="M140.2,150c0,0-0.9,0.1-0.7,1.2s0.8,0.9,0.8,0.9s1.8-0.8,1.7-1.9S140.2,150,140.2,150"/>
<path class="st0" d="M127.4,144.3c-0.7,0.1-1.3,0.6-1.6,1.2c-0.4,0.8-0.7,1.6-1,2.4c0,0-0.3,1.6,0.2,2s1.2-1,2-1.6
	c0.5-0.4,0.8-0.5,1.3-0.9c0.7-0.5,1.8,0.1,1.7-1.3C129.8,145,128.7,144.2,127.4,144.3"/>
<path class="st0" d="M170.3,130.5c0,0-2.6-0.4-2.5,0.6c0.1,1,1.4,0.4,2.3,0.7c0.8,0.2,1.5,0.6,2.1,1.1c0.5,0.4,0.4,1.2,1,1.3
	c0.8,0,0.7-0.3,0.7-0.3c-0.3-1.1-0.9-2-1.8-2.8C171.6,130.7,171,130.5,170.3,130.5"/>
<path class="st0" d="M193,138.2c-0.1,0.5-0.3,1.1-0.5,1.6c0,0-0.6,2.4,1.8,1.5c1-0.3,2-0.8,2.9-1.4c1.7-0.8,1.7-0.4,3-0.3
	c0.5,0,0.9,0,1.4-0.1c0.6-0.1,0.3-0.8-0.9-1.1c-1.6-0.3-3.2-0.4-4.8-0.3C194.8,138.2,193.4,137,193,138.2"/>
<path class="st0" d="M194.1,129.3c-0.6-0.1-1.3-0.1-1.9,0.2c-0.8,0.5-0.5,0.9-0.5,0.9c0.6,0.5,1.3,0.8,2,1c0.8,0.1,2.6,0.9,2.6,0.3
	c-0.3-0.8-0.8-1.5-1.4-2C194.6,129.5,194.4,129.4,194.1,129.3"/>
<path class="st0" d="M198.4,146c-0.7-0.1-1.4,0-2,0.2c-0.8,0.4-0.6,0.8-0.6,0.8c0.7,0.5,1.4,0.8,2.1,1c0.9,0.1,2.8,0.9,2.7,0.3
	s-1.2-1.6-1.5-1.9C198.9,146.3,198.7,146.1,198.4,146"/>
<path class="st0" d="M198.7,152.1c-0.7-0.2-1.5-0.1-2.1,0.2c-0.9,0.5-0.6,0.9-0.6,0.9c0.7,0.5,1.4,0.9,2.3,1.1c0.9,0.1,3,1,2.9,0.3
	c-0.3-0.9-0.9-1.6-1.6-2.2C199.3,152.3,199,152.2,198.7,152.1"/>
<path class="st0" d="M199.3,158c-0.8-0.2-1.6-0.1-2.3,0.3c-0.9,0.6-0.6,1.1-0.6,1.1c0.7,0.6,1.5,1,2.4,1.3c1,0.2,3.2,1.1,3.1,0.4
	c-0.4-1-1-1.8-1.8-2.5C199.9,158.3,199.6,158.1,199.3,158"/>
<path class="st0" d="M199.2,165.3c-0.8-0.2-1.6-0.1-2.3,0.3c-0.9,0.6-0.7,1-0.7,1c0.7,0.6,1.6,1,2.5,1.3c1,0.2,3.2,1.1,3.1,0.4
	c-0.4-1-1-1.8-1.7-2.5C199.8,165.5,199.5,165.4,199.2,165.3"/>
<path class="st0" d="M198.2,179.6c-0.8-0.2-1.6-0.1-2.3,0.3c-0.9,0.6-0.6,1-0.6,1c0.7,0.6,1.6,1,2.4,1.3c1,0.1,3.2,1.1,3.1,0.4
	c-0.4-1-1-1.8-1.8-2.5C198.8,179.8,198.5,179.6,198.2,179.6"/>
<path class="st0" d="M199.1,172.4c-0.9-0.2-1.8-0.1-2.7,0.3c-1.1,0.7-0.7,1.2-0.7,1.2c0.8,0.7,1.8,1.2,2.8,1.5
	c1.2,0.2,3.7,1.3,3.6,0.4c-0.4-1.1-1.1-2.1-2-2.9C199.9,172.7,199.5,172.5,199.1,172.4"/>
<path class="st0" d="M197.5,186c-0.6-0.1-1.3-0.1-1.9,0.2c-0.8,0.5-0.5,0.9-0.5,0.9c0.6,0.5,1.3,0.8,2,1.1c0.9,0.1,2.6,0.9,2.6,0.3
	c-0.3-0.8-0.8-1.5-1.4-2C198,186.3,197.8,186.1,197.5,186"/>
<path class="st0" d="M196.4,192.2c-0.5-0.1-1.1,0-1.6,0.2c-0.6,0.4-0.4,0.7-0.4,0.7c0.5,0.4,1.1,0.7,1.7,0.9
	c0.7,0.1,2.2,0.8,2.1,0.2c-0.3-0.6-0.7-1.2-1.2-1.7C196.9,192.4,196.7,192.2,196.4,192.2"/>
<path class="st0" d="M195.1,197.8c-0.5-0.1-1,0-1.4,0.2c-0.6,0.3-0.4,0.6-0.4,0.6c0.4,0.4,1,0.6,1.5,0.8c0.6,0.1,2,0.7,1.9,0.2
	c-0.2-0.6-0.6-1.1-1.1-1.5C195.5,198,195.3,197.9,195.1,197.8"/>
<path class="st0" d="M193.8,202.4c-0.5-0.1-1-0.1-1.4,0.1c-0.6,0.4-0.4,0.6-0.4,0.6c0.4,0.4,1,0.6,1.5,0.8c0.6,0.1,2,0.7,1.9,0.2
	c-0.2-0.6-0.6-1.1-1.1-1.5C194.2,202.6,194,202.5,193.8,202.4"/>
<path class="st0" d="M192.2,207.8c-0.4-0.1-0.8,0-1.2,0.1c-0.5,0.3-0.3,0.5-0.3,0.5c0.4,0.3,0.8,0.5,1.2,0.6
	c0.5,0.1,1.6,0.6,1.6,0.2c-0.2-0.5-0.5-0.9-0.9-1.2C192.5,207.9,192.3,207.8,192.2,207.8"/>
<path class="st0" d="M190.2,212.8c-0.3-0.1-0.7,0-1,0.1c-0.4,0.3-0.3,0.5-0.3,0.5c0.3,0.2,0.6,0.4,1,0.5c0.4,0.1,1.4,0.5,1.3,0.2
	c-0.2-0.4-0.4-0.8-0.7-1.1C190.5,212.9,190.3,212.8,190.2,212.8"/>
<path class="st0" d="M188.3,217.5c-0.3-0.1-0.7,0-1,0.1c-0.4,0.2-0.3,0.4-0.3,0.4c0.3,0.2,0.6,0.4,1,0.6c0.4,0.1,1.4,0.5,1.3,0.2
	c-0.2-0.4-0.4-0.8-0.7-1.1C188.5,217.6,188.4,217.6,188.3,217.5"/>
<path class="st0" d="M59.5,241.8c0,0-1,1.9-0.5,3s1.8-1.7,1.8-1.7s1.4-2.7,0.8-3.2S60.7,240.7,59.5,241.8"/>
<path class="st0" d="M199.5,488.7V485c0-8.5,4.3-10.2,16.8-10.2c11.5,0.1,15.6,1.5,15.6,8.8v28.3h4.3v6.4H208
	c-5.9,0-9.8-4.1-9.8-9.1v-5.7c0-4.9,2.5-9.2,11.4-9.3h11v-8.6c0-4.5-0.3-5-4.8-5l0,0c-5.4,0-5.8,0.7-5.8,5v3.2L199.5,488.7
	 M212.6,498.9c-2.2,0-3.5,1.8-3.5,4v5.5c0,2.2,0.9,4,3.5,4h4c2.2,0,4-0.7,4-4v-9.5H212.6z"/>
<path class="st0" d="M172.7,485.4v-9.9H157v5.9h4.2v30.4H157v6.4h19.7v-6.4h-4v-16.3c0-1.5,9.3-13.2,9.3-11.9v16.2h10.9v-18.2
	c0-4.2-2.7-6.9-7.7-6.9C179.2,474.8,175.2,482.2,172.7,485.4"/>
<polyline class="st0" points="298,511.8 298,475.5 282,475.5 282,481.4 286.5,481.4 286.5,511.8 282,511.8 282,518.2 302.2,518.2 
	302.2,511.8 298,511.8 "/>
<path class="st0" d="M132.2,485.4v-9.9h-15.7v5.9h4.2v30.4h-4.2v6.4h19.7v-6.4h-4v-16.3c0-1.5,9.3-13.2,9.3-11.9v16.2h10.9v-18.2
	c0-4.2-2.7-6.9-7.7-6.9C138.8,474.8,134.8,482.2,132.2,485.4"/>
<path class="st0" d="M110.5,504.3h-11v3.2c0,4.3-0.7,4.5-6.1,4.6h-0.1c-6.2,0-5.8-0.6-5.8-4.6v-7.6h23v-16.5c0-6-4.5-8.5-16.4-8.5
	h-1.8c-12.8,0.1-16.3,3-16.3,10.4v24.1c0,8.1,4.8,9.5,16.5,9.8h1.3c12.8-0.3,16.6-1.2,16.6-8.8L110.5,504.3 M87.7,484
	c0-2.2,0.7-3.4,3.2-3.4h4.8c2,0,3.1,0.9,3.1,2.5v12.4H87.7V484z"/>
<line class="st1" x1="292.2" y1="466.8" x2="292.2" y2="459.1"/>
<path class="st0" d="M256.2,485.4v-9.9h-15.7v5.9h4.2v30.4h-4.2v6.4h19.7v-6.4h-4v-16.3c0-1.5,9.2-13.2,9.2-11.9v16.2h10.9v-18.2
	c0-4.2-2.7-6.9-7.7-6.9C262.8,474.8,258.8,482.2,256.2,485.4"/>
<polyline class="st0" points="62.4,497.5 62.4,491.8 56.3,491.8 56.3,511.9 66.9,511.9 66.9,518.2 35.7,518.2 35.7,511.9 44,511.9 
	44,466.8 37.5,466.8 37.5,459 280.1,459 280.1,466.8 56.3,466.8 56.3,484.9 62.4,484.9 62.4,479.5 69.5,479.5 69.5,497.5 
	62.4,497.5 "/>
<rect x="286.3" y="458.7" class="st0" width="11.6" height="7.6"/>
</svg>
