<?xml version="1.0" encoding="utf-8"?>
<!-- Generator: Adobe Illustrator 21.0.0, SVG Export Plug-In . SVG Version: 6.00 Build 0)  -->
<svg version="1.1" id="Слой_1" xmlns="http://www.w3.org/2000/svg" xmlns:xlink="http://www.w3.org/1999/xlink" x="0px" y="0px"
	 viewBox="0 0 583 82.8" style="enable-background:new 0 0 583 82.8;" xml:space="preserve">
<style type="text/css">
	.st0{fill:#FFFFFF;}
</style>
<title>marella</title>
<g id="Слой_2">
	<g id="Layer_1">
		<polygon class="st0" points="330.7,82.8 330.7,69.1 292.6,69.1 292.6,46.9 321.3,46.9 321.3,33.7 292.6,33.7 292.6,13.7 
			330.7,13.7 330.7,0 277.9,0 277.9,82.8 		"/>
		<polygon class="st0" points="359.2,0 359.2,82.8 414,82.8 414,69.1 373.8,69.1 373.8,0 		"/>
		<polygon class="st0" points="434.7,0 434.7,82.8 489.5,82.8 489.5,69.1 449.4,69.1 449.4,0 		"/>
		<path class="st0" d="M171.2,82.8L135.8,0.6c-0.1-0.4-0.6-0.7-1-0.6c-0.3,0.1-0.5,0.3-0.6,0.6L95.6,82.8h14.7l8.7-18.5h29.7l8,18.5
			H171.2z M123.7,51.5l10.8-23l9.9,23H123.7z"/>
		<path class="st0" d="M583,82.8L547.6,0.6c-0.1-0.4-0.6-0.7-1-0.6c-0.3,0.1-0.5,0.3-0.6,0.6l-38.6,82.2h14.6l8.7-18.5h29.7l8,18.5
			H583z M535.5,51.5l10.8-23l9.9,23H535.5z"/>
		<path class="st0" d="M76.6,0.5c-0.4,0-0.9,0.4-1.2,0.8L37.9,42.2L2,1.3C1.7,0.9,1.3,0.5,0.9,0.5C0.4,0.5,0,0.8,0,1.3c0,0,0,0,0,0
			v81.5h14.1V34.5l23.8,27.1l24.8-27.1v48.3h14.8V1.3C77.5,0.8,77.1,0.5,76.6,0.5C76.6,0.5,76.6,0.5,76.6,0.5z"/>
		<path class="st0" d="M251.8,82.8L233.1,49c13.1-4.8,19.8-19.4,15-32.5C244.4,6.6,234.9,0,224.3,0H191v82.8h14.6V50.5h12.6
			l17.9,32.3H251.8z M205.7,14.1h18c6.5,0,11.8,5.3,11.8,11.8s-5.3,11.8-11.8,11.8c0,0,0,0,0,0h-18V14.1z"/>
	</g>
</g>
</svg>
