<?xml version="1.0" encoding="utf-8"?>
<!-- Generator: Adobe Illustrator 21.0.0, SVG Export Plug-In . SVG Version: 6.00 Build 0)  -->
<svg version="1.1" id="Слой_1" xmlns="http://www.w3.org/2000/svg" xmlns:xlink="http://www.w3.org/1999/xlink" x="0px" y="0px"
	 viewBox="0 0 254 124.1" style="enable-background:new 0 0 254 124.1;" xml:space="preserve">
<style type="text/css">
	.st0{fill:#FFFFFF;}
</style>
<title>omega</title>
<g id="Слой_2">
	<g id="Слой_1-2">
		<path class="st0" d="M98.5,9.4c12.6-12,34.2-12.6,47.7-1.7c7.3,5.8,11,15,9.9,24.3c-1.1,9.6-7.2,18-15.1,23.3c4,0.2,8,0.1,12,0.1
			c1.6-2,2.5-5.6,5.8-4.8c-1.7,3.3-3.4,6.6-5.2,9.8c-8.1-0.1-16.2,0.2-24.2-0.2c5.1-4.5,10.3-9.2,13.5-15.3
			c5.8-10.5,5.9-25-2.4-34.2c-7.9-9.2-23.5-10-32.4-1.7c-5.7,4.9-8.6,12.7-8.4,20.1c0.2,8.3,3.4,16.3,8.9,22.6
			c2.6,3.1,5.8,5.6,8.7,8.5c-8.1,0.4-16.1,0.1-24.2,0.1c-1.7-3.3-3.4-6.5-5.1-9.8c3.4-0.9,4.2,3,5.9,5c3.9,0,7.9,0,11.8,0
			c-6.2-4.6-11.6-10.9-13.8-18.4C88.5,27.6,91.1,16.4,98.5,9.4z"/>
		<path class="st0" d="M228.2,71.8c8.8,16.8,17.1,33.8,25.8,50.5v0.3c-2.7,0-5.4,0-8.1,0c-1.6-3.3-3.3-6.6-4.9-9.8
			c-8.4,0-16.9,0-25.3,0c-1.7,3.3-3.4,6.6-5,9.9c-2.8,0-5.5,0-8.3,0C211.1,105.8,219.6,88.8,228.2,71.8 M219.1,105.7
			c6.1,0.2,12.2,0.1,18.3,0.1c-3-6-6-12-9.2-17.9C225.2,93.8,222.3,99.8,219.1,105.7L219.1,105.7z"/>
		<path class="st0" d="M2.9,87c5.3-10.6,18.8-16.2,30-12.1c12.1,3.7,19.5,17.5,16.4,29.7c-2.6,11.3-13.8,19.9-25.4,19.1
			C11.4,123.5,0.5,112.4,0,99.9v-2.4C0.2,93.9,1.2,90.3,2.9,87 M19.3,81.5c-11,3.3-15.6,17.9-9.1,27.2c5.2,8.6,18.1,10.5,25.8,4.2
			c7.8-5.9,9-18.3,2.8-25.8C34.1,81.4,26.3,79.2,19.3,81.5L19.3,81.5z"/>
		<path class="st0" d="M51.6,122.5c5.6-16.2,9.9-32.8,15.7-48.8c4.7,10.8,9.4,21.6,13.8,32.5c4.8-11,9.6-21.9,14.1-33
			c5.4,16.4,10.4,33,15.6,49.4h-7.5c-3.2-9.7-5.9-19.4-9.2-29.1c-4.1,10.3-8.6,20.4-13,30.5c-4.2-10.2-8.6-20.3-13-30.4
			c-2.9,9.7-6,19.2-8.9,28.9C56.7,122.7,54.2,122.6,51.6,122.5z"/>
		<path class="st0" d="M171.9,74.4c9.9-2.9,20.9,1.6,26.9,9.7l-5.9,4.3c-4.7-6.8-13.4-9.5-21.1-6.6c-8.6,3.1-13.3,13.4-10.6,22
			c2.2,7.9,9.6,13.3,17.8,12.8c7.5-0.1,14.3-5.7,16.4-12.8c-5.6,0-11.2,0-16.9,0c0-2.3,0-4.7,0-7c8.2,0,16.4,0,24.6,0
			c0.3,7.3-2.3,14.8-7.7,19.8c-6.6,6.5-16.2,8.8-25,6c-13.2-4.3-20.4-18.4-16.1-31.6c2.6-8.1,9.2-14.3,17.4-16.5L171.9,74.4z"/>
		<path class="st0" d="M116.9,74.6c9.8,0,19.5,0,29.3,0c0,2.3,0,4.7,0,7c-7.3,0.1-14.6,0-21.9,0c0,4.5,0,9,0,13.5
			c7.1,0,14.2,0,21.2,0c0,2.3,0,4.7,0,7c-7.1-0.1-14.2,0-21.3,0c0,4.5,0,9,0,13.5c7.3,0,14.6-0.1,21.9,0c0,2.3,0,4.6,0,7
			c-9.8,0.1-19.5,0.1-29.3,0C116.9,106.6,116.9,90.6,116.9,74.6z"/>
	</g>
</g>
</svg>
