<?xml version="1.0" encoding="utf-8"?>
<!-- Generator: Adobe Illustrator 21.0.0, SVG Export Plug-In . SVG Version: 6.00 Build 0)  -->
<svg version="1.1" id="Слой_1" xmlns="http://www.w3.org/2000/svg" xmlns:xlink="http://www.w3.org/1999/xlink" x="0px" y="0px"
	 viewBox="0 0 1000 420.6" style="enable-background:new 0 0 1000 420.6;" xml:space="preserve">
<style type="text/css">
	.st0{fill:#FFFFFF;}
</style>
<title>zara</title>
<g id="Слой_2">
	<g id="svg817">
		<path id="path815" class="st0" d="M948.7,408.2L800.5,0.3L800.5,0h-2.9L767,83.8l-55.5,152.6l-0.1-0.1
			c-19.3-17-46.4-27.6-80.6-31.6l-10.4-1.1l10.3-1.3c56.4-10.1,94.3-45.8,94.3-88.7c0-58.9-55.4-99.9-134.7-99.9h-165v3h47.9v304.1
			L356.8,0.3L356.7,0h-2.9l-30.5,83.8L205.6,407.1l-0.7,0.1c-2,0.3-4,0.5-6,0.6c-3,0.2-5.9,0.4-8.9,0.4H71.2l226-391.5l1.7-3H22.5
			v121.2h2.9c0.5-59,34.9-118.2,110.8-118.2h91.6L0,411.1h306.8v-116h-2.9c-0.4,51.4-29.5,100.2-92.9,111.3l-2,0.3L257.2,274h135.2
			l48.7,134.1H393v2.9h188.6v-2.9h-48.3V205.8h55.7c56.7,0,89.2,25.3,89.2,69.4v35.9c0,4,0.3,9.7,0.6,14.6v0.2l-29.9,82.2h-39.1v2.9
			h81v-2.9h-38.7l27.3-74.9c0.1,0.7,0.1,1.2,0.1,1.2l0.8,6.8l0.7,4.5c4.5,27.6,15.1,47.9,31.4,60.3l2.3,1.7
			c12.4,8.6,27.7,13,45.7,13c23.8,0,39.7-5.9,52.7-19.9l-1.7-1.6c-12.1,11.1-22.2,15.6-34.9,15.6c-21.6,0-32.9-26.2-32.9-52.1v-50.3
			c0.1-12.5-1.8-24.9-5.8-36.7l-0.5-1.6v0h98.9l48.7,134.1h-48.1v2.9H1000v-2.9L948.7,408.2z M258.3,271.1l66.6-183l66.5,183H258.3z
			 M533.5,202.9V16.7H576c56.8,0,86.8,33.8,86.8,97.6c0,67.9-17.2,88.6-73.6,88.6L533.5,202.9z M736.1,271.1l-0.3-0.7
			c-4.4-10.7-10.8-20.5-18.8-28.8l-2.8-2.8l-0.3-0.3l54.7-150.4l66.5,183H736.1z"/>
	</g>
</g>
</svg>
