<svg version="1.1" id="Слой_1" xmlns="http://www.w3.org/2000/svg" x="0" y="0" viewBox="0 0 567 567" xml:space="preserve"><style>.st0{fill-rule:evenodd;clip-rule:evenodd;fill:#d2d2d2;stroke:#263138;stroke-width:2.8346;stroke-miterlimit:22.9256}.st1{fill:#2482a3}.st1,.st2,.st4{fill-rule:evenodd;clip-rule:evenodd}.st2{fill:none;stroke:#263138;stroke-width:2.8346;stroke-miterlimit:22.9256}.st4{fill:#263138}.st5,.st6{stroke-width:2.8346;stroke-miterlimit:22.9256}.st5{fill-rule:evenodd;clip-rule:evenodd;fill:#fefefe;stroke:#263138}.st6{fill:none;stroke:#fefefe}.st11,.st6,.st7,.st8{fill-rule:evenodd;clip-rule:evenodd}.st7{fill:none;stroke:#00a120;stroke-width:2.8346;stroke-miterlimit:22.9256}.st11,.st8{stroke:#263138}.st8{fill:#fff;stroke-width:2.8344;stroke-linecap:round;stroke-miterlimit:10}.st11{fill:#00a120;stroke-width:2.8346;stroke-miterlimit:22.9256}.st17{fill:#fff}.st18{font-family:&apos;ArialMT&apos;}.st19{font-size:42.0259px}</style><switch><g><path class="st0" d="M390.7 235.6h15.7v37.5h-15.7z"/><path class="st0" d="M307.7 266.9h181.6v16H307.7z"/><path class="st1" d="M254.5 24.1h297.7v180.1H254.5z"/><path class="st2" d="M248.8 18.3h299.4v217.2H248.8z"/><path class="st0" d="M248.8 205.6h299.4v30H248.8z"/><path d="M522.5 186.1H276.2V38.5m0 160.6v-14.5M261.8 143h14.5m-14.5-43.1h14.5m-14.5-43h14.5m-14.5 129.2h14.5m215.3 13v-14.5m-43 14.5v-14.5m-43.1 14.5v-14.5m-43.1 14.5v-14.5m-43.1 14.5v-14.5" fill-rule="evenodd" clip-rule="evenodd" fill="none" stroke="#fff" stroke-width="2.835" stroke-miterlimit="22.926"/><path class="st4" d="M321.8 132.4c3.6 0 6.6-2.9 6.6-6.6 0-3.6-2.9-6.6-6.6-6.6-3.6 0-6.6 2.9-6.6 6.6 0 3.7 3 6.6 6.6 6.6zm52.3 25.5c3.6 0 6.6-2.9 6.6-6.6 0-3.6-2.9-6.6-6.6-6.6-3.6 0-6.6 2.9-6.6 6.6 0 3.7 2.9 6.6 6.6 6.6zm46.3-71.3c3.6 0 6.6-2.9 6.6-6.6 0-3.6-2.9-6.6-6.6-6.6-3.6 0-6.6 2.9-6.6 6.6 0 3.6 2.9 6.6 6.6 6.6zm51.8 30c3.6 0 6.6-2.9 6.6-6.6 0-3.6-2.9-6.6-6.6-6.6-3.6 0-6.6 2.9-6.6 6.6 0 3.7 2.9 6.6 6.6 6.6z"/><circle transform="rotate(-13.286 398.437 219.457)" class="st5" cx="398.5" cy="219.5" r="8.9"/><path class="st2" d="M283.2 178.1l38.6-52.3 52.3 25.5L420.4 80l51.8 30 50.3-53.3"/><path class="st6" d="M302.4 56.9h69.4m-69.4 12.2h69.4m-69.4 12.2h69.4m77.7 61.7h69.4m-69.4 12.2h69.4m-69.4 12.3h69.4"/><path transform="rotate(-75.001 128.177 115.735)" class="st5" d="M41 42h174.3v147.5H41z"/><path class="st5" d="M40.2 32.4h147.5v174.3H40.2z"/><path transform="rotate(-14.999 99.689 123.375)" class="st5" d="M25.9 36.2h147.5v174.3H25.9z"/><path class="st2" d="M85.5 74.7L132.9 62M88.5 86L136 73.3m-38.9 44.5l47.4-12.7m-44.4 24.1l47.4-12.7m-38.9 44.4l47.4-12.7m-44.3 24.1l47.4-12.7"/><path transform="rotate(-14.999 55.495 88.807)" class="st2" d="M41.3 74.6h28.4V103H41.3z"/><path class="st7" d="M36.9 88.2l15.8 9 22.1-38.9"/><path transform="rotate(-14.999 66.935 131.5)" class="st2" d="M52.7 117.3h28.4v28.4H52.7z"/><path transform="rotate(-14.999 78.375 174.195)" class="st2" d="M64.2 160h28.4v28.4H64.2z"/><path class="st7" d="M48.3 130.9l15.8 9L86.3 101m-26.5 72.6l15.8 9 22.1-38.9"/><path class="st4" d="M210.4 319.8c4.3 15.9-20.6 36.5-55.5 45.8-35 9.4-66.7 4-71-11.9l-14-52.3 68.5 4.1h.5l.4-.3 57.3-37.8 13.8 52.4zm32.4-86.4L117.5 226 12.7 295.1l125.3 7.5 104.8-69.2z"/><path class="st2" d="M14.1 295.1v68.3"/><path class="st4" d="M14.1 372.2c4.8 0 8.8-3.9 8.8-8.8 0-4.8-3.9-8.8-8.8-8.8-4.8 0-8.8 3.9-8.8 8.8.1 4.8 4 8.8 8.8 8.8z"/><path class="st2" d="M14.1 363.4v21.9m0-21.9l5.7 21.1m-5.7-21.1l11 18.9m-11-18.9l-5.6 21.1m5.6-21.1L3.2 382.3"/><path transform="rotate(-75.001 284.207 316.022)" class="st8" d="M221 270.8h126.4v90.5H221z"/><path transform="rotate(-75.001 294.465 285.542)" fill-rule="evenodd" clip-rule="evenodd" fill="#00a120" d="M282.4 252.4h24.1v66.4h-24.1z"/><path transform="rotate(-75.001 262.332 304.415)" class="st8" d="M256.3 298.4h12.1v12.1h-12.1z"/><path transform="rotate(-75.001 285.645 310.661)" class="st8" d="M279.6 304.6h12.1v12.1h-12.1z"/><path transform="rotate(-75.001 308.964 316.909)" class="st8" d="M302.9 310.9H315V323h-12.1z"/><path transform="rotate(-75.001 256.083 327.726)" class="st8" d="M250 321.7h12.1v12.1H250z"/><path transform="rotate(-75.001 279.4 333.974)" class="st8" d="M273.4 327.9h12.1V340h-12.1z"/><path transform="rotate(-75.001 302.705 340.218)" class="st8" d="M296.7 334.2h12.1v12.1h-12.1z"/><path transform="rotate(-75.001 249.837 351.037)" class="st8" d="M243.8 345h12.1v12.1h-12.1z"/><path transform="rotate(-75.001 273.155 357.285)" class="st8" d="M267.1 351.2h12.1v12.1h-12.1z"/><path transform="rotate(-75.001 296.466 363.531)" class="st8" d="M290.4 357.5h12.1v12.1h-12.1z"/><path fill-rule="evenodd" clip-rule="evenodd" fill="none" stroke="#263138" stroke-width="2.834" stroke-linecap="round" stroke-miterlimit="10" d="M256.136 283.077l6.238-23.278 64.135 17.184-6.237 23.279z"/><path class="st11" d="M469.4 313l30.2 30.2-52.1 52-4.5-25.7-25.7-4.4z"/><path class="st11" d="M491.2 313l-30.1 30.2 52 52 4.5-25.7 25.7-4.4z"/><path class="st0" d="M480.3 241.8l15.3 16.4 22.1-4.2 2.7 22.3 20.4 9.5-10.9 19.6 10.9 19.7-20.4 9.5-2.7 22.3-22.1-4.3-15.3 16.4-15.3-16.4-22.1 4.3-2.7-22.3-20.4-9.5 10.9-19.7-10.9-19.6 20.4-9.5 2.7-22.3 22.1 4.2z"/><circle transform="rotate(-16.843 479.89 305.394)" cx="479.9" cy="305.4" fill-rule="evenodd" clip-rule="evenodd" fill="#fefefe" r="42.7"/><circle cx="481.6" cy="305.9" r="39.8" fill-rule="evenodd" clip-rule="evenodd" fill="#d2d2d2"/><circle transform="rotate(-16.843 480.294 305.382)" class="st2" cx="480.3" cy="305.4" r="42.7"/><path class="st2" d="M447.8 296.7c3.8-14.3 16.9-24.9 32.5-24.9 3 0 5.9.4 8.7 1.1"/><path class="st1" d="M141.7 402.3h410l-36.8 52 36.8 52.1h-410z"/><path fill-rule="evenodd" clip-rule="evenodd" fill="#fff" stroke="#263138" stroke-width="2.835" stroke-miterlimit="22.926" d="M106.3 489.9l-84.9 63.5-9.4-12.2 84.9-63.4z"/><circle transform="rotate(-45.001 136.982 452.174)" class="st5" cx="137" cy="452.2" r="64.7"/><path d="M2.1 541.7l60.8-46.4 16.9 21.8c-33.9 26.4-26.8 20-60.8 46.4L2.1 541.7z" fill-rule="evenodd" clip-rule="evenodd" fill="#263138" stroke="#263138" stroke-width="2.835" stroke-miterlimit="22.926"/><circle transform="rotate(-18.312 136.853 452.135)" cx="136.9" cy="452.2" fill-rule="evenodd" clip-rule="evenodd" fill="#2482a3" stroke="#263138" stroke-width="2.835" stroke-miterlimit="22.926" r="52.6"/><path class="st6" d="M92.7 452.7c.4-14.8 8-27.8 19.4-35.8m9.9-5.3c5.5-2.1 11.6-3.2 17.9-3m-126.6 132l49-37.7"/><text transform="translate(227.253 448.57)"><tspan x="0" y="0" class="st17 st18 st19">ПРОВЕРОК</tspan><tspan x="0" y="35.7" class="st17 st18 st19">БЕСПЛАТНО!</tspan></text><text transform="translate(96.7 494.581)" class="st17 st18" font-size="106.52">7</text></g></switch></svg>