<svg xmlns="http://www.w3.org/2000/svg" viewBox="0 0 552.09 554.78"><defs><style>.cls-1{fill:#d2d2d2}.cls-1,.cls-10,.cls-13,.cls-3,.cls-6,.cls-7{stroke:#263138}.cls-1,.cls-10,.cls-13,.cls-3,.cls-6,.cls-7,.cls-8,.cls-9{stroke-miterlimit:22.93}.cls-1,.cls-13,.cls-3,.cls-6,.cls-7,.cls-8,.cls-9{stroke-width:2.83px}.cls-3,.cls-7,.cls-8,.cls-9{fill:none}.cls-13,.cls-5,.cls-7,.cls-8,.cls-9{fill-rule:evenodd}.cls-5{fill:#263138}.cls-6{fill:#fefefe}.cls-8{stroke:#fefefe}.cls-9{stroke:#00a120}.cls-10{fill:#fff;stroke-linecap:round;stroke-width:2.83px}.cls-13{fill:#00a120}</style></defs><g id="Слой_2" data-name="Слой 2"><g id="Слой_1-2" data-name="Слой 1"><path class="cls-1" d="M390.58 224.88h15.74v37.48h-15.74z"/><path class="cls-1" d="M307.63 256.24h181.65v16.02H307.63z"/><path fill="#2482a3" d="M254.42 13.38h297.67v180.05H254.42z"/><path class="cls-3" d="M248.74 7.63h299.44v217.25H248.74z"/><path class="cls-1" d="M248.74 194.89h299.44v29.99H248.74z"/><path d="M522.41 175.38H276.18V27.77m0 160.64v-14.47m-14.48-41.63h14.48M261.7 89.23h14.48M261.7 46.15h14.48M261.7 175.38h14.48m215.38 13v-14.44m-43.07 14.47v-14.47m-43.08 14.47v-14.47m-43.08 14.47v-14.47m-43.08 14.47v-14.47" fill-rule="evenodd" stroke="#fff" fill="none" stroke-width="2.83" stroke-miterlimit="22.93"/><path class="cls-5" d="M321.73 121.73a6.59 6.59 0 10-6.59-6.58 6.58 6.58 0 006.59 6.58zm52.27 25.5a6.59 6.59 0 10-6.59-6.59 6.59 6.59 0 006.59 6.59zm46.32-71.35a6.59 6.59 0 10-6.59-6.59 6.59 6.59 0 006.59 6.59zm51.78 30.05a6.59 6.59 0 10-6.59-6.59 6.58 6.58 0 006.59 6.59z"/><circle class="cls-6" cx="398.46" cy="208.79" r="8.85" transform="rotate(-45 398.452 208.786)"/><path class="cls-7" d="M283.11 167.38l38.62-52.23L374 140.64l46.32-71.35 51.78 30.05 50.35-53.38"/><path class="cls-8" d="M302.33 46.15h69.36m-69.36 12.23h69.36m-69.36 12.23h69.36m77.7 61.7h69.36m-69.36 12.23h69.36m-69.36 12.23h69.36"/><path class="cls-6" transform="rotate(-75 128.109 105.03)" d="M40.93 31.26h174.35v147.53H40.93z"/><path class="cls-6" d="M40.09 21.68h147.53v174.35H40.09z"/><path class="cls-6" transform="rotate(-15 99.608 112.681)" d="M25.85 25.49h147.53v174.35H25.85z"/><path class="cls-3" d="M85.44 63.96l47.41-12.7M88.48 75.33l47.41-12.7m-38.9 44.45l47.41-12.7m-44.36 24.07l47.41-12.7m-38.91 44.45l47.41-12.7m-44.36 24.07l47.41-12.7"/><path class="cls-3" transform="rotate(-15 55.437 78.12)" d="M41.21 63.88h28.43v28.43H41.21z"/><path class="cls-9" d="M36.83 77.51l15.79 8.96 22.14-38.82"/><path class="cls-3" transform="rotate(-15 66.551 120.226)" d="M52.65 106.58h28.43v28.43H52.65z"/><path class="cls-3" transform="rotate(-15 78.317 163.468)" d="M64.09 149.27h28.43v28.43H64.09z"/><path class="cls-9" d="M48.27 120.2l15.79 8.96L86.2 90.34m-26.49 72.55l15.79 8.96 22.14-38.82"/><path class="cls-5" d="M210.38 309.05c4.27 15.94-20.6 36.46-55.55 45.83s-66.75 4-71-11.92l-14-52.35 68.46 4.07h.47l.39-.26 57.25-37.76 14 52.35zm32.36-86.32l-125.32-7.45-104.79 69.11 125.31 7.45z"/><path class="cls-3" d="M14.07 284.38v68.32"/><path class="cls-5" d="M14.07 361.46a8.77 8.77 0 10-8.77-8.76 8.76 8.76 0 008.77 8.76z"/><path class="cls-3" d="M14.07 352.7v21.85m0-21.85l5.65 21.1m-5.65-21.1L25 371.62M14.07 352.7l-5.66 21.1m5.66-21.1L3.14 371.62"/><path class="cls-10" transform="rotate(-75 284.14 305.312)" d="M220.94 260.06h126.4v90.5h-126.4z"/><path transform="rotate(-75 293.176 273.674)" fill="#00a120" d="M282.33 241.65h24.13v66.37h-24.13z"/><path class="cls-10" transform="rotate(-75 262.261 293.7)" d="M256.23 287.67h12.07v12.07h-12.07z"/><path class="cls-10" transform="rotate(-75 285.572 299.951)" d="M279.54 293.92h12.07v12.07h-12.07z"/><path class="cls-10" transform="rotate(-75 307.621 304.911)" d="M302.85 300.16h12.07v12.07h-12.07z"/><path class="cls-10" transform="rotate(-75 256.017 317.017)" d="M249.98 310.98h12.07v12.07h-12.07z"/><path class="cls-10" transform="rotate(-75 279.333 323.261)" d="M273.29 317.23h12.07v12.07h-12.07z"/><path class="cls-10" transform="rotate(-75 302.638 329.507)" d="M296.6 323.48h12.07v12.07H296.6z"/><path class="cls-10" transform="rotate(-75 249.766 340.328)" d="M243.74 334.29h12.07v12.07h-12.07z"/><path class="cls-10" transform="rotate(-75 273.082 346.572)" d="M267.05 340.54h12.07v12.07h-12.07z"/><path class="cls-10" transform="rotate(-75 296.393 352.823)" d="M290.36 346.79h12.07v12.07h-12.07z"/><path stroke-width="2.83" stroke-linecap="round" fill="none" stroke-miterlimit="22.93" stroke="#263138" d="M256.124 272.382l6.245-23.308 64.109 17.178-6.246 23.308z"/><path class="cls-13" d="M469.37 302.32l30.13 30.13-52.1 52.09-4.42-25.7-25.7-4.43 52.09-52.09z"/><path class="cls-13" d="M491.11 302.32l-30.12 30.13 52.09 52.09 4.42-25.7 25.71-4.43-52.1-52.09z"/><path fill-rule="evenodd" stroke-width="2.83" stroke-miterlimit="22.93" stroke="#263138" fill="#d2d2d2" d="M480.24 231.11l15.33 16.43 22.05-4.28 2.75 22.3 20.36 9.5-10.89 19.65 10.89 19.66-20.36 9.5-2.75 22.3-22.05-4.29-15.33 16.43-15.33-16.43-22.05 4.29-2.75-22.3-20.36-9.5 10.89-19.66-10.89-19.65 20.36-9.5 2.75-22.3 22.05 4.28 15.33-16.43z"/><circle cx="479.84" cy="294.72" r="42.7" transform="rotate(-12.53 480.013 294.78)" fill="#fefefe"/><circle cx="481.51" cy="295.19" r="39.79" fill="#d2d2d2"/><circle class="cls-3" cx="480.24" cy="294.71" r="42.7" transform="rotate(-13.28 480.338 294.74)"/><path class="cls-7" d="M447.76 286a33.65 33.65 0 0141.18-23.78"/><path fill-rule="evenodd" fill="#2482a3" d="M141.59 391.6h410.02l-36.74 52.04 36.74 52.04H141.59V391.6z"/><path fill="#fff" fill-rule="evenodd" stroke-width="2.83" stroke-miterlimit="22.93" stroke="#263138" d="M106.22 479.23l-84.89 63.44-9.41-12.13 84.89-63.44 9.41 12.13z"/><circle class="cls-6" cx="136.92" cy="441.47" r="64.7" transform="rotate(-45 136.921 441.465)"/><path d="M2 531l60.78-46.35 16.94 21.82c-33.93 26.4-26.84 20-60.78 46.35z" fill="#263138" fill-rule="evenodd" stroke-width="2.83" stroke-miterlimit="22.93" stroke="#263138"/><circle cx="136.8" cy="441.47" r="52.56" transform="rotate(-18.23 136.815 441.505)" fill="#2482a3" stroke-width="2.83" stroke-miterlimit="22.93" stroke="#263138"/><path class="cls-8" d="M92.61 442A45.31 45.31 0 01112 406.23m9.92-5.29a46 46 0 0117.92-3"/><path stroke="#fefefe" fill="none" stroke-width="2.83" stroke-miterlimit="22.93" d="M13.23 529.92l49.02-37.71"/><path d="M251.9 407.52v29.42h-5.8v-23.87h-10.38v23.87h-5.8v-29.42zm16.43 0a9.75 9.75 0 017.14 2.86 9.95 9.95 0 010 14 9.78 9.78 0 01-7.14 2.85h-5.17v9.67h-5.8v-29.38zm0 14.33a4.07 4.07 0 003.07-1.28 4.77 4.77 0 000-6.37 4.09 4.09 0 00-3.07-1.26h-5.17v8.91zm38.58 11.24a15.48 15.48 0 114.45-10.86 14.77 14.77 0 01-4.45 10.86zm-17.61-3.95a9.5 9.5 0 0016.26-6.91 9.39 9.39 0 00-2.73-6.93 9.72 9.72 0 00-13.53 0 10.14 10.14 0 000 13.84zm43.92-7.46a7.27 7.27 0 013.86 6.73 7.9 7.9 0 01-2.64 6.13 9.36 9.36 0 01-6.52 2.4h-12.48v-29.42H327a9.2 9.2 0 016.37 2.33 7.67 7.67 0 012.63 5.95 7.15 7.15 0 01-2.77 5.88zm-6.22-8.74h-5.8v6.47h5.8a3 3 0 002.25-.92 3.44 3.44 0 000-4.62 3 3 0 00-2.27-.93zm.88 18.58a3.26 3.26 0 002.44-1 3.45 3.45 0 001-2.5 3.4 3.4 0 00-1-2.46 3.26 3.26 0 00-2.44-1h-6.68v6.94zm18.75-.13h12.39v5.55h-18.15v-29.42h18v5.55h-12.2v6.26h11.13v5.46h-11.13v6.6zm27.44-23.87a9.75 9.75 0 017.14 2.86 9.95 9.95 0 010 14 9.78 9.78 0 01-7.14 2.85h-5.17v9.67h-5.8v-29.38zm0 14.33a4.09 4.09 0 003.07-1.28 4.77 4.77 0 000-6.37 4.11 4.11 0 00-3.07-1.26h-5.17v8.91zm38.58 11.24a15.48 15.48 0 114.45-10.86 14.79 14.79 0 01-4.45 10.86zm-17.61-3.95a9.5 9.5 0 0016.26-6.91 9.39 9.39 0 00-2.73-6.93 9.72 9.72 0 00-13.53 0 10.14 10.14 0 000 13.84zm49.13 7.8h-6.68L427 423.15v13.79h-5.8v-29.42h5.8v13l10.09-13h6.68l-10.87 14.29 11.31 15.13zm-203 24.91a9.87 9.87 0 017 2.54 9.33 9.33 0 010 13.19 9.87 9.87 0 01-7 2.55h-11.25v-29.42h18.49v5.55h-12.69v5.59zm0 12.86a4.2 4.2 0 002.86-1 3.45 3.45 0 001.13-2.75 3.4 3.4 0 00-1.13-2.74 4.28 4.28 0 00-2.86-1h-5.46v7.44zm19.12-.13h12.4v5.55H254.5v-29.42h18v5.55h-12.2v6.26h11.14V468H260.3v6.6zm30.43 6.14a14.73 14.73 0 01-11-4.42 15.87 15.87 0 010-21.79 14.75 14.75 0 0111-4.39 15 15 0 017.38 1.87 13.79 13.79 0 015.27 5.06l-5 2.9a7.81 7.81 0 00-3.11-3.08 10 10 0 00-11.45 1.57 10.51 10.51 0 000 13.91 9.19 9.19 0 006.91 2.69 9.38 9.38 0 004.56-1.11 7.51 7.51 0 003.09-3.05l5 2.9a13.76 13.76 0 01-5.25 5.07 15 15 0 01-7.4 1.87zm38.54-30v29.42h-5.8v-23.88h-10.37v23.87h-5.8v-29.42zm3.19 29.42v-5.38a4.17 4.17 0 003.91-1.05q1.31-1.44 1.3-5.59v-17.4h20v29.42h-5.76v-23.88h-8.49v11.68a19.57 19.57 0 01-.92 6.43 8.26 8.26 0 01-2.55 3.87 8.75 8.75 0 01-3.44 1.68 12.77 12.77 0 01-4.06.21zm49.59 0l-1.76-5.3h-11.72l-1.76 5.3h-6.27l10.3-29.42H378l10.34 29.42zm-11.64-10.72h8.07l-4-12-4 12zm40.26-18.7v5.55h-7.94v23.87h-5.8v-23.88H389v-5.55zm20 0h5.76v29.42h-5.76v-12.2h-10.95v12.19h-5.8v-29.42h5.8v11.68h10.92v-11.68zm36 25.57a15.49 15.49 0 114.45-10.86 14.79 14.79 0 01-4.45 10.86zM449 472.33a9.8 9.8 0 0013.53 0 10.15 10.15 0 000-13.85 9.75 9.75 0 00-13.53 0 10.15 10.15 0 000 13.85zm26.9-2.08l-1.14-11.14v-8.4h6.51v8.4l-1.09 11.14zm4.66 9.37a3.55 3.55 0 111.05-2.52 3.44 3.44 0 01-1.05 2.52zm-363.69-71.23h46.55v8.84l-27.16 65.72h-10.34l26.95-65.19h-36v-9.37z" fill="#fff" fill-rule="evenodd"/></g></g></svg>