<svg version="1.1" id="Слой_1" xmlns="http://www.w3.org/2000/svg" x="0" y="0" viewBox="0 0 156 156" xml:space="preserve"><style>.st1,.st2{fill-rule:evenodd;clip-rule:evenodd;fill:none;stroke:#263138;stroke-width:2.8346;stroke-miterlimit:22.9256}.st2{fill:#fff}</style><switch><g><circle transform="rotate(-45.001 85.988 74.798)" cx="86" cy="74.8" fill-rule="evenodd" clip-rule="evenodd" fill="#14b5d7" r="66"/><circle transform="matrix(.9967 -.08101 .08101 .9967 -6.066 6.572)" class="st1" cx="78" cy="78" r="66"/><path class="st2" d="M65.9 79.4l-25.2 33.2 14.6.7 4.7 13.9 18-23.9 17.9 23.9 4.7-13.9 14.6-.7L90 79.4z"/><path class="st2" d="M90 35l5.7 12.3 13.6 1.8-2.7 13.3 9.9 9.4-10 9.2 2.6 13.4L95.6 96l-5.9 12.4-11.9-6.7-11.9 6.6-5.7-12.4-13.6-1.7 2.7-13.4-9.9-9.3 10-9.3-2.6-13.4 13.6-1.6 5.8-12.3 11.9 6.6z"/><circle transform="rotate(-45.001 77.952 71.617)" cx="78" cy="71.6" fill-rule="evenodd" clip-rule="evenodd" fill="#fefefe" stroke="#263138" stroke-width="2.835" stroke-miterlimit="22.926" r="24.6"/><path class="st1" d="M96.9 71.5c0 6.9-3.7 13.2-9.6 16.6M59 71.7c0-6.9 3.7-13.2 9.6-16.6"/></g></switch></svg>