<svg version="1.1" id="Слой_1" xmlns="http://www.w3.org/2000/svg" x="0" y="0" viewBox="0 0 156 156" xml:space="preserve"><style>.st1{fill-rule:evenodd;clip-rule:evenodd;fill:none;stroke:#263138;stroke-width:2.8346;stroke-miterlimit:22.9256}</style><switch><g><circle transform="rotate(-45.001 85.988 74.798)" cx="86" cy="74.8" fill-rule="evenodd" clip-rule="evenodd" fill="#14b5d7" r="66"/><circle transform="rotate(-7.539 77.958 78.05)" class="st1" cx="78" cy="78" r="66"/><path d="M43.2 104h59.1v9.2H43.2zm0-9.2h59.1v9.2H43.2zm-9-9.3h59.1v9.2H34.2zm16.1-9.2h59.1v9.2H50.3zm-7.1-9.2h59.1v9.2H43.2zm9.7-9.2H112v9.2H52.9zm-9.7-9.3h59.1v9.2H43.2z" fill="#fff" fill-rule="evenodd" clip-rule="evenodd" stroke="#263138" stroke-width="2.835" stroke-miterlimit="22.926"/><circle transform="rotate(-13.303 103.485 84.576)" cx="103.5" cy="84.6" fill-rule="evenodd" clip-rule="evenodd" fill="#fefefe" stroke="#263138" stroke-width="2.835" stroke-miterlimit="22.926" r="28.7"/><text transform="translate(94.2 101.334)" font-size="45.255" font-family="ArialMT" fill="#263138">Р</text><path class="st1" d="M92.6 87.8h7.5m26.2-7.5c2.1 11.3-4.3 22.2-14.8 26M80.7 88.9c-2.1-11.3 4.3-22.2 14.8-26m-2.9 30h13.8"/></g></switch></svg>