<svg version="1.1" id="Слой_1" xmlns="http://www.w3.org/2000/svg" x="0" y="0" viewBox="0 0 156 156" xml:space="preserve"><style>.st1,.st2{fill-rule:evenodd;clip-rule:evenodd;fill:none;stroke:#263138;stroke-width:2.8346;stroke-miterlimit:22.9256}.st2{fill:#fefefe}</style><switch><g><circle transform="rotate(-45.001 85.988 74.798)" cx="86" cy="74.8" fill-rule="evenodd" clip-rule="evenodd" fill="#14b5d7" r="66"/><circle transform="rotate(-7.539 77.958 78.05)" class="st1" cx="78" cy="78" r="66"/><path class="st1" d="M58.9 84.9C46.8 84.9 37 75.1 37 63V51.5h78.9V63c0 12.1-9.8 21.9-21.9 21.9H58.9z"/><path class="st2" d="M99.9 73.1C99.9 85.2 90.1 95 78 95s-22-9.8-22-21.9V45.8h43.9v27.3z"/><path class="st1" d="M77.9 109.5V95.1m0-43.6H56.2"/><path class="st2" d="M97.8 121.1c-3.5-7.4-11.1-12.6-19.9-12.6-8.8 0-16.3 5.2-19.9 12.6h39.8z"/><path d="M56.2 122.9v-5.7h43.5v5.7H56.2z" fill-rule="evenodd" clip-rule="evenodd" fill="#fff" stroke="#263138" stroke-width="2.835" stroke-miterlimit="22.926"/></g></switch></svg>