<svg xmlns="http://www.w3.org/2000/svg" viewBox="0 0 123.92 56.33"><g data-name="Слой 2"><g data-name="Слой 1" fill-rule="evenodd"><path d="M36 19.85a8.77 8.77 0 00.44 2.81 7.18 7.18 0 001.2 2.2 7.49 7.49 0 001.76 1.57 8.08 8.08 0 002.15.94 8.73 8.73 0 004.29.1 7.58 7.58 0 001.85-.67 6.56 6.56 0 001.6-1.18 6.2 6.2 0 001.2-1.73 5.79 5.79 0 00.34-.85l-3.54-1.47a3.11 3.11 0 01-.7 1.38 2.92 2.92 0 01-1.18.8 4.17 4.17 0 01-1.53.26 3.64 3.64 0 01-1.6-.34 3.75 3.75 0 01-1.21-.91 4.15 4.15 0 01-.77-1.34 4.66 4.66 0 01-.3-1.59 4.89 4.89 0 01.48-2.23 3.51 3.51 0 011.33-1.47 4 4 0 012-.52 4.56 4.56 0 011.48.21 2.83 2.83 0 011.13.71 3.48 3.48 0 01.76 1.28l3.5-1.45a5.5 5.5 0 00-.32-.74A5.92 5.92 0 0049.22 14a6.64 6.64 0 00-1.61-1.14 7.82 7.82 0 00-1.83-.65 8.23 8.23 0 00-1.91-.21 8.73 8.73 0 00-2.33.32 7.74 7.74 0 00-2.15.93 7.27 7.27 0 00-1.76 1.57 7.12 7.12 0 00-1.2 2.18 9 9 0 00-.43 2.85zm44 0a9.05 9.05 0 00.44 2.81 7.18 7.18 0 001.2 2.2 7.34 7.34 0 001.77 1.57 7.88 7.88 0 002.14.94 8.73 8.73 0 004.29.1 7.44 7.44 0 001.85-.67 6.56 6.56 0 001.6-1.18 6.2 6.2 0 001.2-1.73 5.79 5.79 0 00.34-.85l-3.54-1.47a3.21 3.21 0 01-.73 1.43 3 3 0 01-1.19.8 4.17 4.17 0 01-1.53.26 3.64 3.64 0 01-1.6-.34 3.75 3.75 0 01-1.24-.96 4.34 4.34 0 01-.77-1.34 4.66 4.66 0 01-.23-1.59 4.89 4.89 0 01.48-2.23 3.51 3.51 0 011.33-1.47 4 4 0 012-.52 4.63 4.63 0 011.49.21 3 3 0 011.13.71 3.34 3.34 0 01.75 1.28l3.49-1.45a5.5 5.5 0 00-.32-.74A5.92 5.92 0 0093.19 14a6.58 6.58 0 00-1.6-1.14 8.06 8.06 0 00-1.84-.65 8.23 8.23 0 00-1.91-.21 8.73 8.73 0 00-2.33.32 7.56 7.56 0 00-2.14.93 7.05 7.05 0 00-3 3.78 9.26 9.26 0 00-.37 2.82zm-14.38 7.69V12.13h-4v5.57h-4.81v-5.57h-4v15.41h4v-6.17h4.78v6.17zm12.66-15.41H68.2v15.41h10.28v-3.68h-6.26v-2.51h5.62v-3.52h-5.62v-2.2h6.06v-3.5zm27.62 15.41h4.56l-4.76-7.73 4.76-7.68h-4.56l-3.52 5.79h-1.76v-5.79h-4v15.41h4V21.7h1.74zM88.29 37.76a4.62 4.62 0 011.49.22 3 3 0 011.13.71 1.84 1.84 0 01.61.94L95 38.18a1.62 1.62 0 00-.18-.4 6 6 0 00-1.21-1.65A6.54 6.54 0 0092 35a7.64 7.64 0 00-1.84-.66 8.86 8.86 0 00-4.24.1 7.48 7.48 0 00-3.89 2.5 7.19 7.19 0 00-1.21 2.22 9.06 9.06 0 00-.41 2.84 9 9 0 00.45 2.84 7.25 7.25 0 001.21 2.21 7.36 7.36 0 001.78 1.57 9.47 9.47 0 005.21 1.26c2.83-.1 5.59-1.08 6.55-3.74V41h-6.76v3.15h3v1.16c-.89 1.09-3.61 1.64-5.39.56A4.3 4.3 0 0185 44.23a5.42 5.42 0 01-.22-3.89 3.5 3.5 0 013.55-2.58zm-47.2-3.45h-4v15.4h4v-15.4zm37.37 0h-4v15.4h4v-15.4zM55.29 49.76h2.59V34.31h-4v7.53l-6.63-7.6h-2.69v15.47h4v-7.94l6.7 8zM60 46.19a3.5 3.5 0 00.2.65 4.31 4.31 0 00.93 1.43 5.46 5.46 0 001.41 1 7.16 7.16 0 001.74.6 9.31 9.31 0 001.91.2 8.93 8.93 0 001.87-.2 7.55 7.55 0 001.71-.61 5.42 5.42 0 001.41-1 4.4 4.4 0 001-1.38 4.48 4.48 0 00.35-1.75 5.33 5.33 0 00-.32-1.91 3.56 3.56 0 00-.9-1.32 4.48 4.48 0 00-1.31-.83 8.54 8.54 0 00-1.69-.48 15.69 15.69 0 00-1.89-.25 8.82 8.82 0 01-1.27-.21 1.74 1.74 0 01-.81-.43 1.1 1.1 0 01-.28-.79 1.27 1.27 0 01.2-.71 1.25 1.25 0 01.51-.43 2.17 2.17 0 01.68-.22 4.27 4.27 0 01.7 0 3.31 3.31 0 011 .15 1.76 1.76 0 01.76.49 1.65 1.65 0 01.38 1l3.59-1.29a4.21 4.21 0 00-.2-.63 4.43 4.43 0 00-.89-1.42 5.1 5.1 0 00-1.34-1 6 6 0 00-1.62-.61 7.42 7.42 0 00-1.76-.2 7.84 7.84 0 00-1.83.2 6 6 0 00-1.64.61 5 5 0 00-1.32 1 4.59 4.59 0 00-.88 1.42 4.87 4.87 0 00-.34 1.73 4.16 4.16 0 00.32 1.68 3.61 3.61 0 00.85 1.24 4.87 4.87 0 001.27.85 7.23 7.23 0 001.53.51 10.2 10.2 0 001.66.23c.29 0 .6 0 .92.07a3.94 3.94 0 01.93.2 1.67 1.67 0 01.71.47 1.24 1.24 0 01.28.86 1 1 0 01-.2.62 1.88 1.88 0 01-.54.46 3 3 0 01-.76.28 4 4 0 01-.85.1 4.43 4.43 0 01-.9-.1 3 3 0 01-.78-.3 1.55 1.55 0 01-.55-.49 1.18 1.18 0 01-.21-.7L60 46.19zm50.4 3.52v-15.4h-4v5.57h-4.78v-5.57h-4v15.4h4v-6.16h4.78v6.16zm5.83-11.88v11.88h3.9V37.83h3.76v-3.52h-11.42v3.52z" fill="#17425c"/><path d="M2.76 5.72l.05 19.08v.09A14.62 14.62 0 017 16.31a14.59 14.59 0 019.17-4.22.94.94 0 00.5.11h.76a14.67 14.67 0 014.05.56l7.37-6.5C30.61 4.71 26-.49 24.29 1.05l-6.46 5.83 1.49-3.26c1-2.1-5.33-5-6.3-2.88L9.66 8.33V5.79c.05-2.31-6.88-2.37-6.9-.07z" fill="#00911d"/><path d="M6.1 41.06l-6 11.47c-1 2 5.07 5.15 6.1 3.16l6-11.46c1.04-1.99-5.06-5.16-6.1-3.17z" fill="#106f91"/><path d="M5.58 42.06L.2 52.37c-.54 1.05 2.24.25 2.73-.66l3.57-6.65c.5-1.01-.02-3.29-.92-3z" fill="#409cbd"/><path d="M16.19 12.09A14.59 14.59 0 007 16.31a14.61 14.61 0 000 20.62 14.57 14.57 0 0010.31 4.28 14.47 14.47 0 0010.31-4.27A15.85 15.85 0 0031 31.72c.52-1.25-1-2.18-2.63-2.66-1.79-.51-3.47-.87-4 .6A6.62 6.62 0 0122.72 32a7.57 7.57 0 01-5.38 2.25 7.62 7.62 0 01-5.39-13 7.62 7.62 0 0110.79 0 7.63 7.63 0 011.62 2.37c.36.88 2.05.88 3.64.53 1.81-.4 3.5-1.28 3-2.59a14.43 14.43 0 00-2.31-4.06 14.57 14.57 0 00-11.23-5.27h-.76a.94.94 0 01-.51-.14z" fill="#00a120"/><path d="M2.76 5.72v22.06A14.26 14.26 0 006.16 36 17 17 0 015 24.35 14.43 14.43 0 0115 14.3a16.78 16.78 0 0111.49 1.06 14.24 14.24 0 00-5.15-2.63 16.15 16.15 0 00-6.88-.4l12.09-11c-.86-.57-1.72-.81-2.29-.29l-14 12.56a13.87 13.87 0 01-1.53 1.22L15.25.06c-1-.16-1.91 0-2.23.68L5.25 18.22c-.25.55-.53 1-.81 1.57V4.24c-.96.25-1.68.76-1.68 1.48z" fill="#3ede4e"/><path d="M13.17 26.69a4.31 4.31 0 104.3-4.3 4.31 4.31 0 00-4.3 4.3z" fill="#f60"/></g></g></svg>