<svg xmlns="http://www.w3.org/2000/svg" viewBox="0 0 512 302.54"><defs><style>.cls-1{fill:#fff;}.cls-2{fill:#b5b8b9;}</style></defs><title>mail-color</title><g id="Слой_2" data-name="Слой 2"><g id="Layer_1" data-name="Layer 1"><path class="cls-1" d="M104.73,279.27H477.09c7,0,11.64-4.65,11.64-11.63V34.91c0-7-4.66-11.64-11.64-11.64H104.73c-7,0-11.64-4.65-11.64-11.63V290.91C93.09,283.93,97.74,279.27,104.73,279.27Z"/><path class="cls-2" d="M477.09,0H104.73c-7,0-11.64,4.66-11.64,11.64s4.65,11.63,11.64,11.63H477.09c7,0,11.64,4.66,11.64,11.64V267.64c0,7-4.66,11.63-11.64,11.63H104.73c-7,0-11.64,4.66-11.64,11.64s4.66,11.63,11.64,11.63H477.09c19.78,0,34.91-15.12,34.91-34.91V34.91C512,15.13,496.87,0,477.09,0Z"/><path class="cls-2" d="M174.54,197.82H81.46c-7,0-11.64,4.65-11.64,11.63s4.65,11.64,11.64,11.64h93.09c7,0,11.63-4.66,11.63-11.64S181.53,197.82,174.54,197.82Z"/><path class="cls-2" d="M139.64,139.64H46.54c-7,0-11.63,4.65-11.63,11.63s4.65,11.64,11.63,11.64h93.1c7,0,11.63-4.66,11.63-11.64S146.62,139.64,139.64,139.64Z"/><path class="cls-2" d="M104.73,81.46H11.64C4.66,81.46,0,86.11,0,93.09s4.66,11.64,11.64,11.64h93.09c7,0,11.63-4.66,11.63-11.64S111.71,81.46,104.73,81.46Z"/><path class="cls-2" d="M463.13,51.2c-3.49-4.65-11.64-5.82-16.29-2.33L323.49,143.13a36.67,36.67,0,0,1-43.05,0L157.09,48.87c-4.65-3.49-12.8-3.49-16.29,2.33-3.49,4.66-3.49,12.8,2.33,16.29l124.51,94.26a57.23,57.23,0,0,0,34.9,11.63c11.64,0,25.6-3.49,34.91-11.63L460.8,67.49C465.45,64,466.62,55.86,463.13,51.2Z"/><path class="cls-2" d="M462,236.22,392.15,166.4a11.52,11.52,0,0,0-16.3,16.29l69.82,69.82a11.25,11.25,0,0,0,16.29,0A11.24,11.24,0,0,0,462,236.22Z"/></g></g></svg>