<svg xmlns="http://www.w3.org/2000/svg" viewBox="0 0 512 302.54"><defs><style>.cls-2{fill:#b5b8b9}</style></defs><g id="Слой_2" data-name="Слой 2"><g id="Layer_1" data-name="Layer 1"><path d="M104.73 279.27h372.36c7 0 11.64-4.65 11.64-11.63V34.91c0-7-4.66-11.64-11.64-11.64H104.73c-7 0-11.64-4.65-11.64-11.63v279.27c0-6.98 4.65-11.64 11.64-11.64z" fill="#fff"/><path class="cls-2" d="M477.09 0H104.73c-7 0-11.64 4.66-11.64 11.64s4.65 11.63 11.64 11.63h372.36c7 0 11.64 4.66 11.64 11.64v232.73c0 7-4.66 11.63-11.64 11.63H104.73c-7 0-11.64 4.66-11.64 11.64s4.66 11.63 11.64 11.63h372.36c19.78 0 34.91-15.12 34.91-34.91V34.91C512 15.13 496.87 0 477.09 0z"/><path class="cls-2" d="M174.54 197.82H81.46c-7 0-11.64 4.65-11.64 11.63s4.65 11.64 11.64 11.64h93.09c7 0 11.63-4.66 11.63-11.64s-4.65-11.63-11.64-11.63zm-34.9-58.18h-93.1c-7 0-11.63 4.65-11.63 11.63s4.65 11.64 11.63 11.64h93.1c7 0 11.63-4.66 11.63-11.64s-4.65-11.63-11.63-11.63zm-34.91-58.18H11.64C4.66 81.46 0 86.11 0 93.09s4.66 11.64 11.64 11.64h93.09c7 0 11.63-4.66 11.63-11.64s-4.65-11.63-11.63-11.63zm358.4-30.26c-3.49-4.65-11.64-5.82-16.29-2.33l-123.35 94.26a36.67 36.67 0 01-43.05 0L157.09 48.87c-4.65-3.49-12.8-3.49-16.29 2.33-3.49 4.66-3.49 12.8 2.33 16.29l124.51 94.26a57.23 57.23 0 0034.9 11.63c11.64 0 25.6-3.49 34.91-11.63L460.8 67.49c4.65-3.49 5.82-11.63 2.33-16.29zM462 236.22l-69.85-69.82a11.52 11.52 0 00-16.3 16.29l69.82 69.82a11.25 11.25 0 0016.29 0 11.24 11.24 0 00.04-16.29z"/></g></g></svg>