<svg xmlns="http://www.w3.org/2000/svg" viewBox="0 0 358.87 456.56"><defs><style>.cls-1{fill:#b5b8b9}</style></defs><g id="Слой_2" data-name="Слой 2"><g id="Capa_1" data-name="Capa 1"><path class="cls-1" d="M179.42 0C80.49 0 0 80.49 0 179.42A181.62 181.62 0 003.71 216a13.63 13.63 0 00.29 1.85 391.47 391.47 0 00150.39 230.3 41.58 41.58 0 0025.22 8.41 42 42 0 0020.81-5.56 12.61 12.61 0 001.25-.8l5.54-4.06A392.22 392.22 0 00354.4 220a12.51 12.51 0 00.28-1.82 179.26 179.26 0 004.19-38.71C358.87 80.49 278.37 0 179.42 0zM328.1 213.89a14.22 14.22 0 00-.29 1.83 365.23 365.23 0 01-136.63 208.9l-4.64 3.4a15.24 15.24 0 01-16.12-1.41A364.73 364.73 0 0130.58 213.68a13.25 13.25 0 00-.25-1.62 154.1 154.1 0 01-3.47-32.64c0-84.12 68.44-152.56 152.56-152.56S332 95.3 332 179.42a151.81 151.81 0 01-3.9 34.47z"/><path d="M179.42 26.86C95.3 26.86 26.86 95.3 26.86 179.42a154.1 154.1 0 003.47 32.64 13.25 13.25 0 01.25 1.62 364.73 364.73 0 00139.84 212.93 15.24 15.24 0 0016.12 1.39l4.64-3.4a365.23 365.23 0 00136.63-208.9 14.22 14.22 0 01.29-1.83 151.81 151.81 0 003.9-34.45c0-84.12-68.44-152.56-152.58-152.56zm0 229.33a76.79 76.79 0 1176.8-76.77 76.86 76.86 0 01-76.79 76.77z" fill="#fff"/><path class="cls-1" d="M179.43 102.62a76.79 76.79 0 1076.8 76.8 76.89 76.89 0 00-76.8-76.8zm0 126.72a49.93 49.93 0 1149.95-49.92 50 50 0 01-49.95 49.92z"/><path d="M179.43 129.48a49.93 49.93 0 1049.95 49.94 50 50 0 00-49.95-49.94z" fill="none"/></g></g></svg>