<svg xmlns="http://www.w3.org/2000/svg" viewBox="0 0 552.09 554.78"><defs><style>.cls-1,.cls-14,.cls-16{fill:#d2d2d2;}.cls-1,.cls-10,.cls-12,.cls-13,.cls-14,.cls-18,.cls-19,.cls-20,.cls-3,.cls-6,.cls-7{stroke:#263138;}.cls-1,.cls-10,.cls-12,.cls-13,.cls-14,.cls-18,.cls-19,.cls-20,.cls-21,.cls-3,.cls-4,.cls-6,.cls-7,.cls-8,.cls-9{stroke-miterlimit:22.93;}.cls-1,.cls-13,.cls-14,.cls-18,.cls-19,.cls-20,.cls-21,.cls-3,.cls-4,.cls-6,.cls-7,.cls-8,.cls-9{stroke-width:2.83px;}.cls-17,.cls-2,.cls-20{fill:#2482a3;}.cls-12,.cls-21,.cls-3,.cls-4,.cls-7,.cls-8,.cls-9{fill:none;}.cls-4{stroke:#fff;}.cls-13,.cls-14,.cls-17,.cls-18,.cls-19,.cls-22,.cls-4,.cls-5,.cls-7,.cls-8,.cls-9{fill-rule:evenodd;}.cls-19,.cls-5{fill:#263138;}.cls-15,.cls-6{fill:#fefefe;}.cls-21,.cls-8{stroke:#fefefe;}.cls-9{stroke:#00a120;}.cls-10,.cls-18,.cls-22{fill:#fff;}.cls-10,.cls-12{stroke-linecap:round;}.cls-10{stroke-width:2.83px;}.cls-11,.cls-13{fill:#00a120;}.cls-12{stroke-width:2.83px;}</style></defs><title>image 3 new</title><g id="Слой_2" data-name="Слой 2"><g id="Слой_1-2" data-name="Слой 1"><rect class="cls-1" x="390.58" y="224.88" width="15.74" height="37.48"/><rect class="cls-1" x="307.63" y="256.24" width="181.65" height="16.02"/><rect class="cls-2" x="254.42" y="13.38" width="297.67" height="180.05"/><rect class="cls-3" x="248.74" y="7.63" width="299.44" height="217.25"/><rect class="cls-1" x="248.74" y="194.89" width="299.44" height="29.99"/><path class="cls-4" d="M522.41,175.38H276.18V27.77m0,160.64V173.94M261.7,132.31h14.48M261.7,89.23h14.48M261.7,46.15h14.48M261.7,175.38h14.48m215.38,13V173.94m-43.07,14.47V173.94m-43.08,14.47V173.94m-43.08,14.47V173.94m-43.08,14.47V173.94"/><path class="cls-5" d="M321.73,121.73a6.59,6.59,0,1,0-6.59-6.58A6.58,6.58,0,0,0,321.73,121.73Z"/><path class="cls-5" d="M374,147.23a6.59,6.59,0,1,0-6.59-6.59A6.59,6.59,0,0,0,374,147.23Z"/><path class="cls-5" d="M420.32,75.88a6.59,6.59,0,1,0-6.59-6.59A6.59,6.59,0,0,0,420.32,75.88Z"/><path class="cls-5" d="M472.1,105.93a6.59,6.59,0,1,0-6.59-6.59A6.58,6.58,0,0,0,472.1,105.93Z"/><circle class="cls-6" cx="398.46" cy="208.79" r="8.85" transform="translate(-30.93 342.9) rotate(-45)"/><polyline class="cls-7" points="283.11 167.38 321.73 115.15 374 140.64 420.32 69.29 472.1 99.34 522.45 45.96"/><path class="cls-8" d="M302.33,46.15h69.36M302.33,58.38h69.36M302.33,70.61h69.36"/><path class="cls-8" d="M449.39,132.31h69.36m-69.36,12.23h69.36m-69.36,12.23h69.36"/><rect class="cls-6" x="40.93" y="31.26" width="174.35" height="147.53" transform="translate(-6.5 201.59) rotate(-75)"/><rect class="cls-6" x="40.09" y="21.68" width="147.53" height="174.35"/><rect class="cls-6" x="25.85" y="25.49" width="147.53" height="174.35" transform="translate(-25.77 29.62) rotate(-15)"/><line class="cls-3" x1="85.44" y1="63.96" x2="132.85" y2="51.26"/><line class="cls-3" x1="88.48" y1="75.33" x2="135.89" y2="62.63"/><line class="cls-3" x1="96.99" y1="107.08" x2="144.4" y2="94.38"/><line class="cls-3" x1="100.04" y1="118.45" x2="147.45" y2="105.75"/><line class="cls-3" x1="108.54" y1="150.2" x2="155.95" y2="137.5"/><line class="cls-3" x1="111.59" y1="161.57" x2="159" y2="148.87"/><rect class="cls-3" x="41.21" y="63.88" width="28.43" height="28.43" transform="translate(-18.33 17.01) rotate(-15)"/><polyline class="cls-9" points="36.83 77.51 52.62 86.47 74.76 47.65"/><rect class="cls-3" x="52.65" y="106.58" width="28.43" height="28.43" transform="matrix(0.97, -0.26, 0.26, 0.97, -28.98, 21.42)"/><rect class="cls-3" x="64.09" y="149.27" width="28.43" height="28.43" transform="translate(-39.64 25.84) rotate(-15)"/><polyline class="cls-9" points="48.27 120.2 64.06 129.16 86.2 90.34"/><polyline class="cls-9" points="59.71 162.89 75.5 171.85 97.64 133.03"/><path class="cls-5" d="M210.38,309.05h0c4.27,15.94-20.6,36.46-55.55,45.83s-66.75,4-71-11.92h0l-14-52.35,68.46,4.07.47,0,.39-.26,57.25-37.76,14,52.35Zm32.36-86.32-125.32-7.45L12.63,284.39l125.31,7.45Z"/><line class="cls-3" x1="14.07" y1="284.38" x2="14.07" y2="352.7"/><path class="cls-5" d="M14.07,361.46A8.77,8.77,0,1,0,5.3,352.7,8.76,8.76,0,0,0,14.07,361.46Z"/><line class="cls-3" x1="14.07" y1="352.7" x2="14.07" y2="374.55"/><line class="cls-3" x1="14.07" y1="352.7" x2="19.72" y2="373.8"/><line class="cls-3" x1="14.07" y1="352.7" x2="25" y2="371.62"/><line class="cls-3" x1="14.07" y1="352.7" x2="8.41" y2="373.8"/><line class="cls-3" x1="14.07" y1="352.7" x2="3.14" y2="371.62"/><rect class="cls-10" x="220.94" y="260.06" width="126.4" height="90.5" transform="translate(-84.31 500.75) rotate(-75)"/><rect class="cls-11" x="282.33" y="241.65" width="24.13" height="66.37" transform="matrix(0.26, -0.97, 0.97, 0.26, -47.27, 488.06)"/><rect class="cls-10" x="256.23" y="287.67" width="12.07" height="12.07" transform="translate(-89.31 471.01) rotate(-75)"/><rect class="cls-10" x="279.54" y="293.92" width="12.07" height="12.07" transform="translate(-78.07 498.16) rotate(-75)"/><rect class="cls-10" x="302.85" y="300.16" width="12.07" height="12.07" transform="matrix(0.26, -0.97, 0.97, 0.26, -66.82, 525.32)"/><rect class="cls-10" x="249.98" y="310.98" width="12.07" height="12.07" transform="translate(-116.46 482.26) rotate(-75)"/><rect class="cls-10" x="273.29" y="317.23" width="12.07" height="12.07" transform="translate(-105.21 509.41) rotate(-75)"/><rect class="cls-10" x="296.6" y="323.48" width="12.07" height="12.07" transform="translate(-93.97 536.55) rotate(-75)"/><rect class="cls-10" x="243.74" y="334.29" width="12.07" height="12.07" transform="translate(-143.61 493.5) rotate(-75)"/><rect class="cls-10" x="267.05" y="340.54" width="12.07" height="12.07" transform="translate(-132.36 520.65) rotate(-75)"/><rect class="cls-10" x="290.36" y="346.79" width="12.07" height="12.07" transform="translate(-121.12 547.8) rotate(-75)"/><rect class="cls-12" x="279.23" y="236.14" width="24.13" height="66.37" transform="translate(-44.24 480.98) rotate(-75)"/><polygon class="cls-13" points="469.37 302.32 499.5 332.45 447.4 384.54 442.98 358.84 417.28 354.41 469.37 302.32"/><polygon class="cls-13" points="491.11 302.32 460.99 332.45 513.08 384.54 517.5 358.84 543.21 354.41 491.11 302.32"/><polygon class="cls-14" points="480.24 231.11 495.57 247.54 517.62 243.26 520.37 265.56 540.73 275.06 529.84 294.71 540.73 314.37 520.37 323.87 517.62 346.17 495.57 341.88 480.24 358.31 464.91 341.88 442.86 346.17 440.11 323.87 419.75 314.37 430.64 294.71 419.75 275.06 440.11 265.56 442.86 243.26 464.91 247.54 480.24 231.11"/><circle class="cls-15" cx="479.84" cy="294.72" r="42.7" transform="translate(-52.52 111.16) rotate(-12.53)"/><circle class="cls-16" cx="481.51" cy="295.19" r="39.79"/><circle class="cls-3" cx="480.24" cy="294.71" r="42.7" transform="translate(-54.86 118.22) rotate(-13.28)"/><path class="cls-7" d="M447.76,286a33.65,33.65,0,0,1,41.18-23.78"/><polygon class="cls-17" points="141.59 391.6 371.65 391.6 473.3 391.6 551.61 391.6 514.87 443.64 551.61 495.68 473.3 495.68 371.65 495.68 141.59 495.68 141.59 391.6"/><polygon class="cls-18" points="106.22 479.23 21.33 542.67 11.92 530.54 96.81 467.1 106.22 479.23"/><circle class="cls-6" cx="136.92" cy="441.47" r="64.7" transform="translate(-272.06 226.12) rotate(-45)"/><path class="cls-19" d="M2,531l60.78-46.35,16.94,21.82c-33.93,26.4-26.84,20-60.78,46.35Z"/><circle class="cls-20" cx="136.8" cy="441.47" r="52.56" transform="translate(-131.25 64.96) rotate(-18.23)"/><path class="cls-8" d="M92.61,442A45.31,45.31,0,0,1,112,406.23m9.92-5.29a46,46,0,0,1,17.92-3"/><line class="cls-21" x1="13.23" y1="529.92" x2="62.25" y2="492.21"/><path class="cls-22" d="M251.9,407.52v29.42h-5.8V413.07H235.72v23.87h-5.8V407.52Zm16.43,0a9.75,9.75,0,0,1,7.14,2.86,9.95,9.95,0,0,1,0,14,9.78,9.78,0,0,1-7.14,2.85h-5.17v9.67h-5.8V407.52Zm0,14.33a4.07,4.07,0,0,0,3.07-1.28,4.77,4.77,0,0,0,0-6.37,4.09,4.09,0,0,0-3.07-1.26h-5.17v8.91Zm38.58,11.24a15.48,15.48,0,1,1,4.45-10.86,14.77,14.77,0,0,1-4.45,10.86Zm-17.61-3.95a9.5,9.5,0,0,0,16.26-6.91,9.39,9.39,0,0,0-2.73-6.93,9.72,9.72,0,0,0-13.53,0,10.14,10.14,0,0,0,0,13.84Zm43.92-7.46a7.27,7.27,0,0,1,3.86,6.73,7.9,7.9,0,0,1-2.64,6.13,9.36,9.36,0,0,1-6.52,2.4H315.44V407.52H327a9.2,9.2,0,0,1,6.37,2.33A7.67,7.67,0,0,1,336,415.8a7.15,7.15,0,0,1-2.77,5.88ZM327,412.94h-5.8v6.47H327a3,3,0,0,0,2.25-.92,3.44,3.44,0,0,0,0-4.62,3,3,0,0,0-2.27-.93Zm.88,18.58a3.26,3.26,0,0,0,2.44-1,3.45,3.45,0,0,0,1-2.5,3.4,3.4,0,0,0-1-2.46,3.26,3.26,0,0,0-2.44-1h-6.68v6.94Zm18.75-.13h12.39v5.55H340.87V407.52h18v5.55H346.67v6.26H357.8v5.46H346.67v6.6Zm27.44-23.87a9.75,9.75,0,0,1,7.14,2.86,9.95,9.95,0,0,1,0,14,9.78,9.78,0,0,1-7.14,2.85h-5.17v9.67h-5.8V407.52Zm0,14.33a4.09,4.09,0,0,0,3.07-1.28,4.77,4.77,0,0,0,0-6.37,4.11,4.11,0,0,0-3.07-1.26h-5.17v8.91Zm38.58,11.24a15.48,15.48,0,1,1,4.45-10.86,14.79,14.79,0,0,1-4.45,10.86Zm-17.61-3.95a9.5,9.5,0,0,0,16.26-6.91,9.39,9.39,0,0,0-2.73-6.93,9.72,9.72,0,0,0-13.53,0,10.14,10.14,0,0,0,0,13.84Zm49.13,7.8h-6.68L427,423.15v13.79h-5.8V407.52H427v13l10.09-13h6.68L432.9,421.81l11.31,15.13Zm-203,24.91a9.87,9.87,0,0,1,7,2.54,9.33,9.33,0,0,1,0,13.19,9.87,9.87,0,0,1-7,2.55H229.92V450.71h18.49v5.55H235.72v5.59Zm0,12.86a4.2,4.2,0,0,0,2.86-1,3.45,3.45,0,0,0,1.13-2.75,3.4,3.4,0,0,0-1.13-2.74,4.28,4.28,0,0,0-2.86-1h-5.46v7.44Zm19.12-.13h12.4v5.55H254.5V450.71h18v5.55H260.3v6.26h11.14V468H260.3v6.6Zm30.43,6.14a14.73,14.73,0,0,1-11-4.42,15.87,15.87,0,0,1,0-21.79,14.75,14.75,0,0,1,11-4.39,15,15,0,0,1,7.38,1.87,13.79,13.79,0,0,1,5.27,5.06l-5,2.9a7.81,7.81,0,0,0-3.11-3.08,10,10,0,0,0-11.45,1.57,10.51,10.51,0,0,0,0,13.91,9.19,9.19,0,0,0,6.91,2.69,9.38,9.38,0,0,0,4.56-1.11,7.51,7.51,0,0,0,3.09-3.05l5,2.9a13.76,13.76,0,0,1-5.25,5.07,15,15,0,0,1-7.4,1.87Zm38.54-30v29.42h-5.8V456.26H313.09v23.87h-5.8V450.71Zm3.19,29.42v-5.38a4.17,4.17,0,0,0,3.91-1.05q1.31-1.44,1.3-5.59v-17.4h20v29.42h-5.76V456.26h-8.49v11.68a19.57,19.57,0,0,1-.92,6.43,8.26,8.26,0,0,1-2.55,3.87,8.75,8.75,0,0,1-3.44,1.68,12.77,12.77,0,0,1-4.06.21Zm49.59,0-1.76-5.3H368.56l-1.76,5.3h-6.27l10.3-29.42H378l10.34,29.42Zm-11.64-10.72h8.07l-4-12-4,12Zm40.26-18.7v5.55h-7.94v23.87h-5.8V456.26H389v-5.55Zm20,0h5.76v29.42h-5.76V467.94H419.71v12.19h-5.8V450.71h5.8v11.68h10.92V450.71Zm36,25.57a15.49,15.49,0,1,1,4.45-10.86,14.79,14.79,0,0,1-4.45,10.86ZM449,472.33a9.8,9.8,0,0,0,13.53,0,10.15,10.15,0,0,0,0-13.85,9.75,9.75,0,0,0-13.53,0,10.15,10.15,0,0,0,0,13.85Zm26.9-2.08-1.14-11.14v-8.4h6.51v8.4l-1.09,11.14Zm4.66,9.37a3.55,3.55,0,1,1,1.05-2.52A3.44,3.44,0,0,1,480.56,479.62Z"/><polygon class="cls-22" points="116.87 408.39 163.42 408.39 163.42 417.23 136.26 482.95 125.92 482.95 152.87 417.76 116.87 417.76 116.87 408.39"/></g></g></svg>