<svg xmlns="http://www.w3.org/2000/svg" viewBox="0 0 1709.7 447.53"><defs><style>.cls-1{fill:#404041;}</style></defs><title>oqos</title><g id="Слой_2" data-name="Слой 2"><g id="Слой_1-2" data-name="Слой 1"><path class="cls-1" d="M20.52,1.31A27.13,27.13,0,0,0,.82,23c-.7,3.6-.9,59.2-.8,165.5.3,150.5.4,160.2,2.1,164.5a26.63,26.63,0,0,0,13.4,14.6c4.9,2.3,6.9,2.7,14.2,2.7,13.5,0,22.5-5.2,27.2-15.6l2.4-5.3V185.91c0-158-.1-163.7-1.9-168.4-4-10.4-12.9-16.3-25.4-17.2A40.37,40.37,0,0,0,20.52,1.31Z"/><path class="cls-1" d="M180.92,1.51c-9.2,2.5-15.1,7.2-18.9,15.3-1.6,3.3-1.7,11.9-2,107.6-.2,66.2.1,108.7.7,116.8,3,36.6,13.2,62.2,33.1,83.1,26.1,27.5,64,41.5,123.8,45.6,9.4.6,62.7,1,136.6,1h121.3l6.4,6.7c23.9,25.5,64.5,65.6,68.1,67.5,6.4,3.4,15.6,3.2,23-.5,11.2-5.5,19.8-18.5,19.8-30,0-9.7-2.2-12.6-33.9-44.9L629.82,340V234.71c0-110-.2-116.1-4.5-132.9-6.1-24.3-15.8-42.2-31-57.4-21.6-21.7-54.4-35.6-97-40.9-24.8-3.2-45.7-3.6-178-3.5C206.12,0,185.52.21,180.92,1.51Zm316.4,54.2c36.5,7.1,56.6,23.3,65.4,52.7,4.9,16.3,5.1,20.7,5.1,118.3V318l-132.7-.4c-145.4-.4-137.9-.1-158.3-6.3-29.9-9.1-45.7-27.6-52.7-62-1.4-6.9-1.6-20.3-2-102.2l-.4-94.3,132.3.4C484.32,53.51,486.52,53.61,497.32,55.71Z"/><path class="cls-1" d="M885.32.61c-3.8.2-13.9,1-22.4,1.8-90.3,9-134,47.7-141.1,125-1.3,14.2-1.3,100.6,0,115.5,3.8,42.4,19.2,73.3,46.9,94,15.3,11.5,39.8,21.5,64.4,26.5,28.7,5.7,34.2,6,121.2,6,85.2,0,91.8-.3,118-5.1,46.8-8.5,77.3-25.9,96.1-54.9,2.8-4.4,6.1-9.8,7.2-12,3.5-7.1,9-24.1,11.4-35.2,2.1-10.4,2.2-13.2,2.6-71.3.2-41.2,0-63.5-.8-70-4.8-39.9-20.9-69.7-48-88.9-25.9-18.3-61.2-28.1-111.5-31.1C1014.42,0,904.12-.19,885.32.61Zm169,53.6c24.6,4.5,38.7,10.9,51.1,23.2,6.7,6.6,8.9,9.7,12.8,17.5,9.6,19.6,10.6,28.4,10.6,91,0,54.8-.6,61.9-6,78.3-9.6,28.7-29.9,44.5-66,51.3-8.6,1.7-17.7,1.9-94.5,2.2-91.1.4-99.8,0-118-4.5-38.3-9.4-57.4-33.3-61.5-76.8-1.3-14.2-1.3-88.7,0-103,4.2-45.3,25.1-69.3,67.7-77.9,15.2-3.1,25.6-3.4,109.8-3.2C1034.72,52.51,1046.42,52.71,1054.32,54.21Z"/><path class="cls-1" d="M1418.32,1c-66.9,3.8-106.8,17.5-123.8,42.5-9.6,14.2-12.7,28.5-12.7,58.9,0,21.9,1.1,34.5,4.1,46.5,8.3,33.6,30,50.9,73,58.1,5.4.9,38.6,1.4,123.4,1.9,98.7.6,117.2,1,124.2,2.3,22.5,4.2,34.5,11.7,39.3,24.5,4.5,11.8,4.6,43.3.2,54.9-6.8,18-24,24.7-69.7,27.3-24,1.3-172.5,1.3-188-.1-22.2-1.9-36.5-6.8-44-15-1.9-2.1-5.2-7.4-7.4-11.6-6.3-12.6-13.6-17.8-26.6-19-14.8-1.4-27.4,5.8-30.9,17.6-2.1,7.1-2,11.1.3,20.3,8.4,32.6,35,49.6,89.6,57.4,16.5,2.3,56.5,3.3,131.5,3.3,69,.1,95.4-.8,114-3.5,62.4-9.1,91.9-38.9,94.7-95.9,1.1-24-3-48.3-11-65-13.9-28.7-39.2-42.3-88.7-47.6-6.7-.7-47.5-1.2-113-1.5-63.4-.3-106.1-.8-112-1.5-16.7-1.9-29.5-7.4-35.6-15.4-5.3-7-6.6-14-6.6-35,0-16.6.2-19.8,2.1-25.7,5.5-17.1,19.9-24.1,55.6-26.7,17.9-1.4,168.2-1.4,183.2-.1,29.9,2.7,42.6,9.2,50.6,26.2,4.3,9,8.3,13.2,15.7,16.7,7.6,3.5,21,3.7,28.6.2,13.9-6.1,18.2-20.9,11.9-40-10.7-31.8-39-47.1-100-54.2C1578,.41,1440.32-.29,1418.32,1Z"/></g></g></svg>