<svg xmlns="http://www.w3.org/2000/svg" viewBox="0 0 600 122.7"><defs><style>.cls-1{fill:#3d3f56;}.cls-2{fill:#f64343;}</style></defs><title>joom</title><g id="Слой_2" data-name="Слой 2"><g id="layer"><path class="cls-1" d="M83.7,86.3a36.32,36.32,0,0,1-36.3,36.4V36.4A36.32,36.32,0,0,1,83.7,0Z"/><circle class="cls-2" cx="18.1" cy="104.6" r="18.1"/><path class="cls-1" d="M195.8,17.5a9.09,9.09,0,0,1,2.7-6.4,9.17,9.17,0,0,1,13,0,9.09,9.09,0,0,1,2.7,6.4V85a33.46,33.46,0,0,1-33.4,33.4,8.69,8.69,0,0,1-6.4-2.7,8.54,8.54,0,0,1-2.7-6.4,9.09,9.09,0,0,1,2.7-6.4,8.54,8.54,0,0,1,6.4-2.7,14.51,14.51,0,0,0,10.7-4.5A14.71,14.71,0,0,0,195.8,85Zm91.5,100.8a52.94,52.94,0,0,1-38.9-16.2,53.17,53.17,0,0,1-16.2-38.9,53,53,0,0,1,16.2-39A53.07,53.07,0,0,1,287.3,8.1a53.62,53.62,0,0,1,39,16.1,53.3,53.3,0,0,1,16.1,39,53.24,53.24,0,0,1-16.1,38.9A53,53,0,0,1,287.3,118.3Zm0-92a35.72,35.72,0,0,0-26.1,10.8,35.65,35.65,0,0,0-10.9,26.1,35.65,35.65,0,0,0,10.9,26.1,36.79,36.79,0,0,0,52,.2l.2-.2a36,36,0,0,0,10.8-26.1,35.47,35.47,0,0,0-10.7-26.1A36,36,0,0,0,287.3,26.3Zm126.1,92a52.94,52.94,0,0,1-38.9-16.2,53.17,53.17,0,0,1-16.2-38.9,53,53,0,0,1,16.2-39,55,55,0,0,1,77.8,0,53.3,53.3,0,0,1,16.1,39,53.24,53.24,0,0,1-16.1,38.9A52.94,52.94,0,0,1,413.4,118.3Zm0-92a35.24,35.24,0,0,0-26.2,10.8,35.65,35.65,0,0,0-10.9,26.1,35.65,35.65,0,0,0,10.9,26.1,36.79,36.79,0,0,0,52,.2l.2-.2a36,36,0,0,0,10.8-26.1,36.87,36.87,0,0,0-36.8-36.9ZM593.2,8.4a8.81,8.81,0,0,1,4.9,3.3,8.87,8.87,0,0,1,1.9,5.4v92.2a9,9,0,0,1-15.4,6.4h0a8.6,8.6,0,0,1-2.6-6.4V49.6L553.4,96.8l-.3.5v.3l-.4.4-.9.6-.3.3-.4.4-.5.3-.5.3h-.4a9.37,9.37,0,0,1-3.7.7h-.3a11.8,11.8,0,0,1-2-.4h-1.1l-.6-.3-.5-.4-2-.6-.3-.3-.3-.3-.4-.4v-.3l-.4-.5L509.2,49.6v59.7a8.69,8.69,0,0,1-2.7,6.4,8.54,8.54,0,0,1-6.2,2.6,9.16,9.16,0,0,1-9-9V17.2a8.11,8.11,0,0,1,1.9-5.4,8.81,8.81,0,0,1,4.9-3.3,9.1,9.1,0,0,1,10.2,4.1L546,74.9l37.7-62.3a8.66,8.66,0,0,1,4-3.8l2.8-1.1Z"/></g></g></svg>