<svg xmlns="http://www.w3.org/2000/svg" viewBox="0 0 583.02 82.8"><defs><style>.cls-1{fill:#201600;}</style></defs><title>marella</title><g id="Слой_2" data-name="Слой 2"><g id="Layer_1" data-name="Layer 1"><polygon class="cls-1" points="330.72 82.8 330.72 69.11 292.56 69.11 292.56 46.88 321.28 46.88 321.28 33.74 292.56 33.74 292.56 13.68 330.72 13.68 330.72 0 277.91 0 277.91 82.8 330.72 82.8"/><polygon class="cls-1" points="359.17 0 359.17 82.8 413.97 82.8 413.97 69.11 373.82 69.11 373.82 0 359.17 0"/><polygon class="cls-1" points="434.71 0 434.71 82.8 489.51 82.8 489.51 69.11 449.36 69.11 449.36 0 434.71 0"/><path class="cls-1" d="M171.23,82.8,135.81.62a.84.84,0,0,0-1.62,0L95.61,82.8h14.65l8.68-18.49h29.68l8,18.49ZM123.66,51.48l10.81-23,9.92,23Z"/><path class="cls-1" d="M583,82.8,547.6.62a.83.83,0,0,0-1.61,0L507.41,82.8h14.65l8.67-18.49h29.69l8,18.49ZM535.46,51.48l10.81-23,9.92,23Z"/><path class="cls-1" d="M76.6.48c-.45,0-.87.42-1.23.83L37.92,42.16,2.05,1.31C1.7.9,1.3.48.87.48A.83.83,0,0,0,0,1.31V82.8H14.15V34.48L37.92,61.56,62.73,34.48V82.8H77.51V1.31A.85.85,0,0,0,76.6.48Z"/><path class="cls-1" d="M251.83,82.8,233.13,49a25.28,25.28,0,0,0-8.85-49H191V82.8h14.65V50.55h12.58L236.08,82.8ZM205.68,14.1h18a11.8,11.8,0,1,1,0,23.6h-18Z"/></g></g></svg>