<svg xmlns="http://www.w3.org/2000/svg" viewBox="0 0 254 124.08"><defs><style>.cls-1{fill:#c50124;}</style></defs><title>omega</title><g id="Слой_2" data-name="Слой 2"><g id="Слой_1-2" data-name="Слой 1"><path class="cls-1" d="M98.46,9.45c12.59-12,34.17-12.56,47.67-1.73A26.82,26.82,0,0,1,156,32c-1.11,9.56-7.24,18-15.06,23.3,4,.16,8,.14,12,.06,1.57-2,2.48-5.6,5.75-4.85-1.7,3.28-3.4,6.57-5.19,9.8-8.08-.14-16.17.21-24.24-.2,5.1-4.54,10.28-9.2,13.53-15.32,5.84-10.49,5.91-25-2.42-34.17-7.93-9.2-23.53-10-32.4-1.73-5.71,4.95-8.57,12.68-8.41,20.14a35,35,0,0,0,8.92,22.56c2.59,3.13,5.83,5.62,8.66,8.52-8.07.37-16.14.14-24.21.13-1.67-3.27-3.45-6.49-5.1-9.78,3.37-.86,4.15,3.05,5.87,5,3.93,0,7.86,0,11.79,0C99.25,50.82,93.9,44.61,91.65,37.11,88.52,27.59,91.09,16.35,98.46,9.45Z"/><path class="cls-1" d="M228.22,71.84C237,88.59,245.28,105.6,254,122.38v.25c-2.71,0-5.41,0-8.11,0-1.63-3.28-3.3-6.55-4.89-9.84q-12.67,0-25.33,0c-1.71,3.27-3.35,6.57-5,9.88-2.75,0-5.5,0-8.25,0,8.73-16.86,17.23-33.84,25.79-50.79m-9.07,33.8c6.08.24,12.17.08,18.26.11-3-6-6-12-9.17-17.89C225.2,93.78,222.28,99.77,219.15,105.64Z"/><path class="cls-1" d="M2.92,87c5.27-10.64,18.8-16.2,30-12.12,12.14,3.68,19.53,17.48,16.4,29.69-2.59,11.26-13.76,19.91-25.38,19.07C11.37,123.47.54,112.37,0,99.92V97.54A27.21,27.21,0,0,1,2.92,87m16.4-5.48c-11,3.3-15.58,17.93-9.09,27.19,5.22,8.56,18.1,10.53,25.77,4.17,7.83-5.89,9-18.31,2.78-25.79A17.82,17.82,0,0,0,19.32,81.53Z"/><path class="cls-1" d="M51.59,122.51c5.58-16.17,9.92-32.77,15.74-48.85,4.73,10.79,9.43,21.6,13.85,32.51,4.79-11,9.62-21.91,14.06-33,5.44,16.41,10.43,33,15.63,49.45l-7.49,0c-3.17-9.65-5.89-19.44-9.15-29.06-4.13,10.25-8.57,20.39-13,30.5-4.24-10.17-8.56-20.32-13-30.38-2.89,9.65-6,19.24-8.89,28.89C56.71,122.66,54.15,122.64,51.59,122.51Z"/><path class="cls-1" d="M171.91,74.42c9.91-2.9,20.85,1.56,26.91,9.69l-5.88,4.26a17.86,17.86,0,0,0-21.15-6.56c-8.55,3.12-13.34,13.36-10.58,22a17.55,17.55,0,0,0,17.84,12.82c7.53-.08,14.3-5.65,16.45-12.76-5.62,0-11.23,0-16.85,0,0-2.33,0-4.67,0-7,8.21,0,16.42,0,24.64,0,.25,7.29-2.28,14.77-7.69,19.8a24.89,24.89,0,0,1-25,6,25.09,25.09,0,0,1,1.3-48.12Z"/><path class="cls-1" d="M116.88,74.59c9.77,0,19.53,0,29.29,0,0,2.33,0,4.67,0,7-7.31.07-14.62,0-21.93,0,0,4.5,0,9,0,13.5,7.08,0,14.17,0,21.25,0,0,2.34,0,4.69,0,7-7.09-.08-14.17,0-21.25,0,0,4.49,0,9,0,13.47,7.31,0,14.62-.06,21.93,0,0,2.32,0,4.64,0,7-9.76.06-19.53.07-29.3,0Q116.93,98.6,116.88,74.59Z"/></g></g></svg>