<svg xmlns="http://www.w3.org/2000/svg" viewBox="0 0 2500 1360.7"><defs><style>.cls-1{fill:#211e1e;}.cls-2{fill:#b09145;}</style></defs><title>patek-philippe</title><g id="Слой_2" data-name="Слой 2"><g id="Слой_1-2" data-name="Слой 1"><path class="cls-1" d="M329.71,946.28H207.63L182.89,1011H147.54L254.54,740h32.79L392.54,1011H354.39ZM218.83,916.89h99.74L268.91,786.64ZM34.4,768.87v98H82.09s8.64-.3,13-.3c14.49,0,24.08-3.16,33.2-11.57,9.24-8.58,13.3-22.59,13.3-37.26a53.7,53.7,0,0,0-13.41-37.61c-9.42-10.31-27-11.27-30-11.27H34.4ZM0,740.08H93.35c14.07,0,39.11,3.28,56,17,23.25,19,27.42,43.52,27.42,60.09s-4.05,38.75-20.27,54.6c-21.16,20.75-43.34,23.91-74.45,23.91H34.4V1011H0ZM1298,740h34.33V856.26h121.73V740h34.34V1011h-34.34V886.19H1332.32V1011H1298Zm251.08,0h34.34v270.82h-34.34Zm93.41,0h34.34V981H1794.2v30H1642.48ZM551.89,740v30H469.44v241H435.05V770H352.31V740Zm182.71,0-17.11,30H615.07v84.76h95.74v30.05H615.07V981H715.22l17.17,30H580.74V740Zm71.23,127L922.37,739.9l42.92.06L876,836.53l91.2,174.37H928L852.33,861.69l-46.5,50.07v99.14H771.5V740h34.33Zm310.4-98.18v98h47.69s8.64-.29,13-.29c14.6,0,24.2-3.16,33.2-11.57,9.24-8.58,13.29-22.59,13.29-37.26a53.36,53.36,0,0,0-13.47-37.61c-9.3-10.31-26.94-11.27-30.1-11.27h-63.61Zm-34.39-28.79h93.35c14.07,0,39.22,3.28,56.15,17,23.19,19,27.36,43.52,27.36,60.09s-4,38.75-20.26,54.6c-21.23,20.75-43.4,23.91-74.52,23.91h-47.69V1011h-34.39Zm741.33-.06h34.21v270.82h-34.21ZM1950,768.87v98h47.69s8.53-.29,13-.29c14.48,0,24.14-3.16,33.14-11.57,9.3-8.58,13.29-22.59,13.29-37.26a53.25,53.25,0,0,0-13.41-37.61c-9.42-10.31-27.06-11.27-30.1-11.27H1950Zm-34.34-28.79H2009c14.18,0,39.1,3.28,56,17,23.31,19,27.42,43.52,27.42,60.09s-4,38.75-20.26,54.6c-21.11,20.75-43.4,23.91-74.46,23.91H1950V1011h-34.34Zm248.94,28.79v98h47.69s8.53-.29,13-.29c14.48,0,24.14-3.16,33.14-11.57,9.3-8.58,13.36-22.59,13.36-37.26a53.32,53.32,0,0,0-13.48-37.61c-9.42-10.31-26.94-11.27-30.1-11.27h-63.61Zm-34.33-28.79h93.29c14.07,0,39.11,3.28,56,17,23.31,19,27.43,43.52,27.43,60.09s-4,38.75-20.27,54.6c-21.1,20.75-43.34,23.91-74.4,23.91h-47.75V1011h-34.33ZM2500,740l-17.11,30H2380.42v84.76h95.79v30.05h-95.79V981h100.33l17,30H2346.08V740ZM1324.75,1335.36h72.85l12.46,21.82H1299.72v-196.9h134.42l57.23,162.92,59.55-162.92h25.63l-74.69,197H1478L1414.41,1182h-89.66v61.76h69.63v21.88h-69.63Zm-231-175.08-12.4,21.7h-74.58v61.82h69.63v21.7h-69.69v69.86h73l12.34,21.82H981.75v-196.9Zm141.22,1h23.84v196.9h-25.45l-89.3-161v161h-23.85V1161.3h32.49L1235,1309.85Zm475.28-1L1697.8,1182h-74.51v61.82H1693v21.7h-69.75v69.86h73l12.34,21.82H1598.31v-196.9ZM945.09,1256.5v71.41c-16.22,15.38-36.79,32.79-77.5,32.79-45.72,0-87-38.69-87-100,0-58.18,38.86-104,92.28-104,43.33,0,64.73,26.7,72.84,38.69l-17.88,16.81s-18.18-34.46-55-34.46c-36.19,0-64.86,32.43-64.86,84.11,0,48.94,30.82,77.74,63.66,77.74,28.56,0,47.69-19.26,49-20.69v-41H860.79V1256.5Z"/><path class="cls-2" d="M1237.48,306.88h-121c-19.49,0-39.28,11.92-39.28,27.9,0,5.78,4.7,16.69,20.86,16.69,20.86,0,38.81-21.52,57.47-21.52,16.45,0,18.77,15.08,18.77,15.08-9.83-.24-13.41.24-25.57,6.26-11.51,5.61-26.83,19.5-37,30.4s-26.53,25-46.2,25-39.1-12.64-39.1-35.53c0-30.34,24.2-40.06,24.2-51.08,0-3.28-1.55-7.52-7.93-7.52-9.78,0-29,14.31-47.51,14.31-25.4,0-47.51-28.61-47.51-28.61s22-28.56,47.51-28.56c18.54,0,37.73,14.31,47.51,14.31,6.38,0,7.93-4.29,7.93-7.63,0-10.85-24.2-20.63-24.2-51,0-22.89,19.31-35.53,39.1-35.53s36.07,14.07,46.2,25,25.45,24.8,37,30.4c12.16,6,15.74,6.44,25.57,6.26,0,0-2.38,15.08-18.77,15.08-18.66,0-36.55-21.58-57.47-21.58-16.21,0-20.86,11-20.86,16.7,0,16.09,19.79,28,39.34,28h121v-121c0-19.55-12-39.22-28-39.22-5.78,0-16.69,4.59-16.69,20.86,0,20.8,21.58,38.81,21.58,57.47,0,16.33-15.14,18.65-15.14,18.65.24-9.83-.18-13.29-6.26-25.51-5.54-11.44-19.43-26.82-30.4-37s-25-26.59-25-46.26,12.7-39.1,35.59-39.1c30.28,0,40.12,24.32,51.09,24.32,3.22,0,7.45-1.61,7.45-8,0-9.84-14.31-29-14.31-47.57C1217.39,22.12,1246,0,1246,0s28.61,22.06,28.61,47.51c0,18.6-14.31,37.73-14.31,47.57,0,6.38,4.24,8,7.51,8,10.91,0,20.75-24.32,51-24.32,22.89,0,35.59,19.37,35.59,39.1s-14.07,36.07-25,46.2-24.8,25.58-30.52,37c-6,12.28-6.38,15.74-6.14,25.57,0,0-15.14-2.38-15.14-18.65,0-18.66,21.58-36.67,21.58-57.47,0-16.27-10.91-20.86-16.69-20.86-16,0-28,19.67-28,39.22v121h121c19.5,0,39.23-11.92,39.23-28,0-5.79-4.53-16.7-20.87-16.7-20.74,0-38.8,21.58-57.46,21.58-16.4,0-18.66-15.08-18.66-15.08,9.84.18,13.41-.24,25.57-6.32,11.45-5.54,26.77-19.43,36.9-30.4s26.65-25,46.26-25c19.79,0,39.11,12.7,39.11,35.59,0,30.34-24.33,40.12-24.33,51,0,3.34,1.55,7.63,8,7.63,9.84,0,29-14.31,47.51-14.31,25.46,0,47.51,28.62,47.51,28.62s-22,28.55-47.51,28.55c-18.54,0-37.67-14.31-47.51-14.31-6.5,0-8,4.24-8,7.52,0,11,24.33,20.74,24.33,51.08,0,22.89-19.32,35.53-39.11,35.53s-36.06-14.07-46.26-25-25.45-24.79-37-30.4c-12.1-6.08-15.67-6.44-25.51-6.26,0,0,2.26-15.08,18.66-15.08,18.66,0,36.72,21.58,57.46,21.58,16.34,0,20.87-11,20.87-16.69,0-16.1-19.73-28-39.23-28h-121v121c0,19.56,12,39.23,28,39.23,5.78,0,16.69-4.59,16.69-20.81,0-20.86-21.58-38.92-21.58-57.52,0-16.34,15.14-18.66,15.14-18.66-.24,9.84.18,13.35,6.14,25.51,5.72,11.45,19.55,26.83,30.52,37s25,26.59,25,46.32-12.7,39-35.59,39c-30.28,0-40.12-24.2-51-24.2-3.27,0-7.51,1.49-7.51,7.86,0,9.84,14.31,29,14.31,47.51,0,25.46-28.61,47.51-28.61,47.51s-28.62-22.05-28.62-47.51c0-18.48,14.31-37.67,14.31-47.51,0-6.37-4.23-7.86-7.45-7.86-11,0-20.81,24.2-51.09,24.2-22.89,0-35.59-19.38-35.59-39s14.13-36.12,25-46.26,24.86-25.57,30.4-37c6.08-12.22,6.5-15.73,6.26-25.63,0,0,15.14,2.39,15.14,18.72,0,18.6-21.58,36.66-21.58,57.52,0,16.22,10.91,20.81,16.69,20.81,16,0,28-19.67,28-39.23Z"/></g></g></svg>