<svg xmlns="http://www.w3.org/2000/svg" viewBox="0 0 566.8 31.5"><defs><style>.cls-1{fill:#d61233;}.cls-2{fill:#fff;}.cls-3{fill:#02154e;}</style></defs><title>tommy-hilfiger</title><g id="Слой_2" data-name="Слой 2"><g id="Слой_1-2" data-name="Слой 1"><path class="cls-1" d="M268.8,23.4V8h23.6V23.4Z"/><path class="cls-2" d="M245.2,23.4V8.1h23.6V23.5H245.2Z"/><path class="cls-3" d="M58.3,0c-10,0-16.5,7.2-16.5,15.7,0,8.3,6.3,15.8,16.4,15.8,10.4,0,16.6-7.5,16.6-15.8C74.8,7.2,68.4,0,58.3,0ZM481.9,0c-9.4,0-16.5,6.9-16.5,15.9s6.9,15.6,16.4,15.6A26.81,26.81,0,0,0,493.5,29h0V16H483.2v4h5.9v6.3a21,21,0,0,1-6.7,1.2c-7.3,0-12.4-4.8-12.4-11.7A11.63,11.63,0,0,1,481.8,4a23.64,23.64,0,0,1,11,3V2.6C488,.6,485.5,0,481.9,0ZM0,.4v4H10.6V31.2H15V4.4H25.6V.4ZM95.5.4V31.1h4.4V7.2h.1l9.5,11.9h.7l9.4-11.9h.1V31.1h4.4V.4H120L109.9,13,99.7.4Zm53.6,0V31.1h4.4V7.2h.1l9.5,11.9h.7l9.5-11.9h.1V31.1h4.4V.4h-4.1L163.5,13,153.3.4Zm47.8,0,11.4,14.5V31.1h4.4V14.9L224.1.4h-5.3L210.5,11,202.3.4Zm48.3,0V8h47.2V.4Zm72.3,0V31.1h4.4V17.7h17.2V31.1h4.4V.4h-4.4V13.8H321.9V.4Zm44.3,0V31.1h4.4V.4Zm22.5,0V31.1h18.3v-4H388.7V.4Zm30.9,0V31.1h4.4V16.8h12v-4h-12V4.4h12V.4Zm31.9,0V31.1h4.4V.4Zm63.2,0V31.1h17.8v-4H514.7V17.6h12.6v-4H514.7V4.4h13V.4Zm32.9,0V31.1h4.4V17.8h1.8c2.3,0,4.1.7,8.1,7l4,6.3h5.3c-2.1-2.9-2.9-4-4.2-6.1-2.3-3.8-4-6.7-6.8-8.5A7.66,7.66,0,0,0,560.9,9c0-5.3-3.9-8.6-10.1-8.6ZM58.3,4c6.9,0,12,5,12,11.7s-5.1,11.7-12,11.7A11.52,11.52,0,0,1,46.4,15.7,11.52,11.52,0,0,1,58.3,4Zm489.3.2h2.8c4.3,0,6,1.8,6,4.6,0,2.6-1.3,5-6,5h-2.8ZM245.2,23.4v7.7h47.2V23.4Z"/></g></g></svg>