<?xml version="1.0" standalone="no"?>
<!DOCTYPE svg PUBLIC "-//W3C//DTD SVG 20010904//EN"
 "http://www.w3.org/TR/2001/REC-SVG-20010904/DTD/svg10.dtd">
<svg version="1.0" xmlns="http://www.w3.org/2000/svg"
 width="749.000000pt" height="615.000000pt" viewBox="0 0 749.000000 615.000000"
 preserveAspectRatio="xMidYMid meet">

<g transform="translate(0.000000,615.000000) scale(0.100000,-0.100000)"
fill="#000000" stroke="none">
<path d="M3460 6144 c-637 -54 -1155 -195 -1686 -458 -289 -143 -518 -288
-758 -480 -118 -94 -396 -369 -483 -476 -277 -345 -442 -691 -509 -1070 -27
-149 -27 -566 -1 -723 92 -548 345 -1088 743 -1587 136 -170 450 -485 616
-618 487 -388 990 -613 1578 -705 184 -29 651 -31 835 -4 461 68 826 185 1255
403 967 492 1838 1369 2224 2241 152 344 233 742 207 1028 -21 244 -70 424
-171 630 -412 843 -1542 1551 -2815 1764 -251 42 -384 53 -690 56 -165 1 -320
1 -345 -1z"/>
</g>
</svg>
