<svg xmlns="http://www.w3.org/2000/svg" xmlns:xlink="http://www.w3.org/1999/xlink" viewBox="0 0 232.89 272.81"><defs><style>.cls-1,.cls-10{fill:none;}.cls-2{clip-path:url(#clip-path);}.cls-3,.cls-7{fill:#fff;}.cls-4{fill:#fefefe;}.cls-10,.cls-4,.cls-6,.cls-7,.cls-8,.cls-9{fill-rule:evenodd;}.cls-5,.cls-6{fill:#263138;}.cls-8{fill:#2482a3;}.cls-9{fill:#3f9cbd;}.cls-10{stroke:#fefefe;stroke-miterlimit:22.93;stroke-width:2.83px;}</style><clipPath id="clip-path"><circle class="cls-1" cx="115.2" cy="115.2" r="115.2"/></clipPath></defs><title>tab-1</title><g id="Слой_2" data-name="Слой 2"><g id="Layer_1" data-name="Layer 1"><g id="МАСКА"><g class="cls-2"><circle class="cls-3" cx="115.2" cy="115.2" r="115.2"/><path class="cls-4" d="M135.16,209.3v57.43H76.6c0,.4,0,.8,0,1.2,0-.4-.1-.8-.13-1.2h-1.8V209.3Z"/><path class="cls-5" d="M173.39,143.2a26,26,0,0,0-16.54-10.74l.53-2.79a28.79,28.79,0,0,1,18.34,11.91Z"/><path class="cls-5" d="M170.26,149.49A26,26,0,0,0,159.51,133l1.61-2.33A28.72,28.72,0,0,1,173,149Z"/><path class="cls-6" d="M101.07,207.21c8.8,5,18.14,4,25.83,1.27l-15.22,32.33-17-21Z"/><polygon class="cls-6" points="118.33 266.73 97.37 266.73 103.38 232.05 103.59 230.84 103.64 230.51 103.91 228.98 106.67 213.03 113.57 214.03 113.73 214.05 115.24 214.27 115.47 218.18 115.68 221.65 115.92 225.85 116.01 227.3 116.09 228.73 116.23 231.13 117.15 246.6 117.29 249.04 117.44 251.51 117.65 255.18 117.82 257.94 117.99 260.81 118.33 266.73"/><path class="cls-4" d="M112,207.15l17.39,37.95c19.73-17.45,15.93-29.88,26.3-53l-7.57-15.93C133.83,195,136.54,195.12,112,207.15Z"/><path class="cls-5" d="M125.58,233.43l-5.14-11.22-3.85-8.39,2,7.7.78,3-.48,1,1,2.18,3.89,8.5.92-1.41.7,1.53c.3-.47.6-.94.91-1.41Zm29.43-46-1-2.15-1-2.17-4.58-9.64L147,175.31c-2.18,2.87-3.95,5.29-5.51,7.42-8.1,11.05-9.48,12.94-27.26,21.75l-1.3.65-1.3.63-.24.12-1.19.58-.06,0,.08.18,1.21,2.63.61,1.33,1.56,3.4.35.77,1.55,3.38,1.76,3.83,1.63,3.56,1,2.18,3.89,8.5.7,1.53.7,1.52.53,1.14.71,1.57.74,1.61,1.75,3.81,1.43-1.27c1.8-1.59,3.41-3.14,4.85-4.66,9.34-9.82,11.8-18.37,14.81-28.81.81-2.82,1.68-5.81,2.74-9,.54-1.63,1.13-3.31,1.8-5.06.72-1.9,1.53-3.87,2.45-5.92l0-.1.22-.49Zm-6.29,19.49c-.46,1.51-.88,3-1.29,4.39h0c0,.2-.11.4-.17.6-2.67,9.22-4.87,16.9-12.09,25.35a63.91,63.91,0,0,1-5.31,5.49l-1-2.15-.73-1.6-.71-1.56-.44-1-.7-1.52-.7-1.53-5.14-11.22-3.85-8.39-1.41-3.08-.66-1.44-.68-1.48,1.08-.53c18.93-9.37,20.48-11.48,28.83-22.89,1.2-1.64,2.53-3.45,4.07-5.51l2.54,5.34.87,1.84.87,1.82,2,4.23c-1.61,3.65-2.87,7-3.94,10.21C149.64,203.91,149.16,205.43,148.72,206.91Z"/><path class="cls-7" d="M109,208.18,81.38,237.4l.29-27.35,16.52-13.39C111.44,198.51,107.73,200.18,109,208.18Z"/><path class="cls-5" d="M82.83,233.8l0-1.94.1-9.06.1-9.16c-.52,1.24-1,2.48-1.46,3.72l-.11,10.23-.1,9.81.51-.54,2.53-2.68c.15-.87.32-1.74.51-2.6ZM110.36,208c-.07-.45-.12-.89-.17-1.3a1.49,1.49,0,0,0,0-.21c-.09-1-.11-1.92-.12-2.75-.1-5.07-1.11-6.76-9.62-8.14-.64-.11-1.32-.21-2-.31l-.61-.08-1.42,1.15-8.07,6.54-7.94,6.43-.09.07-.13,12.27L80,233.47,79.92,241l1.57-1.67L84,236.71l1-1,12.12-12.84L109,210.19l.85-.89.6-.64Zm-4.46,1.39L95.28,220.61l-9.21,9.76-1.14,1.21-2.1,2.22,0-1.94.1-9.06.1-9.16,0-2.91,1.77-1.43.22-.18,6.41-5.19,7.12-5.77.13,0c8.4,1.21,8.41,1.95,8.48,5.59a36.86,36.86,0,0,0,.25,3.94L106,209.3Z"/><path class="cls-8" d="M55.9,272.81c-.31-.75-.63-1.5-.95-2.25l.54-2.4v-.05a.14.14,0,0,0,0,.06l1.35.3-.42,1.87Z"/><path class="cls-8" d="M55.81,266.73l.21-1,.91-4.07L64.44,228l.89-4,.27-1.23c.11-.14.24-.29.4-.47.33-.38.74-.85,1.24-1.39l1.13-1.21,1.76-1.84c1.33-1.37,2.86-2.92,4.55-4.6,1.28-1.27,2.65-2.61,4.07-4,4-3.85,8.42-8,12.7-11.75q-1.7,2.67-3.16,5.32c-.61,1.08-1.18,2.15-1.73,3.22s-1,2-1.49,3a.76.76,0,0,0-.09.18q-1,2.17-1.93,4.34c-.52,1.24-1,2.48-1.46,3.72-.53,1.43-1,2.86-1.46,4.28-4.89,15.48-5.29,30.46-3.65,45.09Z"/><path class="cls-4" d="M55.52,268.17l1.35.3-.42,1.87Z"/><path class="cls-4" d="M115.08,167.78,114,169.51,107.09,180l-1.51,2.3-9.22,14.06-2.55,3.88-.38.59c-.67,1-1.33,2.07-2,3.13q-1.58,2.63-3,5.37A96.57,96.57,0,0,0,83,222.8q-.8,2.37-1.47,4.79c-.54,1.94-1,3.9-1.48,5.88a149,149,0,0,0-3.4,33.26c0,.4,0,.8,0,1.2,0-.4-.1-.8-.13-1.2H55.81l-.31,1.38c-.2-.46-.4-.92-.59-1.38-4.17-9.85-8.37-20-12.69-30.77L66,222.33l1.41-.81-.17-.58-9-31.33,26.24-10.07Z"/><path class="cls-9" d="M118.73,167.67,112,178l-1.36,2.09-1.37,2.08-.53.81-1,1.61-1,1.6-6.16,9.38-.85,1.3-.85,1.31-1.65,2.51c-.28.43-.55.86-.82,1.29a72.78,72.78,0,0,0-4,7.32,97.06,97.06,0,0,0-7.32,22.28c-.19.86-.36,1.73-.51,2.6s-.31,1.68-.44,2.53a164.57,164.57,0,0,0-2,30H76.6c0,.4,0,.8,0,1.2,0-.4-.1-.8-.13-1.2H59l-2.06-5c-3.23-7.92-6.41-15.78-9.52-23.52l17-10.19,7.35-4.4-1.66-5.7-8.25-28.33,0-.06,23-8.82L114,169.51Z"/><path class="cls-5" d="M96.26,202l-1.19-.78a73.19,73.19,0,0,0-4.6,8.1,96.68,96.68,0,0,0-7.62,22.56c-.35,1.65-.67,3.32-1,5-.14.82-.27,1.65-.4,2.48a165.56,165.56,0,0,0-1.69,27.39h2.81A158.28,158.28,0,0,1,85,235.67c.16-.87.33-1.74.51-2.6s.39-1.81.6-2.7a91.3,91.3,0,0,1,7.56-21.07,72.94,72.94,0,0,1,3.81-6.54ZM59.87,190.24l2-.68,23.28-7.94-.32-.94-.39-1.14-.2-.61-27.86,9.49,9.27,32.15-25.29,14.5.46,1.15c4.09,10.17,8.29,20.41,12.52,30.51.22.52.44,1,.65,1.56l1,2.27c.32.75.64,1.5.95,2.25l.55-2.47.42-1.87-1.35-.3a.14.14,0,0,1,0-.06l.31-1.38h.61l-.4-1c-4.08-9.76-8.14-19.64-12.1-29.47L65.33,224,69,221.92l-.63-2.19Z"/><path class="cls-8" d="M107.34,266.73c3.13-6.3,6.49-12.09,10-17.69,2.35-3.81,4.75-7.52,7.16-11.26l.92-1.41c.3-.47.6-.94.91-1.41,3-4.64,6-9.35,8.88-14.31a185.07,185.07,0,0,0,16.07-34.58c.22-.63.44-1.28.65-1.93h0l2.1,1.12,5.84,3.12,1.3.7,1.26.67L203,211.49l7.69,4.11-.06.65-.05.69-4.23,49.79Z"/><path class="cls-5" d="M126.28,235c-.31.47-.61.94-.91,1.41l-.7-1.53-.92,1.41c-.17.27-.34.55-.52.82-2,3.18-4.08,6.33-6.08,9.53a224.72,224.72,0,0,0-11.42,20.13h3.19c2.69-5.36,5.56-10.36,8.52-15.22,2.52-4.13,5.11-8.16,7.71-12.21.16-.23.31-.47.46-.7l.46-.71c.3-.47.6-.94.91-1.41Zm-17.36,31.77c2.69-5.36,5.56-10.36,8.52-15.22,2.52-4.13,5.11-8.16,7.71-12.21.16-.23.31-.47.46-.7l.46-.71c.3-.47.6-.94.91-1.41,2.73-4.24,5.48-8.55,8.18-13.06a189.88,189.88,0,0,0,16.94-35.53l.59-1.71.22.12,2.1,1.12,4.06,2.17,1.25.67,1.27.68,37.95,20.3,4.91,2.64,3.21,1.71,1.53.82-4.27,50.32h2.84l4.16-49,.06-.71.19-2.27-3.3-1.77L162.7,188.31l-1.6-.85-1.61-.86L153,183.1l-1.89-1-.06.19-.47,1.41-.18.54a182.7,182.7,0,0,1-15.2,33.59c-3.14,5.47-6.37,10.59-9.58,15.61-.31.47-.61.94-.91,1.41l-.92,1.41c-.17.27-.34.55-.52.82-2,3.18-4.08,6.33-6.08,9.53a224.72,224.72,0,0,0-11.42,20.13Z"/><path class="cls-6" d="M140.28,116.25c5.07-29.36,36.5-8.62,17.63,12.2,20.93,14.18,4.42,43.07-21,37.76C120.64,151.15,163.16,145.49,140.28,116.25Z"/><path class="cls-7" d="M116.49,69.45c-23-1.79-40.18,5.1-41.57,28.1l.33,53.27c.14,23.83,14.27,34.34,22,36l-1.07,16.22c14,16.22,44.15,2.56,53.76-24.22l-1.27-66.3C149.67,90.32,138.67,71.18,116.49,69.45Z"/><path class="cls-5" d="M111.87,211.47A21.44,21.44,0,0,1,95.11,204l-.38-.44,1-15.63c-9.16-2.72-21.79-14.35-21.93-37.1l-.32-53.27c.57-9.49,3.75-16.78,9.48-21.76,7.26-6.32,18.57-8.93,33.61-7.76h0c21.15,1.64,34.61,19.56,33.49,44.57l1.27,66.47-.09.25c-5.82,16.23-19.55,28.94-34.16,31.65A29.05,29.05,0,0,1,111.87,211.47Zm-14.23-8.89c4.6,5,11.3,7,19,5.61,13.58-2.51,26.38-14.38,31.93-29.57l-1.27-66c1.07-23.84-11.05-40.17-30.87-41.72-14.26-1.11-24.87,1.27-31.53,7.07-5.13,4.47-8,11.1-8.51,19.71l.32,53.17c.15,24.7,15.13,33.39,20.89,34.66l1.2.26Z"/><path class="cls-6" d="M153.57,116.52c-1.13,5.22-6,11-10.43,12.38a5.21,5.21,0,0,1-6.5-3.16c-1.72-3.94-1.24-8.44-.85-12.72.54-5.84.86-11.77-.26-17.52s-3.82-11.38-8.41-15-11.24-5-16.5-2.38c-3.24,1.6-5.68,4.45-8.71,6.43a13.48,13.48,0,0,1-9.26,2.33,8.69,8.69,0,0,1-7.09-5.91c-.93-3.43.86-7.16,3.61-9.4s6.3-3.25,9.79-3.91c9.67-1.84,19.9-1.38,29.05,2.26s18.68,10,22.53,19C153.18,95.12,154.88,110.48,153.57,116.52Z"/><polygon class="cls-5" points="97.91 152.01 86.05 149.65 91.3 118.8 94.09 119.27 89.3 147.41 98.47 149.23 97.91 152.01"/><path class="cls-5" d="M94.93,167.66l-1.85-2.15a28.79,28.79,0,0,1,20.73-7l-.18,2.83A26,26,0,0,0,94.93,167.66Z"/><path class="cls-5" d="M110.61,119.94l-2.19-1.8a17.82,17.82,0,0,1,12.2-6.44,18.1,18.1,0,0,1,13.24,4.1L132.05,118a15.21,15.21,0,0,0-11.17-3.45A15,15,0,0,0,110.61,119.94Z"/><path class="cls-5" d="M105.32,189.26a30.39,30.39,0,0,1-12.94-2.71L93.6,184c9.05,4.32,24.36,3.13,33.31-6.33L129,179.6C122.62,186.31,113.63,189.26,105.32,189.26Z"/><path class="cls-6" d="M100.08,131.47C104,149.79,131.13,147.35,131,129l-.09-7.27c-22.39,1.81-43,2.27-65.58.4l.33,9.91c.49,14.59,20.76,12.93,24,4.76l1.56-6.44C91.68,125,99,126.26,100.08,131.47Z"/><path class="cls-4" d="M168.67,124.8a12.91,12.91,0,1,1-12.71-13A12.86,12.86,0,0,1,168.67,124.8Z"/><path class="cls-5" d="M155.53,140.08c-.32,0-.64,0-1,0l.19-2.83a11.36,11.36,0,0,0,8.89-3.39,11.7,11.7,0,0,0,0-16.39,11.18,11.18,0,0,0-8-3.36h0a11.33,11.33,0,0,0-8.09,3.43,11.78,11.78,0,0,0-3,11.05l-2.75.69a14.65,14.65,0,0,1,3.74-13.73,14.12,14.12,0,0,1,10.11-4.27h0a14,14,0,0,1,10,4.19,14.55,14.55,0,0,1,0,20.38A14.2,14.2,0,0,1,155.53,140.08Z"/><path class="cls-5" d="M148.48,126.26a8.14,8.14,0,0,1,7.93-8.79,7.89,7.89,0,0,1,5.74,2.25l-2,2a5.14,5.14,0,0,0-3.71-1.46,5.29,5.29,0,0,0-5.16,5.73Z"/><rect class="cls-5" x="99.08" y="121.68" width="44.06" height="2.83" transform="translate(-9.18 9.76) rotate(-4.45)"/><path class="cls-8" d="M231.48,266.73H170.36a54.82,54.82,0,0,1-3-21.68c1.81-23,21.14-35,37.11-31.17a24.14,24.14,0,0,1,6.17,2.37c.46.25.92.52,1.36.81,5.83,3.71,10.53,10.17,12.69,19.7Z"/><path class="cls-5" d="M232.89,266.73H230l-7.2-31.64c-2-8.61-6-14.12-10.87-17.32a15.78,15.78,0,0,0-1.35-.83,21.21,21.21,0,0,0-2.91-1.35,24.6,24.6,0,0,0-12.19-1.24c-13,1.87-26.07,13-28.13,30.7a43.23,43.23,0,0,0-.19,7.68l-2.83.18c-1.48-23.78,14.74-39.06,30.74-41.36a30,30,0,0,1,4.48-.31,26.18,26.18,0,0,1,3.45.25,24.57,24.57,0,0,1,5.88,1.53c8.17,3.24,14.26,10.78,16.68,21.44Z"/><path class="cls-9" d="M161.34,188.77l-.21.32-.81,1.17c-1.73,2.53-3.68,5.31-5.81,8.34L151.44,203c-.89,1.27-1.79,2.57-2.72,3.92-4.21,6.08-8.81,12.92-13.56,20.48q-3.48,5.55-7,11.61l-.87,1.5-.87,1.51c-2.89,5.06-5.77,10.38-8.57,15.93q-2.19,4.29-4.29,8.79h-25a306.69,306.69,0,0,1,3.72-33.26l11.13-2.89.26-.07L116,227.3l2.32-.61.09,0,0-.11L117.23,222l-2-7.72v0l-.9-3.52L114,209.3l-.71-2.77-.36-1.4-5.26-20.54-.77-3,3.72-1.5,45.69-18.49,4.82,25.86Z"/><path class="cls-5" d="M119.34,224.55l-.78-3-2-7.7-.79-3.09-.37-1.43-.51-2-.36-1.4-.36-1.41L108.69,183l-1,1.61,5.26,20.54.36,1.4.71,2.77.37,1.45.9,3.52v0l2,7.72,1.16,4.55,0,.11-.09,0-.79,1.67,2.32-.61.28-.07Zm-16,7.5,1-.26-.77-.95Zm59.32-43.74-5.35-28.67L112,178l-4.86,2-1.9.77.39,1.53,1,3.92,5,19.57.91,3.54.36,1.39.86,3.36.19.75,1.76,6.85,1,4-.78.2-12,3.13-1.52.39-11.38,3-.15.9a307.76,307.76,0,0,0-3.76,33.5H90a306.46,306.46,0,0,1,3.55-32.11l9.88-2.57,1-.26,11.73-3.06,1.45-.37,2.32-.61.28-.07-.8-3.13-.78-3-2-7.7-.79-3.09-.37-1.43-.51-2-.36-1.4-.36-1.41L108.69,183l-.14-.54.67-.27,46-18.6,4.29,23,.34,1.79v.07l-.77,1.13-2.06,3-3.32,4.73-.45.64-3.07,4.38c-4.53,6.49-9.66,14-15,22.42-2.55,4-5.15,8.25-7.74,12.69-.3.5-.59,1-.87,1.5s-.59,1-.87,1.5c-2.7,4.7-5.39,9.61-8,14.74-1.92,3.74-3.82,7.59-5.66,11.55h3.13q1.41-3,2.87-5.92c3-6,6.05-11.75,9.14-17.19l.87-1.52.86-1.5c2.11-3.64,4.22-7.14,6.3-10.5,4.24-6.85,8.4-13.12,12.26-18.79h0q1.31-1.92,2.57-3.74c.92-1.34,1.83-2.64,2.71-3.9l3.3-4.72c2-2.84,3.9-5.55,5.58-8l.8-1.18.13-.19.32-.49Z"/><path class="cls-9" d="M74.14,98l-35.44,15c34.91,16,115.8,7.69,155.71-22.29l-31.53-3.82Z"/><path class="cls-8" d="M69.37,103.45,73,67.15c1.42-14.14,11.14-19.44,23-15.38,5.61,1.91,4.54,2.12,8.82-.82,18-12.36,39.72-6.63,45.63,6.94l12.76,34.43C133,101.09,100.53,107.81,69.37,103.45Z"/><path class="cls-10" d="M115,44.19A51,51,0,0,0,92.89,61"/><path class="cls-5" d="M92.56,60.33,90.3,58.62c5.37-7.09,12.43-12.17,22.23-16l1,2.64C104.27,48.9,97.6,53.68,92.56,60.33Z"/><path class="cls-5" d="M94,104.72a203.84,203.84,0,0,1-28.24-1.91l-1.35-.19,3.83-36.9c1-9.8,5.91-14.28,9.83-16.32,6.82-3.53,15.4-2.27,20.93.49,9.27-7.66,23.25-11.24,34.38-8.75A24.6,24.6,0,0,1,151.28,55.7L165.39,94l-1.47.43A252.47,252.47,0,0,1,94,104.72Zm-26.49-4.53c29.34,3.88,61.83,1.09,94.14-8.09l-13-35.34a21.8,21.8,0,0,0-15.87-12.85c-10.6-2.38-24,1.22-32.64,8.75l-.75.65-.88-.49c-4.82-2.7-12.85-4.14-19.11-.9-4.81,2.49-7.61,7.23-8.32,14.09Z"/><path class="cls-5" d="M89.94,122.52c-22.34,0-43-3.51-58.07-10.13l-3.2-1.4L66.08,97l1,2.66L36.31,111.16c20.28,7.88,49.5,10.51,79.14,7,31-3.64,58.61-13.38,76.52-26.89l-30.16-3.15.29-2.82,37,3.86-2.61,2.15c-18.17,15-47.59,25.77-80.71,29.67A223,223,0,0,1,89.94,122.52Z"/><path class="cls-6" d="M66.88,101.53c-.06-5.77,0-10.23.37-16.12,30.76,3.93,60.74.81,90.63-7.62,1.4,5.26,4.79,10.42,6.17,16.67A234.63,234.63,0,0,1,66.88,101.53Z"/><path class="cls-10" d="M70,84.61c14.73,1.36,29.19,2,43.54.34"/><path class="cls-10" d="M68.94,135.41A12.39,12.39,0,0,0,86.4,137"/><path class="cls-10" d="M106.16,135.38a12.39,12.39,0,0,0,17.46,1.6"/><path class="cls-5" d="M55,270.56l-1-2.27.1-.44,1.39.31h0l1.35.3-.42,1.87-.55,2.47C55.59,272.06,55.27,271.31,55,270.56Z"/><path class="cls-7" d="M54,268.29c-.21-.52-.43-1-.65-1.56h2.46l-.31,1.38a.14.14,0,0,0,0,.06l1.35.3-.42,1.87-.55,2.47c-.31-.75-.63-1.5-.95-2.25Z"/><path class="cls-7" d="M76.61,267.93c0-.4-.1-.8-.13-1.2h.12C76.6,267.13,76.61,267.53,76.61,267.93Z"/></g></g></g></g></svg>