<svg xmlns="http://www.w3.org/2000/svg" viewBox="0 0 113.4 25.77"><g data-name="Слой 2"><path d="M16.83 11.92a5.31 5.31 0 00.25 1.6 4.2 4.2 0 00.69 1.25 4.11 4.11 0 001 .9 4.59 4.59 0 001.22.54 5 5 0 001.34.18 5.17 5.17 0 001.11-.12 3.85 3.85 0 001.06-.39 3.74 3.74 0 00.92-.67 3.7 3.7 0 00.68-1 3.45 3.45 0 00.2-.48l-2-.84a1.79 1.79 0 01-.39.78 1.68 1.68 0 01-.68.46 2.41 2.41 0 01-.87.15 2.26 2.26 0 01-.92-.19 2 2 0 01-.69-.53 2.3 2.3 0 01-.44-.76 2.72 2.72 0 01-.16-.91 2.93 2.93 0 01.28-1.27 2 2 0 01.76-.84 2.21 2.21 0 011.17-.3 2.75 2.75 0 01.84.12 1.64 1.64 0 01.65.41 1.91 1.91 0 01.43.73l2-.83a4.08 4.08 0 00-.19-.42 3.14 3.14 0 00-.69-.94 3.66 3.66 0 00-.92-.65 3.91 3.91 0 00-1-.37 4.57 4.57 0 00-1.09-.13 5 5 0 00-1.39.19 4.59 4.59 0 00-1.22.54 3.88 3.88 0 00-1 .89 4.25 4.25 0 00-.69 1.26 5.48 5.48 0 00-.25 1.64zm-15.58.45a6.42 6.42 0 001.85 4 6.42 6.42 0 004.56 1.89 6.45 6.45 0 004.57-1.89 6.78 6.78 0 001.48-2.3c.24-.56-.44-1-1.16-1.18s-1.54-.39-1.78.27a3.44 3.44 0 01-3.11 2A3.37 3.37 0 015.29 9.4a3.42 3.42 0 012.39-1 3.38 3.38 0 012.39 1 3.45 3.45 0 01.72 1c.16.39.9.39 1.61.23s1.55-.57 1.34-1.14a6.4 6.4 0 00-1-1.8A6.55 6.55 0 008 5.4c-.24 0-.13-.59.07-.58s.49 0 .73.09a8 8 0 011.07.27h.12l2.75-2.44c.56-.49-.34-1.81-1.17-2.27a.76.76 0 00-.84 0L5.29 5.36c-.18.16-.6-.24-.41-.41l3.39-3.07.29-.28C9 .67 6.19-.61 5.77.32L2.82 7c-.11.16-.63 0-.49-.26l1.92-4.36c-.34-.83-3-.79-3 .16v9.79zm4.58-.55a1.91 1.91 0 111.91 1.9 1.92 1.92 0 01-1.91-1.9zm-3.36 6.8l.23-.44c.46-.88 3.16.52 2.7 1.4l-2.64 5.08c-.46.88-3.17-.52-2.71-1.4L.73 22l1.74-3.34zm7.86 5.82a1.52 1.52 0 01-.62-.11 1.25 1.25 0 01-.49-.33 1.4 1.4 0 01-.31-.51 1.89 1.89 0 01-.1-.65 2.19 2.19 0 01.1-.7 1.69 1.69 0 01.33-.53 1.25 1.25 0 01.51-.33 1.67 1.67 0 01.65-.11 1.57 1.57 0 01.63.11 1.27 1.27 0 01.47.32 1.58 1.58 0 01.3.52 2.26 2.26 0 01.09.67 2 2 0 01-.1.67 1.51 1.51 0 01-.32.53 1.31 1.31 0 01-.5.34 1.62 1.62 0 01-.64.11zm0-2.76a1 1 0 00-.4.07.76.76 0 00-.3.23 1 1 0 00-.2.36 1.75 1.75 0 00-.06.48 1.17 1.17 0 00.26.82.89.89 0 00.3.22 1 1 0 00.4.07.94.94 0 00.39-.07.78.78 0 00.29-.21 1.06 1.06 0 00.18-.35 1.87 1.87 0 00.07-.49 1.81 1.81 0 00-.07-.49 1 1 0 00-.18-.35.7.7 0 00-.29-.22.94.94 0 00-.39-.07zm5.21 3.8h-.47v-1.11h-2.5v-3.13h.59v2.62h1.44v-2.62h.59v2.62h.44v1.62zM18.69 23h-2.08a1 1 0 00.25.69.84.84 0 00.29.2 1.23 1.23 0 00.39.06 1.51 1.51 0 00.48-.08 1.67 1.67 0 00.43-.24l.08-.07v.59a1.43 1.43 0 01-.48.23 2.25 2.25 0 01-.6.07 1.46 1.46 0 01-.6-.11 1.28 1.28 0 01-.45-.32 1.42 1.42 0 01-.29-.51 2.38 2.38 0 01-.09-.68 2 2 0 01.1-.66 1.48 1.48 0 01.31-.53 1.56 1.56 0 01.47-.35 1.48 1.48 0 01.57-.11 1.3 1.3 0 01.54.1 1 1 0 01.42.3 1.37 1.37 0 01.25.48 2 2 0 01.09.62V23zm-.55-.52a1.36 1.36 0 000-.3.79.79 0 00-.15-.27.6.6 0 00-.22-.16.84.84 0 00-.29-.05.73.73 0 00-.3.06.66.66 0 00-.25.17.85.85 0 00-.18.27 1.15 1.15 0 00-.09.28zm3.8 1.91h-.53V23H20v1.37h-.6v-3.13h.6v1.24h1.44v-1.24H22v3.13zm3.5 0h-.72L23.46 23v1.39h-.59v-3.15h.59v1.32l1.2-1.31h.79l-.08.09L24 22.75l1.48 1.54.08.08zm2.67 0h-.54V24a1 1 0 01-.32.3 1.17 1.17 0 01-.57.14 1 1 0 01-.75-.25 1 1 0 01-.2-.3 1.11 1.11 0 01-.07-.37.93.93 0 01.27-.71 1.23 1.23 0 01.78-.33l.86-.12a.8.8 0 00-.14-.51.55.55 0 00-.43-.17 1.44 1.44 0 00-.51.09A1.79 1.79 0 0026 22l-.08.07v-.64a1.86 1.86 0 01.5-.22 2 2 0 01.56-.07c.75 0 1.12.39 1.12 1.18v2zm-.54-1.52l-.67.09a1.84 1.84 0 00-.29.06.75.75 0 00-.2.1.4.4 0 00-.11.14.8.8 0 000 .24.34.34 0 000 .18.45.45 0 00.1.14.42.42 0 00.17.1.73.73 0 00.22 0 .78.78 0 00.31-.06.85.85 0 00.25-.17 1 1 0 00.17-.27 1.21 1.21 0 00.05-.34v-.24zm5.63 1.52h-.72L31.22 23v1.39h-.59v-3.15h.59v1.32l1.2-1.31h.79l-.08.09-1.37 1.42 1.48 1.54.08.08zm2.67 0h-.54V24a1 1 0 01-.32.3 1.2 1.2 0 01-.57.14 1.06 1.06 0 01-.75-.25.83.83 0 01-.2-.3.9.9 0 01-.07-.37.93.93 0 01.27-.71 1.23 1.23 0 01.78-.33l.86-.12a.79.79 0 00-.15-.51.51.51 0 00-.42-.17 1.44 1.44 0 00-.51.09 1.63 1.63 0 00-.45.27l-.08.07v-.64a1.86 1.86 0 01.5-.22 2 2 0 01.56-.07c.75 0 1.12.39 1.12 1.18v2zm-.54-1.52l-.67.09a1.84 1.84 0 00-.29.06.93.93 0 00-.2.1.31.31 0 00-.11.14.57.57 0 000 .24.34.34 0 000 .18.45.45 0 00.1.14.37.37 0 00.17.1.73.73 0 00.22 0 .78.78 0 00.31-.06 1 1 0 00.25-.17.74.74 0 00.16-.27.93.93 0 00.06-.34v-.24zm3.82 1.52h-.53v-1.2a2.63 2.63 0 01-.45.18 1.69 1.69 0 01-.48.07 1.06 1.06 0 01-.81-.28 1.19 1.19 0 01-.27-.85v-1.07h.59v1.05a.71.71 0 00.14.47.47.47 0 00.39.14 2 2 0 00.89-.23v-1.43h.58v3.13zM42.57 23h-2.09a1 1 0 00.26.69.84.84 0 00.29.2 1.14 1.14 0 00.39.06 1.5 1.5 0 00.47-.08 1.73 1.73 0 00.44-.24l.08-.07v.59a1.53 1.53 0 01-.48.23 2.27 2.27 0 01-.61.07 1.41 1.41 0 01-.59-.11 1.2 1.2 0 01-.45-.32 1.28 1.28 0 01-.28-.52 2.37 2.37 0 01-.1-.68 1.94 1.94 0 01.11-.66 1.48 1.48 0 01.31-.53 1.45 1.45 0 01.47-.35 1.47 1.47 0 01.56-.11 1.35 1.35 0 01.55.1 1 1 0 01.41.3 1.24 1.24 0 01.26.48 2.33 2.33 0 01.08.62V23zm-.57-.54a1.34 1.34 0 00-.05-.3.77.77 0 00-.14-.27.6.6 0 00-.22-.16.85.85 0 00-.3-.05.72.72 0 00-.29.06.53.53 0 00-.25.17.88.88 0 00-.19.27.83.83 0 00-.08.28zm3.38 1.77a1.76 1.76 0 01-.4.16 2.24 2.24 0 01-.46.05 1.37 1.37 0 01-1.06-.44 1.36 1.36 0 01-.31-.5 1.71 1.71 0 01-.11-.62 1.94 1.94 0 01.12-.7 1.43 1.43 0 01.33-.54 1.43 1.43 0 01.52-.36 2 2 0 01.66-.11 1.61 1.61 0 01.39 0 1.35 1.35 0 01.34.11V22l-.08-.06a1.17 1.17 0 00-.34-.16 1.09 1.09 0 00-.36-.06.92.92 0 00-.72.31 1 1 0 00-.21.37 1.41 1.41 0 00-.07.47 1.68 1.68 0 00.06.47 1.05 1.05 0 00.2.34.84.84 0 00.31.22 1 1 0 00.4.07 1.15 1.15 0 00.37-.06 1.33 1.33 0 00.35-.19l.08-.06v.59zM48 21.76h-.86v2.61h-.59v-2.61h-.91v-.52h2.41v.52zm.53 2.56v-3.08h1.37a1.42 1.42 0 01.42.05.88.88 0 01.32.16.72.72 0 01.21.25.88.88 0 01.07.33.82.82 0 01-.16.51.66.66 0 01-.27.19.7.7 0 01.35.2.69.69 0 01.19.52.86.86 0 01-.07.36.93.93 0 01-.23.3 1.05 1.05 0 01-.34.2 1.29 1.29 0 01-.4.06h-1.45v-.05zm.59-2.56v.75h.67a.65.65 0 00.41-.11.33.33 0 00.13-.3c0-.23-.16-.34-.48-.34zm0 1.26v.83h.79a.67.67 0 00.41-.1.41.41 0 00.12-.32.33.33 0 00-.14-.3.82.82 0 00-.46-.11zM54 24.37h-.54V24a1 1 0 01-.32.3 1.15 1.15 0 01-.57.14 1 1 0 01-.74-.25 1 1 0 01-.21-.3 1.1 1.1 0 01-.06-.37 1 1 0 01.26-.71 1.28 1.28 0 01.78-.33l.86-.12a.8.8 0 00-.14-.51.54.54 0 00-.43-.17 1.39 1.39 0 00-.5.09 1.5 1.5 0 00-.45.27l-.09.07v-.64a1.67 1.67 0 01.49-.22 2 2 0 01.56-.07c.75 0 1.12.39 1.12 1.18v2zm-.54-1.52l-.67.09a2.11 2.11 0 00-.29.06 1.24 1.24 0 00-.2.1.3.3 0 00-.1.14.57.57 0 000 .24.48.48 0 000 .18.36.36 0 00.11.14.37.37 0 00.17.1.66.66 0 00.21 0 .83.83 0 00.32-.06.81.81 0 00.24-.17.77.77 0 00.17-.27.93.93 0 000-.34v-.24zm5.64 1.52h-.73L57.09 23v1.39h-.59v-3.15h.59v1.32l1.19-1.31h.8l-.09.09-1.37 1.42 1.48 1.54.09.08zm2.82 0h-.53v-2.62h-.61a10.26 10.26 0 01-.19 1.25 3.45 3.45 0 01-.25.83 1.53 1.53 0 01-.36.47.83.83 0 01-.48.15h-.28v-.54h.07a.29.29 0 00.1 0h.1c.2 0 .36-.21.49-.63a9 9 0 00.3-2v-.05h1.69v3.13zm3.52 0h-.48v-2.26a1.42 1.42 0 00-.11.18l-1.4 2.06h-.59v-3.11h.55v2.22l.06-.1 1.44-2.1h.58v3.13zM68.83 23h-2.08a1 1 0 00.25.69.94.94 0 00.29.2 1.23 1.23 0 00.39.06 1.51 1.51 0 00.48-.08 1.67 1.67 0 00.43-.24l.08-.07v.59a1.34 1.34 0 01-.48.23 2.25 2.25 0 01-.6.07 1.38 1.38 0 01-.59-.11 1.23 1.23 0 01-.46-.32 1.42 1.42 0 01-.29-.51 2.38 2.38 0 01-.09-.68 2 2 0 01.1-.66 1.65 1.65 0 01.31-.53 1.56 1.56 0 01.47-.35 1.48 1.48 0 01.57-.11 1.3 1.3 0 01.54.1 1 1 0 01.42.3 1.22 1.22 0 01.25.48 2 2 0 01.09.62V23zm-.55-.52a1.36 1.36 0 000-.3 1 1 0 00-.14-.27.82.82 0 00-.22-.16.94.94 0 00-.3-.05.73.73 0 00-.3.06.66.66 0 00-.25.17 1.06 1.06 0 00-.18.27 1.15 1.15 0 00-.09.28zm3.81 1.91h-.54V23h-1.44v1.37h-.59v-3.13h.59v1.24h1.44v-1.24h.59v3.13zM75 21.76h-.86v2.61h-.59v-2.61h-.91v-.52H75v.52zm2.57 2.47a1.76 1.76 0 01-.4.16 2.16 2.16 0 01-.46.05A1.39 1.39 0 0175.6 24a1.36 1.36 0 01-.31-.5 1.72 1.72 0 01-.1-.62 1.94 1.94 0 01.11-.7 1.43 1.43 0 01.33-.54 1.43 1.43 0 01.52-.36 2 2 0 01.66-.11 1.61 1.61 0 01.39 0 1.35 1.35 0 01.34.11V22l-.08-.06a1.17 1.17 0 00-.34-.16 1 1 0 00-.36-.06.92.92 0 00-.72.31 1 1 0 00-.21.37 1.41 1.41 0 00-.07.47 1.68 1.68 0 00.06.47 1.05 1.05 0 00.2.34.84.84 0 00.31.22 1 1 0 00.41.07 1.13 1.13 0 00.36-.06 1.33 1.33 0 00.35-.19l.08-.06v.59zm3.22.14H80L78.78 23v1.39h-.59v-3.15h.59v1.32L80 21.25h.79l-.08.09-1.37 1.42 1.48 1.54.08.08zm1.64.07a1.62 1.62 0 00.64-.11 1.31 1.31 0 00.5-.34 1.51 1.51 0 00.32-.53 2 2 0 00.1-.67 2.26 2.26 0 00-.09-.67 1.58 1.58 0 00-.3-.52 1.27 1.27 0 00-.47-.32 1.57 1.57 0 00-.63-.11 1.67 1.67 0 00-.65.11 1.25 1.25 0 00-.51.33 1.53 1.53 0 00-.33.53 2.19 2.19 0 00-.1.7 1.89 1.89 0 00.1.65 1.4 1.4 0 00.31.51 1.25 1.25 0 00.49.33 1.56 1.56 0 00.62.11zm0-2.76a.94.94 0 01.39.07.7.7 0 01.29.22 1 1 0 01.18.35 1.83 1.83 0 01.06.49 1.88 1.88 0 01-.06.49 1.06 1.06 0 01-.18.35.78.78 0 01-.29.21.94.94 0 01-.39.07 1 1 0 01-.4-.07.89.89 0 01-.3-.22 1.22 1.22 0 01-.26-.82 1.75 1.75 0 01.06-.48 1 1 0 01.2-.36.76.76 0 01.3-.23 1 1 0 01.4-.07zm3.93.08h-1.13v2.61h-.59v-3.13h1.79v.52zm1.8 2.68a1.61 1.61 0 01-.63-.11 1.29 1.29 0 01-.48-.33 1.28 1.28 0 01-.31-.51 1.88 1.88 0 01-.11-.65 2.19 2.19 0 01.11-.7 1.51 1.51 0 01.32-.53 1.4 1.4 0 01.51-.33 1.76 1.76 0 01.66-.11 1.52 1.52 0 01.62.11 1.27 1.27 0 01.47.32 1.29 1.29 0 01.3.52 2 2 0 01.1.67 2 2 0 01-.11.67 1.37 1.37 0 01-.32.53 1.28 1.28 0 01-.49.34 1.66 1.66 0 01-.64.11zm0-2.76a.94.94 0 00-.39.07.87.87 0 00-.31.23 1 1 0 00-.19.36 1.43 1.43 0 00-.07.48 1.22 1.22 0 00.26.82.84.84 0 00.31.22 1 1 0 00.39.07 1 1 0 00.4-.07.86.86 0 00.29-.21 1.06 1.06 0 00.18-.35 1.88 1.88 0 00.06-.49 1.83 1.83 0 00-.06-.49 1 1 0 00-.18-.35.77.77 0 00-.29-.22 1 1 0 00-.4-.07zm6 2.55a1.59 1.59 0 01-.4.16 2.16 2.16 0 01-.46.05 1.39 1.39 0 01-1.03-.44 1.36 1.36 0 01-.31-.5 1.71 1.71 0 01-.11-.62 1.94 1.94 0 01.12-.7 1.43 1.43 0 01.33-.54 1.43 1.43 0 01.52-.36 2 2 0 01.66-.11 1.61 1.61 0 01.39 0 1.35 1.35 0 01.34.11V22l-.08-.06a1.17 1.17 0 00-.34-.16 1.09 1.09 0 00-.36-.06.92.92 0 00-.72.31 1 1 0 00-.21.37 1.41 1.41 0 00-.07.47 1.68 1.68 0 00.06.47 1.05 1.05 0 00.2.34.84.84 0 00.31.22 1 1 0 00.4.07 1.15 1.15 0 00.37-.06 1.33 1.33 0 00.35-.19l.08-.06v.59zM97.35 23h-2.09a1 1 0 00.26.69.84.84 0 00.29.2 1.14 1.14 0 00.39.06 1.5 1.5 0 00.47-.08 1.73 1.73 0 00.44-.24l.08-.07v.59a1.53 1.53 0 01-.48.23 2.27 2.27 0 01-.61.07 1.41 1.41 0 01-.59-.11A1.12 1.12 0 0195 24a1.28 1.28 0 01-.29-.51 2.38 2.38 0 01-.09-.68 2 2 0 01.1-.66 1.48 1.48 0 01.31-.53 1.45 1.45 0 01.47-.35 1.47 1.47 0 01.56-.11 1.35 1.35 0 01.55.1 1 1 0 01.41.3 1.24 1.24 0 01.26.48 2.33 2.33 0 01.08.62V23zm-.55-.52a.94.94 0 000-.3.77.77 0 00-.14-.27.6.6 0 00-.22-.16.84.84 0 00-.29-.05.73.73 0 00-.3.06.59.59 0 00-.25.17.88.88 0 00-.19.27 1.15 1.15 0 00-.08.28zM98.62 24v1.74H98v-4.5h.59v.43a1.21 1.21 0 01.38-.34 1.18 1.18 0 01.63-.16 1.33 1.33 0 01.54.1 1.07 1.07 0 01.41.32 1.4 1.4 0 01.26.5 2 2 0 01.08.63 2.58 2.58 0 01-.09.7 1.53 1.53 0 01-.29.55 1.37 1.37 0 01-.45.35 1.46 1.46 0 01-.6.12 1.12 1.12 0 01-.55-.13 1.19 1.19 0 01-.32-.28zm0-1.37v.42a.88.88 0 00.06.33 1.17 1.17 0 00.17.28.76.76 0 00.26.18.83.83 0 00.32.06.84.84 0 00.37-.08.7.7 0 00.28-.23 1.17 1.17 0 00.18-.39 2.06 2.06 0 00.06-.52 1.9 1.9 0 000-.44.82.82 0 00-.17-.32.63.63 0 00-.26-.2.7.7 0 00-.33-.07.81.81 0 00-.64.27.88.88 0 00-.19.32 1.23 1.23 0 00-.06.39zm3 1.66v-3.05H103a1.32 1.32 0 01.41.05.8.8 0 01.32.16.56.56 0 01.21.25.72.72 0 01.06.3.81.81 0 01-.15.51.66.66 0 01-.27.19.81.81 0 01.35.2.69.69 0 01.19.52.73.73 0 01-.08.36.89.89 0 01-.22.3 1.17 1.17 0 01-.34.2 1.31 1.31 0 01-.41.06h-1.46v-.05zm.59-2.56v.75h.68a.65.65 0 00.41-.11.36.36 0 00.13-.3c0-.23-.16-.34-.48-.34zm0 1.26v.83h.79a.65.65 0 00.41-.1.38.38 0 00.13-.32.35.35 0 00-.14-.3.83.83 0 00-.47-.11zm5.22 1.35h-.49v-2.23a1.45 1.45 0 00-.1.18l-1.41 2.06h-.58v-3.11h.55v2.22-.1l1.43-2.1h.58v3.13zm3.07-.14a1.68 1.68 0 01-.39.16 2.24 2.24 0 01-.46.05 1.37 1.37 0 01-1.08-.44 1.24 1.24 0 01-.31-.5 1.71 1.71 0 01-.11-.62 2.19 2.19 0 01.11-.7 1.6 1.6 0 01.34-.54 1.43 1.43 0 01.52-.36 1.9 1.9 0 01.66-.11 1.67 1.67 0 01.39 0 1.35 1.35 0 01.34.11V22l-.09-.06a1.12 1.12 0 00-.33-.16 1.13 1.13 0 00-.36-.06.92.92 0 00-.73.28 1.07 1.07 0 00-.22.37 1.72 1.72 0 00-.07.47 1.66 1.66 0 00.07.47.9.9 0 00.2.34.84.84 0 00.31.22 1 1 0 00.4.07 1.15 1.15 0 00.37-.06 1.51 1.51 0 00.35-.19l.08-.06v.59zm2.88.14h-.54V24a1 1 0 01-.32.3 1.17 1.17 0 01-.57.14 1 1 0 01-.74-.25 1 1 0 01-.21-.3 1.1 1.1 0 01-.06-.37.93.93 0 01.26-.71 1.28 1.28 0 01.78-.33l.86-.12a.8.8 0 00-.14-.51.54.54 0 00-.43-.17 1.39 1.39 0 00-.5.09 1.5 1.5 0 00-.45.27l-.09.07v-.64a1.86 1.86 0 01.5-.22 2 2 0 01.56-.07c.75 0 1.12.39 1.12 1.18v2zm-.54-1.52l-.67.09a2.11 2.11 0 00-.29.06 1.24 1.24 0 00-.2.1.4.4 0 00-.11.14.83.83 0 000 .24.48.48 0 000 .18.36.36 0 00.11.14.34.34 0 00.16.1.78.78 0 00.22 0 .77.77 0 00.56-.23.77.77 0 00.17-.27 1.21 1.21 0 000-.34v-.24zM93.05 9.48a2.53 2.53 0 01.85.12 1.58 1.58 0 01.64.4 1 1 0 01.35.54l2-.83a1.15 1.15 0 00-.1-.23 3.63 3.63 0 00-.69-.93 3.85 3.85 0 00-.92-.65 4.25 4.25 0 00-1-.38 5.06 5.06 0 00-1.09-.12 5 5 0 00-1.33.18A4.18 4.18 0 0089.5 9a4.06 4.06 0 00-.7 1.26 4.94 4.94 0 00-.25 1.63 4.83 4.83 0 00.25 1.62 4.11 4.11 0 00.7 1.27 4.32 4.32 0 001 .9 5.43 5.43 0 003 .71c1.61 0 3.19-.61 3.74-2.13v-3h-3.87v1.8h1.74v.67a2.73 2.73 0 01-3.08.32 2.51 2.51 0 01-.88-.92 3.07 3.07 0 01-.15-2.19 2 2 0 012-1.46zm-27-2h-2.3v8.8h2.3V7.5zm21.35 0h-2.3v8.8h2.3V7.5zm-13.2 8.85h1.48V7.5h-2.3v4.3l-3.79-4.34h-1.52v8.84h2.3v-4.54l3.83 4.57zm2.7-2a2.29 2.29 0 00.12.37 2.32 2.32 0 00.53.81 2.78 2.78 0 00.81.58 3.85 3.85 0 001 .34 4.92 4.92 0 001.09.11 4.74 4.74 0 001.07-.11 4.54 4.54 0 001-.34 3.61 3.61 0 00.8-.57 2.55 2.55 0 00.55-.79 2.48 2.48 0 00.2-1 2.91 2.91 0 00-.19-1.09 2.24 2.24 0 00-.5-.76 3 3 0 00-.77-.47 5.64 5.64 0 00-1-.28 9.26 9.26 0 00-1.08-.13 5.38 5.38 0 01-.72-.12.88.88 0 01-.46-.25.61.61 0 01-.16-.45.73.73 0 01.11-.41.68.68 0 01.29-.24 1.27 1.27 0 01.41-.17 1.35 1.35 0 01.4 0 1.81 1.81 0 01.58.08 1 1 0 01.44.28.93.93 0 01.21.56l2-.74a1.89 1.89 0 00-.11-.36 2.42 2.42 0 00-.52-.84 3.33 3.33 0 00-.76-.58 4.15 4.15 0 00-.93-.35 4.88 4.88 0 00-1-.11 5 5 0 00-1 .11 4.05 4.05 0 00-.94.35 2.89 2.89 0 00-.75.58 2.59 2.59 0 00-.51.81 3.21 3.21 0 00-.18 1 2.74 2.74 0 00.18 1 2 2 0 00.49.71 2.78 2.78 0 00.72.49 5 5 0 00.88.29 7.48 7.48 0 001 .13h.53a2.19 2.19 0 01.52.12.83.83 0 01.41.26.72.72 0 01.16.5.63.63 0 01-.11.35 1 1 0 01-.31.26 1.91 1.91 0 01-.44.16 2 2 0 01-.48.05 2.24 2.24 0 01-.52-.05 2.2 2.2 0 01-.45-.17 1.05 1.05 0 01-.31-.28.89.89 0 01-.12-.4l-2.12.69zm28.8 2V7.5h-2.31v3.18h-2.72V7.5h-2.31v8.8h2.31v-3.52h2.72v3.52zm3.3-6.82v6.79h2.22V9.51h2.15v-2h-6.53v2zm-67 2.41a5 5 0 00.26 1.6 4 4 0 00.68 1.25 4.11 4.11 0 001 .9 4.59 4.59 0 001.22.54 5 5 0 001.34.18 5.17 5.17 0 001.11-.12 3.85 3.85 0 001.06-.39 3.58 3.58 0 001.6-1.66 3.45 3.45 0 00.2-.48l-2-.84a1.79 1.79 0 01-.39.78 1.68 1.68 0 01-.68.46 2.41 2.41 0 01-.87.15 2.26 2.26 0 01-.92-.19 2 2 0 01-.69-.53 2.3 2.3 0 01-.44-.76 2.71 2.71 0 01-.15-.91 2.8 2.8 0 01.27-1.27 2 2 0 01.76-.84 2.21 2.21 0 011.17-.3 2.75 2.75 0 01.84.12A1.64 1.64 0 0148 10a1.79 1.79 0 01.43.73l2-.83a4.08 4.08 0 00-.19-.42 3.14 3.14 0 00-.69-.94 3.79 3.79 0 00-.91-.65 4.11 4.11 0 00-1.05-.37 4.51 4.51 0 00-1.09-.13 5 5 0 00-1.34.18 4.59 4.59 0 00-1.22.54 3.88 3.88 0 00-1 .89 4 4 0 00-.68 1.26 5.17 5.17 0 00-.26 1.66zm-8.24 4.38V7.5h-2.3v3.18h-2.73V7.5h-2.3v8.8h2.3v-3.52h2.73v3.52zM41 7.5h-5.77v8.8h5.88v-2.1h-3.58v-1.43h3.21v-2h-3.21V9.5H41v-2zm15.78 8.8h2.61l-2.72-4.41 2.71-4.39h-2.61l-2 3.31h-1V7.5h-2.32v8.8h2.31V13h1z" fill="#999" fill-rule="evenodd" data-name="Слой 1"/></g></svg>