<svg version="1.1" id="Слой_1" xmlns="http://www.w3.org/2000/svg" x="0" y="0" viewBox="0 0 581 733.1" xml:space="preserve"><style>.st0{fill:#fff}</style><g id="Слой_2"><g id="svg3397"><path id="path2567" class="st0" d="M325.8 0v601.9h33.6V460.8l18.3-19.5 159.5 160.6H581L399.4 418.5l144.2-148.8h-43.1L359.3 415.4V0h-33.5"/><path id="path2569" class="st0" d="M87 650.4s-11.1-9.2-25.2-9.2c0 0-16.8 0-28.6 12.2 0 0-11.8 12.2-11.8 29 0 0 0 16.8 11.8 29 0 0 11.8 11.8 28.6 11.8 0 0 14.1 0 25.2-8.8l5.3 5.3s-13.3 11-30.5 11c0 0-19.8 0-33.9-14.5 0 0-14.1-14.1-14.1-34 0 0 0-19.8 14.1-34 0 0 14.1-14.5 33.9-14.5 0 0 17.2 0 30.5 10.7l-5.3 6"/><path id="path2573" class="st0" d="M125.5 668.3c-13 0-22.1 9.2-22.1 9.2-9.2 9.2-9.2 22.1-9.2 22.1 0 13 9.2 22.1 9.2 22.1 9.2 9.2 22.1 9.2 22.1 9.2 14.9 0 24.8-12.6 24.8-12.6v11.1h6.9v-59.1h-6.9v10.3c-9.5-12.3-24.8-12.3-24.8-12.3zm0 6.9c9.9 0 17.2 6.9 17.2 6.9 7.3 7.3 7.3 17.5 7.3 17.5 0 9.9-7.3 17.2-7.3 17.2-7.3 7.3-17.2 7.3-17.2 7.3-10.3 0-17.2-7.3-17.2-7.3-7.3-7.3-7.3-17.2-7.3-17.2 0-10.3 7.3-17.5 7.3-17.5 6.9-6.9 17.2-6.9 17.2-6.9z"/><path id="path2575" class="st0" d="M255.6 643.1s-4.2 0-4.2-4.2c0 0 0-4.6 4.2-4.6 0 0 4.6 0 4.6 4.6 0 2.3-1.9 4.2-4.3 4.2h-.3"/><path id="path2577" class="st0" d="M177.8 634.3v95h-7.2v-95h7.2"/><path id="path2579" class="st0" d="M214 716.4l21-46.2h7.6L214 733.1l-29.4-62.9h8l21.4 46.2"/><path id="path2581" class="st0" d="M278.8 675.9c4.2-4.9 10.3-7.7 16.8-7.6 0 0 9.9 0 16.8 6.9 0 0 6.9 6.9 6.9 16.8v37.4h-6.9V692s0-7.3-5-12.2c-3.2-3.1-7.4-4.9-11.8-5 0 0-6.9 0-11.8 4.6-3.1 3.4-4.9 7.9-5 12.6v37.4H272v-59.1h6.9l-.1 5.6"/><path id="path2583" class="st0" d="M259 670.2v59.1h-6.9v-59.1h6.9"/><path id="path2585" class="st0" d="M410.4 634.7l-37.8 40.8 37.4 53.8h-8.8l-33.6-48.5-6.9 7.3v41.2H354v-95h6.9v43.1l39.7-42.7h9.8"/><path id="path2587" class="st0" d="M428 634.3v95h-7.2v-95h7.2"/><path id="path2589" class="st0" d="M470.3 668.3c-13 0-22.1 9.2-22.1 9.2-8.8 8.8-8.8 22.1-8.8 22.1 0 13 8.8 21.7 8.8 21.7 9.2 9.2 22.1 9.2 22.1 9.2 19.8 0 28.2-17.5 28.2-17.5l-6.1-2.7c-6.9 13.3-22.1 13.3-22.1 13.3-9.9 0-16.8-6.9-16.8-6.9-7.3-6.9-7.3-16.8-7.3-16.8h55.3v-.4c0-13.3-9.1-22.1-9.1-22.1-9.1-9.1-22.1-9.1-22.1-9.1zm0 6.5c8.4 0 14.9 5.3 14.9 5.3 4.1 3.3 7.1 7.6 8.8 12.6h-46.9c1.6-4.9 4.5-9.2 8.4-12.6 4.3-3.2 9.4-5.1 14.8-5.3z"/><path id="path2593" class="st0" d="M512.3 638.9s0-4.6 4.2-4.6c2.3 0 4.2 1.9 4.2 4.3v.3s0 4.2-4.2 4.2c0 0-4.2 0-4.2-4.2"/><path id="path2595" class="st0" d="M540.5 670.2v5.7s5.3-7.6 16.8-7.6c0 0 9.9 0 16.8 6.9 0 0 6.9 6.9 6.9 16.8v37.4h-7.3V692s0-7.3-4.6-12.2c0 0-5-5-11.8-5 0 0-7.3 0-11.8 4.6-3.1 3.4-4.9 7.9-5 12.6v37.4h-7.3v-59.1h7.3"/><path id="path2597" class="st0" d="M519.9 670.2v59.1H513v-59.1h6.9"/><path id="path2599" class="st0" d="M47.7 315.1S0 363.9 0 434.5c0 0 0 71.7 47.3 120.5 0 0 47.3 49.2 119 49.2 0 0 66.4 0 117.5-44.6l-21.4-21.4s-43.4 36.6-97.6 36.6c0 0-56.1 0-95.4-42.3 0 0-37.8-41.6-37.8-98 0 0 0-56.1 38.1-96.9 0 0 39.3-42 95.8-42 0 0 52.6 0 93.8 33.6l20.2-21v-1.9s-46.9-40-112.5-40c.1 0-71.3 0-119.3 48.8"/></g></g></svg>