<svg xmlns="http://www.w3.org/2000/svg" viewBox="0 0 2498.3 474"><path d="M128.4 3.5c-.9 2-1.7 17.3-2 34l-.9 30.2-62.8.9-62.7.6 1.1 74.3c.9 79.7 2 86.9 17.6 118.3 11.2 23 32.5 42.6 55.6 51 35.1 13 39.1 13.5 80.3 13.2 52.7-.3 80-7.5 106.2-27.6 28.8-22.5 42.6-50.4 47.5-96.7 2.3-23.6 4.3-128.4 2.3-130.1-.6-.3-28.8-1.2-62.8-2L186 67.7l-.9-31.7c-.6-20.7-2-32.2-4.3-33.7-6-3.6-51-2.8-52.4 1.2zm-6 113.5c3.7 1.4 4.6 6.9 4.6 29.9 0 15.5.9 30.2 1.7 32.8 2.6 6.6 51.5 6.6 54.1 0 .9-2.6 1.7-17.3 1.7-32.8 0-23 .9-28.5 4.6-29.9 7.5-2.9 55.8-2 61.9 1.2 11.5 6.3 5.2 93.3-8.6 120.3-6.9 13.5-15.3 21.3-33.4 31.1-12.9 7.2-18.1 8.1-48.4 9.2-29.9 1.1-36 .3-51.2-5.2-21.3-8.1-39.8-27.3-47.5-49.5-6.6-19.3-9.5-97.9-4-104.5 2.6-3.2 10.7-4.3 31.7-4.3 15.5-.1 30.2.8 32.8 1.7zm452.1-44.7c-.9 2.3-1.2 92.1-.9 199.8l.9 195.7 63.3.9c103.3 1.4 143.1-4.6 183.4-28.5 18.1-10.6 40.3-32.2 45.8-44.3 1.6-3.4 3.3-6.8 5.2-10.1 3.5-5.8 10.4-23.9 15.8-42.3 6-19.3 8.9-86.6 5.2-117.4-4-33.4-8.9-50.1-23-79.2-7.8-15.8-40.3-46.6-59.3-55.8-37.7-18.1-46.6-19.3-144.8-21-74.2-1.2-90.4-.9-91.6 2.2zm154.6 45.5c27.6 3.2 50.7 12.4 67.9 27.3 13.5 11.8 28.5 35.4 32.2 51.2 1.7 6.6 4.6 17.6 6 23.9 4 15.3 1.4 100.5-3.2 113.7-8.6 23.9-21.6 46.6-32 55.3-18.4 16.1-23.6 19.6-28.5 19.6-2.7.1-5.4 1.1-7.5 2.9-5.8 5.8-34.3 9.5-81.2 10.6-33.7.9-48.1.3-51.2-2.3-3.5-2.9-4-26.2-4-151.1 0-137.6.3-148 5.2-150.6 6.2-3.7 63-3.9 96.3-.5zm271.2-44.6c-.9 2.3-.9 70.5-.3 151.7 1.2 137.3 1.4 149.1 6.6 162.4 16.4 43.2 39.2 65 82 79.7 25.3 8.6 98.4 9.5 124.9 1.4 50.4-15.5 76.8-43.2 88.7-92.7 4-17.3 4.9-39.7 4.9-159.8V72.6c0-2.6-7.5-3.4-27.3-3.4h-27.1l-.9 147.7c-.6 103-1.7 149.1-4 152-1.7 2.3-4 7.5-5.2 11.8-2.3 9.8-23 31.7-36.3 38-24.2 11.8-86.1 10.9-109.1-1.4-13.5-7.5-27.3-23.3-36.3-41.5-5.5-10.9-5.8-19.9-6.6-156.9-.9-107.4-2-145.9-4.3-147.4-2-1.2-13.5-2.3-25.9-2.3-16.3 0-22.7 1.1-23.8 4zm432.6-2c-2.6 2.3-2.6 387.2-.3 393.5 1.4 3.7 6.6 4.6 27.1 4.6 21.9 0 25.6-.9 27.1-5.2.6-2.6 1.4-41.7 1.4-86.6.3-62.8 1.2-82.3 3.7-84.3 2-1.1 39.2-2.3 82.3-2.3h78.6l-.9-22.5-.9-22.2-79.2-.9c-43.5-.3-80-1.7-81.2-2.9-3.2-3.2-4-120.9-.6-124.4 1.7-1.7 41.4-3.2 101.9-3.4l99.3-.9V70.6l-128.2-.9c-70.5-.2-129.2.3-130.1 1.5zm350-.3c-4.9 2-5.2 388.6-.6 394.6 5.2 5.8 50.4 5.2 52.7-.9.9-2.6 1.7-41.2 1.7-86.1 0-78 .3-82 5.5-84.9 3.2-1.4 23.6-2.9 45.8-2.9 46.9 0 43.5-2 66.8 40 8.1 15 18.1 32.2 21.9 38.3 3.7 5.7 7 11.5 10.1 17.6 1.4 3.5 5.5 10.9 8.6 16.4 3.5 5.5 12.7 21 20.4 34.5 8.1 13.5 16.7 26.2 19 27.9 6.6 5.5 58.2 5.2 58.2-.3 0-2-2-5.5-4.3-7.5s-4.3-4.6-4.3-6-3.4-8.1-7.8-15c-4.3-6.6-9.2-14.4-10.9-17-1.4-2.6-18.7-31.1-38.3-63s-35.1-60.2-34.6-62.8c.6-3.2 7.2-6 19.6-9.2 38-9.5 63-27.4 75.7-53.8 5.5-11.8 6.3-18.1 6.3-50.9 0-33.1-.9-38.9-6.6-50.7-12.4-25.3-34-41.2-72.5-53.3-13.5-4.3-30.5-5.2-122.3-6-58.5-.1-108.1.2-110.1 1zm193.5 46.9c25.9 3.2 40.6 10.4 52.4 25.6 9.2 12.1 9.5 13.5 9.5 37.7 0 21.9-.9 26.5-6.3 33.7-8.6 11.2-13 14.7-28.2 22.2-12.4 6-16.1 6.3-89.2 6.3h-76.3l-.9-60.2c-.6-41.7.3-61.3 2.6-63.9 2.6-3.2 15.3-4 59.9-4 31 .4 65.5 1.5 76.5 2.6zm179.9-45.4c0 1.7 17.3 31.4 38.3 66.2 20.7 34.8 39.4 65.3 40.9 68.2 1.7 2.9 10.9 18.7 21 35.1 10.1 16.7 19.6 32.8 21.6 36s4 6.3 5.2 7.2c2.8 3.8 5.4 7.7 7.8 11.8 6 10.1 6.3 13.2 6.3 86.9 0 42 .9 78.3 1.7 80.9 1.4 3.7 6.6 4.6 27.1 4.6 21.9 0 25.6-.9 27.1-5.2.9-2.6 1.1-37.1.3-76.9-1.1-69.1-.9-72.3 4.9-84.1 3.4-6.9 7.2-12.4 8.6-12.4 1.1 0 2.3-1.4 2.3-3.2 0-2.3 31.4-55.3 52.4-88.4 2.6-4.3 6.6-10.6 8.6-14.1s18.1-29.9 35.4-58.7c17.6-28.8 32.2-53.5 32.5-55 1.7-4-58.7-2.9-62.2 1.2-1.4 2-6.9 11.5-12.1 21-17 31.1-21.9 40-37.4 67.6-8.4 15-17.3 30.5-19.3 34.5-2.3 4-7.5 13-11.5 20.1s-10.4 19-14.1 26.2c-7.5 14.7-13.8 21.3-18.1 18.7-2.3-1.4-10.6-15.5-30.5-52.1-3.4-6.3-13.2-23.9-21.6-38.9-8.6-15-18.4-33.1-22.5-40.3-3.7-7.2-11.2-20.2-16.7-29.1s-9.8-17.6-9.8-19c0-1.7-2.3-4.9-5.2-7.5-4.3-3.7-11.2-4.9-33.1-4.9-18.2.4-28 1.5-27.9 3.6z" fill="#fff"/></svg>