<svg version="1.1" id="Слой_1" xmlns="http://www.w3.org/2000/svg" x="0" y="0" viewBox="0 0 342.4 549.4" xml:space="preserve"><style>.st0{fill:#fff}</style><path class="st0" d="M324.7 1c9.4-.1 17.1 7.6 17.2 17v515.4c0 9.4-7.7 17-17.2 17h-308c-9.4 0-17.1-7.6-17.2-17V18c0-9.4 7.7-17 17.2-17h308m0 6.8h-308C11.1 7.8 6.4 12.4 6.4 18v515.4c0 5.7 4.6 10.2 10.3 10.2h308c5.7 0 10.3-4.5 10.3-10.2V18c0-5.6-4.6-10.2-10.3-10.2z"/><path class="st0" d="M164.7 106.3c-.1 1.1-.3 2.1-.7 3.2-.4 1.1-1.6 1.8-1.5 2.5.3 1 1 1.8 2 2.2.9.6 1.8 1 2.8 1.4 1.1.3 2.5 1.1 2.9.2s-.2-2.1-.9-3.2c-1.1-1.9-1.7-2.3-3.4-5-.4-.6-.7-1.2-1.2-1.3"/><path class="st0" d="M156 310.7c.1-.3 2.8 1.4 4.3 2.2 2.4 1.5 4.8 3.1 7 4.8 2.1 1.6 3.1 2.4 5.2 4.2 2.6 2.2 4 4.1 4.6 3.7 1-1.2-1.6-4.7-4-6.6-2.1-1.6-4.2-3.2-6.4-4.6-2.3-1.5-2.5-1.9-6-4.3-2.5-1.7-4.8-3.6-7-5.7l-3.6-2.9-5.7-4.8-6.4-5.7-4.8-5.3s-3.7-4.6-4.3-5.4-2.3-3.7-3.8-6.1c-1.3-2.1-3.8-5.5-4-5.8-1.3-1.6-4.4-1-8-3.1-4.4-2.6-5.4-4.9-5.4-4.9-.1-.2-.2-.4-.3-.5-.2-.2-.3-.3-.5-.4l-2.3-1.6-1.3-.9c-.7-.5-1.4-1-2.2-1.4-1.3-.6-4-2.2-4-2.2l-5-3.2-2.6-2.1c-.7-.5-1.9-1.2-1.9-1.2-.3-.2-.7-.3-1-.4-.2 0-1.3-.1-1.3-.1-.8-.1-1.5.3-1.9.9-1 1.1-.7.5.9 7 .6 2.6.6 11.6 1.2 14.3.9 3 2.1 5.9 3.6 8.6.2.8.4 1.7.4 2.5-.1.9 0 1.7.1 2.6.8 4.6 7.6 1.6 9.1 8 .8 4.2.4 8.5-1 12.6 0 0-1.5 3.1-3.5 3.6s-5.3-4.1-7.6-7.8c-1.9-3.2-3.4-6.5-4.8-9.9-.4-1-1-2-1.6-3-1-1.6-1.8-1.3-3-3.9s-.1-3.6-.7-5.9c-.3-1.3-.6-1.4-1-3.2s-.9-7.4-.9-7.4l-.7-5.3s-.3-2.4-.6-3.9c-.7-3.4-1.2-6.9-1.5-10.3l-.2-2.1-.1-2.2c-.1-1.4.3-2.8 1-4.1 0 0 1.1-1.8 1.2-2.2.7-1 1.5-2 2.3-2.9 1-.8 2-1.5 3-2.1 1.1-.6 2.3-1 3.5-1 1.3 0 2.5.2 3.8.4 3.3.4 10.1 2.2 11.8 2.6 1.7.4 3.4 1.1 5 1.9 3.8 2.1 4.9 1.2 1.9-1.2-2-1.6-2.6-2.3-4.2-3.8-1.2-1-2.4-2.1-3.5-3.3-1-1.2-3.9-5.5-3.9-5.5l-1.9-2.7c-.4-.4-.7-.8-1.1-1.2-.2-.1-.6-.5-.6-.5-.8 0-1.6 0-2.5-.2-1.3-.3-1.8 1.5-1.8 1.5-1.6 2.9-3.4 5.6-5.5 8.1-4.5 5-7.7 8.4-9.3 11.1-2.3 3.7-1.8 7.8-3 9.6-.6.7-1 1.4-1.4 2.2-1.2 2.9 3 4.5 2.1 7.7-1.5 5.1-13.5 10.2-15.1 9.4s-.3-7.8.3-10c.6-2 1.4-4 2.4-5.8.3-.5.6-1 .7-1.6.1-.7.2-2.2.3-3 .1-.7.2-1.4.4-2.2.3-.9.7-1.7 1.1-2.6 1.1-2.3 5-7.7 7.8-12.8 1.8-3.4 2.6-5.4 4.5-8.7 1.7-3.1 4.6-7.8 4.6-7.8s1.2-2.4 1.8-3.3 1.8-2.6 3-4.4 1.4-3 3-4.4c1-1.1 2.3-1.8 3.7-2.3 2.4-.8 4.1-.4 6.6.3 2.2.6 4.3 1.8 6 3.3 1.1.9 2 1.9 2.9 3l.8 1.2.5.3 1.6 1 3.6 2.4s8.5 5.8 9 6.1 2 1.6 2.3 1.7 2.6-2.4 7-5.4c5.2-3.6 7-3.3 8.7-4.2 1.4-.8 2.6-1.8 3.7-3 2-2 2-3.1 4.3-5.9 1.3-1.6 2.8-3.1 4.4-4.4 0 0 .3-.3 4.4-4.9 2.2-2.5 4.2-5.2 5.9-8.1l2.2-4.5s3.2-6.9 4.3-9.7c.5-1.2.9-2.4 1.1-3.7 0-.8-.2-1.5-.6-2.1-.8-1.4-1.6-.8-3.2-.4-3 .6-4.8-.1-7.8-.7-2.7-.4-4.2-1.3-6.9-1.7s-4.4-.9-7.2-.7c-.6.1-1.1.2-1.7.4-1.1.3-2.2.8-3.2 1.3-1.2.6-2.4.9-3.7.9-.9.1-1.8 0-2.6-.3-.6-.2-1.1-.5-1.6-.9-.3-.2-.5-.5-.7-.8 0-.3-.1-.3.2-.8.1-.3.4-.6.7-.7l1.3-.3 2-.5c.2 0 1.9-.6 2.6-.8.6-.2 1.1-.4 1.6-.7 0 0 .5-.7.3-1.2s-1.2-.5-1.2-.5-1.4.5-1.6.6-2.4.8-2.4.8-1.8.4-3.2.7c-1.1.2-2.3.4-3.4.5l-.6-.2s-.7-.4-.8-.9-.2-.7-.2-1.2c-.3-1.8-.7-2.8-.2-4.6.1-.6.4-1.2.7-1.8.2-.5.5-1 .8-1.4l1.1-1.8 2.1-3.1c.6-.6 1.3-1.2 2.1-1.6 1.1-.7 2.4-1.1 3.8-1.1 1.4-.1 2.8-.3 4.1-.7 1.4-.3 2.7-.8 4-1.4 0 0 5.5-2 8.9-3.7 3.5-1.7 5.1-3.6 8.7-5 1.3-.5 2.6-1 4-1.3.2-.1.3-.3.4-.5.1-.6-.7-.8-1.4-.8s-1.8.6-2.1 0 1.2-.8 1.2-.8.6-.3.7-.7c0-.6-.9-.2-1.4-.2-1.3-.2-2.6-.5-3.8-1-1.5-.5-3-.8-4.5-1-1.4 0-2.8.2-4.1.5-1 .3-1-.7-.6-.9 2.8-1.3 2.9-1.4 4.9-1.5.9 0 1.9.1 2.8.3.2.1 2.3 0 2.9-.6s-1.8-.5-2.9-1-2.6-.5-2.6-1.2.8-.3 1.4-.4c.6-.1 1.2-.2 1.8-.2 1.2-.2 1.4-.3 3.2-.4 1.5 0 3 .2 4.4.6 0 0 2.8 1.2 4.1 1.9 1 .4 2 .8 3 1 1.2.1 2.3-.1 3.4-.6 1.5-.9.6-1.5.1-2.3-.9-1.2-.9-2.8-.2-4.1.8-1.9 1.3-4.1 1.5-4.3s1.5 1.4 2.2 2.1c2.7 2.5 6.3 3.8 9.6 9 .3.4 1.5-.3 5.4.3s7.3 4.8 8.2 5.8c.5.6 1.2 1 2 1l1.9.3 6.8.1s3.1-.6 4.9.1c1.2.5 5.4 3.2 3.5 4.3-1.3.7-2.6-.9-3.8-1-1.1 0-2.2.1-3.3.5-2.6.7-8.3 2.4-6.3 3.1.1.1.3.1.4.1l1 .2c1.4.3 2.7.7 4 1.2 2.3.9 3.4 1.9 5.4 3.1 1.2.7 1.7 1.4 3 1.8s2 0 3.2.2c1.4.2 2.7.7 4 1.3 2.2 1.1 3 2.3 5 3.8 1 .7 1.8.8 2.6 1.8.2.2.3.4.4.6.3.9-1.4.4-2.4.2-.8-.2-1.6-.6-2.3-1-1.4-.6-2-1.4-3.5-1.6-.9-.1-1.9-.1-2.8 0-1.1 0-1.6.2-2.7.2-1.6 0-3.1-.1-4.7-.5-2-.4-3-1.2-5-1.6-2.3-.5-6.3-2.4-5.9-.5.2.9 2.3 1.7 2.3 1.7s1.5.8 2.9 1.4c.8.3 1.5.9 2.1 1.5l1 .7s1 1.4 2.3 2.9c.9.9 2.2 1.5 3.5 1.5 1.4.1 2.9.3 4.3.6 2.1.5 4.1 1.3 5.9 2.4 1.3.9 2.5 2 3.6 3.1 1.3 1.6.6 2.4.4 2.5s-.1.1-.3.2c-.7-.6-1.3-1.3-1.8-2l-1.2-1c-.8-.5-1.7-1-2.6-1.3-1.5-.5-2-.2-2-.2-1.9.5-3.9.8-5.9.8-1.5 0-2.9-.4-4.1-1.2l-1.8-1.1s-2.6-2.4-2.7-1.3c-.1.8 1.1 1.6 1.1 1.6l1.4 1.4c1 1 1.5 1.6 2.7 2.6.5.6 1.2.9 1.9 1.1 0 0 .6.2.9.2l.7.2 2.3.9c1.4.6 2.7 1.4 3.9 2.4.1.1.3.2.5.2.3.1.7.2 1 .4.2 0 .6 0 1.7.2s.7.9.7.9l-.2.3-.9.6c-.6.2-1.3.3-1.9.4-.7 0-1.3-.2-1.9-.4l-2.4-.9s-2.4-.6-3-.7-2.7-.5-3.1-.6c-.6-.2-1.2-.4-1.7-.6-.3-.2-.8-.3-2.1-.9s-1.8-1.4-3.5-1.9-2.6-.6-3.9.2c-2.1 1.5 3.2 1.7 5.9 3 3.9 1.9 6.1 3.3 7 5.4.4 1.1 1.1 2 1.9 2.8 1.5.7 2.8 1.7 4 2.8.7.8.8 1.4 1.4 2.2 1.5 1.8 4.4 1.7 5 3.2s-2.4.8-3.9.6c-2.7-.3-3.4-2.8-6-3.8-1.4-.6-2.4-.6-3.8-1.1-2.7-.9-3.9-2.1-6.6-2.9-1.6-.5-4.6-2.6-4.2-1 .1.3.2.7.4.9.1.2.8 1.1.8 1.1.4.5.8 1.1 1.3 1.5 1.4 1.1 3 2.1 4.6 3 1.7 1.1 3.3 2.4 4.6 3.9.4.6.8 1.2 1.1 1.8.4.8.1 1.1.7 2.2.3.8.9 1.5 1.5 2.1 1.8 1.7 3.7 1.4 6 2.3.6.3.7.4 1.4 1.1s-.1 1-.1 1c-1.4.4-2.8.5-4.2.5-2.1-.2-3.1-.8-5.2-1.9-1.3-.8-2.5-1.8-3.4-3-.2-.1-.7-.7-1.1-1-.8-.3-1.5-.6-2.4-.8-.9-.3-1.5-.3-2.4-.6-1.3-.4-2.6-.9-3.2-1.1-1-.4-2.1-.3-3 .1-2 1.2 3.1 2 4.7 3.7.8.9 1.2 1.5 1.9 2.4.4.6 1 1.2 1.6 1.7.4.3.9.5 1.4.8 0 0 1.2.6 3 1.6 1.5 1 2.8 2.3 3.9 3.8l1.3 1.9.8 1.1.2.5.3.6c.5.6 1 1.1 1.6 1.6.7.4.6.8.6.8s-.1.3-.6.5-.7.1-1.4-.1-1.1-.8-1.7-1.3-1.3-1.7-2.4-2.4c-.9-.4-1.8-.8-2.7-.9-.5-.2-1.7-.9-2.1-1.1s-1.7-.8-1.7-.8c-1.2-.7-2.4-1.2-3.7-1.7-1.3-.4-.5.4-.5.4.6 1 1.4 1.9 2.3 2.6 1.5 1 3.6 1.8 2.9 2.6-.5.5-1.1.3-1.8.3-.9-.3-1.8-.8-2.4-1.5-1-.5-2-.9-3-1.1-2.5-.8-1.6.5-1 1.3.4.4.8.8 1.3 1.1l1.7.8.8.2s.7.1 2.9.6c1.3.3 2.4.8 3.5 1.6 0 0 1.2 1.1 2.9 2.4 1.3.9 2.7 1.5 4.3 1.7.9.1.9.8.9.8.1.3.1.5.1.8 0 .2-.2.4-.4.4s-.3.1-.5.2l-1.2.3c-1.5-.1-3-.2-4.5-.6-1.4-.4-2.7-1.1-3.9-1.9-1-.6-2.1-1.1-3.2-1.5-1.1-.3-2.3-.3-3.4-.1-.2.1-.9.2-2 .5s.3.8.3.8l.8.1 2 .1c1.3.2 2.6.5 3.8.9 1.6.7 2.9 1.8 4 3.1.7.7 1.6 1.4 2.4 1.9l.9.6.5.4.1.3s0 .2-.1.4-.4.4-.4.4c-.2 0-.4-.1-.6-.1-.2 0-1.5-.7-2.5-1.1-.8-.5-1.7-.8-2.6-1.1-.8-.2-1.6-.3-2.4-.2-.3.1-2.3.4-3.9.5-1.6.1-3.2.1-4.8-.1-2.6-.3-6.1-2.4-6.6-1.8-.9 1.2 1.9 1.6 3.2 2.3 1.6.8 3.3 1.5 5.1 2 1.3.3 2.5.7 3.7 1.2 3 1.4 3.9 3.5 6.3 5.6 1.1 1.1 2.6 1.8 4.2 2 1.5.2 1.5 0 3.9-.4s3.9-2.8 4.6-1.9c.1.2.1.3.1.6-.1.2-.1.5-.3.7-.2.3-.5.6-.7.8-.9.7-1.9 1.3-3 1.7-1.8.7-3.8 1-5.7.9-2.7-.1-6.5-2.2-6.5-2.2l-2.7-1.1s-1.3-.6-2.1-.9c-2.3-.9-3.7-.8-6.1-1.4-1.4-.4-2.4-.8-3.7-1.1s-.6.2-.4.4c.7.7 1.5 1.3 2.5 1.6 1.4.7 2.4.5 3.8 1.1 1.3.6 2.6 1.3 3.9 2.1.9.6 1.7 1.3 2.4 2.1l2.9 2.5s.7.6.8.8c.3.6.3 1.2.3 1.8-.2 1-1 .3-1 .3l-.8-.5-2-.8-1.2-1c-.9-.7-1.8-1.4-2.9-1.9-1.2-.6-2.6-1-3.9-1.2 0 0-1.9-.3-1.8.3s.5.6 2 1c.9.2 1.8.6 2.5 1.2 1 .7 1.9 1.5 2.7 2.4.6.7 1.1 1.6 1.4 2.5.6.9 1.2 1.7 2 2.4 1.4 1.4 2.2.9 2.1 1.6 0 .4-.3.7-.7.8h-.5c-.3-.1-.6-.2-.9-.4-.7-.4-1.3-.8-1.9-1.2 0 0-2.4-1.9-2.6-2.1s-2.5-1.9-2.5-1.9-1.3-.9-2.3-1.3c-1-.5-2-.9-3-1.2-.7-.2-1.3-.3-2-.3-.9-.1-1.7-.3-2.6-.6-1.3-.6-2.4-1.4-3.5-2.3-.6-.2-1.2-.4-1.9-.5-.3 0-.9 2.7-1.1 4.3-.6 6.5 1.1 10.8 3.8 16.7 3.9 8.6 14.6 19.4 14.6 19.4 1.3.7 2.6 1.6 3.8 2.4 3.2 2.5 8.5 6.1 13.3 10.8 3.3 3.6 6.5 7.3 9.4 11.2 1.7 2.3 3.2 4.8 4.6 7.4 1.3 3.1 2.4 6.2 3.2 9.5 0 .4.1.8.2 1.2.1.2.4.5.6.5l1.9.1c1.3-.1 2.5-.2 3.7-.5 2.4-.8 4.7-1.8 6.9-3 1.7-1 3.3-2.1 4.8-3.4 0 0 .5-.4 3.1-3.3s4.3-7.2 4.9-8.8 1.1-4.7 1.5-10c.2-3.6.1-7.3-.3-10.9 0 0-1-7.8-1.6-10.5s-2-7-2-7-1-3.9-1.3-6.3-.4-6.4-.4-6.4c.1-2.3.3-4.6.8-6.9.7-3.2 1.9-6.2 3.5-9 1.1-1.8 2.3-3.5 3.7-5 2-2.5 4.3-4.7 7-6.4 2.4-1.7 5.4-4.4 6.4-3.8s-1.1 2.1-1.8 2.8c-3.2 2.9-5.9 6.3-8.1 10-1.9 3-3.2 6.4-4 9.9-.4 2.3-.5 4.6-.3 6.9.1 1 .7.7.7.7 3.3-2.6 6.3-5.4 9.2-8.4 3.5-3.9 6.7-10.9 7.9-11 .8 0 1.2 1.8 1 2.7-.3 2.3-1.1 4.5-2.2 6.5-1.4 2.8-2.6 4-4.5 6.6-1.8 2.2-3.4 4.6-4.5 7.3-1.4 2.8-1.7 6-1 9 0 0 .3 2.4 1.4 2.4 1.8-.1 5.8-5.1 8.3-9.1 1.9-3 2.6-6.4 3.9-8.3 1.1-1.6 2.1 2.6 1.6 5.1-.6 3-2 5.6-5.3 9.8-1.8 2.3-2.9 5.1-3 8 0 0-.3 1.8-.6 5.6 0 3.3.3 6.5.9 9.7.6 2.8 1 5.7 1.2 8.6.2 3.7.1 12.2-3.4 18.8-1.3 2.2-2.7 4.3-4.4 6.3-1.3 1.3-2.7 2.6-4.2 3.7-2 1.3-4.2 2.5-6.4 3.5 0 0-3.1 1.1-3.6 1.2-.3.1-.5.3-.7.5 0 0 .3.6.4.9s1 2.4 1 2.4c.6 1.8 1.1 3.6 1.5 5.5.4 2.4-.1 3-.4 4.8s-1.1 1-1.3 4.4c-.2 3.1 1.2 4.6 1 8.1-.1 1.5-1.8-1.9-2.6-3.4-1.8-3.1-1.3-8-1.4-9.2 0-1.4-.2-2.7-.6-4-.4-1.7-1.2-3.3-2.3-4.7-.9-1.2-1.9-1.9-2.2-1.7s-.4.7-.4 1c.2.6.4 1.2.8 1.7.2.2 1.3 2.3 1.3 2.3.4 1.6.6 3.2.7 4.8 0 2.4-.2 4.7-.8 7-.7 2.4-1.5 4.7-2.6 7-1.4 2.4-3 4.6-4.8 6.7-1.7 1.7-3.1 3.6-4.1 5.7-1.7 3.5-.3 5.1-.9 5.5s-2.1-2-2.4-3.7c-.3-1.4-.2-2.8.5-4.1.6-1.4 1.2-2.8 2-4.1l2.1-3.6c1.4-2.7 2.5-5.5 3.4-8.4.4-2.5.4-5-.1-7.4 0 0-.1-1.3-1-1.2s-1.5.8-1.9 1.8c-.7 1.9.3 1.6-.8 4.8-.9 2.5-1.1 2.2-1.6 3.7s-.8 3.1-.8 4.8c0 1.1-.6.6-.6.6-.7-1.4-1.1-2.9-1.1-4.5 0-1.2.1-2.3.2-3.5.3-1.9.7-3.7 1.1-5.5.6-2 .8-4.1.8-6.3-.2-3-1.3-3.6-1.3-3.6s-.3-.4-1.4-.3-1.1 2.2-1.1 2.2-.4 3-.8 4.8c-1.3 5.1-3 7.8-6 12.1-2.4 3.3-5.2 6.3-8.3 8.9-1.8 1.6-7.5 5.8-7.5 5.8l-6.7 4.4c-1.6 1.6-2.9 3.6-3.9 5.7-1.1 2.6-1.3 5.6-.5 8.3.4 1.8 1.2 3.5 2.3 4.9.9 1.1 1.5 2.4 1.9 3.8.1.9.2 1.7.1 2.6.1.8.1 1.5.1 2.3 0 1.4.2 2.4-.6 3.6-.6.7-1.4 1.3-2.2 1.6-1 .4-2 .9-2.9 1.5-11.4 6.9-15.4 11.3-21.8 18.9-2 2.5-.5 2.3-2.7 5.2-1.3 1.7-4.4 1.7-5.5 3.8-1.5 2.8 3.4 5.6-2.3 8.1-7.4 3.2-20.1.9-20.4-.1-.7-2.7 2.5-5.9 3.6-7.2 5.2-5.7 9.8-5.8 11.5-10.5.4-1 .2-1.9 4.4-4.9 2.9-2.1 14.5-10.9 19.5-16.7 1.7-2 3.2-3.3 4-5.5.5-1.2.2-2.6-.8-3.5l-2.1-3.4-4-7.1s-1.7-3.8-2.6-6-2.7-8.1-2.7-8.1c-.7-2.9-1.2-5.8-1.5-8.7-.4-6.2.5-9.8 2.1-15.8 2.1-7.8 6.9-11 8.8-18.8.6-2.2.7-6.1-.5-5.9s-1.2 3.2-2 5.3c-3.1 7.7-7.1 11-9.4 19-1.4 4.6-2.1 9.3-2.1 14.1 0 3.2-.1 2.6.7 8.1.3 1.7.8 3.4 1.4 5.1.4 1.4 1.6 4.1 1.6 4.1.9 1.9 1.6 3.9 2.1 5.9.2.7.3 1.4.3 2.2-.1 1.5.1 1.8-.6 3.1-.9 1.6-.3 2.6-3.1 3.2-2.5.5-7.6-1.1-7.6-1.1s-20.9-6.3-34.3-4.5c-2.6.4-4.1 1.3-6.7 1.3-2.4 0-3.7-1.9-6.1-1.2-.5.1-.6.5-1.1.8-3.5 2.5-.8 6.5-10.2 4.4-5.7-1.3-12.7-4.8-11.4-7 1.6-2.9 3.8-3.4 8.3-5.3 4.8-2 12.1-1.4 13.5-1.5 1.8-.1 4.2-1.4 7.4-1.4 5.4-.1 6.4.6 6.4.6l9.2.8 17.5.2s3.1-.2 4.4-.5 2.3-2.7 2.9-3.9c.4-.9.4-2 0-2.9l-.5-.8-1.7-2.7-3.1-5.2-3.4-6.8s-2.2-4.8-3.4-7.9c-1.1-2.6-2-5.3-2.7-8.1-.8-2.8-1.3-5.7-1.4-8.6.4-4 .2-6.9 1.2-10.1"/><path class="st0" d="M269.9 304.4c3.7-4.7 4-9.1 4.3-15.3.2-4.5-1.5-11.5-1.5-11.5l-.2-.5s-.6-.8-1 .3c.1 1 .2 1.8.2 1.8l.2 8.9c-.3 3.1-.9 6.2-1.8 9.2-2.6 7.8-9.5 11.3-10.5 14.2-1.8 4.6 5.9-1.4 10.3-7.1m-38.7 14.5c-.9.3-1.5 1-1.5 1.9 0 1.5.4 2.8.3 4.6 0 2.3-2.1 4.9-.8 5.8 2.3 1.5 4.3-8.9 3.6-10.5s-1.4-1.8-1.6-1.8m-26 72.1c-.4-.1-.9-.1-1.3.1-.5.2-.8.7-.8 1.2 0 0-.2.9.5 1s1.8-1.5 1.8-1.7c0-.3-.1-.5-.2-.6m-24.6 17.4s-.2.3 0 .4.6 0 .6 0 4.2-3.3 6.7-5.6c2.6-2.5 6.5-6.8 6.5-6.8.2-.2.2-.4 0-.6-.3-.3-1 .1-1.6.4-.4.2-.9.5-1.2.8-.4.3-1.6 1.6-1.6 1.6l-3.3 3.2-2.1 2-2 1.9-.8 1-.3.5c-.1.1-.3.4-.3.4s-.3.3-.3.4-.1.2-.1.3c-.1-.1-.1 0-.2.1m-7.3 4.8c-.4-.2-.8-.2-1.2 0-.6.4-1.1.9-1.6 1.5-.1.1-.5.7-.2 1.1s1.2-.2 1.3-.3c.5-.3.9-.6 1.3-1 .6-.2.7-.8.4-1.3m-14 14.2s-.6-1.1-1.4-.6c-.8.4-1.5.9-1.9 1.6-.1.2-.9 1.2-1 1.4s-.9 1.7.7 1.8c2.7.1.9-1.6 1.9-2.3.8-.5 2.2-.4 2.2-.9-.1-.3-.2-.7-.5-1m-48-56.7s-1.6.4-1.7 1 .9 1.1 1.1 1.2.6.5 1.6-.3 1-1.3 1-1.3.7-.8-2-.6m26.4-.8s0-.6-1.2-.5-1.4.3-1.4.5.1.5 1.1.6 1.5-.1 1.5-.6m25 .7c-.9 0-1.8 0-2.7.1-2 .1-4 .1-5.9-.1-3.2-.2-8.3-1-8.3-1s-.6-.2-.9.3.6 1.3 1.4 1.5c2.3.9 4.7 1.3 7.1 1.1 1.6 0 2.4-.1 4-.2 2-.1 2.9.1 5-.4.5-.2 1.1-1.3.3-1.3m14-4.2s-.4-.5-1.3-.1c-.6.3-1.1.8-1.4 1.4 0 0-.4.6.5.5.6-.1 1.2-.3 1.8-.6.3-.1.9-.7.4-1.2m-12.2-168.8c3.9-3.8 7.4-8.2 10.2-12.9 2.5-4.4 3.6-14.6 1.5-12.1-1 1.2-2.2 6.4-4 10.4-2.5 4.7-5.3 9.2-8.4 13.5 0 0-1.2 2.7.7 1.1m-23.7 14.2c-.4.3-.5.8-.4 1.3.3.8 1.5.2 1.5.2 1.8-.6 3.7-1 5.6-1.1 2.3 0 4.6.3 6.9.7 0 0 1.9.5 2.2.6s1.4.6 1.5.7 1.1.6 1.7.1-3.5-4.2-7.6-4.7c-3.9-.6-7.9.1-11.3 2l-.1.2m-28.2 24.1c.5.4 2.8-3.9 4.7-6.7 1.4-2 3.9-5.4 3.9-5.4s1.2-1.6-.8-.7c-2 1.2-3.5 2.9-4.5 5-1.3 2.6-3.8 7.3-3.3 7.8m-15.8-19s-.5 1.7 1.5 3.8 2.5 3.9 3.8 2.6c.3-.4-1.2-3.2-2-4l-1.4-1.4-.5-.4-.7-.4-.4-.1c-.1-.1-.2-.1-.3-.1m-6.4-16.1s-2.1.4-2.7 1.4 2.5.4 2.5.4 2 .1 2-.6-.2-.9-1.8-1.2m-34 56.3c-1.1-.3-1.3 1.8-1.4 2.5s.5 2.1.8 2.1c.6-.5 1-1.2 1.2-2-.1-.7.4-2.3-.6-2.6M91.7 299s-2-1.5-2.3-.9 1.6 3.3 1.6 3.3c.3.5.9.7 1.5.5.5-.3.7-.9.6-1.4 0 0-.6-1.3-1.4-1.5M77 253.7c-.3-.1-.6.1-.7.4-.2.9-.3 1.8-.3 2.8 0 1.1.1 2.3.2 3.4s.3 2.1.6 3.1c.4 1.1.9 2.1 1.6 3.1 0 0 .4.9 1 .9s.4-.7.4-.7-1.6-6.5-1.7-7.1c-.2-2.2-.2-4.8-.2-4.8v-.4c0-.4-.4-.8-.9-.7.1 0 .1 0 0 0m2.5-19.8s-.9-.2-1.7 1.6-.7 2.5-.6 2.5.7.1 1.8-1.6.8-2.2.8-2.2-.1-.3-.3-.3m24.8 17.9s1.1 1.6-1 1.3-6.5-3.8-8.2-4.8-4.7-1.2-3.4-2.3c.2-.2.3-.4.6-.4.6.1 1.1.3 1.6.5.1 0 3.1 1.3 3.3 1.3 1 .5 2.1 1 3.1 1.5 1.2.7 3.2 2.1 3.2 2.1l.8.8m57.7 49.7c.6 1.8-6.6-3.8-10.4-6.7-10.1-7.8-22.5-23.8-21-25.2 1.3-1.2 6.4 6.2 13.8 14.2 8 8.6 17.2 16.6 17.6 17.7m29.8-7.7c-2.2 2.4-3 5.4-1.7 7.6s1.6-3.2 3-4.8c1.2-1.4 1.9-1.2 3.9-2.6 3.3-2.2-2.4-3.2-5.2-.2m-12.7-50.4c-1.5-.3-1.5 2.1-1.3 3.7 1 7.3 4.3 13 8.7 18.3 2.7 3.3 10 9 10.9 8.1.3-.3-7-6-11.6-13.2-3.3-5.1-5-9.5-5.5-13.7 0-.6.1-3-1.2-3.2m-28.4-108.8c-2.9 1.4-5.9 2.5-9 3.4 0 0-.3.6.5.5 4.9-.4 6.8-1 9.4-2.2s4.5-4.3 4.5-4.3 1.1-2-.9-.4c-1.4 1.2-2.9 2.1-4.5 3m39.9-12.6c-.6-.1-1.3-.1-1.9.2-.8.5-.5.8-.5.8.6.4 1.3.8 2 1 .8.1 2.6.9 2.6.3-.3-.8-.8-1.5-1.4-2-.3-.1-.5-.2-.8-.3m-18.8 34.5c.2.4 3.6-.5 4.8-1.2 1-.6 1.4-2.5 1.4-2.5s.3-1.9-.2-1.1c-1.8 3-6.2 4.4-6 4.8m-.1-8.6c1.4-2.6-3.7 2.7-6.3 4.1-1.6.8-4.1 1.9-4.1 1.9s-.7.9.3.8 3.4.8 5.3-.8c.9-1.1 1.7-2.2 2.5-3.3.9-.8 1.7-1.7 2.3-2.7m-.8 11c.1.4 5.8.3 7.2-.1 1.1-.3 1.7-2.3 1.7-2.3s.7-1.7.1-1.2c-2.5 2.7-9.1 3.2-9 3.6M79.6 211s-.9-.3-1.9 1.3-5.8 8.9-5 9.9c1 1.3 5.2-6.5 6.4-7.9.8-.8 1.1-1.9.8-3 0 0 0-.3-.3-.3m104.2 131c-.5 2.4.1 7.4.9 8.3 2 2.5.8-3.8 1.1-6 .2-1.7.7-3.4 1.5-4.9 1.9-3.9-2.4-2.5-3.5 2.6m-17.4-210c-1 0-1.9.3-2.8.7-.7.3-1.2.9-1.6 1.6-.1.3-.2.7-.1 1.1.4.8 2.1-.4 3.3 0 .9.3 1.6.8 2.2 1.5.6.8 1.8 1.9 2.5 1.2s.5-2.2.5-2.2-.8-2.6-1.9-3.3c-.7-.3-1.4-.5-2.1-.6m-26.2 18s-.9.1-.7 1.2.8.9.8.9 1.8-.8 1.7-1.9-1.8-.2-1.8-.2m-12.8-5.7c-.7.1-1.3.6-1.6 1.2-.4.8-.7 1.6-1 2.4 0 0-.3 1.6.2 2s1.2-1 2-1.6c.5-.4.8-.5 1.3-.9.7-.5 1.8.1 1.7-1.3-.2-1.1-1.3-1.9-2.6-1.8m42.9-13.8s-2.6-.4-2.5.6c.1 1 1.4.4 2.3.7.8.2 1.5.6 2.1 1.1.5.4.4 1.2 1 1.3.8 0 .7-.3.7-.3-.3-1.1-.9-2-1.8-2.8-.5-.4-1.1-.6-1.8-.6m22.7 7.7c-.1.5-.3 1.1-.5 1.6 0 0-.6 2.4 1.8 1.5 1-.3 2-.8 2.9-1.4 1.7-.8 1.7-.4 3-.3.5 0 .9 0 1.4-.1.6-.1.3-.8-.9-1.1-1.6-.3-3.2-.4-4.8-.3-1.1.1-2.5-1.1-2.9.1m1.1-8.9c-.6-.1-1.3-.1-1.9.2-.8.5-.5.9-.5.9.6.5 1.3.8 2 1 .8.1 2.6.9 2.6.3-.3-.8-.8-1.5-1.4-2-.3-.2-.5-.3-.8-.4m4.3 16.7c-.7-.1-1.4 0-2 .2-.8.4-.6.8-.6.8.7.5 1.4.8 2.1 1 .9.1 2.8.9 2.7.3s-1.2-1.6-1.5-1.9c-.2-.1-.4-.3-.7-.4m.3 6.1c-.7-.2-1.5-.1-2.1.2-.9.5-.6.9-.6.9.7.5 1.4.9 2.3 1.1.9.1 3 1 2.9.3-.3-.9-.9-1.6-1.6-2.2l-.9-.3m.6 5.9c-.8-.2-1.6-.1-2.3.3-.9.6-.6 1.1-.6 1.1.7.6 1.5 1 2.4 1.3 1 .2 3.2 1.1 3.1.4-.4-1-1-1.8-1.8-2.5-.2-.3-.5-.5-.8-.6m-.1 7.3c-.8-.2-1.6-.1-2.3.3-.9.6-.7 1-.7 1 .7.6 1.6 1 2.5 1.3 1 .2 3.2 1.1 3.1.4-.4-1-1-1.8-1.7-2.5-.3-.3-.6-.4-.9-.5m-1 14.3c-.8-.2-1.6-.1-2.3.3-.9.6-.6 1-.6 1 .7.6 1.6 1 2.4 1.3 1 .1 3.2 1.1 3.1.4-.4-1-1-1.8-1.8-2.5-.2-.3-.5-.5-.8-.5m.9-7.2c-.9-.2-1.8-.1-2.7.3-1.1.7-.7 1.2-.7 1.2.8.7 1.8 1.2 2.8 1.5 1.2.2 3.7 1.3 3.6.4-.4-1.1-1.1-2.1-2-2.9-.2-.2-.6-.4-1-.5m-1.6 13.6c-.6-.1-1.3-.1-1.9.2-.8.5-.5.9-.5.9.6.5 1.3.8 2 1.1.9.1 2.6.9 2.6.3-.3-.8-.8-1.5-1.4-2-.3-.2-.5-.4-.8-.5m-1.1 6.2c-.5-.1-1.1 0-1.6.2-.6.4-.4.7-.4.7.5.4 1.1.7 1.7.9.7.1 2.2.8 2.1.2-.3-.6-.7-1.2-1.2-1.7-.1-.1-.3-.3-.6-.3m-1.3 5.6c-.5-.1-1 0-1.4.2-.6.3-.4.6-.4.6.4.4 1 .6 1.5.8.6.1 2 .7 1.9.2-.2-.6-.6-1.1-1.1-1.5-.1-.1-.3-.2-.5-.3m-1.3 4.6c-.5-.1-1-.1-1.4.1-.6.4-.4.6-.4.6.4.4 1 .6 1.5.8.6.1 2 .7 1.9.2-.2-.6-.6-1.1-1.1-1.5-.1 0-.3-.1-.5-.2m-1.6 5.4c-.4-.1-.8 0-1.2.1-.5.3-.3.5-.3.5.4.3.8.5 1.2.6.5.1 1.6.6 1.6.2-.2-.5-.5-.9-.9-1.2-.1-.1-.3-.2-.4-.2m-2 5c-.3-.1-.7 0-1 .1-.4.3-.3.5-.3.5.3.2.6.4 1 .5.4.1 1.4.5 1.3.2-.2-.4-.4-.8-.7-1.1 0-.1-.2-.2-.3-.2m-1.9 4.7c-.3-.1-.7 0-1 .1-.4.2-.3.4-.3.4.3.2.6.4 1 .6.4.1 1.4.5 1.3.2-.2-.4-.4-.8-.7-1.1-.1-.1-.2-.1-.3-.2M59.5 241.8s-1 1.9-.5 3 1.8-1.7 1.8-1.7 1.4-2.7.8-3.2-.9.8-2.1 1.9m140 246.9V485c0-8.5 4.3-10.2 16.8-10.2 11.5.1 15.6 1.5 15.6 8.8v28.3h4.3v6.4H208c-5.9 0-9.8-4.1-9.8-9.1v-5.7c0-4.9 2.5-9.2 11.4-9.3h11v-8.6c0-4.5-.3-5-4.8-5-5.4 0-5.8.7-5.8 5v3.2l-10.5-.1m13.1 10.2c-2.2 0-3.5 1.8-3.5 4v5.5c0 2.2.9 4 3.5 4h4c2.2 0 4-.7 4-4v-9.5h-8zm-39.9-13.5v-9.9H157v5.9h4.2v30.4H157v6.4h19.7v-6.4h-4v-16.3c0-1.5 9.3-13.2 9.3-11.9v16.2h10.9v-18.2c0-4.2-2.7-6.9-7.7-6.9-6 .1-10 7.5-12.5 10.7M298 511.8v-36.3h-16v5.9h4.5v30.4H282v6.4h20.2v-6.4H298m-165.8-26.4v-9.9h-15.7v5.9h4.2v30.4h-4.2v6.4h19.7v-6.4h-4v-16.3c0-1.5 9.3-13.2 9.3-11.9v16.2h10.9v-18.2c0-4.2-2.7-6.9-7.7-6.9-5.9.1-9.9 7.5-12.5 10.7m-21.7 18.9h-11v3.2c0 4.3-.7 4.5-6.1 4.6h-.1c-6.2 0-5.8-.6-5.8-4.6v-7.6h23v-16.5c0-6-4.5-8.5-16.4-8.5h-1.8c-12.8.1-16.3 3-16.3 10.4v24.1c0 8.1 4.8 9.5 16.5 9.8h1.3c12.8-.3 16.6-1.2 16.6-8.8l.1-6.1M87.7 484c0-2.2.7-3.4 3.2-3.4h4.8c2 0 3.1.9 3.1 2.5v12.4H87.7V484z"/><path fill="none" stroke="#000" stroke-width=".74" stroke-miterlimit="10" d="M292.2 466.8v-7.7"/><path class="st0" d="M256.2 485.4v-9.9h-15.7v5.9h4.2v30.4h-4.2v6.4h19.7v-6.4h-4v-16.3c0-1.5 9.2-13.2 9.2-11.9v16.2h10.9v-18.2c0-4.2-2.7-6.9-7.7-6.9-5.8.1-9.8 7.5-12.4 10.7"/><path class="st0" d="M62.4 497.5v-5.7h-6.1v20.1h10.6v6.3H35.7v-6.3H44v-45.1h-6.5V459h242.6v7.8H56.3v18.1h6.1v-5.4h7.1v18h-7.1m223.9-38.8h11.6v7.6h-11.6z"/></svg>