<svg version="1.1" id="Слой_1" xmlns="http://www.w3.org/2000/svg" x="0" y="0" viewBox="0 0 600 122.7" xml:space="preserve"><style>.st0{fill:#fff}</style><path class="st0" d="M83.7 86.3c0 20.1-16.2 36.4-36.2 36.4h-.1V36.4C47.4 16.3 63.6 0 83.6 0h.1v86.3z"/><circle class="st0" cx="18.1" cy="104.6" r="18.1"/><path class="st0" d="M195.8 17.5c0-2.4 1-4.7 2.7-6.4 3.6-3.6 9.4-3.6 13 0 1.7 1.7 2.7 4 2.7 6.4V85c0 18.4-15 33.4-33.4 33.4-2.4 0-4.7-.9-6.4-2.7-1.8-1.7-2.7-4-2.7-6.4 0-2.4 1-4.7 2.7-6.4 1.7-1.8 4-2.7 6.4-2.7 4 .1 7.9-1.6 10.7-4.5 2.8-2.8 4.4-6.7 4.3-10.7V17.5zm91.5 100.8c-14.6.2-28.7-5.6-38.9-16.2-10.5-10.2-16.4-24.3-16.2-38.9-.2-14.7 5.6-28.8 16.2-39 10.2-10.5 24.3-16.3 38.9-16.1 14.7-.2 28.7 5.6 39 16.1 10.5 10.2 16.3 24.3 16.1 39 .2 14.6-5.6 28.7-16.1 38.9-10.2 10.6-24.3 16.4-39 16.2zm0-92c-9.8-.1-19.3 3.8-26.1 10.8-7.1 6.8-11 16.3-10.9 26.1-.1 9.8 3.8 19.3 10.9 26.1 14.3 14.4 37.6 14.5 52 .2l.2-.2c7-6.9 10.9-16.3 10.8-26.1.2-9.8-3.7-19.3-10.7-26.1-6.9-7-16.4-10.9-26.2-10.8zm126.1 92c-14.6.2-28.7-5.6-38.9-16.2-10.5-10.2-16.4-24.3-16.2-38.9-.2-14.7 5.6-28.8 16.2-39 21.5-21.5 56.3-21.5 77.8 0 10.5 10.2 16.3 24.3 16.1 39 .2 14.6-5.6 28.7-16.1 38.9-10.2 10.6-24.3 16.4-38.9 16.2zm0-92c-9.9-.2-19.4 3.7-26.2 10.8-7.1 6.8-11 16.3-10.9 26.1-.1 9.8 3.8 19.3 10.9 26.1 14.3 14.4 37.6 14.5 52 .2l.2-.2c7-6.9 10.9-16.3 10.8-26.1 0-20.3-16.5-36.9-36.8-36.9zM593.2 8.4c2 .5 3.7 1.7 4.9 3.3 1.2 1.5 1.9 3.4 1.9 5.4v92.2c0 5-4 9-8.9 9.1-2.4 0-4.8-.9-6.5-2.7-1.7-1.7-2.7-4-2.6-6.4V49.6l-28.6 47.2-.3.5v.3l-.4.4-.9.6-.3.3-.4.4-.5.3-.5.3h-.4c-1.2.5-2.4.7-3.7.7h-.3c-.7-.1-1.3-.2-2-.4h-1.1l-.6-.3-.5-.4-2-.6-.3-.3-.3-.3-.4-.4v-.3l-.4-.5-28.9-47.5v59.7c0 2.4-.9 4.7-2.7 6.4-1.6 1.7-3.9 2.6-6.2 2.6-4.9-.1-8.9-4.1-9-9V17.2c0-2 .6-3.9 1.9-5.4 1.2-1.6 2.9-2.8 4.9-3.3 3.9-1.1 8.1.6 10.2 4.1L546 74.9l37.7-62.3c.9-1.7 2.3-3 4-3.8l2.8-1.1 2.7.7z"/></svg>