<svg version="1.1" id="Слой_1" xmlns="http://www.w3.org/2000/svg" x="0" y="0" viewBox="0 0 241.1 291.6" xml:space="preserve"><style>.st0{fill:#fff}</style><g id="svg2"><path id="path5" class="st0" d="M178 0h62.1v14c-5.3.2-10.6.8-15.5 3-5 2.2-8.9 6.2-11.1 11.2-25.2 59.2-50.3 118.3-75.4 177.5-.4 1-.8 2-1.3 2.9-9-.1-18 0-27 0-4-7.9-7.9-15.8-11.9-23.7-4.6 12.3-9.2 24.5-13.8 36.8h89.1c5.4.1 11-.1 16.1-2.3 8.4-3.4 15.2-10 20.6-17.1 6.6-8.6 11.6-18.3 16.1-28.2 5-.1 10 0 15 0-9.5 20.3-19.1 40.6-28.6 60.8H7.2c1.7-4.4 3.3-8.7 5-13 .1-.4.7-.3 1-.4 8.5-.1 17.1-.4 25.5-2.2 4.4-1 8.9-2.4 12.2-5.5 1.8-1.7 2.3-4.2 2.9-6.4 8.1-21.7 16.2-43.3 24.3-64.9C61 106.2 43.9 69.8 26.8 33.4c-1.4-3.2-3.2-6.3-6.1-8.4-5.9-4.4-13.6-5-20.7-5.3V4.1h72.1v15.6c-3.1.2-6.4.1-9.3 1.7-1.4.7-2.2 2.3-1.9 3.9.4 2.5 2.4 4.3 3.4 6.5 10.1 21.8 20.3 43.7 30.5 65.6 5.1-14.2 10.2-28.5 15.3-42.8.9-2 .9-4.2.2-6.3-.8-1.5-2.1-2.6-3.7-3.2-2.9-1.2-6.2-1.2-9.3-1.4l4.8-13.2c.4-.3.9-.1 1.3-.1h73.1c-1.7 4.4-3.3 8.8-5 13.3-5.9.3-11.9.4-17.4 2.7-2.6 1-4.8 2.7-6.4 5-1 1.8-1.8 3.6-2.4 5.5-10.2 27.8-20.5 55.5-30.5 83.3 5.6 12.6 11.4 25.1 17.1 37.7 20.7-48.8 41.3-97.6 62-146.4 1.4-2.9 3.7-5.6 3.9-9 .2-2.6-1.8-4.9-4.1-6-4.9-2.2-10.4-2.3-15.7-2.5V0z"/><path id="path7" class="st0" d="M215.6 262.7c6.5 6.8 13 13.6 19.4 20.4v-19h3.4v27.1c-6.5-6.7-13-13.5-19.5-20.3V290h-3.4c.1-9.1.1-18.2.1-27.3z"/><path id="path9" class="st0" d="M25.7 263.6c7.2-1.1 14.8 4.5 15.4 11.9.5 4.3-1 8.5-4.1 11.5-5 4.9-14.1 4.8-19-.3-2.7-2.6-4.1-6.2-4-10 .1-6.4 5.4-12.2 11.7-13.1m0 3.4c-4.3.8-7.5 4.2-8.2 8.5-.7 4.9 2.1 9.6 6.7 11.4 4.1 1.5 8.7.1 11.4-3.3 3.3-4.4 2.7-10.6-1.3-14.3-2.4-2.1-5.5-2.9-8.6-2.3z"/><path id="path11" class="st0" d="M77.6 265c3.7-2.8 9.7-1.6 11.8 2.6l-2.7 1.5c-1.6-2.3-4.8-3-7.1-1.4-.2.1-.4.3-.5.4-.9.7-.8 1.9-.7 2.9.3 1.3 1.7 1.9 2.7 2.5 2.6 1.4 5.8 2.2 7.7 4.7 2 3 1.8 6.9-.5 9.6-2.5 2.8-6.6 3.6-10 2-2.5-1.4-4.2-3.8-4.6-6.6 1.1-.3 2.3-.5 3.4-.8.1 2.5 2 5 4.6 5 3.5.4 6.3-4.2 4.3-7.1s-6.4-3-8.9-5.6c-2.5-2.3-2.7-6.3-.4-8.8.2-.4.6-.7.9-.9z"/><path id="path13" class="st0" d="M197.8 263.6c4.8-.5 9.5 1.5 12.5 5.3 4.5 5.9 3.5 14.3-2.4 18.9-2.8 2.2-6.4 3.1-9.9 2.7-3.9-.3-7.4-2.4-9.7-5.5-4.3-6.2-2.8-14.6 3.3-19 1.8-1.3 3.9-2.1 6.2-2.4m-.6 3.4c-5.3 1.1-8.8 6.2-8 11.6.8 5.1 5.1 8.8 10.2 8.9 3.4 0 6.6-1.8 8.4-4.7 2.7-4.2 2.1-9.8-1.5-13.3-2.4-2.3-5.8-3.2-9.1-2.5z"/><path id="path15" class="st0" d="M2.7 264h3.2v23h8v3H2.7v-26z"/><path id="path17" class="st0" d="M43.7 264.1h3.4v15.3c0 2.2.3 4.7 1.9 6.4 2.5 2.5 7.5 2.1 9.3-1.1.8-1.5 1.2-3.3 1.1-5V264h3.4v16c.1 2.5-.6 4.9-2 6.9-3.3 4.6-11 4.9-14.7.5-1.6-1.9-2.5-4.3-2.5-6.8.1-5.5.1-11 .1-16.5z"/><path id="path19" class="st0" d="M67 264.1h3.3v26H67v-26z"/><path id="path21" class="st0" d="M100.6 264.1h3.7c2.6 6.3 5.1 12.6 7.7 19 2.5-6.3 5.1-12.6 7.6-18.9 1.3-.1 2.5 0 3.8 0-3.8 9.2-7.6 18.4-11.3 27.5-3.9-9.3-7.7-18.5-11.5-27.6z"/><path id="path23" class="st0" d="M124.9 264h3.4v15.1c.1 2.4.3 5.1 2.1 6.9 2.2 1.8 5.3 1.9 7.7.3 1.2-1 2.1-2.4 2.3-4 .3-2.7.4-5.3.3-8v-10.2h3.3v14.2c.1 2.9 0 6.1-1.8 8.6-3.1 4.5-10.3 5-14.3 1.3-1.9-1.9-3-4.5-3-7.2v-17z"/><path id="path25" class="st0" d="M148.2 264.1h3.5v26h-3.5c-.1-8.7 0-17.4 0-26z"/><path id="path27" class="st0" d="M153.8 264.1h31.4v3.1h-6V290h-3.5v-22.8h-12.3V290h-3.2v-22.8h-6.3v-3.1z"/></g></svg>