<svg xmlns="http://www.w3.org/2000/svg" viewBox="0 0 583 82.8"><path d="M330.7 82.8V69.1h-38.1V46.9h28.7V33.7h-28.7v-20h38.1V0h-52.8v82.8zM359.2 0v82.8H414V69.1h-40.2V0zm75.5 0v82.8h54.8V69.1h-40.1V0zM171.2 82.8L135.8.6c-.1-.4-.6-.7-1-.6-.3.1-.5.3-.6.6L95.6 82.8h14.7l8.7-18.5h29.7l8 18.5h14.5zm-47.5-31.3l10.8-23 9.9 23h-20.7zM583 82.8L547.6.6c-.1-.4-.6-.7-1-.6-.3.1-.5.3-.6.6l-38.6 82.2H522l8.7-18.5h29.7l8 18.5H583zm-47.5-31.3l10.8-23 9.9 23h-20.7zM76.6.5c-.4 0-.9.4-1.2.8L37.9 42.2 2 1.3C1.7.9 1.3.5.9.5c-.5 0-.9.3-.9.8v81.5h14.1V34.5l23.8 27.1 24.8-27.1v48.3h14.8V1.3c0-.5-.4-.8-.9-.8zm175.2 82.3L233.1 49c13.1-4.8 19.8-19.4 15-32.5C244.4 6.6 234.9 0 224.3 0H191v82.8h14.6V50.5h12.6l17.9 32.3h15.7zm-46.1-68.7h18c6.5 0 11.8 5.3 11.8 11.8s-5.3 11.8-11.8 11.8h-18V14.1z" fill="#fff"/></svg>