<svg version="1.1" id="Слой_1" xmlns="http://www.w3.org/2000/svg" xmlns:xlink="http://www.w3.org/1999/xlink" x="0" y="0" viewBox="0 0 655.6 400.1" xml:space="preserve"><style>.st0{fill:#fff}</style><g id="Слой_2"><g id="svg45873"><g id="layer1"><path id="path31407" class="st0" d="M618.3 357.9c2.1 0 17.2.6 17-29.5-.1-27.9-14.8-27.1-17.2-27.1-2.4 0-17.1-.8-17.2 27.1-.1 30.1 15 29.5 17 29.5h.4zm.1 10.2c-5 .1-37.7-1-37.7-38.3s32.5-37.6 37.5-37.6 37.3.5 37.4 37.6-32.6 38.4-37.6 38.3"/><path id="path31409" class="st0" d="M571.3 296.5v9.2c-3.8-1.6-6-2.8-10-3.9-3.2-.7-16.8-3.9-23.3 2.9-2.7 2.8-3.6 7.8 1.9 11.8 7.7 5 18.7 7.3 27.8 14.7 5.9 4.7 7.9 10.2 6.3 18.6s-10.9 15.5-19.3 17.3c-12.2 2.5-26 1.3-36.9-3.3l.1-9.1c10 4.2 25.6 9.5 35.3 1 2.7-2.5 4.3-5.9 2.9-9.5-2.2-6.6-20.1-10.5-31.1-18.7-10.9-6.7-9.9-18.1-6.1-24.4 10.2-15.3 36.2-11.1 52.4-6.6"/><path id="path31411" class="st0" d="M508.6 296.5v9.2c-3.8-1.6-6-2.8-10-3.9-3.1-.7-16.8-3.9-23.3 2.9-2.8 2.8-3.6 7.8 1.8 11.8 7.8 5 18.8 7.3 27.8 14.7 5.9 4.7 7.8 10.2 6.3 18.6s-11 15.5-19.3 17.3c-12.2 2.5-26 1.3-36.9-3.3v-9.1c10 4.2 25.6 9.5 35.3 1 2.6-2.5 4.2-5.9 2.9-9.5-2.2-6.6-20.2-10.5-31.1-18.7-10.9-6.7-9.9-18.1-6.1-24.4 10.3-15.3 36.3-11.1 52.6-6.6"/><path id="path31413" class="st0" d="M251.5 296.5v9.2c-3.9-1.6-6-2.8-10.1-3.9-3.2-.7-16.8-3.9-23.3 2.9-2.8 2.8-3.6 7.8 1.9 11.8 7.7 5 18.7 7.3 27.8 14.7 5.9 4.7 7.8 10.2 6.3 18.6s-10.9 15.5-19.3 17.3c-12.2 2.5-26 1.3-36.9-3.3l.1-9.1c10.1 4.2 25.6 9.5 35.3 1 2.6-2.5 4.2-5.9 2.8-9.5-2.2-6.6-20.1-10.5-31.1-18.7-10.9-6.7-9.9-18.1-6.1-24.4 10.3-15.3 36.3-11.1 52.6-6.6"/><path id="path31415" class="st0" d="M158.9 359.5c9.9 1 22-.5 31.7-.8v8.2h-52.4c1.1-1.3 1.7-2.9 1.6-4.6V298c0-1.7-.6-3.3-1.6-4.6h52.5v8.2c-9.7-.2-21.8-1.7-31.7-.7v24.3c8.4.6 16.9.5 25.3-.4v8.7c-8.4-.7-16.9-.8-25.3-.4v2.8"/><path id="path31417" class="st0" d="M416.3 359.5c9.9 1 22-.5 31.7-.8v8.2h-52.4c1.1-1.3 1.6-2.9 1.6-4.6V298c0-1.7-.6-3.3-1.6-4.6H448v8.2c-9.7-.2-21.8-1.7-31.7-.7v24.3c8.4.6 16.9.5 25.3-.4v8.7c-8.4-.7-16.9-.8-25.3-.4v2.8"/><path id="path31419" class="st0" d="M345 302.6v24.8c6.3 0 14 .8 18.4-4.2 3.7-5 3.1-11.4.6-15.9-4.4-7.4-19-4.7-19-4.7m.1 33.9v25.8c0 1.7.6 3.3 1.6 4.6h-22.4c1.1-1.3 1.6-2.9 1.6-4.6V298c0-1.7-.6-3.3-1.6-4.6h38.2c10.4.4 21.4 6.2 21.7 18.6.1 10.2-4.4 16.1-11.2 19.3-.6.2-1.1.5-1.6.8 4.8 11.2 9.2 19.5 15 30.3.8 1.8 2 3.4 3.5 4.6h-23.2s1.4-1.7 0-4.6c0 0-8.2-19.4-12.1-25.8"/><path id="path31421" class="st0" d="M282.1 302.7l-.1 27.6c6.4.4 14 1.1 18.4-4 3.7-5 3.1-14.5.6-19-4.3-7.4-18.9-4.6-18.9-4.6m.1 59.6c0 1.7.6 3.3 1.6 4.6h-22.4c1.1-1.3 1.7-2.9 1.7-4.6V298c0-1.7-.6-3.3-1.7-4.6h37c9.3.3 16.5 4.6 19.5 13.6 2.3 7.9 2 18.1-3.6 24.5-7.5 9.9-32.2 8.5-32.2 8.5"/><g id="g31423"><defs><path id="SVGID_1_" d="M0 0h655.7v405.6H0z"/></defs><clipPath id="SVGID_2_"><use xlink:href="#SVGID_1_" overflow="visible"/></clipPath><g clip-path="url(#SVGID_2_)"><g id="g31425"><path id="path31431" class="st0" d="M113.6 293.4c1.1 1.3 1.6 2.9 1.7 4.6v32.6C105.6 319 97 306 86.9 294.3c-4.2-5-8.7-9.8-13.5-14.3-17.6-17.3-46.5-25.2-73.4-15.7v1.1c9.2-2 21.2-1.3 32.9 3.5 8.8 3.2 21.4 13 28.6 22C71 301.5 91 329.1 91 329.1c11.5 14.9 21.6 28.5 33.4 42.6v-73.8c0-1.7.6-3.3 1.7-4.6"/><path id="path31433" class="st0" d="M61.3 367c-1.1-1.3-1.6-2.9-1.7-4.6v-32.6c9.7 11.5 18.3 24.5 28.4 36.3 4.2 5 8.7 9.8 13.5 14.4 17.6 17.2 46.5 25.1 73.4 15.6v-1c-9.2 2-21.2 1.3-32.9-3.5-8.8-3.2-21.4-13-28.6-22C104 358.8 84 331.3 84 331.3c-11.5-14.9-21.6-28.5-33.4-42.6v73.8c0 1.7-.6 3.3-1.6 4.6"/></g></g></g><path id="path31435" class="st0" d="M440.6 174.7c-26.9 9.5-55.8 1.6-73.4-15.6-4.8-4.5-9.3-9.3-13.5-14.3-10-11.7-18.6-24.7-28.4-36.3V141c0 1.7.6 3.3 1.7 4.6h-12.4c1-1.3 1.6-2.9 1.7-4.6V67.3c11.8 14.1 21.9 27.7 33.4 42.6 0 0 20 27.5 29.4 38.2 7.3 9 19.8 18.7 28.6 22 11.7 4.8 23.7 5.5 32.9 3.5v1.1zM265.6 44v-1.1c26.9-9.5 55.8-1.6 73.4 15.6 4.8 4.5 9.3 9.3 13.5 14.3 10 11.7 18.6 24.7 28.4 36.3V76.5c0-1.7-.6-3.2-1.7-4.5h12.4c-1 1.3-1.6 2.9-1.7 4.6v73.7c-11.7-14.1-21.9-27.7-33.3-42.6 0 0-20-27.5-29.4-38.2-7.3-9-19.8-18.8-28.6-22-11.8-4.8-23.8-5.5-33-3.5m-21.9 174.6h218.7V0H243.7v218.6z"/></g></g></g></svg>