<svg xmlns="http://www.w3.org/2000/svg" viewBox="0 0 254 124.1"><path d="M98.5 9.4c12.6-12 34.2-12.6 47.7-1.7 7.3 5.8 11 15 9.9 24.3-1.1 9.6-7.2 18-15.1 23.3 4 .2 8 .1 12 .1 1.6-2 2.5-5.6 5.8-4.8-1.7 3.3-3.4 6.6-5.2 9.8-8.1-.1-16.2.2-24.2-.2 5.1-4.5 10.3-9.2 13.5-15.3 5.8-10.5 5.9-25-2.4-34.2-7.9-9.2-23.5-10-32.4-1.7-5.7 4.9-8.6 12.7-8.4 20.1.2 8.3 3.4 16.3 8.9 22.6 2.6 3.1 5.8 5.6 8.7 8.5-8.1.4-16.1.1-24.2.1-1.7-3.3-3.4-6.5-5.1-9.8 3.4-.9 4.2 3 5.9 5h11.8c-6.2-4.6-11.6-10.9-13.8-18.4-3.4-9.5-.8-20.7 6.6-27.7zm129.7 62.4c8.8 16.8 17.1 33.8 25.8 50.5v.3h-8.1c-1.6-3.3-3.3-6.6-4.9-9.8h-25.3c-1.7 3.3-3.4 6.6-5 9.9h-8.3c8.7-16.9 17.2-33.9 25.8-50.9m-9.1 33.9c6.1.2 12.2.1 18.3.1-3-6-6-12-9.2-17.9-3 5.9-5.9 11.9-9.1 17.8zM2.9 87c5.3-10.6 18.8-16.2 30-12.1 12.1 3.7 19.5 17.5 16.4 29.7-2.6 11.3-13.8 19.9-25.4 19.1C11.4 123.5.5 112.4 0 99.9v-2.4c.2-3.6 1.2-7.2 2.9-10.5m16.4-5.5c-11 3.3-15.6 17.9-9.1 27.2 5.2 8.6 18.1 10.5 25.8 4.2 7.8-5.9 9-18.3 2.8-25.8-4.7-5.7-12.5-7.9-19.5-5.6zm32.3 41c5.6-16.2 9.9-32.8 15.7-48.8 4.7 10.8 9.4 21.6 13.8 32.5 4.8-11 9.6-21.9 14.1-33 5.4 16.4 10.4 33 15.6 49.4h-7.5c-3.2-9.7-5.9-19.4-9.2-29.1-4.1 10.3-8.6 20.4-13 30.5-4.2-10.2-8.6-20.3-13-30.4-2.9 9.7-6 19.2-8.9 28.9-2.5.2-5 .1-7.6 0zm120.3-48.1c9.9-2.9 20.9 1.6 26.9 9.7l-5.9 4.3c-4.7-6.8-13.4-9.5-21.1-6.6-8.6 3.1-13.3 13.4-10.6 22 2.2 7.9 9.6 13.3 17.8 12.8 7.5-.1 14.3-5.7 16.4-12.8h-16.9v-7h24.6c.3 7.3-2.3 14.8-7.7 19.8-6.6 6.5-16.2 8.8-25 6-13.2-4.3-20.4-18.4-16.1-31.6 2.6-8.1 9.2-14.3 17.4-16.5l.2-.1zm-55 .2h29.3v7c-7.3.1-14.6 0-21.9 0v13.5h21.2v7c-7.1-.1-14.2 0-21.3 0v13.5c7.3 0 14.6-.1 21.9 0v7c-9.8.1-19.5.1-29.3 0 .1-16 .1-32 .1-48z" fill="#fff"/></svg>