<svg xmlns="http://www.w3.org/2000/svg" viewBox="0 0 2500 1360.7"><path d="M329.7 946.3H207.6l-24.7 64.7h-35.4l107-271h32.8l105.2 271h-38.1l-24.7-64.7zm-110.9-29.4h99.7l-49.7-130.3-50 130.3zm-184.4-148v98h47.7s8.6-.3 13-.3c14.5 0 24.1-3.2 33.2-11.6 9.2-8.6 13.3-22.6 13.3-37.3.5-13.8-4.3-27.3-13.4-37.6-9.4-10.3-27-11.3-30-11.3l-63.8.1zM0 740.1h93.3c14.1 0 39.1 3.3 56 17 23.3 19 27.4 43.5 27.4 60.1s-4.1 38.8-20.3 54.6c-21.2 20.8-43.3 23.9-74.4 23.9H34.4V1011H0V740.1zm1298-.1h34.3v116.3H1454V740h34.3v271H1454V886.2h-121.7V1011H1298V740zm251.1 0h34.3v270.8h-34.3V740zm93.4 0h34.3v241h117.4v30h-151.7V740zm-1090.6 0v30h-82.5v241H435V770h-82.7v-30h199.6zm182.7 0l-17.1 30H615.1v84.8h95.7v30h-95.7V981h100.1l17.2 30H580.7V740h153.9zm71.2 127l116.5-127.1 42.9.1-89.2 96.5 91.2 174.4H928l-75.7-149.2-46.5 50.1v99.1h-34.3V740h34.3v127zm310.4-98.2v98h47.7s8.6-.3 13-.3c14.6 0 24.2-3.2 33.2-11.6 9.2-8.6 13.3-22.6 13.3-37.3.5-13.8-4.3-27.3-13.5-37.6-9.3-10.3-26.9-11.3-30.1-11.3h-63.6zm-34.4-28.8h93.3c14.1 0 39.2 3.3 56.2 17 23.2 19 27.4 43.5 27.4 60.1s-4 38.8-20.3 54.6c-21.2 20.8-43.4 23.9-74.5 23.9h-47.7V1011h-34.4V740zm741.4 0h34.2v270.8h-34.2V740zm126.8 28.9v98h47.7s8.5-.3 13-.3c14.5 0 24.1-3.2 33.1-11.6 9.3-8.6 13.3-22.6 13.3-37.3.6-13.8-4.2-27.3-13.4-37.6-9.4-10.3-27.1-11.3-30.1-11.3H1950zm-34.3-28.8h93.3c14.2 0 39.1 3.3 56 17 23.3 19 27.4 43.5 27.4 60.1s-4 38.8-20.3 54.6c-21.1 20.8-43.4 23.9-74.5 23.9H1950V1011h-34.3V740.1zm248.9 28.8v98h47.7s8.5-.3 13-.3c14.5 0 24.1-3.2 33.1-11.6 9.3-8.6 13.4-22.6 13.4-37.3.6-13.8-4.3-27.3-13.5-37.6-9.4-10.3-26.9-11.3-30.1-11.3h-63.6v.1zm-34.3-28.8h93.3c14.1 0 39.1 3.3 56 17 23.3 19 27.4 43.5 27.4 60.1s-4 38.8-20.3 54.6c-21.1 20.8-43.3 23.9-74.4 23.9h-47.8V1011h-34.3l.1-270.9zm369.7-.1l-17.1 30h-102.5v84.8h95.8v30h-95.8V981h100.3l17 30H2346V740h154zm-1175.2 595.4h72.8l12.5 21.8h-110.3v-196.9h134.4l57.2 162.9 59.6-162.9h25.6l-74.7 197H1478l-63.6-175.3h-89.7v61.8h69.6v21.9h-69.6v69.7zm-231-175.1l-12.4 21.7h-74.6v61.8h69.6v21.7h-69.7v69.9h73l12.3 21.8H981.8v-196.9h112zm141.2 1h23.8v196.9h-25.4l-89.3-161v161h-23.8v-196.9h32.5l82.3 148.5-.1-148.5zm475.3-1l-12.4 21.7h-74.5v61.8h69.7v21.7h-69.8v69.9h73l12.3 21.8h-110.3v-196.9h112zm-765.2 96.2v71.4c-16.2 15.4-36.8 32.8-77.5 32.8-45.7 0-87-38.7-87-100 0-58.2 38.9-104 92.3-104 43.3 0 64.7 26.7 72.8 38.7l-17.9 16.8s-18.2-34.5-55-34.5c-36.2 0-64.9 32.4-64.9 84.1 0 48.9 30.8 77.7 63.7 77.7 28.6 0 47.7-19.3 49-20.7v-41h-59.8v-21.4h84.3zm292.4-949.6h-121c-19.5 0-39.3 11.9-39.3 27.9 0 5.8 4.7 16.7 20.9 16.7 20.9 0 38.8-21.5 57.5-21.5 16.4 0 18.8 15.1 18.8 15.1-9.8-.2-13.4.2-25.6 6.3-11.5 5.6-26.8 19.5-37 30.4s-26.5 25-46.2 25-39.1-12.6-39.1-35.5c0-30.3 24.2-40.1 24.2-51.1 0-3.3-1.6-7.5-7.9-7.5-9.8 0-29 14.3-47.5 14.3-25.4 0-47.5-28.6-47.5-28.6s22-28.6 47.5-28.6c18.5 0 37.7 14.3 47.5 14.3 6.4 0 7.9-4.3 7.9-7.6 0-10.9-24.2-20.6-24.2-51 0-22.9 19.3-35.5 39.1-35.5s36.1 14.1 46.2 25 25.4 24.8 37 30.4c12.2 6 15.7 6.4 25.6 6.3 0 0-2.4 15.1-18.8 15.1-18.7 0-36.6-21.6-57.5-21.6-16.2 0-20.9 11-20.9 16.7 0 16.1 19.8 28 39.3 28h121v-121c0-19.6-12-39.2-28-39.2-5.8 0-16.7 4.6-16.7 20.9 0 20.8 21.6 38.8 21.6 57.5 0 16.3-15.1 18.6-15.1 18.6.2-9.8-.2-13.3-6.3-25.5-5.5-11.4-19.4-26.8-30.4-37s-25-26.6-25-46.3 12.7-39.1 35.6-39.1c30.3 0 40.1 24.3 51.1 24.3 3.2 0 7.4-1.6 7.4-8 0-9.8-14.3-29-14.3-47.6C1217.4 22.1 1246 0 1246 0s28.6 22.1 28.6 47.5c0 18.6-14.3 37.7-14.3 47.6 0 6.4 4.2 8 7.5 8 10.9 0 20.8-24.3 51-24.3 22.9 0 35.6 19.4 35.6 39.1s-14.1 36.1-25 46.2-24.8 25.6-30.5 37c-6 12.3-6.4 15.7-6.1 25.6 0 0-15.1-2.4-15.1-18.6 0-18.7 21.6-36.7 21.6-57.5 0-16.3-10.9-20.9-16.7-20.9-16 0-28 19.7-28 39.2v121h121c19.5 0 39.2-11.9 39.2-28 0-5.8-4.5-16.7-20.9-16.7-20.7 0-38.8 21.6-57.5 21.6-16.4 0-18.7-15.1-18.7-15.1 9.8.2 13.4-.2 25.6-6.3 11.4-5.5 26.8-19.4 36.9-30.4s26.7-25 46.3-25c19.8 0 39.1 12.7 39.1 35.6 0 30.3-24.3 40.1-24.3 51 0 3.3 1.6 7.6 8 7.6 9.8 0 29-14.3 47.5-14.3 25.5 0 47.5 28.6 47.5 28.6s-22 28.5-47.5 28.5c-18.5 0-37.7-14.3-47.5-14.3-6.5 0-8 4.2-8 7.5 0 11 24.3 20.7 24.3 51.1 0 22.9-19.3 35.5-39.1 35.5s-36.1-14.1-46.3-25-25.4-24.8-37-30.4c-12.1-6.1-15.7-6.4-25.5-6.3 0 0 2.3-15.1 18.7-15.1 18.7 0 36.7 21.6 57.5 21.6 16.3 0 20.9-11 20.9-16.7 0-16.1-19.7-28-39.2-28h-121v121c0 19.6 12 39.2 28 39.2 5.8 0 16.7-4.6 16.7-20.8 0-20.9-21.6-38.9-21.6-57.5 0-16.3 15.1-18.7 15.1-18.7-.2 9.8.2 13.4 6.1 25.5 5.7 11.5 19.6 26.8 30.5 37s25 26.6 25 46.3-12.7 39-35.6 39c-30.3 0-40.1-24.2-51-24.2-3.3 0-7.5 1.5-7.5 7.9 0 9.8 14.3 29 14.3 47.5 0 25.5-28.6 47.5-28.6 47.5s-28.6-22-28.6-47.5c0-18.5 14.3-37.7 14.3-47.5 0-6.4-4.2-7.9-7.4-7.9-11 0-20.8 24.2-51.1 24.2-22.9 0-35.6-19.4-35.6-39s14.1-36.1 25-46.3 24.9-25.6 30.4-37c6.1-12.2 6.5-15.7 6.3-25.6 0 0 15.1 2.4 15.1 18.7 0 18.6-21.6 36.7-21.6 57.5 0 16.2 10.9 20.8 16.7 20.8 16 0 28-19.7 28-39.2V306.9z" fill="#fff"/></svg>