<svg version="1.1" id="Слой_1" xmlns="http://www.w3.org/2000/svg" x="0" y="0" viewBox="0 0 320.9 69.6" xml:space="preserve"><style>.st0{fill:#fff}</style><g id="Слой_1-2"><path class="st0" d="M301.6 27.9h6.6v-7.6h6.1v7.6h6.6v-19h-6.6v6.7h-6.1V8.9h-6.6v19zm-40.3-13.6c1.5-1 3.2-1.5 4.9-1.6.8 0 2.7.1 2.7 1.7s-1.6 1.6-2.2 1.6h-3.3v4.1h2.9c.9 0 2.7.1 2.7 1.6 0 .6-.4 1.8-2.7 1.8-2 0-4-.6-5.7-1.8l-1.7 4.5c2.6 1.5 5.5 2.3 8.5 2.3 7.6 0 8.5-4.4 8.5-5.8 0-2.3-1.6-4.2-3.8-4.7 1.7-.8 2.8-2.5 2.7-4.4 0-4.4-4.7-5.3-7.5-5.3-2.7 0-5.3.7-7.7 1.9l1.7 4.1zM247 6.5c3 0 6.1-1.2 7.5-4.4L250.2.5c-.3 1.5-1.7 2.5-3.2 2.3-1.5.2-2.8-.8-3.1-2.3l-4.3 1.6c1.2 3.2 4.4 4.4 7.4 4.4m-10.4 2.4v18.9h6.5l6.6-10.4v10.4h6.6V8.9h-6.4L243.3 19V8.9h-6.7zm-44.1 14.9V13.3c-2.2 0-4.5 1.6-4.5 5.3 0 3.5 2.3 5.2 4.5 5.2m5.9-10.5v10.5c2.2 0 4.5-1.6 4.5-5.2s-2.3-5.3-4.5-5.3m-6.3 22.8v-7.9c-4 0-10.5-1.6-10.5-9.8s6.5-9.8 10.5-9.7V.4h6.6v8.2c4 0 10.5 1.6 10.5 9.7s-6.5 9.8-10.5 9.8V36l-6.6.1zm-29.4-12.3V13.3c-2.2 0-4.5 1.6-4.5 5.3-.1 3.5 2.2 5.2 4.5 5.2m5.8-10.5v10.5c2.2 0 4.5-1.6 4.5-5.2s-2.3-5.3-4.5-5.3m-6.3 22.8v-7.9c-4 0-10.5-1.6-10.5-9.8s6.5-9.8 10.5-9.7V.4h6.6v8.2c4 0 10.5 1.6 10.5 9.7s-6.5 9.8-10.5 9.8V36l-6.6.1zM139.3 6.5c3 0 6.1-1.2 7.5-4.4L142.5.5c-.3 1.5-1.7 2.5-3.2 2.3-1.5.1-2.9-.8-3.2-2.3l-4.3 1.6c1.4 3.2 4.5 4.4 7.5 4.4m-10.4 2.4v18.9h6.4l6.6-10.4v10.4h6.6V8.9h-6.4L135.5 19V8.9h-6.6zM88.4 6v6.3h2.4c3.3 0 3.6-2 3.6-3.2S94 6 90.8 6h-2.4zm-7.2 21.9V0h11.2c7.6 0 9.7 5.4 9.7 9.2s-2.2 9.2-9.7 9.2h-4.1v9.5h-7.1zm151.3-19v18.9h-6.6v-2.1h-.1c-1.3 1.8-3.4 2.8-5.6 2.7-5.5 0-9.4-4.7-9.4-10.1s3.8-10.1 9.4-10.1c2.2-.1 4.3.9 5.8 2.5V8.9h6.5zm-10.7 5.2c-2.3-.1-4.2 1.7-4.3 4v.3c-.1 2.2 1.6 4.1 3.8 4.2h.5c2.2.1 4.2-1.6 4.3-3.8v-.4c.1-2.3-1.7-4.2-4-4.3h-.3m-97-5.2v18.9h-6.6v-2.1h-.1c-1.3 1.8-3.4 2.8-5.6 2.7-5.5 0-9.4-4.7-9.4-10.1s3.8-10.1 9.4-10.1c2.2-.1 4.3.9 5.8 2.5V8.9h6.5zm-10.7 5.2c-2.3-.1-4.2 1.7-4.3 4v.3c-.1 2.2 1.6 4.1 3.8 4.2h.5c2.2.1 4.2-1.6 4.3-3.8v-.4c.1-2.3-1.7-4.2-4-4.3h-.3m184.2 5.1v.7h-13.9c0 2.7 1.4 4.2 4.1 4.2 1.3.1 2.5-.6 3.2-1.7h6.4c-1.1 4.5-5.2 6.5-9.5 6.5-6.2 0-10.8-3.5-10.8-10.1 0-6.3 4.3-10.1 10.3-10.1 6.5 0 10.2 4 10.2 10.5M284.5 16h7.7c-.6-2.1-2.8-3.4-4.9-2.8-1.4.4-2.4 1.5-2.8 2.8M91.8 58.1h-2l-1 5.9h1.9c4.4 0 5.2-1.2 5.5-2.8.3-1.8-.1-3.1-4.4-3.1m12 3.1c-.2 1.9-1 3.7-2.3 5.1-3 3-7.5 3.2-10.3 3.3H80.1l4.7-27.8h19l-.9 5.5H91.4l-.9 5.6h3.3c2.5 0 5.6.3 7.8 2.2 1.9 1.4 2.7 3.8 2.2 6.1m20 3.6h-10.5l-2.8 4.8h-8.1l15.9-27.8h8.3l6.4 27.8h-8.1l-1.1-4.8zm-1.1-5.6l-1.6-8.9h-.1l-4.6 8.9h6.3zm52.8-17.4h-7.7l-4.6 27.8h7.6l2-12.1h.1l7.8 12.1h9.9L180.3 55l13.8-13.2h-9.4l-11.1 11.5h-.1l2-11.5zm-29.4 0l-1.7 10.4h10.1l1.7-10.4h7.4l-4.5 27.8h-7.4l1.9-12h-10.1l-1.9 12h-7.4l4.5-27.8h7.4zM2.3 2.3h65v65h-65v-65zM0 69.6h69.6V0H0v69.6z"/><path class="st0" d="M34.8 42.7l-20 20-7.9-7.9 20-20-4.2-4.2v-8.2l-2.9-2.9v7.2l-2.5 2.5L7.1 19.1l-2.5 2.5c0-4.5 1.8-8.8 5-11.9 5-4.8 10.4-2.6 12.3-.8L32.1 19l-2.6 2.6 5.3 5.3 5.3-5.3-2.6-2.6L47.7 8.8c1.9-1.8 7.3-4 12.3.8 3.2 3.2 5 7.4 5 11.9L62.5 19 52.3 29.2l-2.5-2.5v-7.2l-2.9 2.9v8.2l-4.2 4.2 20 20-7.9 7.9-20-20z"/></g></svg>