<svg version="1.1" id="Слой_1" xmlns="http://www.w3.org/2000/svg" x="0" y="0" viewBox="0 0 160.9 139.1" xml:space="preserve"><style>.st0{fill:#fff}</style><g id="surface42898"><path id="path39470" class="st0" d="M43.5 49.5V21.2h15v-7.5H17.9v7.5h15v28.3h10.6z"/><path id="path39472" class="st0" d="M141.2 48.8c-8.1 1.6-18.6 2-26.2-1-6-2.3-10.3-7.5-11.3-13.8-.9-7 2.2-13.1 8.7-17.2 7.6-4.7 19.6-4.6 27.8-1.3v7.8c-6.3-2.5-15.6-4.6-21.6-.7-4 2.5-5.8 7.3-4.6 11.8.9 3.5 4.4 6.8 8.4 7.9 3.1.8 6.2 1 9.4.7v-5.8h-4.1v-7h13.5v18.6z"/><path id="path39474" class="st0" d="M78.1 22.6l-6.5 12.6h12.5l-6-12.6zm-9.4 19.9l-3.6 7H54.3l17.6-35.8H84l18 35.8H91.1l-3.7-7H68.7z"/><path id="path39476" class="st0" d="M92.2 115.7v-51l-.3-.3h-5.2l-.3.3v47.9l-6 3.3-6-3.3V64.7l-.3-.3h-5.3l-.2.1-.1.2v51l.1.2 11.5 6.6h.3l11.5-6.6.3-.2z"/><path id="path39478" class="st0" d="M60.2 111h.3l.1-.2v-5.5l-.1-.3-11-6V85.7l9.9 2.5.2-.3v-5.5l-.3-.3-9.9-2.1V69.4h10.9l.3-.3v-4.5l-.3-.3H44.2l-.3.3v36.8l.1.3 16.2 9.3z"/><path id="path39480" class="st0" d="M118.1 100.8v-5l-.1-.2h-.3l-10.8 5.9V86.8l10.1-2.6.2-.3V79l-.1-.2-.2-.1-10 2.2V69.4h11l.3-.3v-4.5l-.3-.3h-16.3l-.3.3V110l.1.2h.3l16.2-9.3.2-.1z"/><path id="path39482" class="st0" d="M30.2 93.8l4.5 2.6h.3l.1-.2V64.7l-.3-.3h-4.5l-.3.3v11.1l-10.8-2.3v-8.7l-.3-.3h-4.4l-.2.1-.1.2v19.9l.1.2 4.5 2.5h.3l.1-.2V78L30 80.8v12.8l.2.2z"/><path id="path39484" class="st0" d="M131.5 69.4h9.4c.4 0 .7.4.7.8v2.4c0 .6-.1.8-.8 1l-9.3 2v-6.2zM126.6 96h.3l4.6-2.6V80.5l2.7-.7 8 7.2.4.1 4.1-2.4.1-.2v-.2l-7-5.9 4.9-1.3c1.6-.4 1.9-1.2 1.9-2.8v-8.1c-.2-1.1-1.2-1.9-2.3-1.8h-17.5l-.3.3v31l.1.3"/></g></svg>