<svg version="1.1" id="Слой_1" xmlns="http://www.w3.org/2000/svg" x="0" y="0" viewBox="0 0 389.1 139.8" xml:space="preserve"><style>.st0{fill:#fff}.st1{opacity:0}</style><g id="svg7893"><g id="g110"><path id="path112" class="st0" d="M25.5 138V89H0V74.2h71.1V89H46v49H25.5z"/></g><path id="path114" class="st0" d="M77.3 74.2h20.8V138H77.3V74.2z"/><g id="g116"><path id="path118" class="st0" d="M343.5 138V89H318V74.2h71.1V89H364v49h-20.5z"/></g><g id="g120"><path id="path122" class="st0" d="M246.4 106c0-22.2 16.6-33.2 37-33.2s36.9 12.4 37 33.2-16.5 33.2-37 33.2-37-9.6-37-33.2m20.7 0c0 12.1 4.7 21.9 16.3 21.9 10.8 0 15.9-9.8 15.9-21.9s-5.9-22-15.9-22c-11.8 0-16.3 9.8-16.3 22"/></g><g id="g124"><path id="path126" class="st0" d="M196.4 138.5c-11.2-2.3-21.9-10.5-21-22.7h19.4c1.2 2.6.7 5.3 2.5 7.8.9 1.4 2.1 2.5 3.5 3.3 1.1.7 2.2 1.2 3.4 1.6 3.2.9 6.5.9 9.6-.1 2.3-.7 4.2-2.3 5.3-4.5.5-1.3.6-2.7.1-4-.3-.7-.7-1.4-1.1-2.1-1.5-2.3-4.2-2.9-6.7-3.7-11.3-3.5-26.2-2.1-32.3-14-1.7-3.6-2.1-7.7-1-11.5.8-2.7 2.3-5.1 4.5-7 1.8-1.9 4-3.4 6.4-4.6 12-5.4 25.7-4.8 37.4.3 7 3 12.7 9.5 13 17.5h-18.5c-.7-3.2-2.7-6.1-5.4-8a14.4 14.4 0 00-11.8-1.6c-3.1.8-6.5 3.5-5.2 7 .8 2.1 3 3.1 5.2 3.7 10.3 2.8 20.6 3.3 29.9 9 4.4 2.7 7.1 7.5 7 12.7-.2 16.7-16 22.2-31.2 22.2-4.4 0-8.8-.4-13-1.3"/></g><g id="g128"><path id="path130" class="st0" d="M125.9 138.3c-11.2-2.3-21.8-10.5-21-22.7h19.4c1.2 2.6.7 5.3 2.5 7.8.9 1.4 2.1 2.5 3.5 3.3 1.1.7 2.2 1.2 3.4 1.6 3.1.9 6.5.8 9.6-.1 2.3-.7 4.3-2.3 5.3-4.5.5-1.3.6-2.7.1-4-.3-.7-.7-1.4-1.1-2.1-1.5-2.3-4.1-2.9-6.7-3.7-11.3-3.5-26.2-2.1-32.4-14-1.7-3.6-2-7.7-1-11.5.8-2.7 2.3-5.1 4.5-7 1.8-1.9 4-3.4 6.3-4.6 12-5.4 25.8-4.8 37.4.3 6.9 3 12.7 9.5 13 17.5h-18.5c-.7-3.3-2.6-6.1-5.4-8-3.6-2.4-7.7-2.7-11.8-1.6-3.1.8-6.4 3.5-5.2 7 .8 2.2 3.1 3.1 5.2 3.7 10.3 2.8 20.6 3.3 30 9 4.4 2.7 7.1 7.5 7 12.7-.2 16.7-16 22.2-31.2 22.2-4.2 0-8.6-.5-12.9-1.3"/></g><path id="path152" class="st0" d="M136.9.2h54.9V54h-54.9V.2zm7.4 16.4h14.3v30.9H171V16.6h14V7.4h-40.7v9.2z"/><g id="g154" class="st1"><path id="path156" class="st0" d="M158.6 47.5V16.6h-14.3V7.4H185v9.1h-14v30.9h-12.4z"/></g><path id="path158" class="st0" d="M198.3 0h55v54.3h-55V0zm7.5 33H220v14h11.9V33H246V20.9h-14.2V7H220v13.9h-14.1l-.1 12.1z"/><g id="g160" class="st1"><path id="path162" class="st0" d="M220 47V33h-14.1V20.9H220V7h11.9v13.9H246V33h-14.1v14H220z"/></g></g></svg>