<svg xmlns="http://www.w3.org/2000/svg" viewBox="0 0 1000 420.6"><path d="M948.7 408.2L800.5.3V0h-2.9L767 83.8l-55.5 152.6-.1-.1c-19.3-17-46.4-27.6-80.6-31.6l-10.4-1.1 10.3-1.3c56.4-10.1 94.3-45.8 94.3-88.7 0-58.9-55.4-99.9-134.7-99.9h-165v3h47.9v304.1L356.8.3l-.1-.3h-2.9l-30.5 83.8-117.7 323.3-.7.1c-2 .3-4 .5-6 .6-3 .2-5.9.4-8.9.4H71.2l226-391.5 1.7-3H22.5v121.2h2.9c.5-59 34.9-118.2 110.8-118.2h91.6L0 411.1h306.8v-116h-2.9c-.4 51.4-29.5 100.2-92.9 111.3l-2 .3L257.2 274h135.2l48.7 134.1H393v2.9h188.6v-2.9h-48.3V205.8H589c56.7 0 89.2 25.3 89.2 69.4v35.9c0 4 .3 9.7.6 14.6v.2l-29.9 82.2h-39.1v2.9h81v-2.9h-38.7l27.3-74.9c.1.7.1 1.2.1 1.2l.8 6.8.7 4.5c4.5 27.6 15.1 47.9 31.4 60.3l2.3 1.7c12.4 8.6 27.7 13 45.7 13 23.8 0 39.7-5.9 52.7-19.9l-1.7-1.6c-12.1 11.1-22.2 15.6-34.9 15.6-21.6 0-32.9-26.2-32.9-52.1v-50.3c.1-12.5-1.8-24.9-5.8-36.7l-.5-1.6h98.9l48.7 134.1h-48.1v2.9H1000v-2.9h-51.3zM258.3 271.1l66.6-183 66.5 183H258.3zm275.2-68.2V16.7H576c56.8 0 86.8 33.8 86.8 97.6 0 67.9-17.2 88.6-73.6 88.6h-55.7zm202.6 68.2l-.3-.7c-4.4-10.7-10.8-20.5-18.8-28.8l-2.8-2.8-.3-.3 54.7-150.4 66.5 183h-99z" fill="#fff"/></svg>