<svg xmlns="http://www.w3.org/2000/svg" viewBox="0 0 580.95 733.14"><path d="M325.76 0v601.93h33.56V460.79l18.31-19.45 159.45 160.59H581L399.38 418.45l144.18-148.77h-43.1L359.32 415.4V0h-33.56M87 650.37s-11.06-9.16-25.18-9.16c0 0-16.78 0-28.6 12.21 0 0-11.83 12.21-11.83 29 0 0 0 16.78 11.83 29 0 0 11.82 11.83 28.6 11.83 0 0 14.12 0 25.18-8.78l5.34 5.34S79 730.85 61.79 730.85c0 0-19.83 0-33.94-14.49 0 0-14.12-14.11-14.12-34 0 0 0-19.83 14.12-33.95 0 0 14.11-14.49 33.94-14.49 0 0 17.17 0 30.52 10.68L87 650.37m38.5 17.93c-13 0-22.13 9.15-22.13 9.15-9.15 9.16-9.15 22.13-9.15 22.13 0 13 9.15 22.12 9.15 22.12 9.16 9.15 22.13 9.15 22.13 9.15 14.87 0 24.79-12.58 24.79-12.58v11.06h6.87V670.2h-6.87v10.3c-9.54-12.2-24.79-12.2-24.79-12.2zm0 6.86c9.91 0 17.16 6.87 17.16 6.87 7.25 7.25 7.25 17.55 7.25 17.55 0 9.91-7.25 17.16-7.25 17.16C135.41 724 125.5 724 125.5 724c-10.3 0-17.17-7.25-17.17-7.25-7.25-7.25-7.25-17.16-7.25-17.16 0-10.3 7.25-17.55 7.25-17.55 6.87-6.88 17.17-6.88 17.17-6.88zm130.07-32.04s-4.2 0-4.2-4.19c0 0 0-4.58 4.2-4.58 0 0 4.58 0 4.58 4.58a4.24 4.24 0 01-4.58 4.19m-77.82-8.77v95h-7.24v-95h7.24M214 716.36l21-46.16h7.63L214 733.14l-29.38-62.94h8L214 716.36m64.84-40.43a21.78 21.78 0 0116.78-7.63s9.92 0 16.79 6.86c0 0 6.86 6.87 6.86 16.79v37.38h-6.86V692s0-7.25-5-12.21a17.28 17.28 0 00-11.83-5s-6.86 0-11.82 4.58a19.16 19.16 0 00-5 12.59v37.38H272V670.2h6.87v5.73M259 670.2v59.13h-6.86V670.2H259m151.44-35.47l-37.77 40.81 37.39 53.79h-8.78l-33.56-48.45-6.87 7.25v41.2H354v-95h6.87v43.1l39.67-42.72h9.92m17.54-.36v95h-7.24v-95H428m42.33 33.95c-13 0-22.13 9.15-22.13 9.15-8.77 8.78-8.77 22.13-8.77 22.13 0 13 8.77 21.74 8.77 21.74 9.16 9.15 22.13 9.15 22.13 9.15 19.83 0 28.22-17.54 28.22-17.54l-6.1-2.67c-6.87 13.35-22.12 13.35-22.12 13.35-9.92 0-16.79-6.87-16.79-6.87-7.25-6.87-7.25-16.78-7.25-16.78h55.31v-.38c0-13.35-9.15-22.13-9.15-22.13-9.16-9.15-22.12-9.15-22.12-9.15zm0 6.48c8.39 0 14.87 5.34 14.87 5.34a27.64 27.64 0 018.8 12.59h-46.94a28.71 28.71 0 018.39-12.59 26.74 26.74 0 0114.88-5.34zm41.95-35.85s0-4.58 4.2-4.58a4.24 4.24 0 014.2 4.58s0 4.19-4.2 4.19c0 0-4.2 0-4.2-4.19m28.23 31.27v5.73s5.34-7.63 16.79-7.63c0 0 9.91 0 16.78 6.86 0 0 6.87 6.87 6.87 16.79v37.38h-7.25V692s0-7.25-4.58-12.21c0 0-5-5-11.82-5 0 0-7.25 0-11.83 4.58a19.16 19.16 0 00-5 12.59v37.38h-7.25V670.2h7.25m-20.56 0v59.13h-6.86V670.2h6.86M47.68 315.08S0 363.9 0 434.47c0 0 0 71.71 47.3 120.54 0 0 47.3 49.2 119 49.2 0 0 66.37 0 117.49-44.63l-21.36-21.36s-43.43 36.62-97.64 36.62c0 0-56.08 0-95.37-42.34 0 0-37.76-41.58-37.76-98 0 0 0-56.07 38.14-96.89 0 0 39.29-42 95.75-42 0 0 52.64 0 93.83 33.57l20.22-21v-1.88s-46.92-40.05-112.53-40.05c0 0-71.33 0-119.39 48.83" data-name="Слой 2"/></svg>