<svg xmlns="http://www.w3.org/2000/svg" viewBox="0 0 2498.31 473.99"><g data-name="Слой 2"><path d="M128.38 3.54c-.86 2-1.72 17.27-2 34l-.87 30.22-62.75.86L0 69.17l1.15 74.27c.86 79.73 2 86.93 17.56 118.3 11.23 23 32.53 42.6 55.56 50.95 35.11 13 39.14 13.53 80.31 13.24 52.67-.28 80-7.48 106.21-27.63 28.79-22.45 42.61-50.37 47.5-96.72 2.3-23.6 4.32-128.38 2.3-130.11-.57-.29-28.78-1.15-62.75-2L186 67.73l-.86-31.66c-.58-20.73-2-32.24-4.32-33.68-6-3.74-51-2.88-52.39 1.15zm-6 113.41c3.74 1.44 4.6 6.91 4.6 29.94 0 15.54.87 30.22 1.73 32.81 2.59 6.63 51.53 6.63 54.12 0 .86-2.59 1.72-17.27 1.72-32.81 0-23 .87-28.5 4.61-29.94 7.48-2.88 55.84-2 61.89 1.15 11.51 6.34 5.18 93.27-8.64 120.33-6.91 13.53-15.25 21.3-33.39 31.08-12.95 7.2-18.13 8.06-48.36 9.22-29.93 1.15-36 .28-51.24-5.19-21.34-8.06-39.76-27.34-47.53-49.54-6.62-19.28-9.5-97.87-4-104.49 2.59-3.16 10.65-4.31 31.66-4.31 15.55 0 30.23.86 32.82 1.72zm452.17-44.61c-.86 2.3-1.15 92.11-.86 199.77l.86 195.74 63.33.86c103.34 1.44 143.06-4.61 183.36-28.5 18.14-10.65 40.3-32.24 45.77-44.33a108.46 108.46 0 015.18-10.07c3.46-5.76 10.37-23.89 15.84-42.32 6-19.28 8.92-86.64 5.18-117.44-4-33.39-8.93-50.09-23-79.16-7.77-15.83-40.3-46.63-59.3-55.84-37.71-18.14-46.63-19.29-144.79-21-74.27-1.15-90.38-.86-91.54 2.31zm154.58 45.48c27.63 3.16 50.66 12.37 67.93 27.34 13.53 11.8 28.5 35.41 32.24 51.24 1.73 6.62 4.61 17.56 6.05 23.89 4 15.26 1.44 100.46-3.17 113.7-8.63 23.9-21.59 46.64-31.95 55.27-18.42 16.12-23.6 19.58-28.5 19.58a12.48 12.48 0 00-7.48 2.87c-5.76 5.76-34.26 9.5-81.18 10.65-33.67.87-48.07.29-51.23-2.3-3.46-2.88-4-26.19-4-151.12 0-137.59.28-148 5.18-150.55 6-3.74 62.75-4 96.14-.57zm271.16-44.62c-.87 2.3-.87 70.52-.29 151.7 1.15 137.3 1.44 149.11 6.62 162.35 16.41 43.17 39.15 65.05 82 79.73 25.33 8.64 98.44 9.5 124.93 1.44 50.37-15.54 76.85-43.18 88.66-92.69 4-17.27 4.89-39.72 4.89-159.76V72.62c0-2.59-7.49-3.45-27.35-3.45h-27.06l-.86 147.67c-.57 103-1.73 149.11-4 152-1.73 2.31-4 7.49-5.18 11.81-2.3 9.78-23 31.66-36.27 38-24.18 11.8-86.07 10.94-109.1-1.44-13.52-7.48-27.34-23.31-36.27-41.45-5.46-10.94-5.75-19.86-6.62-156.88-.86-107.37-2-145.94-4.31-147.38-2-1.15-13.53-2.3-25.91-2.3-16.41 0-22.74 1.15-23.89 4zm432.64-2c-2.59 2.31-2.59 387.17-.29 393.5 1.44 3.74 6.62 4.6 27.06 4.6 21.88 0 25.62-.86 27.06-5.18.57-2.59 1.44-41.74 1.44-86.64.29-62.75 1.15-82.33 3.74-84.34 2-1.15 39.15-2.3 82.33-2.3h78.58l-.86-22.46-.87-22.16-79.16-.87c-43.46-.28-80-1.72-81.17-2.87-3.17-3.17-4-120.9-.58-124.36 1.73-1.72 41.45-3.16 101.9-3.45l99.31-.86v-43.2L1563 69.74c-70.52-.28-129.25.29-130.11 1.44zm350-.28c-4.89 2-5.18 388.6-.58 394.64 5.18 5.76 50.38 5.18 52.68-.86.86-2.59 1.73-41.16 1.73-86.07 0-78 .29-82 5.47-84.92 3.16-1.43 23.6-2.87 45.77-2.87 46.92 0 43.46-2 66.78 40 8.06 15 18.13 32.24 21.87 38.28a192.17 192.17 0 0110.08 17.56c1.44 3.45 5.47 10.94 8.63 16.41 3.46 5.47 12.67 21 20.44 34.54 8.06 13.53 16.7 26.2 19 27.92 6.62 5.47 58.15 5.18 58.15-.29 0-2-2-5.46-4.32-7.48s-4.32-4.61-4.32-6-3.45-8.06-7.77-15c-4.32-6.62-9.21-14.4-10.94-17-1.44-2.59-18.71-31.08-38.28-63s-35.12-60.16-34.55-62.75c.58-3.16 7.2-6 19.58-9.21 38-9.5 63-27.35 75.7-53.83 5.47-11.8 6.34-18.13 6.34-50.95 0-33.1-.87-38.86-6.63-50.66-12.37-25.33-34-41.16-72.53-53.25-13.53-4.32-30.52-5.18-122.34-6-58.44-.29-108 0-110 .87zm193.44 46.92c25.9 3.16 40.58 10.36 52.39 25.62 9.21 12.08 9.49 13.52 9.49 37.7 0 21.88-.86 26.49-6.33 33.68-8.63 11.23-13 14.68-28.21 22.17-12.38 6-16.12 6.33-89.23 6.33h-76.28l-.87-60.16c-.57-41.74.29-61.31 2.59-63.9 2.59-3.17 15.26-4 59.88-4 31.09.28 65.63 1.43 76.57 2.59zm179.9-45.48c0 1.72 17.28 31.37 38.29 66.2 20.72 34.83 39.43 65.34 40.87 68.22 1.73 2.88 10.94 18.71 21 35.12 10.07 16.7 19.57 32.82 21.59 36s4 6.34 5.18 7.2a116.35 116.35 0 017.77 11.8c6 10.08 6.33 13.24 6.33 86.93 0 42 .87 78.3 1.73 80.89 1.44 3.74 6.62 4.6 27.06 4.6 21.87 0 25.62-.86 27.06-5.18.86-2.59 1.15-37.13.28-76.85-1.15-69.09-.86-72.25 4.9-84.06 3.45-6.91 7.19-12.37 8.63-12.37 1.15 0 2.3-1.44 2.3-3.17 0-2.3 31.38-55.27 52.39-88.37 2.59-4.32 6.62-10.65 8.64-14.11s18.13-29.93 35.41-58.72c17.55-28.78 32.24-53.54 32.52-55 1.73-4-58.72-2.88-62.17 1.15-1.44 2-6.91 11.52-12.09 21-17 31.08-21.88 40-37.42 67.64-8.35 15-17.28 30.51-19.29 34.54-2.3 4-7.48 13-11.51 20.15s-10.37 19-14.11 26.2c-7.48 14.68-13.82 21.3-18.13 18.71-2.31-1.44-10.65-15.54-30.52-52.1-3.45-6.34-13.24-23.89-21.58-38.86-8.64-15-18.43-33.11-22.46-40.3-3.74-7.2-11.22-20.15-16.69-29.07s-9.79-17.56-9.79-19c0-1.73-2.3-4.9-5.18-7.49-4.32-3.74-11.23-4.89-33.1-4.89-18.14 0-27.93 1.15-27.93 3.17z" fill="#d12929" data-name="Слой 1"/></g></svg>