<svg xmlns="http://www.w3.org/2000/svg" viewBox="0 0 342.37 549.43"><defs><style>.cls-1{fill:#fff}</style></defs><g id="Слой_2" data-name="Слой 2"><g id="Слой_1-2" data-name="Слой 1"><path class="cls-1" d="M325.18 0a17.09 17.09 0 0117.19 17v515.42a17.09 17.09 0 01-17.19 17h-308a17.09 17.09 0 01-17.18-17V17A17.09 17.09 0 0117.19 0h308"/><path d="M6.68 76.4h329.23v455c0 3.78-.64 6.12-3.19 8.66-2.77 2.75-5.21 3-9.59 3H16.51a9.07 9.07 0 01-6.26-2.46 9.68 9.68 0 01-3.57-7.57V76.4" fill="#fff200"/><path fill="#ed1c24" d="M6.68 53.51h329.23v23.38H6.68z"/><path class="cls-1" d="M6.68 30.09h329.23v23.38H6.68z"/><path d="M325.18 0a17.09 17.09 0 0117.19 17v515.42a17.09 17.09 0 01-17.19 17h-308a17.09 17.09 0 01-17.18-17V17A17.09 17.09 0 0117.19 0h308m0 6.79h-308A10.27 10.27 0 006.87 17v515.42a10.24 10.24 0 0010.32 10.2h308a10.25 10.25 0 0010.32-10.2V17a10.28 10.28 0 00-10.33-10.21z"/><path d="M16 6.32h310.4c5 0 9.56 4.79 9.56 9.46v14.93H6.68V16.49A10.28 10.28 0 0116 6.32" fill="#009a4e"/><path d="M165.13 105.28a15.83 15.83 0 01-.66 3.15c-.45 1.07-1.61 1.8-1.53 2.52a3.32 3.32 0 002 2.15 11.17 11.17 0 002.78 1.36c1.09.27 2.48 1.07 2.87.16s-.2-2.06-.86-3.15c-1.15-1.89-1.74-2.35-3.44-5-.36-.56-.64-1.16-1.16-1.24"/><path d="M156.51 309.69c.11-.34 2.83 1.39 4.25 2.22a67.05 67.05 0 017 4.81c2.08 1.59 3.09 2.4 5.18 4.2 2.57 2.22 4 4.11 4.65 3.68 1-1.2-1.64-4.71-4-6.61a71.76 71.76 0 00-6.42-4.59c-2.34-1.55-2.54-1.91-6-4.25a55.53 55.53 0 01-7-5.66l-3.64-2.86-5.7-4.81-6.36-5.82-4.78-5.33s-3.73-4.56-4.32-5.44-2.35-3.68-3.8-6.06c-1.29-2.14-3.8-5.46-4-5.75-1.35-1.64-4.45-1-8-3.09-4.36-2.58-5.41-4.93-5.41-4.93a2.94 2.94 0 00-.33-.53 3.25 3.25 0 00-.5-.43l-2.28-1.6-1.31-.86a10.2 10.2 0 00-2.24-1.35c-1.25-.56-4-2.18-4-2.18l-5-3.18-2.6-2.09c-.67-.5-1.9-1.22-1.9-1.22a5.55 5.55 0 00-1-.41c-.24 0-1.28-.11-1.28-.11a2 2 0 00-1.94.9c-1 1.15-.73.54.86 7 .63 2.55.57 11.56 1.24 14.3a46.63 46.63 0 003.6 8.62 14 14 0 01.42 2.5 14.09 14.09 0 00.06 2.6c.76 4.65 7.56 1.59 9.06 8A24.4 24.4 0 0198 301.94s-1.46 3.12-3.53 3.61-5.26-4.09-7.58-7.79a65.19 65.19 0 01-4.75-9.92 13.42 13.42 0 00-1.61-2.95c-1-1.63-1.85-1.33-3-3.92s-.13-3.62-.65-5.87c-.3-1.25-.57-1.39-1-3.17S75 264.5 75 264.5l-.73-5.27s-.25-2.4-.58-3.9A86.9 86.9 0 0172.21 245l-.21-2.12-.08-2.16a7.39 7.39 0 011-4.06s1.06-1.78 1.24-2.22a37 37 0 012.35-2.95 27.54 27.54 0 013-2.08 6.83 6.83 0 013.53-1 28.76 28.76 0 013.79.36c3.29.41 10.06 2.21 11.77 2.65a24.08 24.08 0 015 1.89c3.76 2.05 4.9 1.18 1.91-1.17-2-1.58-2.58-2.28-4.21-3.76a47.16 47.16 0 01-3.47-3.26c-1-1.19-3.93-5.49-3.93-5.49l-1.9-2.74a13.38 13.38 0 00-1.14-1.18c-.15-.09-.64-.47-.64-.47a11.7 11.7 0 01-2.46-.18c-1.26-.25-1.84 1.52-1.84 1.52a51.46 51.46 0 01-5.46 8.14c-4.46 5-7.66 8.44-9.3 11.12-2.3 3.71-1.79 7.77-3 9.64a12.8 12.8 0 00-1.45 2.23c-1.15 2.91 3 4.51 2.08 7.74-1.53 5.13-13.53 10.19-15.12 9.35s-.3-7.8.25-10a29.24 29.24 0 012.45-5.8 4.57 4.57 0 00.68-1.6c.13-.66.17-2.16.25-3a18.6 18.6 0 01.42-2.16 22.09 22.09 0 011.11-2.58c1.07-2.32 5-7.7 7.78-12.84 1.84-3.35 2.61-5.38 4.46-8.74 1.7-3.09 4.61-7.8 4.61-7.8s1.23-2.4 1.81-3.29 1.82-2.64 3-4.35 1.45-3 3-4.38a8.67 8.67 0 013.68-2.26c2.43-.81 4.1-.38 6.6.31a15.49 15.49 0 016 3.29 24.93 24.93 0 012.94 3l.82 1.22.51.3 1.57 1 3.59 2.38s8.52 5.8 9 6.11 2 1.56 2.28 1.66 2.59-2.37 7-5.44c5.16-3.58 7-3.31 8.69-4.24a14.62 14.62 0 003.7-3c2-2 2-3.07 4.28-5.86a27.12 27.12 0 014.43-4.35s.31-.31 4.38-4.91a44.85 44.85 0 005.86-8.06l2.23-4.47s3.23-6.94 4.27-9.69a12.92 12.92 0 001.05-3.67 3.47 3.47 0 00-.63-2.12c-.81-1.39-1.64-.76-3.19-.45-3 .64-4.76-.13-7.75-.66-2.74-.45-4.17-1.27-6.92-1.73s-4.4-.93-7.2-.66a10.94 10.94 0 00-1.68.36 13.43 13.43 0 00-3.19 1.33 8.05 8.05 0 01-3.74.86 5.56 5.56 0 01-2.63-.31 4.24 4.24 0 01-1.56-.92 3.63 3.63 0 01-.73-.83c0-.3-.12-.28.17-.76a1.13 1.13 0 01.68-.69l1.28-.31 2-.52c.17 0 1.88-.6 2.63-.84a10.38 10.38 0 001.6-.67s.46-.74.28-1.16-1.24-.53-1.24-.53-1.44.53-1.6.57-2.44.75-2.44.75-1.79.4-3.18.73a30.74 30.74 0 01-3.4.47l-.6-.16s-.68-.45-.78-.93-.17-.74-.24-1.22c-.3-1.77-.66-2.84-.24-4.58a7.32 7.32 0 01.65-1.82 10 10 0 01.79-1.42l1.1-1.8 2.08-3.06a8 8 0 012.08-1.6 8.42 8.42 0 013.75-1.13 25.44 25.44 0 004.14-.67 16.61 16.61 0 004-1.44s5.53-2 8.89-3.69c3.53-1.73 5.07-3.57 8.73-5a30.17 30.17 0 014-1.3.73.73 0 00.36-.49c.15-.58-.74-.85-1.36-.78s-1.81.63-2.1 0 1.16-.77 1.16-.77.64-.3.66-.66c0-.56-.93-.2-1.36-.24a17.51 17.51 0 01-3.8-1 20 20 0 00-4.5-1 15.31 15.31 0 00-4.11.52c-1 .25-1-.73-.63-.92 2.81-1.31 2.87-1.42 4.85-1.51a11.68 11.68 0 012.77.27c.16.09 2.33 0 2.89-.58s-1.78-.53-2.89-1-2.58-.53-2.55-1.2.81-.3 1.35-.44a14.34 14.34 0 011.76-.24c1.24-.17 1.35-.29 3.2-.44a14.63 14.63 0 014.45.6s2.76 1.23 4.12 1.87a15.42 15.42 0 003 1 5.71 5.71 0 003.38-.64c1.49-.91.65-1.51.13-2.35a3.77 3.77 0 01-.21-4.08c.84-1.87 1.28-4.07 1.52-4.27s1.46 1.45 2.22 2.14c2.7 2.53 6.27 3.77 9.63 9 .27.42 1.51-.26 5.42.34s7.32 4.79 8.18 5.79a2.77 2.77 0 002 1l1.88.26 6.81.11s3.09-.55 4.88.13c1.24.46 5.4 3.24 3.51 4.29-1.33.74-2.57-.88-3.77-1a8.76 8.76 0 00-3.3.5c-2.64.66-8.32 2.37-6.26 3.06a2.21 2.21 0 00.45.11l1 .18a35.63 35.63 0 014 1.16c2.28.9 3.36 1.89 5.45 3.12 1.2.69 1.72 1.39 3 1.78s2 0 3.2.21a13.16 13.16 0 014 1.32c2.2 1.05 3 2.33 5 3.75 1 .71 1.81.82 2.55 1.78a1.73 1.73 0 01.39.59c.26.87-1.45.36-2.36.21a8.49 8.49 0 01-2.25-1.05c-1.37-.65-2-1.36-3.51-1.63a10.32 10.32 0 00-2.83 0c-1.08 0-1.65.21-2.73.22a17.91 17.91 0 01-4.66-.51c-2-.42-3-1.2-5-1.62-2.26-.47-6.26-2.41-5.88-.47.2.93 2.32 1.72 2.32 1.72s1.47.78 2.85 1.4a6.22 6.22 0 012.15 1.51l1 .71s1 1.35 2.27 2.88a4.92 4.92 0 003.51 1.47 24.25 24.25 0 014.28.6 22.47 22.47 0 015.91 2.39 21.94 21.94 0 013.58 3.12c1.31 1.56.55 2.35.38 2.51s-.09.09-.27.17a14.3 14.3 0 01-1.79-2l-1.17-1a10.8 10.8 0 00-2.61-1.28c-1.48-.47-2-.16-2-.16a23.21 23.21 0 01-5.88.8 7.45 7.45 0 01-4.12-1.16l-1.8-1.09s-2.59-2.42-2.68-1.28c-.06.78 1.14 1.64 1.14 1.64s.83.84 1.38 1.37c1 1 1.48 1.55 2.68 2.61a3.39 3.39 0 001.94 1.08s.64.16.89.2l.68.16 2.27.92a18.15 18.15 0 013.88 2.39 1.1 1.1 0 00.46.21 7.4 7.4 0 011 .35c.17 0 .64 0 1.72.2s.68.85.68.85l-.19.26-.89.6a10.93 10.93 0 01-1.94.37 5.73 5.73 0 01-1.94-.4l-2.41-.91s-2.45-.64-3-.73-2.71-.51-3.08-.59a11.31 11.31 0 01-1.74-.65c-.29-.16-.83-.26-2.15-.91s-1.83-1.39-3.46-1.91-2.65-.63-3.88.23c-2.12 1.46 3.2 1.7 5.85 3 3.91 1.92 6.11 3.34 7 5.41a8 8 0 001.88 2.84 15.84 15.84 0 014 2.84c.68.78.77 1.43 1.45 2.21 1.5 1.77 4.43 1.67 5 3.17s-2.37.77-3.89.63c-2.74-.27-3.4-2.77-6-3.78-1.44-.58-2.36-.58-3.84-1.08-2.69-.89-3.95-2.05-6.65-2.89-1.63-.5-4.58-2.64-4.21-1a3.26 3.26 0 00.41.95c.14.23.82 1.11.82 1.11a12.15 12.15 0 001.32 1.52 31.91 31.91 0 004.61 3 19 19 0 014.62 3.95 16.13 16.13 0 011.09 1.8c.37.83.11 1.09.69 2.24a5.34 5.34 0 001.54 2.08c1.82 1.74 3.73 1.4 6 2.34.63.27.68.37 1.36 1.09s-.13 1-.13 1a16.34 16.34 0 01-4.23.52c-2.15-.17-3.12-.83-5.21-1.87a11.11 11.11 0 01-3.45-3c-.18-.12-.71-.67-1.11-1a10.49 10.49 0 00-2.35-.75c-.94-.25-1.46-.3-2.4-.56-1.28-.36-2.6-.92-3.2-1.11a3.88 3.88 0 00-3 .14c-2 1.18 3.11 2 4.69 3.68.82.86 1.16 1.46 1.93 2.36a8.72 8.72 0 001.55 1.71 9 9 0 001.4.75s1.23.57 3 1.57a17 17 0 013.91 3.8l1.27 1.95.76 1.11.2.52.27.63a8.17 8.17 0 001.6 1.59c.68.41.56.76.56.76s-.08.25-.56.52-.72.05-1.39-.15-1.13-.84-1.71-1.31-1.26-1.69-2.36-2.36a10.82 10.82 0 00-2.72-.95c-.48-.17-1.68-.93-2.15-1.14s-1.71-.75-1.71-.75a23.71 23.71 0 00-3.72-1.7c-1.33-.37-.48.44-.48.44a10.77 10.77 0 002.32 2.58c1.48 1 3.56 1.84 2.88 2.63-.46.52-1.08.33-1.75.26a5.61 5.61 0 01-2.45-1.46 15.62 15.62 0 00-3-1.14c-2.46-.81-1.55.54-1 1.27a4.84 4.84 0 001.31 1.12l1.68.75.77.24s.68.12 2.91.65a8.3 8.3 0 013.46 1.59s1.2 1.11 2.86 2.35a9.06 9.06 0 004.28 1.68c.92.12.89.76.89.76a2.71 2.71 0 01.06.79.45.45 0 01-.43.36c-.19 0-.28.08-.52.21a7.9 7.9 0 01-1.2.27 24.87 24.87 0 01-4.46-.56 13.26 13.26 0 01-3.85-1.91 24.43 24.43 0 00-3.23-1.48 8.27 8.27 0 00-3.39-.15c-.19.07-.87.18-2 .52s.3.75.3.75l.83.08 2 .15a18.87 18.87 0 013.8.89 11.12 11.12 0 014 3.07 14 14 0 002.43 1.9l.93.6.47.37.13.31s0 .16-.13.36-.37.36-.37.36a5.84 5.84 0 00-.61-.07c-.22 0-1.52-.7-2.49-1.12a14.17 14.17 0 00-2.59-1.12 7.71 7.71 0 00-2.43-.23c-.27.07-2.31.36-3.88.47a22.55 22.55 0 01-4.76-.08c-2.63-.32-6.13-2.39-6.57-1.82-.91 1.22 1.86 1.56 3.21 2.34a29.91 29.91 0 005.05 2 22.89 22.89 0 013.71 1.16c3 1.4 3.9 3.46 6.32 5.63a7 7 0 004.18 2c1.54.22 1.51 0 3.94-.44s3.92-2.8 4.63-1.95c.14.16.08.31.05.55a4.58 4.58 0 01-.25.68 6.75 6.75 0 01-.71.83 13.81 13.81 0 01-3 1.72 15.07 15.07 0 01-5.73.88c-2.71-.08-6.53-2.16-6.53-2.16l-2.73-1.15s-1.27-.59-2.13-.92c-2.27-.86-3.72-.78-6.06-1.4-1.44-.39-2.4-.8-3.71-1.07s-.56.24-.44.43a5.56 5.56 0 002.49 1.59c1.39.68 2.35.54 3.77 1.14a23.13 23.13 0 013.85 2.11 12.79 12.79 0 012.35 2.06l2.91 2.49s.67.55.75.79a3.13 3.13 0 01.25 1.8c-.17 1-1 .28-1 .28l-.77-.49-.77-.71-1.21-1a14.61 14.61 0 00-2.85-1.86 12.67 12.67 0 00-3.94-1.16s-1.9-.28-1.84.32.52.64 2 1a7.73 7.73 0 012.52 1.17 19.58 19.58 0 012.68 2.43 7 7 0 011.43 2.51 11.38 11.38 0 002 2.43c1.43 1.4 2.18.92 2.11 1.59a.92.92 0 01-.71.8h-.52a5.07 5.07 0 01-.93-.36 19.41 19.41 0 01-1.91-1.2s-2.36-1.92-2.63-2.11-2.52-1.87-2.52-1.87-1.32-.85-2.26-1.33a30.86 30.86 0 00-3-1.2 10.55 10.55 0 00-2-.3 16.32 16.32 0 01-2.55-.6 18.2 18.2 0 01-3.5-2.29 9.18 9.18 0 00-1.9-.52c-.28 0-.93 2.71-1.08 4.25-.65 6.48 1.08 10.78 3.75 16.72 3.86 8.63 14.62 19.36 14.62 19.36a40.21 40.21 0 013.84 2.44c3.22 2.52 8.54 6.08 13.27 10.79a131.42 131.42 0 019.38 11.2 60.43 60.43 0 014.55 7.38 62.89 62.89 0 013.17 9.48 10 10 0 00.22 1.2c.12.2.4.46.58.46l1.88.06a23.53 23.53 0 003.74-.51 45.7 45.7 0 006.94-3 35.15 35.15 0 004.81-3.38s.51-.43 3.06-3.29 4.25-7.16 4.88-8.78 1.12-4.71 1.49-10a62.15 62.15 0 00-.32-10.91s-1-7.82-1.56-10.48-2-7-2-7-1-3.86-1.3-6.29-.37-6.41-.37-6.41a44.66 44.66 0 01.79-6.92 31 31 0 013.55-9 32.44 32.44 0 013.73-5 28.07 28.07 0 017-6.36c2.37-1.7 5.43-4.44 6.43-3.79s-1.08 2.08-1.82 2.8a45.71 45.71 0 00-8.15 10 32.35 32.35 0 00-4 9.85 24.41 24.41 0 00-.27 6.85c.09 1 .66.66.66.66a96.89 96.89 0 009.23-8.44c3.52-3.94 6.66-10.95 7.89-11 .83 0 1.21 1.82 1 2.69a19.62 19.62 0 01-2.21 6.51c-1.35 2.77-2.61 4-4.49 6.55a30.83 30.83 0 00-4.52 7.25 13.21 13.21 0 00-1 9s.28 2.39 1.35 2.36c1.81-.06 5.76-5.06 8.34-9.14 1.91-3 2.6-6.45 3.85-8.27 1.14-1.61 2.14 2.62 1.65 5.11-.57 3-2 5.62-5.25 9.81a13.83 13.83 0 00-3.05 8s-.32 1.77-.58 5.65a49.35 49.35 0 00.86 9.72 75.41 75.41 0 011.19 8.62c.18 3.74.06 12.22-3.44 18.83a49.61 49.61 0 01-4.35 6.31 41.09 41.09 0 01-4.17 3.72 56.76 56.76 0 01-6.38 3.51s-3.13 1.07-3.56 1.17a1.43 1.43 0 00-.73.5s.27.6.39.85 1 2.4 1 2.4A44 44 0 01263 329c.35 2.42-.06 3-.4 4.82s-1.11 1-1.31 4.43c-.17 3.07 1.22 4.61 1 8.06-.1 1.51-1.81-1.91-2.64-3.35-1.76-3.14-1.34-8-1.37-9.17a15.69 15.69 0 00-.59-4 13.64 13.64 0 00-2.26-4.7c-.92-1.18-1.89-1.86-2.21-1.73s-.36.73-.36 1a6.92 6.92 0 00.77 1.73c.17.23 1.32 2.33 1.32 2.33a22.52 22.52 0 01.71 4.8 27.85 27.85 0 01-.77 7.05 49.8 49.8 0 01-2.58 7 47.85 47.85 0 01-4.76 6.72 21.54 21.54 0 00-4.12 5.69c-1.74 3.54-.25 5.08-.89 5.54s-2.06-2-2.43-3.72a5.83 5.83 0 01.46-4.06 31.9 31.9 0 012-4.14l2.11-3.59a43.62 43.62 0 003.36-8.4 18.82 18.82 0 00-.13-7.41s-.1-1.29-1-1.23-1.51.81-1.88 1.75c-.72 1.94.31 1.59-.8 4.82-.86 2.54-1.11 2.2-1.57 3.7a16.89 16.89 0 00-.81 4.77c0 1.11-.57.65-.57.65a10.47 10.47 0 01-1.08-4.49 25.41 25.41 0 01.22-3.48 46.57 46.57 0 011.14-5.49 21.17 21.17 0 00.75-6.26c-.23-3-1.28-3.57-1.28-3.57s-.27-.4-1.44-.34-1.09 2.17-1.09 2.17-.36 3-.82 4.81c-1.28 5.1-3 7.77-6 12.07a53.11 53.11 0 01-8.31 8.89c-1.84 1.63-7.54 5.77-7.54 5.77l-6.67 4.44a18.81 18.81 0 00-3.85 5.66 12.27 12.27 0 00-.46 8.28 13.26 13.26 0 002.26 4.92 10.74 10.74 0 011.89 3.79 14.23 14.23 0 01.13 2.61 19.59 19.59 0 01.15 2.3c0 1.41.23 2.41-.58 3.56a6.74 6.74 0 01-2.19 1.65 31.33 31.33 0 00-2.89 1.46C192.26 404 188.24 408.4 181.84 416c-2 2.45-.54 2.3-2.71 5.19-1.32 1.72-4.36 1.72-5.46 3.78-1.53 2.82 3.45 5.59-2.3 8.06-7.4 3.2-20.15.91-20.4-.09-.69-2.74 2.49-5.91 3.62-7.17 5.18-5.66 9.82-5.8 11.52-10.49.36-1 .22-1.86 4.35-4.92 2.9-2.14 14.48-10.86 19.54-16.68 1.74-2 3.23-3.32 4-5.48a3.34 3.34 0 00-.76-3.55l-2.07-3.38-4-7.13s-1.67-3.78-2.58-6-2.68-8.06-2.68-8.06a66.17 66.17 0 01-1.49-8.74c-.38-6.18.46-9.78 2.09-15.78 2.11-7.78 6.89-11.05 8.8-18.77.56-2.24.68-6.09-.46-5.91s-1.17 3.23-2 5.27c-3.08 7.66-7.14 11-9.37 19a45.17 45.17 0 00-2.09 14.12c0 3.19-.11 2.6.71 8.12a33.13 33.13 0 001.41 5.11c.43 1.42 1.59 4.06 1.59 4.06a40 40 0 012.14 5.94 7.41 7.41 0 01.32 2.17c-.11 1.46.15 1.77-.55 3.09-.88 1.65-.34 2.62-3.14 3.23-2.5.52-7.59-1.14-7.59-1.14s-20.93-6.33-34.29-4.5c-2.64.35-4.07 1.32-6.73 1.27-2.42 0-3.65-1.92-6.08-1.2-.49.14-.64.49-1.09.79-3.54 2.46-.83 6.55-10.15 4.43-5.72-1.31-12.65-4.82-11.45-7 1.6-2.92 3.76-3.4 8.28-5.26 4.84-2 12.1-1.41 13.53-1.51 1.75-.14 4.25-1.35 7.38-1.43 5.4-.09 6.36.56 6.36.56l9.17.81 17.54.22s3.14-.23 4.39-.48 2.25-2.72 2.94-3.91a3.81 3.81 0 000-2.89l-.52-.82-1.67-2.69-3.09-5.2-3.42-6.83s-2.24-4.75-3.43-7.87a58.73 58.73 0 01-2.66-8.08 43 43 0 01-1.44-8.65c-.13-3.81-.38-6.78.69-9.91"/><path class="cls-1" d="M270.41 303.36c3.69-4.74 4-9.14 4.26-15.34.17-4.51-1.54-11.46-1.54-11.46l-.23-.5s-.64-.84-1 .27c.06 1 .18 1.76.18 1.76l.22 8.94a40.93 40.93 0 01-1.82 9.16C267.86 304 261 307.52 260 310.36c-1.71 4.69 6-1.3 10.41-7m-38.71 14.47a2.15 2.15 0 00-1.53 1.92c0 1.5.36 2.79.32 4.59 0 2.29-2.14 4.94-.79 5.8 2.33 1.48 4.33-8.92 3.62-10.46s-1.4-1.86-1.62-1.85m-26.06 72.1a1.61 1.61 0 00-1.27.1 1.21 1.21 0 00-.77 1.18s-.17.93.5 1 1.79-1.54 1.79-1.73a1.73 1.73 0 00-.25-.57m-24.52 17.45s-.24.25 0 .42.56 0 .56 0 4.22-3.3 6.73-5.63c2.65-2.49 6.47-6.78 6.47-6.78a.44.44 0 000-.6c-.3-.28-1 .15-1.63.43a7.49 7.49 0 00-1.25.8c-.37.34-1.63 1.63-1.63 1.63l-3.26 3.17-2.11 1.98-2 1.91-.83.95-.28.46c-.06.11-.27.39-.27.39s-.31.29-.31.38-.1.16-.1.25a1.36 1.36 0 01-.09.24m-7.31 4.81a1.1 1.1 0 00-1.17 0 5.85 5.85 0 00-1.56 1.48c-.06.14-.46.66-.19 1.12s1.19-.22 1.32-.25a10.93 10.93 0 001.33-.95 1 1 0 00.27-1.38m-14.01 14.16s-.6-1.11-1.38-.65a4.77 4.77 0 00-1.94 1.62c-.13.17-.9 1.17-1 1.43s-.92 1.72.66 1.83c2.71.15.93-1.58 1.86-2.26.75-.52 2.17-.39 2.19-.94a1.89 1.89 0 00-.35-1m-48.04-56.71s-1.62.41-1.74 1 .94 1.14 1.11 1.17.55.46 1.64-.28 1-1.34 1-1.34.63-.74-2-.51m26.39-.9s0-.6-1.16-.52-1.42.28-1.45.46.06.46 1.1.56 1.48 0 1.51-.5m24.96.73a21.61 21.61 0 00-2.73.1 42 42 0 01-5.94-.12c-3.24-.21-8.27-1-8.27-1s-.63-.16-.88.26.61 1.27 1.37 1.5a16.79 16.79 0 007.14 1.11c1.56 0 2.43-.14 4-.23 2-.15 2.89.15 5-.41.56-.14 1.1-1.19.3-1.2m14.07-4.18s-.42-.49-1.29-.06a3.67 3.67 0 00-1.39 1.35s-.4.64.47.55a5.57 5.57 0 001.8-.61c.23-.13.86-.71.41-1.23M165 196.6a63.37 63.37 0 0010.19-12.92c2.53-4.38 3.63-14.59 1.46-12.05-1 1.16-2.16 6.45-4 10.38a114.9 114.9 0 01-8.39 13.49s-1.23 2.63.78 1.1m-23.79 14.13a1.16 1.16 0 00-.35 1.28c.3.8 1.51.2 1.51.2a20.35 20.35 0 015.62-1.15 33.92 33.92 0 016.89.74s1.9.52 2.22.64 1.35.63 1.53.7 1.15.55 1.7.05-3.47-4.16-7.58-4.71a17.59 17.59 0 00-11.33 2l-.21.24m-28.17 24.09c.48.42 2.77-3.94 4.68-6.69 1.4-2 3.95-5.38 3.95-5.38s1.15-1.55-.8-.69a11.71 11.71 0 00-4.49 5c-1.3 2.58-3.85 7.3-3.34 7.71m-15.8-18.86s-.49 1.68 1.48 3.79 2.49 3.86 3.75 2.6c.35-.35-1.23-3.19-2-4s-1.41-1.44-1.41-1.44l-.51-.42-.66-.37-.38-.15a.23.23 0 00-.24 0m-6.43-16.17s-2.14.4-2.66 1.44 2.46.41 2.46.41 2 .11 2-.65-.25-.84-1.83-1.2M56.9 256.05c-1.09-.32-1.27 1.83-1.42 2.52s.49 2.08.75 2.08a3.79 3.79 0 001.16-2c0-.68.48-2.27-.49-2.57M92.19 298s-2-1.55-2.26-.94 1.61 3.33 1.61 3.33a1.24 1.24 0 001.49.5 1.19 1.19 0 00.57-1.42s-.6-1.27-1.41-1.47m-14.73-45.37a.57.57 0 00-.68.47 22.34 22.34 0 00-.3 2.76 21.08 21.08 0 00.24 3.39 18 18 0 00.58 3.11 19.57 19.57 0 001.55 3.1s.42.93 1 .88.39-.66.39-.66-1.64-6.49-1.69-7.15c-.19-2.16-.19-4.79-.19-4.79v-.4a.77.77 0 00-.84-.71m2.48-19.8s-.9-.17-1.73 1.56-.66 2.46-.58 2.54.72.06 1.78-1.56.82-2.23.82-2.23-.07-.31-.29-.31m24.76 17.94s1.09 1.62-1 1.25-6.46-3.83-8.24-4.76-4.67-1.23-3.45-2.32c.22-.18.28-.36.63-.37a6.54 6.54 0 011.64.5c.06 0 3.14 1.31 3.26 1.34a33.56 33.56 0 013.07 1.51c1.23.73 3.23 2.13 3.23 2.13l.85.72m57.71 49.68c.57 1.78-6.57-3.77-10.39-6.72-10.13-7.8-22.53-23.79-21-25.2 1.27-1.17 6.36 6.16 13.81 14.23 8 8.6 17.23 16.63 17.56 17.69m29.82-7.65c-2.22 2.36-3 5.39-1.72 7.65s1.63-3.22 3-4.81c1.2-1.39 1.94-1.17 3.91-2.57 3.35-2.36-2.4-3.28-5.2-.27m-12.67-50.47c-1.52-.25-1.47 2.07-1.26 3.7 1 7.34 4.31 13 8.71 18.32 2.68 3.25 10 9 10.86 8.1.31-.33-7-6-11.63-13.21-3.29-5.14-5-9.49-5.46-13.73-.05-.54.07-3-1.22-3.18m-28.41-108.76a54.64 54.64 0 01-9 3.37s-.26.57.48.51c4.92-.4 6.79-1 9.41-2.16s4.51-4.27 4.51-4.27 1.07-2-.9-.35a39.48 39.48 0 01-4.45 2.9M191.07 121a2.92 2.92 0 00-1.87.23c-.76.47-.54.85-.54.85a6.35 6.35 0 002 1c.83.12 2.61.9 2.55.3a5 5 0 00-1.43-2 1.68 1.68 0 00-.71-.4m-18.78 34.44c.19.4 3.55-.52 4.84-1.24 1-.57 1.41-2.48 1.41-2.48s.27-1.85-.16-1.13c-1.91 3.13-6.27 4.45-6.09 4.85m-.11-8.6c1.36-2.6-3.71 2.7-6.3 4.06-1.57.84-4.14 1.94-4.14 1.94s-.68.85.27.77 3.35.76 5.3-.75a37.22 37.22 0 002.5-3.33 11.92 11.92 0 002.37-2.69m-.78 11.06c.11.42 5.79.28 7.21-.15 1.13-.31 1.74-2.29 1.74-2.29s.68-1.74.09-1.16c-2.57 2.64-9.14 3.17-9 3.6M80.1 209.94s-.86-.31-1.93 1.3-5.84 8.87-5 9.93c1 1.27 5.16-6.49 6.42-7.93a3.1 3.1 0 00.75-3s0-.33-.24-.35M184.32 341c-.52 2.42.09 7.35.92 8.32 2 2.45.79-3.83 1.08-6a12.94 12.94 0 011.51-4.94c1.81-3.93-2.45-2.49-3.51 2.65M166.86 131a7 7 0 00-2.81.72 3.25 3.25 0 00-1.55 1.64 1.83 1.83 0 00-.09 1.07c.37.82 2.07-.43 3.27 0a4.19 4.19 0 012.16 1.52c.64.77 1.77 1.87 2.48 1.24s.46-2.19.46-2.19-.84-2.57-1.93-3.29a3.57 3.57 0 00-2-.69M140.66 149s-.88.14-.68 1.22.79.89.79.89 1.83-.78 1.72-1.88-1.83-.23-1.83-.23m-12.79-5.71a2.15 2.15 0 00-1.64 1.23 14.72 14.72 0 00-1 2.41s-.32 1.56.24 2 1.17-1 2-1.59c.48-.35.79-.5 1.29-.86.68-.47 1.8.13 1.72-1.25a2.37 2.37 0 00-2.54-2m41.27-14.83s-2.18-.31-2.1.52 1.18.32 1.89.64a5.38 5.38 0 011.71.94c.4.36.36 1.07.86 1.09.69 0 .55-.27.55-.27a5.89 5.89 0 00-1.45-2.41 2.69 2.69 0 00-1.46-.51m24.28 8.78a12.58 12.58 0 01-.49 1.59s-.62 2.41 1.81 1.52a13 13 0 002.92-1.37c1.73-.84 1.7-.37 3-.31a5.22 5.22 0 001.35-.09c.56-.13.33-.77-.9-1.1a21.37 21.37 0 00-4.82-.29c-1.11 0-2.51-1.14-2.83.05m1.04-8.9a2.92 2.92 0 00-1.88.22c-.75.47-.52.85-.52.85a5.73 5.73 0 002 1c.83.14 2.61.91 2.55.3a5.36 5.36 0 00-1.43-2 1.94 1.94 0 00-.72-.39m4.27 16.74a3.46 3.46 0 00-2 .22c-.8.44-.58.81-.58.81a7 7 0 002.15 1c.9.13 2.8.85 2.73.27s-1.16-1.62-1.51-1.9a2 2 0 00-.79-.37m.37 6.02a3.34 3.34 0 00-2.12.24c-.86.52-.6.93-.6.93a6.46 6.46 0 002.26 1.13c.94.15 3 1 2.88.32a5.43 5.43 0 00-1.62-2.18 2 2 0 00-.8-.44m.57 5.95a3.51 3.51 0 00-2.29.27c-.94.59-.65 1.06-.65 1.06a7.41 7.41 0 002.43 1.27c1 .16 3.23 1.11 3.14.36a6.23 6.23 0 00-1.75-2.47 2.11 2.11 0 00-.88-.49m-.12 7.27a3.61 3.61 0 00-2.29.28c-.94.57-.68 1-.68 1a7.63 7.63 0 002.46 1.28c1 .16 3.22 1.11 3.12.37a6.47 6.47 0 00-1.73-2.48 2.31 2.31 0 00-.88-.49m-1 14.28a3.56 3.56 0 00-2.31.29c-.92.58-.65 1-.65 1a7.34 7.34 0 002.44 1.28c1 .15 3.23 1.11 3.14.36a6.54 6.54 0 00-1.76-2.48 2.16 2.16 0 00-.86-.49m.92-7.08a4.08 4.08 0 00-2.67.32c-1.07.66-.74 1.2-.74 1.2a8.18 8.18 0 002.83 1.47c1.17.2 3.72 1.28 3.63.44a7.43 7.43 0 00-2-2.87 2.54 2.54 0 00-1-.56M198 185a2.84 2.84 0 00-1.9.22c-.77.47-.53.85-.53.85a5.72 5.72 0 002 1.05c.85.14 2.65.92 2.59.3a5.47 5.47 0 00-1.45-2 1.71 1.71 0 00-.71-.42m-1.1 6.13a2.45 2.45 0 00-1.56.19c-.62.39-.44.71-.44.71a5.1 5.1 0 001.67.87c.69.11 2.21.77 2.15.24a4.44 4.44 0 00-1.2-1.68 1.66 1.66 0 00-.62-.33m-1.32 5.63a2.15 2.15 0 00-1.41.17c-.56.34-.4.64-.4.64a4.4 4.4 0 001.51.78c.63.11 2 .69 1.92.23a3.93 3.93 0 00-1.06-1.53 1.4 1.4 0 00-.56-.29m-1.32 4.62a2.19 2.19 0 00-1.42.15c-.58.36-.41.64-.41.64a4.29 4.29 0 001.51.79c.63.1 2 .69 1.92.22a3.64 3.64 0 00-1.08-1.51 1.2 1.2 0 00-.52-.29m-1.61 5.35a1.82 1.82 0 00-1.16.12c-.46.3-.31.53-.31.53a3.77 3.77 0 001.22.64c.51.08 1.61.56 1.55.17a3.33 3.33 0 00-.86-1.23 1 1 0 00-.44-.23m-1.93 5.01a1.51 1.51 0 00-1 .1c-.4.26-.28.46-.28.46a3.09 3.09 0 001 .53c.43.09 1.38.5 1.33.17a2.72 2.72 0 00-.73-1.06 1.12 1.12 0 00-.39-.2m-1.91 4.76a1.56 1.56 0 00-1 .12c-.39.24-.25.44-.25.44a2.93 2.93 0 001 .55c.45.07 1.39.47 1.34.17a2.67 2.67 0 00-.74-1.08.9.9 0 00-.38-.2M60 240.72s-1 1.92-.5 3 1.78-1.72 1.78-1.72 1.39-2.74.82-3.24-.9.91-2.14 1.95"/><path d="M200 487.68V484c0-8.5 4.29-10.16 16.83-10.22 11.54.06 15.62 1.51 15.62 8.83v28.26h4.26v6.37H208.5c-5.93 0-9.81-4.08-9.81-9.09v-5.73c0-4.93 2.52-9.24 11.35-9.29h11v-8.6c0-4.49-.31-5-4.82-5-5.4 0-5.76.71-5.76 5v3.2H200m13.08 10.14c-2.22 0-3.52 1.79-3.52 4v5.46c0 2.2.94 4 3.52 4h4c2.18 0 4-.68 4-4v-9.46h-8zm-39.9-13.49v-9.88h-15.73v5.88h4.2v30.43h-4.2v6.38h19.7v-6.38h-4V494.5c0-1.52 9.27-13.23 9.27-11.88v16.2h10.89v-18.23c0-4.17-2.73-6.86-7.69-6.86-5.91 0-9.9 7.43-12.47 10.65m125.35 26.4V474.5h-16.05v5.88h4.5v30.4h-4.5v6.41h20.27v-6.41h-4.22m-165.78-26.4v-9.88H117v5.88h4.19v30.43H117v6.38h19.68v-6.38h-4V494.5c0-1.52 9.26-13.23 9.26-11.88v16.2h10.89v-18.23c0-4.17-2.71-6.86-7.69-6.86-5.89 0-9.89 7.43-12.46 10.65"/><path d="M111 503.21h-11v3.2c0 4.34-.73 4.52-6.1 4.58h-.08c-6.16 0-5.82-.58-5.75-4.58v-7.59h23v-16.47c0-6-4.5-8.48-16.39-8.53h-1.8c-12.84.07-16.25 3-16.25 10.37v24.12c0 8.13 4.79 9.5 16.49 9.82h1.27c12.76-.29 16.59-1.17 16.59-8.76v-6.16M88.16 483c0-2.24.67-3.35 3.24-3.38h4.84c2 0 3.12.89 3.12 2.49v12.35h-11.2V483z" fill-rule="evenodd"/><path fill="none" stroke="#000" stroke-miterlimit="10" stroke-width=".74" d="M292.69 465.73v-7.72"/><path d="M256.69 484.38v-9.88H241v5.88h4.18v30.43H241v6.38h19.69v-6.38h-3.95V494.5c0-1.52 9.24-13.23 9.24-11.88v16.2h10.91v-18.23c0-4.17-2.74-6.86-7.72-6.86-5.88 0-9.88 7.43-12.43 10.65"/><path d="M62.87 496.44v-5.69h-6.13v20.07h10.62v6.37H36.22v-6.37h8.29v-45.09H38v-7.75h242.58v7.75H56.74v18.11h6.13v-5.35h7.06v17.95h-7.06m223.91-38.74h11.57v7.63h-11.57z"/></g></g></svg>