<svg xmlns="http://www.w3.org/2000/svg" viewBox="0 0 600 122.7"><defs><style>.cls-1{fill:#3d3f56}</style></defs><g id="Слой_2" data-name="Слой 2"><g id="layer"><path class="cls-1" d="M83.7 86.3a36.32 36.32 0 01-36.3 36.4V36.4A36.32 36.32 0 0183.7 0z"/><circle cx="18.1" cy="104.6" r="18.1" fill="#f64343"/><path class="cls-1" d="M195.8 17.5a9.09 9.09 0 012.7-6.4 9.17 9.17 0 0113 0 9.09 9.09 0 012.7 6.4V85a33.46 33.46 0 01-33.4 33.4 8.69 8.69 0 01-6.4-2.7 8.54 8.54 0 01-2.7-6.4 9.09 9.09 0 012.7-6.4 8.54 8.54 0 016.4-2.7 14.51 14.51 0 0010.7-4.5 14.71 14.71 0 004.3-10.7zm91.5 100.8a52.94 52.94 0 01-38.9-16.2 53.17 53.17 0 01-16.2-38.9 53 53 0 0116.2-39 53.07 53.07 0 0138.9-16.1 53.62 53.62 0 0139 16.1 53.3 53.3 0 0116.1 39 53.24 53.24 0 01-16.1 38.9 53 53 0 01-39 16.2zm0-92a35.72 35.72 0 00-26.1 10.8 35.65 35.65 0 00-10.9 26.1 35.65 35.65 0 0010.9 26.1 36.79 36.79 0 0052 .2l.2-.2a36 36 0 0010.8-26.1 35.47 35.47 0 00-10.7-26.1 36 36 0 00-26.2-10.8zm126.1 92a52.94 52.94 0 01-38.9-16.2 53.17 53.17 0 01-16.2-38.9 53 53 0 0116.2-39 55 55 0 0177.8 0 53.3 53.3 0 0116.1 39 53.24 53.24 0 01-16.1 38.9 52.94 52.94 0 01-38.9 16.2zm0-92a35.24 35.24 0 00-26.2 10.8 35.65 35.65 0 00-10.9 26.1 35.65 35.65 0 0010.9 26.1 36.79 36.79 0 0052 .2l.2-.2a36 36 0 0010.8-26.1 36.87 36.87 0 00-36.8-36.9zM593.2 8.4a8.81 8.81 0 014.9 3.3 8.87 8.87 0 011.9 5.4v92.2a9 9 0 01-15.4 6.4 8.6 8.6 0 01-2.6-6.4V49.6l-28.6 47.2-.3.5v.3l-.4.4-.9.6-.3.3-.4.4-.5.3-.5.3h-.4a9.37 9.37 0 01-3.7.7h-.3a11.8 11.8 0 01-2-.4h-1.1l-.6-.3-.5-.4-2-.6-.3-.3-.3-.3-.4-.4v-.3l-.4-.5-28.9-47.5v59.7a8.69 8.69 0 01-2.7 6.4 8.54 8.54 0 01-6.2 2.6 9.16 9.16 0 01-9-9V17.2a8.11 8.11 0 011.9-5.4 8.81 8.81 0 014.9-3.3 9.1 9.1 0 0110.2 4.1L546 74.9l37.7-62.3a8.66 8.66 0 014-3.8l2.8-1.1z"/></g></g></svg>