<svg xmlns="http://www.w3.org/2000/svg" viewBox="0 0 241.06 291.57"><path d="M178 0h62.09v14c-5.26.23-10.64.82-15.48 3a21.93 21.93 0 00-11.11 11.2q-37.74 88.74-75.44 177.48c-.44 1-.79 2-1.3 2.92-9-.11-18 0-27 0-4-7.89-7.88-15.82-11.89-23.69q-6.87 18.4-13.8 36.84h89.08c5.43.08 11-.15 16.12-2.27 8.45-3.4 15.18-10 20.65-17.08 6.61-8.62 11.63-18.32 16.1-28.18 5-.05 10 0 15 0q-14.26 30.45-28.64 60.83H7.16c1.66-4.35 3.25-8.73 5-13 .11-.44.67-.33 1-.37 8.54-.06 17.14-.4 25.52-2.17 4.37-1 8.88-2.39 12.23-5.51 1.78-1.69 2.33-4.16 2.92-6.44Q66 175.08 78.12 142.65 52.49 88 26.78 33.43c-1.37-3.18-3.19-6.34-6.05-8.41C14.81 20.59 7.13 20 0 19.74V4.09h72.07v15.65c-3.13.2-6.45.15-9.28 1.7a3.47 3.47 0 00-1.87 3.86c.44 2.49 2.41 4.27 3.4 6.51q15.22 32.77 30.46 65.55Q102.43 76 110.09 54.6a8.42 8.42 0 00.16-6.26 6.71 6.71 0 00-3.7-3.2c-2.93-1.2-6.15-1.19-9.25-1.41q2.37-6.61 4.82-13.19c.38-.25.91-.06 1.34-.12h73.13q-2.52 6.63-5 13.28c-5.87.27-11.93.42-17.43 2.71a13.73 13.73 0 00-6.4 5 31.85 31.85 0 00-2.38 5.49c-10.18 27.77-20.46 55.51-30.53 83.33 5.58 12.61 11.39 25.11 17.08 37.66q31-73.17 62-146.36c1.4-2.93 3.67-5.61 3.85-9 .17-2.64-1.79-4.92-4.06-6-4.91-2.23-10.41-2.34-15.72-2.53V0zm37.59 262.7q9.78 10.14 19.45 20.37v-19h3.36v27.12c-6.53-6.72-13-13.53-19.46-20.29v19.12h-3.35V262.7zm-189.89.93c7.19-1.1 14.79 4.53 15.43 11.85A13.37 13.37 0 0137 286.94c-5 4.93-14.12 4.84-19-.27a13.22 13.22 0 01-4-9.95c.08-6.43 5.39-12.17 11.68-13.09m0 3.32a10.24 10.24 0 00-8.18 8.52 10.49 10.49 0 006.69 11.37 10.18 10.18 0 0011.43-3.33 10.69 10.69 0 00-1.33-14.33 10.19 10.19 0 00-8.58-2.18zM77.6 265c3.69-2.76 9.7-1.62 11.83 2.56l-2.67 1.5a5.12 5.12 0 00-7.63-1c-.91.66-.81 1.88-.71 2.88.26 1.3 1.65 1.85 2.67 2.47 2.64 1.38 5.81 2.18 7.66 4.7a7.92 7.92 0 01-.53 9.6 8.6 8.6 0 01-10 2.05 9.12 9.12 0 01-4.6-6.6c1.13-.27 2.27-.51 3.4-.77.12 2.47 2 5 4.64 5 3.52.39 6.32-4.19 4.27-7.11s-6.41-3-8.93-5.59a6.26 6.26 0 01.6-9.69zm120.16-1.38a13.92 13.92 0 0112.46 5.31 13.44 13.44 0 01-12.32 21.55 13.23 13.23 0 01-9.69-5.54 13.61 13.61 0 019.55-21.32m-.58 3.38a10.24 10.24 0 00-8 11.56 10.41 10.41 0 0010.23 8.88 10.15 10.15 0 008.45-4.67 10.52 10.52 0 00-1.53-13.27 10.1 10.1 0 00-9.15-2.5zM2.7 264.05h3.21v23h8v3H2.7zm41.03.02h3.41v15.33c.05 2.24.33 4.71 1.92 6.44 2.53 2.48 7.49 2.13 9.25-1.09a9.6 9.6 0 001.13-5v-15.66h3.4v16a10.87 10.87 0 01-2 6.92c-3.32 4.61-11 4.87-14.66.52a10 10 0 01-2.47-6.82c.01-5.57.03-11.11.02-16.64zm23.27-.01h3.35v26H67v-26zm33.64.02h3.69q3.87 9.46 7.65 19c2.53-6.31 5.13-12.58 7.59-18.91 1.27-.1 2.54 0 3.8-.05q-5.66 13.77-11.35 27.52c-3.87-9.2-7.6-18.4-11.38-27.56zm24.27-.03h3.35v15.09c.08 2.39.26 5.1 2.09 6.86a6.44 6.44 0 007.7.32 6.3 6.3 0 002.31-4 52.34 52.34 0 00.31-8V264.1H144v14.18c.07 2.93 0 6.11-1.8 8.59-3.13 4.5-10.32 5-14.27 1.33a9.9 9.9 0 01-3-7.19c-.04-5.68-.01-11.32-.02-16.96zm23.26.02h3.5v26h-3.52c-.01-8.71.03-17.35.02-26zm5.59 0h31.39v3.11h-6v22.84h-3.51v-22.84H163.3v22.84h-3.22v-22.84h-6.32z" data-name="Слой 2"/></svg>