<svg xmlns="http://www.w3.org/2000/svg" viewBox="0 0 583.02 82.8"><g data-name="Слой 2"><path d="M330.72 82.8V69.11h-38.16V46.88h28.72V33.74h-28.72V13.68h38.16V0h-52.81v82.8h52.81zM359.17 0v82.8h54.8V69.11h-40.15V0h-14.65zm75.54 0v82.8h54.8V69.11h-40.15V0h-14.65zM171.23 82.8L135.81.62a.84.84 0 00-1.62 0L95.61 82.8h14.65l8.68-18.49h29.68l8 18.49zm-47.57-31.32l10.81-23 9.92 23zM583 82.8L547.6.62a.83.83 0 00-1.61 0L507.41 82.8h14.65l8.67-18.49h29.69l8 18.49zm-47.54-31.32l10.81-23 9.92 23zM76.6.48c-.45 0-.87.42-1.23.83L37.92 42.16 2.05 1.31C1.7.9 1.3.48.87.48a.83.83 0 00-.87.83V82.8h14.15V34.48l23.77 27.08 24.81-27.08V82.8h14.78V1.31a.85.85 0 00-.91-.83zM251.83 82.8L233.13 49a25.28 25.28 0 00-8.85-49H191v82.8h14.65V50.55h12.58l17.85 32.25zm-46.15-68.7h18a11.8 11.8 0 110 23.6h-18z" fill="#201600" data-name="Layer 1"/></g></svg>