<svg xmlns="http://www.w3.org/2000/svg" viewBox="0 0 655.58 400.14"><defs><clipPath id="a"><path fill="none" d="M0 .02h655.67v405.56H0z"/></clipPath></defs><g data-name="Слой 2"><path d="M618.31 357.89c2.08 0 17.17.64 17.05-29.45-.11-27.93-14.79-27.1-17.19-27.1-2.4 0-17.08-.83-17.2 27.1-.14 30.09 15 29.45 17 29.45zm.06 10.24c-5 .08-37.68-1.05-37.68-38.28s32.48-37.61 37.48-37.58 37.35.47 37.41 37.58S623 368.21 618 368.13m-46.65-71.67v9.24c-3.8-1.62-6-2.81-10-3.9-3.17-.7-16.78-3.92-23.31 2.92-2.74 2.76-3.56 7.84 1.91 11.79 7.71 5 18.73 7.29 27.77 14.68 5.94 4.68 7.86 10.2 6.35 18.63s-10.91 15.49-19.31 17.25c-12.24 2.46-26 1.31-36.9-3.3l.07-9.1c10 4.19 25.6 9.53 35.26 1.05 2.68-2.45 4.29-5.9 2.89-9.49-2.18-6.58-20.14-10.5-31.09-18.66-10.89-6.67-9.9-18.13-6.1-24.44 10.24-15.34 36.22-11.1 52.48-6.67m-62.77 0v9.24c-3.83-1.62-6-2.81-10-3.9-3.14-.7-16.8-3.92-23.29 2.92-2.77 2.76-3.61 7.84 1.82 11.79 7.77 5 18.77 7.29 27.84 14.68 5.93 4.68 7.83 10.2 6.31 18.63s-10.95 15.49-19.28 17.25c-12.23 2.46-26 1.31-36.87-3.3v-9.1c10 4.19 25.59 9.53 35.3 1.05 2.59-2.45 4.23-5.9 2.86-9.49-2.23-6.58-20.17-10.5-31.11-18.66-10.86-6.67-9.89-18.13-6.11-24.44 10.24-15.34 36.23-11.1 52.51-6.67m-257.09 0v9.24c-3.86-1.62-6-2.81-10.06-3.9-3.16-.7-16.76-3.92-23.25 2.92-2.78 2.76-3.6 7.84 1.87 11.79 7.69 5 18.74 7.29 27.78 14.68 5.94 4.68 7.84 10.2 6.34 18.63s-10.94 15.49-19.3 17.25c-12.22 2.46-26 1.31-36.9-3.3l.05-9.1c10.06 4.19 25.62 9.53 35.31 1.05 2.63-2.45 4.24-5.9 2.83-9.49-2.17-6.58-20.1-10.5-31.08-18.66-10.86-6.67-9.86-18.13-6.12-24.44 10.27-15.34 36.27-11.1 52.54-6.67m-92.6 63.01c9.91 1 22-.53 31.69-.79v8.22h-52.42a6.94 6.94 0 001.64-4.56V298a7.22 7.22 0 00-1.64-4.61h52.46v8.22c-9.67-.16-21.78-1.74-31.69-.73v24.29a145.52 145.52 0 0025.29-.38v8.72a188.94 188.94 0 00-25.29-.41v2.8m257.37 23.57c9.9 1 22-.53 31.7-.79v8.22h-52.37a7 7 0 001.61-4.56V298a7.29 7.29 0 00-1.61-4.61H448v8.22c-9.71-.16-21.8-1.74-31.7-.73v24.29a146.15 146.15 0 0025.34-.38v8.72a189.33 189.33 0 00-25.31-.41v2.8M345 302.63v24.82c6.32 0 14 .84 18.37-4.24 3.74-5 3.1-11.37.62-15.91-4.39-7.4-19-4.67-19-4.67m.12 33.91v25.8a7.29 7.29 0 001.64 4.61l-22.4-.05a7.08 7.08 0 001.63-4.56v-64.37a7.29 7.29 0 00-1.61-4.61h38.2c10.38.44 21.37 6.17 21.69 18.65.12 10.18-4.39 16.06-11.18 19.32a11.39 11.39 0 00-1.65.75c4.82 11.21 9.18 19.46 15 30.26a11.94 11.94 0 003.52 4.56h-23.2s1.4-1.72 0-4.56c0 0-8.22-19.37-12.08-25.8m-72.52-33.82l-.08 27.63c6.4.43 14 1.14 18.37-4 3.74-5 3.14-14.55.63-19-4.39-7.44-18.92-4.65-18.92-4.65m.07 59.62a7.16 7.16 0 001.63 4.59h-22.39a6.9 6.9 0 001.66-4.56V298a7.18 7.18 0 00-1.66-4.61h37C307.75 293.7 315 298 318 307c2.31 7.89 2 18.12-3.62 24.53-7.49 9.94-32.23 8.48-32.23 8.48"/><g clip-path="url(#a)"><path d="M113.63 293.36a7.44 7.44 0 011.67 4.56v32.57C105.57 319 97 306 86.93 294.25a169.32 169.32 0 00-13.51-14.34C55.83 262.7 26.91 254.79 0 264.29v1.1c9.22-2 21.18-1.3 32.93 3.45 8.82 3.23 21.37 13 28.63 22C71 301.55 91 329.08 91 329.08c11.49 14.92 21.63 28.49 33.36 42.62v-73.78a7.65 7.65 0 011.67-4.56"/><path d="M61.35 367a7.37 7.37 0 01-1.67-4.56v-32.59c9.71 11.52 18.32 24.55 28.39 36.26a167.92 167.92 0 0013.49 14.35c17.6 17.22 46.47 25.12 73.42 15.59V395c-9.23 2-21.2 1.31-32.93-3.48-8.8-3.24-21.37-13-28.62-22C104 358.79 84 331.28 84 331.28c-11.5-14.92-21.64-28.53-33.38-42.61v73.76A7.35 7.35 0 0149 367"/></g><path d="M440.56 174.66c-26.94 9.51-55.83 1.61-73.42-15.61a166.08 166.08 0 01-13.51-14.34C343.62 133 335 120 325.26 108.45V141a7.38 7.38 0 001.67 4.57h-12.38a7.51 7.51 0 001.67-4.57V67.26C328 81.36 338.09 95 349.59 109.87c0 0 20 27.51 29.41 38.24 7.26 9 19.81 18.74 28.63 22 11.73 4.79 23.71 5.46 32.93 3.48v1.1zM265.58 44v-1.11c26.92-9.5 55.82-1.6 73.4 15.63a161.2 161.2 0 0113.51 14.32c10 11.73 18.65 24.72 28.39 36.26V76.52A7.42 7.42 0 00379.2 72h12.35a7.72 7.72 0 00-1.67 4.56v73.74c-11.73-14.12-21.85-27.71-33.34-42.61 0 0-20-27.54-29.41-38.24-7.25-9-19.82-18.77-28.62-22-11.76-4.76-23.7-5.45-32.93-3.45m-21.84 174.65H462.4V0H243.74z"/></g></svg>