<svg xmlns="http://www.w3.org/2000/svg" viewBox="0 0 496 332.43"><defs><style>.cls-2{fill:#039}</style></defs><g id="Слой_2" data-name="Слой 2"><g id="svg4259"><g id="layer1"><g id="g3532"><path id="path3534" d="M357.82 153.17s-20.6 6-60.46 30.45c-35.73 22-49.74 36.77-49.74 36.77L137.38 144.2s46.38-34.1 85.13-8l52 35.66 6.34-4.17L137.41 67.23s20.61-6 60.44-30.44C233.61 14.78 247.62 0 247.62 0l110.23 76.18s-46.37 34.11-85.13 8l-52-35.67-6.34 4.16z" fill="#e20a17"/></g><g id="g3536"><path id="path3538" class="cls-2" d="M272.45 257.1h-83.9v18.65h40.53l-42 39.17v15.63h85.17v-18.73h-42.33l42.53-39.07z"/></g><g id="g3540"><path id="path3542" class="cls-2" d="M139.15 332.43c33.56 0 42.15-8.57 42.15-27.47v-47.87h-26.58v45c0 7.56-6.47 12.07-15.57 12.07-9.46 0-15.55-4.53-15.55-12.19v-44.88H97V305c0 18.9 8.59 27.47 42.13 27.47"/></g><g id="g3544"><path id="path3546" class="cls-2" d="M321.16 332.43c33.55 0 42.14-8.57 42.14-27.47v-47.87h-26.58v45c0 7.56-6.48 12.07-15.56 12.07-9.47 0-15.58-4.53-15.58-12.19v-44.88H279V305c0 18.9 8.59 27.47 42.15 27.47"/></g><path id="path3548" class="cls-2" d="M496 257.1h-27.72v73.45H496V257.1z"/><g id="g3550"><path id="path3552" class="cls-2" d="M464.06 257.1h-36.47l-29.51 25.34V257.1h-27.72v73.45h27.72V304.5l27.41 26.05h37.24l-40.54-37.69z"/></g><g id="g3554"><path id="path3556" class="cls-2" d="M31.5 277.39c0-5.68 8.42-5.86 11.26-5.86s9.26 1.13 13.62 8.29h31.35C87.73 266 74.61 255 42.85 255c-35.27 0-41.27 15.45-41.27 24.34 0 16.39 12.69 21.19 40.3 24.14 2.36.24 16.72-.44 16.72 6.47 0 5.11-8.07 5.46-11 5.46s-8.48-.49-13-8.61H0c0 16.13 10.87 25.45 47.51 25.45 33.74 0 42.69-13.77 42.69-24.25 0-10.17-7-20.51-35.74-24.19-12-1.56-23-2.21-23-6.42"/></g></g></g></g></svg>