<svg xmlns="http://www.w3.org/2000/svg" viewBox="0 0 160.86 139.15"><defs><style>.cls-5{fill-rule:evenodd}.cls-2,.cls-5{fill:#fff}</style></defs><g id="Слой_2" data-name="Слой 2"><g id="svg39699"><g id="surface42898"><path id="path39462" d="M0 93V0h160.86v93l-80.42 46.15z" fill-rule="evenodd"/><path id="path39464" class="cls-2" d="M4.22 4.1h-.16v86.52l76.31 43.86h.11l76.18-43.86h.07V4.13z"/><path id="path39466" d="M8.3 8.18V55h144.24V8.16z" fill="#008c5c" fill-rule="evenodd"/><path id="path39468" d="M8.3 59.11v29.1l72.14 41.45 72.1-41.41V59.11z" fill="#eb192e" fill-rule="evenodd"/><path id="path39470" class="cls-5" d="M43.49 49.51V21.23h15V13.7h-40.6v7.53h15v28.28z"/><path id="path39472" class="cls-5" d="M141.19 48.84c-8.15 1.58-18.63 2-26.2-1A17.84 17.84 0 01103.72 34c-.87-7 2.18-13.09 8.69-17.18C120 12.1 132 12.26 140.26 15.5v7.79c-6.25-2.48-15.64-4.61-21.64-.68a10.6 10.6 0 00-4.56 11.85c.86 3.54 4.42 6.76 8.36 7.92a26.16 26.16 0 009.36.69v-5.79h-4.12v-7h13.53z"/><path id="path39474" class="cls-5" d="M78.08 22.59l-6.46 12.6H84.1zM68.7 42.47l-3.57 7H54.29l17.6-35.77H84l18 35.81H91.08l-3.74-7z"/><path id="path39476" class="cls-2" d="M92.21 115.71v-51l-.27-.26h-5.2l-.27.26v47.89l-6 3.29-6-3.29V64.69l-.27-.26h-5.29l-.17.07-.09.19v51l.14.23 11.51 6.62h.28l11.49-6.62z"/><path id="path39478" class="cls-2" d="M60.22 111h.25l.14-.23v-5.52l-.14-.25-11-6V85.66l9.9 2.54.2-.27v-5.45l-.25-.27L49.44 80V69.42h10.91l.26-.26v-4.47l-.26-.26H44.16l-.26.26v36.77l.12.25z"/><path id="path39480" class="cls-2" d="M118.09 100.83v-5l-.14-.23h-.25l-10.84 5.92V86.83L117 84.26l.2-.27v-4.87l-.11-.21-.16-.07-10 2.2V69.42h11l.26-.26v-4.47l-.26-.26h-16.29l-.27.26v45.45l.13.24h.28l16.22-9.32z"/><path id="path39482" class="cls-2" d="M30.24 93.81l4.47 2.58H35l.13-.22V64.69l-.27-.28h-4.48l-.26.28v11.08l-10.77-2.35v-8.73l-.26-.28h-4.44l-.17.09-.09.19v19.9l.14.23L19 87.33h.26l.14-.22V78l10.77 2.75v12.83z"/><path id="path39484" class="cls-2" d="M131.48 69.42h9.39a.77.77 0 01.74.78v2.37c0 .55-.09.83-.81 1l-9.32 2zM126.55 96h.28l4.61-2.6V80.54l2.71-.7 7.97 7.16.35.07 4.05-2.36.12-.18v-.15l-7-5.9 4.91-1.25c1.64-.4 1.9-1.18 1.89-2.83v-8.09a2.15 2.15 0 00-2.29-1.85h-17.46l-.26.33v31l.12.22"/></g></g></g></svg>