<svg xmlns="http://www.w3.org/2000/svg" viewBox="0 0 389.07 139.84"><defs><style>.cls-1{fill:#231f20}.cls-2{fill:#fff}</style></defs><g id="Слой_2" data-name="Слой 2"><g id="svg7893"><g id="g110"><path id="path112" class="cls-1" d="M25.52 138V89H0V74.18h71.09V89H46v49z"/></g><path id="path114" class="cls-1" d="M77.34 74.18h20.83V138H77.34V74.18z"/><g id="g116"><path id="path118" class="cls-1" d="M343.5 138V89H318V74.18h71.09V89H364v49z"/></g><g id="g120"><path id="path122" class="cls-1" d="M246.42 106c0-22.22 16.55-33.23 37-33.23s36.94 12.4 37 33.23-16.55 33.2-37 33.2-37-9.58-37-33.2m20.69 0c0 12.1 4.7 21.92 16.28 21.92 10.81 0 15.94-9.82 15.94-21.92s-5.91-22-15.94-22c-11.76 0-16.28 9.82-16.28 21.92"/></g><g id="g124"><path id="path126" class="cls-1" d="M196.37 138.54c-11.18-2.28-21.85-10.54-21-22.73h19.43c1.19 2.61.72 5.3 2.51 7.81a10.2 10.2 0 003.51 3.3 15.85 15.85 0 003.39 1.59 17.1 17.1 0 009.62-.1 8.46 8.46 0 005.27-4.52 5.49 5.49 0 00.1-4 12.35 12.35 0 00-1.12-2.07c-1.5-2.34-4.18-2.92-6.73-3.74-11.28-3.53-26.16-2.1-32.35-14a16.23 16.23 0 01-1-11.48 14.63 14.63 0 014.48-7 22.74 22.74 0 016.35-4.6c12-5.4 25.72-4.82 37.41.31 7 3 12.7 9.48 13 17.53h-18.47a13.33 13.33 0 00-5.41-8 14.38 14.38 0 00-11.79-1.57c-3.09.82-6.49 3.47-5.2 7 .75 2.14 3 3.12 5.2 3.7 10.3 2.79 20.59 3.33 29.94 9a14.53 14.53 0 017 12.7c-.21 16.74-16 22.17-31.17 22.17a66.14 66.14 0 01-13-1.3"/></g><g id="g128"><path id="path130" class="cls-1" d="M125.93 138.27c-11.18-2.28-21.82-10.54-21-22.74h19.4c1.19 2.62.71 5.34 2.52 7.82a10.13 10.13 0 003.53 3.29 16.31 16.31 0 003.4 1.6 17.23 17.23 0 009.58-.1 8.52 8.52 0 005.3-4.52 5.39 5.39 0 00.07-4 9.76 9.76 0 00-1.12-2.07c-1.46-2.35-4.15-2.92-6.7-3.74-11.31-3.53-26.2-2.11-32.38-14a16.64 16.64 0 01-1-11.49 14.72 14.72 0 014.48-7 23.29 23.29 0 016.35-4.59c12-5.4 25.76-4.83 37.45.3 6.93 3 12.67 9.49 13 17.54h-18.48a13 13 0 00-5.41-8c-3.56-2.38-7.68-2.65-11.79-1.6-3.06.82-6.45 3.47-5.2 7 .78 2.15 3.06 3.13 5.2 3.71 10.3 2.79 20.63 3.33 30 9a14.6 14.6 0 017 12.71c-.24 16.73-16 22.18-31.19 22.18a65.65 65.65 0 01-13-1.31"/></g><path id="path152" class="cls-1" d="M136.94.24h54.88v53.82h-54.88zm7.34 16.34h14.3v30.89H171V16.58h14V7.44h-40.72z"/><g id="g154"><path id="path156" class="cls-2" d="M158.58 47.47V16.58h-14.3V7.44H185v9.14h-14v30.89z"/></g><path id="path158" d="M198.31 0h55v54.27h-55zm7.54 33H220v14h11.89V33H246V20.93h-14.16V7H220v13.93h-14.1z" fill="#ed1c24"/><g id="g160"><path id="path162" class="cls-2" d="M220 47V33h-14.1V20.93H220V7h11.89v13.93h14.1V33h-14.1v14z"/></g></g></g></svg>