<svg xmlns="http://www.w3.org/2000/svg" viewBox="0 0 566.8 31.5"><g data-name="Слой 2"><g data-name="Слой 1"><path d="M268.8 23.4V8h23.6v15.4z" fill="#d61233"/><path d="M245.2 23.4V8.1h23.6v15.4h-23.6z" fill="#fff"/><path d="M58.3 0c-10 0-16.5 7.2-16.5 15.7 0 8.3 6.3 15.8 16.4 15.8 10.4 0 16.6-7.5 16.6-15.8C74.8 7.2 68.4 0 58.3 0zm423.6 0c-9.4 0-16.5 6.9-16.5 15.9s6.9 15.6 16.4 15.6a26.81 26.81 0 0011.7-2.5V16h-10.3v4h5.9v6.3a21 21 0 01-6.7 1.2c-7.3 0-12.4-4.8-12.4-11.7A11.63 11.63 0 01481.8 4a23.64 23.64 0 0111 3V2.6C488 .6 485.5 0 481.9 0zM0 .4v4h10.6v26.8H15V4.4h10.6v-4zm95.5 0v30.7h4.4V7.2h.1l9.5 11.9h.7l9.4-11.9h.1v23.9h4.4V.4H120L109.9 13 99.7.4zm53.6 0v30.7h4.4V7.2h.1l9.5 11.9h.7l9.5-11.9h.1v23.9h4.4V.4h-4.1L163.5 13 153.3.4zm47.8 0l11.4 14.5v16.2h4.4V14.9L224.1.4h-5.3L210.5 11 202.3.4zm48.3 0V8h47.2V.4zm72.3 0v30.7h4.4V17.7h17.2v13.4h4.4V.4h-4.4v13.4h-17.2V.4zm44.3 0v30.7h4.4V.4zm22.5 0v30.7h18.3v-4h-13.9V.4zm30.9 0v30.7h4.4V16.8h12v-4h-12V4.4h12v-4zm31.9 0v30.7h4.4V.4zm63.2 0v30.7h17.8v-4h-13.4v-9.5h12.6v-4h-12.6V4.4h13v-4zm32.9 0v30.7h4.4V17.8h1.8c2.3 0 4.1.7 8.1 7l4 6.3h5.3c-2.1-2.9-2.9-4-4.2-6.1-2.3-3.8-4-6.7-6.8-8.5a7.66 7.66 0 005.1-7.5c0-5.3-3.9-8.6-10.1-8.6zM58.3 4c6.9 0 12 5 12 11.7s-5.1 11.7-12 11.7a11.52 11.52 0 01-11.9-11.7A11.52 11.52 0 0158.3 4zm489.3.2h2.8c4.3 0 6 1.8 6 4.6 0 2.6-1.3 5-6 5h-2.8zM245.2 23.4v7.7h47.2v-7.7z" fill="#02154e"/></g></g></svg>