<svg xmlns="http://www.w3.org/2000/svg" viewBox="0 0 1000 420.63"><path d="M948.71 408.18L800.55.27l-.1-.27h-2.92L767 83.82l-55.53 152.61-.13-.12c-19.25-17-46.41-27.61-80.61-31.56l-10.43-1.08 10.35-1.33c56.4-10.13 94.32-45.75 94.32-88.67 0-58.86-55.36-99.94-134.65-99.94h-165v3h47.94v304.1L356.84.27l-.1-.27h-2.92l-30.51 83.82-117.68 323.31-.72.08q-3 .38-6 .6c-3 .23-5.91.37-8.86.37H71.18l226-391.47 1.68-3H22.45v121.16h2.94c.52-59 34.87-118.16 110.77-118.16h91.56L0 411.11h306.78v-116h-2.93c-.4 51.41-29.54 100.24-92.92 111.27l-2 .34L257.18 274h135.21l48.72 134.14h-48.06v2.93h188.64v-2.93h-48.27V205.83h55.69c56.68 0 89.18 25.33 89.18 69.45v35.89c0 4 .27 9.74.57 14.58v.17l-29.94 82.24h-39.1v2.93h80.95v-2.93h-38.69l27.26-74.89c.06.73.08 1.16.08 1.16l.75 6.75.73 4.47c4.55 27.61 15.11 47.91 31.38 60.33l2.34 1.7c12.36 8.59 27.72 12.95 45.69 12.95 23.78 0 39.65-5.93 52.74-19.89l-1.71-1.62c-12.07 11.14-22.2 15.65-34.88 15.65-21.62 0-32.94-26.22-32.94-52.08V312.4a112.89 112.89 0 00-5.78-36.73l-.54-1.56v-.05h98.9l48.72 134.14h-48.06v2.93H1000v-2.93zM258.26 271.1l66.61-183 66.45 183zm275.19-68.21V16.71H576c56.78 0 86.76 33.76 86.76 97.59 0 67.88-17.2 88.59-73.61 88.59zm202.6 68.21l-.29-.72a90.75 90.75 0 00-18.85-28.77l-2.78-2.79-.3-.28 54.71-150.43L835 271.1z" data-name="Слой 2"/></svg>