<svg version="1.1" id="Слой_1" xmlns="http://www.w3.org/2000/svg" x="0" y="0" viewBox="0 0 850 850" xml:space="preserve"><style>.st1{fill:#00a120;stroke:#263138;stroke-width:2.8346;stroke-miterlimit:22.9256}.st1,.st2,.st3,.st4,.st5{fill-rule:evenodd;clip-rule:evenodd}.st2{fill:#fefefe;stroke:#263138;stroke-width:2.8346;stroke-miterlimit:22.9256}.st3{fill:#d1d1d1}.st4,.st5{fill:none;stroke:#263138;stroke-width:2.8346;stroke-miterlimit:22.9256}.st5{fill:#fff}.st10,.st11,.st12,.st13,.st6,.st7{fill-rule:evenodd;clip-rule:evenodd}.st6{fill:#fefefe}.st7{fill:#263138}.st10{fill:#d2d2d2}.st11{fill:#00a120}.st12{fill:#3f9cbd}.st13{fill:#263138;stroke:#263138;stroke-width:2.8346;stroke-miterlimit:22.9256}.st14,.st17,.st18,.st19{fill-rule:evenodd;clip-rule:evenodd;fill:#2482a3}.st17,.st18,.st19{stroke-miterlimit:22.9256;fill:#3f9cbd;stroke:#263138;stroke-width:2.8346}.st18,.st19{fill:none;stroke:#fefefe}.st19{stroke:#263138;stroke-dasharray:14.1732,8.5039}</style><switch><g><path fill-rule="evenodd" clip-rule="evenodd" fill="none" d="M0-.4h850.4V850H0z"/><path class="st1" d="M242.8 534.2C244.6 407 315.7 395.7 366 382.4c12.4-3.3 26.6.1 39.9 6.1 48.9 22 57.3 42.1 55.1 96.2 0 0 .3 46.6 6.7 85.2H235.5c.6-11.1 2.9-22.9 7.3-35.7z"/><path class="st2" d="M365.4 384.2c16.5-4.5 25-2.7 40.6 4.3 2.7 29.2-35.6 36.3-40.6-4.3z"/><path class="st2" d="M320.4 395.9c12-5.7 38.9-13.5 52.4-14.6.2 47.3-37.7 52.4-52.4 14.6z"/><path class="st3" d="M312.7 289c-32 2.9-37.9 50.6-3.9 59.8-12.5 29.1 20.3 49.1 43.5 26.3v-42.6l-.7 2.9c-24.1-5.3-37-24.8-38.9-46.4z"/><path class="st4" d="M308.7 288c-32.7 2.9-38.8 51.8-4 61.2-12.8 29.8 20.8 50.2 44.6 26.9v-43.6l-.7 3c-24.7-5.4-38-25.4-39.9-47.5z"/><path class="st5" d="M349.1 292.9V385c.3 21.1 40.7 20.4 40.4-.7l-.3-20.5 14.2-.2c16.4-.3 29.5-15.7 29.2-34.3l-.6-38.1c0-2.9-.4-5.8-1.1-8.5-2.3-49-76.8-41.5-81.8 10.2z"/><path class="st6" d="M356.2 218.5c126-34.4 106.2 101.5 33.7 55.1 0 0-1.9 15.7-31.8 20.5l-9.6 41.4c-56.2-12.4-53-100.4 7.7-117z"/><path class="st5" d="M415.3 333c-5.9 18.2-24 11.9-25.1-2.7l25.1 2.7z"/><path class="st3" d="M359.6 224.6c119.7-32.6 100.7 93.7 30.1 49 0 0-2.5 12.5-30.9 17.1l-7.8 39.7c-53.3-11.9-49-90.1 8.6-105.8z"/><path class="st4" d="M323.2 321.7c-27.9-28.8-16.6-89.7 32.8-103.2 126-34.4 106.2 101.5 33.7 55.1 0 0-5.5 14.5-30.9 17.1l-3.5 14.8"/><path class="st4" d="M410.4 299.9c.1 8.7 5.8 18.5 15.5 18.3 10.3 0 15.9-9.9 15.3-19.1-.5-8.4-6.3-16.3-15.3-16.1-9.7.2-15.6 8.3-15.5 16.9zm0-.2c-1.6-.9-5.2-2.2-10.6.6m-33 2.9L344 308m23-4.8c.2 10.5 7 19.6 16.4 19.5 9.4-.2 16.9-8.5 16.7-19.7-.2-11.2-7.5-18.5-16.9-18.3-9.5.1-16.2 9.3-16.2 18.5z"/><path class="st6" d="M322.9 318.6c.2 10.3 8.7 18.5 19.1 18.4 10.4-.2 18.7-8.7 18.5-19-.2-10.3-8.7-18.5-19.1-18.4-10.3.2-18.6 8.7-18.5 19z"/><path class="st4" d="M358.2 309.1c-3.4-5.5-9.5-9.1-16.5-8.9-10.5.2-18.9 8.8-18.7 19.2.2 10.4 8.8 18.7 19.3 18.6 5.7-.1 10.9-2.7 14.3-6.8"/><path class="st7" d="M383 304.4c0 3.1 2.6 5.5 5.6 5.5 3.1 0 5.5-2.6 5.5-5.6 0-3.1-2.6-5.5-5.6-5.5-3.1 0-5.5 2.5-5.5 5.6zm36.3-1.4c0 2.6 2.2 4.7 4.8 4.7 2.6 0 4.7-2.2 4.7-4.8 0-2.6-2.2-4.7-4.8-4.7-2.6 0-4.7 2.2-4.7 4.8z"/><path class="st5" d="M397.6 444.7h48.6v32.4h-48.6z"/><path class="st4" d="M406.8 455.8h30.3m-30.3 9.5h30.3M333.9 312.7c3.8-3.7 10-3.6 13.7.3 2 2.1 2.9 4.9 2.7 7.6m65-27.1c3.7-4.1 10.1-4.4 14.2-.6m-49.8 1.2c3.7-4.1 10.1-4.4 14.2-.6m11 28.9l7.8-5.2c-4.7-6.1-7.7-13.4-8.5-21.2m-14.7 67.8c-8.1.1-14.6-1.4-21.6-5m22.8-84.6c-20.4-14.6-5.3-40.8 11.1-33.6 13.4 5.9 6.4 26.6-10.1 19.4m-89.3 96.2c1.6-11 11.3-18.6 21.2-14.3 13.4 5.9 2.4 29.5-12.6 17.8m-12.3 131.5c1.5-6.7 4-12.9 7.8-19.3M279 289.8c8.7-4.1 18.3-4.4 26.8-1.4m-14.4-21c2.9 9.2 9.2 16.4 17.1 20.6"/><path class="st3" d="M98.9 575.8h541.2v203.9H98.9z"/><path class="st4" d="M92.3 775.7V569.8"/><path class="st3" d="M47.9 529.7h636v40.1h-636z"/><path class="st4" d="M569.9 569.8h-522v-40.1h443.4"/><path fill-rule="evenodd" clip-rule="evenodd" fill="#fff" d="M92.3 491.5h227.2v38.2H92.3z"/><path class="st6" d="M92.3 391.9h146.8v38.2H92.3z"/><path fill-rule="evenodd" clip-rule="evenodd" fill="#d2d2d2" stroke="#263138" stroke-width="2.835" stroke-miterlimit="22.926" d="M156.8 430.1h17.8v61.4h-17.8z"/><path class="st10" d="M98.5 396.8h140.6v33.4H98.5z"/><path class="st1" d="M106.2 401H222v13.4H106.2z"/><path class="st4" d="M92.3 391.9h146.8v38.2H92.3z"/><path class="st10" d="M98.8 497.5h220.7v32.2H98.8z"/><path class="st4" d="M92.3 491.5h227.2v38.2H92.3z"/><path class="st11" d="M256.3 597.6h122.1v180.6H256.3z"/><path class="st6" d="M189.2 643.1h173.2v135.1H189.2z"/><path class="st4" d="M189.2 778.2V643.1h131.5m-64.4 0v-46.8h99.8"/><path class="st12" d="M36.7 260.2H184v83.1H36.7z"/><path class="st4" d="M31.6 255.1h152.5v87.5H31.6z"/><circle transform="rotate(-9.404 130.769 128.524)" class="st11" cx="130.7" cy="128.5" r="66"/><circle transform="rotate(-67.5 122.712 131.756)" class="st4" cx="122.7" cy="131.8" r="66"/><path class="st3" d="M250.5 88.4h91.8v109.4h-91.8z"/><path class="st4" d="M242.7 196.7V81.6H343"/><path class="st3" d="M397.5 88.4h91.8v109.4h-91.8z"/><path class="st4" d="M389.7 196.7V81.6H490"/><path class="st6" d="M604.5 266.2h78V439h-78z"/><path class="st13" d="M814.7 658.4l-16 1.9 5-19.9 8.3-1.2z"/><path class="st4" d="M710.8 165.3c9.5 1.8 17.4 7.2 22.5 14.6m-18.4-13.7c7.9 5.5 12.9 13.7 14.6 22.5"/><path class="st2" d="M525.2 572.2l-16 25.3c1.1 3.1 8.8 20-.2 35.8-9.5 16.7-26 11.1-23.8.7 5.9-11 5-17 5.7-18.9-11.3-15.4-30.8.1-16.6 15.8 5.6 6.2-2.6 16.5-11 14.9-1.1 1.2-8.6 7.8-18.2-4.5-26.1-33.5 7.3-67.4 38.4-62.2l12-17.4 29.7 10.5z"/><path class="st7" d="M638.5 263.5c11.3 6.5 23.4 5.2 33.3 1.6l-19.6 41.7-21.9-27 8.2-16.3zm-58.4 394.8l96.3 3.8-1.6 117.7h-88l-6.7-121.5zM686 669.9h100.6l-7.5 109.8h-93V669.9z"/><path class="st7" d="M645.8 271l-29.5 170 20.6 56.3 28-88.1-8.1-136.6z"/><path class="st2" d="M553.9 553l-30.7 46.7-47.4-33.6 65.2-87zm98.7-289.6l22.4 48.9c25.4-22.5 20.5-38.5 33.9-68.4l-9.8-20.5c-18.3 24.3-14.8 24.5-46.5 40z"/><path class="st5" d="M648.7 264.7l-35.6 37.7.4-35.3 21.3-17.3c17.1 2.5 12.3 4.6 13.9 14.9z"/><path class="st14" d="M626.1 251c-37.3 59-14 111.9-4.6 163.2L697 735.4c-36.3 8-94.9 1.8-128.3-4.1l5.5-190.5-38 57.8c-23.8-18.3-47.1-32.8-64.1-45.5l83.1-101 37.6-168.5c3.3-4.1 19-20 33.3-32.6z"/><path class="st6" d="M656.6 212.6l-27.9 42.6c-41 62.5-14.6 162.7 3.6 199.2-26.4-51.8-46.7-96.9-69.6-153.9l32.5-18.6-11.9-41.2 73.3-28.1z"/><path class="st12" d="M661.3 212.5l-27.9 42.6c-41 62.5-7.4 182.8 10.8 219.4-26.4-51.8-51.9-114-74.8-171l31.4-18.8-12.8-44 73.3-28.2z"/><path class="st4" d="M621.6 436.9c-20.3-43.2-42-94.2-59.1-136.7l32.5-18.6-11.9-41.2 34.3-11.7m14.9 28c-26.4 40.3-21.6 103.4-10.7 153.8"/><path d="M617.4 744.6l4.8-289.7c3.2-129.8 55-139.7 81.9-221.2l75.8 40.6-9.9 116.8c5.5 59.7-4.9 76.1.8 117.7l30.8 226.6c-57 10.4-126.7 11.8-184.2 9.2z" fill-rule="evenodd" clip-rule="evenodd" fill="#2482a3" stroke="#263138" stroke-width="2.835" stroke-miterlimit="22.926"/><path class="st7" d="M689.1 146.2c6.5-37.9 47.1-11.1 22.7 15.7 27 18.3 5.7 55.6-27.1 48.7-20.9-19.4 33.9-26.7 4.4-64.4z"/><path class="st5" d="M658.4 85.8c-29.6-2.3-51.8 6.6-53.6 36.2l.4 68.7c.2 30.7 18.4 44.3 28.4 46.5l-1.4 20.9c18 20.9 56.9 3.3 69.3-31.2l-1.6-85.5c1.3-28.7-12.9-53.4-41.5-55.6z"/><path class="st7" d="M706.2 146.5c-1.5 6.7-7.8 14.2-13.4 16-3.5 1.1-6.9-.6-8.4-4.1-2.2-5.1-1.6-10.9-1.1-16.4.7-7.5 1.1-15.2-.3-22.6-1.4-7.4-4.9-14.7-10.8-19.4-5.9-4.7-14.5-6.4-21.3-3.1-4.2 2.1-7.3 5.7-11.2 8.3-3.5 2.3-7.8 3.7-11.9 3-4.1-.6-8-3.6-9.1-7.6-1.2-4.4 1.1-9.2 4.7-12.1 3.5-2.9 8.1-4.2 12.6-5.1 12.5-2.4 25.7-1.8 37.5 2.9s24.1 12.8 29.1 24.5c3.1 8.1 5.3 27.9 3.6 35.7z"/><path class="st4" d="M634.8 190.5l-13.5-2.7 6.4-38m1.7 61.3c7.3-6.3 16.5-9.1 25.4-8.5m-5.4-52.8c7.5-9.1 21.1-10.3 30.2-2.8m-6.4 79.6c-11.6 12.3-31.8 14.9-45.1 8.6"/><path class="st7" d="M637.3 165.8c5 23.6 40 20.5 39.9-3.1l-.1-9.4c-28.9 2.3-55.5 2.9-84.6.5l.4 12.8c.6 18.8 26.8 16.7 31 6.1l2-8.3c.5-7 9.9-5.3 11.4 1.4z"/><path class="st6" d="M725.7 157.2c-.1 9.1-7.7 16.4-16.9 16.2-9.2-.1-16.5-7.7-16.4-16.8.1-9.1 7.7-16.4 16.9-16.2 9.2.2 16.6 7.7 16.4 16.8z"/><path class="st4" d="M692.8 162.5c-1.4-5.5.1-11.6 4.4-16 6.5-6.6 16.9-6.6 23.4-.1s6.5 17.1 0 23.7c-3.5 3.6-8.3 5.2-12.9 4.9"/><path class="st4" d="M716 151.9c-3.4-3.3-8.8-3.2-12.1.2-1.8 1.9-2.6 4.3-2.4 6.7m-8.8-6l-56.6 4.4m-61.9 383.6l11.1-148.5"/><path class="st2" d="M719.9 660.9l16.4-2.3 2.5-9.9-8.7 34.7c-4.9 19.5 15.8 18.5 18 9l2.8-11.7c2.6 6.8 12.9 5.7 17.9-.9 3.8 5.1 12.7 4.4 15.4-2.3 4.9 5.3 13.4 4.2 15.2-4.2l3.5-16.1c2.6-12.1-2-29.2-12-34.9l7.2-53-39.1 3.5-11 52.3c-14.4 4.9-23.4 14.6-28.1 35.8z"/><path transform="rotate(-83.102 775.034 610.564)" class="st2" d="M764.9 580h20.4v61.1h-20.4z"/><path class="st2" d="M650.6 471.1l89.6-20.6 23.6 102.4-26.7 6.2h-66.2z"/><path class="st2" d="M667.8 476.7h91.9V559h-91.9z"/><path class="st4" d="M712 506.2h31.2M712 516h31.2M712 535.9h31.2m-31.2 9.8h31.2"/><path d="M685.8 506.8l8.7 8.7 15.1-15.1M685.8 537l8.7 8.7 15.1-15.1" fill="none" stroke="#00a120" stroke-width="4.252" stroke-miterlimit="22.926" fill-rule="evenodd" clip-rule="evenodd"/><path class="st14" d="M736.2 358.8l23.3 119.8-22.1 128.7 74.5 10.4 18.9-154-4-35-28.9-127.2c-13.7-60.6-107.1-24.8-61.7 57.3z"/><path class="st4" d="M735 394.3l24.5 84.3L737.3 608l74.6 9.7L829 485.5c2-15.4 3.4-32.1-.3-48.4L797.3 299c-11.3-49.8-78.6-29.5-75.4 23.3m-68.3 236.8h92.1m-172.3-5.5l15.1.6"/><path class="st17" d="M716.3 239.7l-6.5-35-63.8 25.7 14.9 58.1-33.7 8.8c-6.7 38.6-7.1 84.8-5.1 159.4 9.3-105.4 70.5-182 94.2-217z"/><path class="st12" d="M603.8 122.6l-45.7 19.3c45 20.6 149.4 9.9 200.8-28.7l-40.7-4.9-114.4 14.3z"/><path class="st14" d="M597.7 129.7l4.7-46.8c1.8-18.2 14.4-25.1 29.7-19.8 7.2 2.5 5.9 2.7 11.4-1.1 23.2-15.9 51.2-8.6 58.9 8.9l16.5 44.4c-39.1 11.3-81.1 20-121.2 14.4z"/><path class="st18" d="M656.5 53.2c-12 4.7-21.6 12.6-28.5 21.6"/><path class="st4" d="M654 52.9c-12 4.7-21 11-27.9 20M593.3 127l4.8-45.8c2.6-25.3 26.3-25 38.1-18.4 17.9-15.6 54.1-20.2 65.5 6l17.5 47.4c-40.5 11.8-84.3 16.6-125.9 10.8z"/><path class="st4" d="M594 123.1l-44 16.4c55.1 24.2 160.8 14 210.4-26.9l-43.4-4.5M462.1 597.9c-11.9 9.5-12.5 29.5-3 41.5 2 2.5 4.4 4.8 7.1 6.7"/><path class="st7" d="M594.4 127.2c-.1-7.5 0-13.2.5-20.8 39.7 5.1 78.3 1 116.9-9.8 1.8 6.8 6.2 13.4 8 21.5-40.5 11.7-83.7 14.9-125.4 9.1z"/><path class="st18" d="M598.4 105.3c19 1.8 37.6 2.6 56.1.4m-57.4 65.2c5.6 6.8 15.7 7.7 22.5 2.1m25.5-2.2c5.6 6.8 15.7 7.7 22.5 2.1"/><path class="st4" d="M617.8 737.6c-18.4-1.5-35.7-3.9-49-6.3l5.5-190.5-38 57.8c-23.8-18.3-47.1-32.8-64.1-45.5l83.1-101 24.5-110"/><path transform="rotate(-7.82 716.823 662.058)" class="st5" d="M704.8 656.9h24.4v10.7h-24.4z"/><path class="st13" d="M722.6 651.6l16-2-5 20-8.3 1.2z"/><path class="st4" d="M450.1 598c-8.9 12-8.1 31 1.4 43 2.3 2.9 5.1 5.5 8.2 7.7m290.5 34.7l3.8-15.9m15 12.6l1.9-8m13.6 5.9l1.9-7.9"/><circle transform="rotate(-89.927 669.2 670.785)" class="st2" cx="669.2" cy="670.8" r="45.3"/><path class="st17" d="M664.7 638.3c17.9-2.5 34.4 10.1 36.9 28s-10.1 34.4-28 36.9-34.4-10.1-36.9-28c-2.4-17.9 10.1-34.4 28-36.9z"/><path class="st18" d="M645.6 675.2c-2.8-11.8 4.6-23.7 16.5-26.5"/><circle transform="rotate(-13.286 639.736 441.203)" class="st7" cx="639.9" cy="441.3" r="9.1"/><path class="st18" d="M629.7 442.1c-.1-1.1 0-2.3.3-3.4 1.4-5.2 6.7-8.2 11.9-6.9"/><path class="st4" d="M639.8 440.8l15.1.6"/><path class="st7" d="M639.1 524.7c5 0 9.1-4.1 9.1-9.1s-4.1-9.1-9.1-9.1-9.1 4.1-9.1 9.1c-.1 5 4 9.1 9.1 9.1z"/><path class="st18" d="M628.9 516.4c-.1-1.1 0-2.3.3-3.4 1.4-5.2 6.7-8.2 11.9-6.9"/><path class="st4" d="M637.3 516.1l15.1.6"/><path class="st7" d="M640.6 592.6c5 0 9.1-4.1 9.1-9.1s-4.1-9.1-9.1-9.1-9.1 4.1-9.1 9.1c-.1 5 4 9.1 9.1 9.1z"/><path class="st18" d="M630.5 584.2c-.1-1.1 0-2.3.3-3.4 1.4-5.2 6.7-8.2 11.9-6.9"/><path class="st4" d="M639 582.8l15.1.6"/><path class="st19" d="M58.7 197.7h484.6"/><path class="st5" d="M137.5 175.7h40.4v32.4h-40.4z"/><path class="st4" d="M145.1 186.8h25.2m-25.2 8.5h25.2"/><path class="st19" d="M8.9 342.6h256.5"/><path class="st5" d="M88.1 322.7h40.4v32.4H88.1z"/><path class="st4" d="M95.7 333.8h25.2m-25.2 8.5h25.2"/><circle class="st7" cx="480.7" cy="620.2" r="14.5"/><path class="st4" d="M471.6 668.7l9.5-49.8M162.6 779.8L148.4 677l323.2-8.3-20.5 111.1zm-7.1-48.7h304.6m-153.7 47.1V672.9m72 105.3V671.1m-144 107.1V674.8"/></g></switch></svg>