<svg version="1.1" id="Слой_1" xmlns="http://www.w3.org/2000/svg" x="0" y="0" viewBox="0 0 850 850" xml:space="preserve"><style>.st0{fill-rule:evenodd;clip-rule:evenodd;fill:#2482a3}.st1{fill:none;stroke:#263138;stroke-width:2.8346;stroke-miterlimit:22.9256}.st1,.st2,.st3,.st4,.st5{fill-rule:evenodd;clip-rule:evenodd}.st2{fill:none;stroke:#fff;stroke-width:2.8346;stroke-miterlimit:22.9256}.st3{fill:#263138}.st4{fill:#fefefe}.st5{fill:#fff}.st6{fill:none;stroke:#263138;stroke-width:2.8346;stroke-miterlimit:10}.st6,.st8,.st9{fill-rule:evenodd;clip-rule:evenodd}.st8{fill:#fff;stroke:#263138;stroke-width:2.8346;stroke-miterlimit:22.9256}.st9{fill:#d1d1d1}.st12{fill:#00a120}.st12,.st14,.st15{fill-rule:evenodd;clip-rule:evenodd}.st14{fill:none;stroke:#00a120;stroke-width:4.252;stroke-miterlimit:22.9256}.st15{fill:#d2d2d2}</style><switch><g><path class="st0" d="M451.9 83.1h334.5v239.8H451.9z"/><path class="st1" d="M445.9 77.1h334.5v239.8H445.9z"/><path class="st2" d="M481.6 298.3v-14.5m43.1 14.5v-14.5m43.1 14.5v-14.5m43 14.5v-14.5m43.1 14.5v-14.5m43.1 14.5v-14.5M467.1 113h14.5m-14.5 43h14.5m-14.5 43.1h14.5m-14.5 43.1h14.5m-14.5 43.1h14.5"/><path class="st1" d="M481.6 285.3l43.1-28.4 43.1-14.7 43-62.1 43.1 19L697 156l37.4 5.2"/><path class="st3" d="M524.7 263.5c3.6 0 6.6-2.9 6.6-6.6 0-3.6-2.9-6.6-6.6-6.6-3.6 0-6.6 2.9-6.6 6.6 0 3.6 2.9 6.6 6.6 6.6zm43.1-14.7c3.6 0 6.6-2.9 6.6-6.6 0-3.6-2.9-6.6-6.6-6.6-3.6 0-6.6 2.9-6.6 6.6 0 3.6 2.9 6.6 6.6 6.6zm43-62.1c3.6 0 6.6-2.9 6.6-6.6 0-3.6-2.9-6.6-6.6-6.6-3.6 0-6.6 2.9-6.6 6.6.1 3.6 3 6.6 6.6 6.6zm43.1 19c3.6 0 6.6-2.9 6.6-6.6 0-3.6-2.9-6.6-6.6-6.6-3.6 0-6.6 2.9-6.6 6.6 0 3.7 3 6.6 6.6 6.6zm43.1-43.1c3.6 0 6.6-2.9 6.6-6.6 0-3.6-2.9-6.6-6.6-6.6-3.6 0-6.6 2.9-6.6 6.6 0 3.7 3 6.6 6.6 6.6z"/><path class="st2" d="M727.8 285.3H481.6V97.5"/><path class="st4" d="M524.7 227.5c3.6 0 6.6-2.9 6.6-6.6 0-3.6-2.9-6.6-6.6-6.6-3.6 0-6.6 2.9-6.6 6.6 0 3.6 2.9 6.6 6.6 6.6zm43.1-21.8c3.6 0 6.6-2.9 6.6-6.6 0-3.6-2.9-6.6-6.6-6.6-3.6 0-6.6 2.9-6.6 6.6 0 3.7 2.9 6.6 6.6 6.6zm43 21.8c3.6 0 6.6-2.9 6.6-6.6 0-3.6-2.9-6.6-6.6-6.6-3.6 0-6.6 2.9-6.6 6.6.1 3.6 3 6.6 6.6 6.6z"/><path class="st5" d="M653.9 162.6c3.6 0 6.6-2.9 6.6-6.6 0-3.6-2.9-6.6-6.6-6.6-3.6 0-6.6 2.9-6.6 6.6 0 3.7 3 6.6 6.6 6.6zm43.1 34c3.6 0 6.6-2.9 6.6-6.6 0-3.6-2.9-6.6-6.6-6.6-3.6 0-6.6 2.9-6.6 6.6 0 3.6 3 6.6 6.6 6.6z"/><path class="st2" d="M481.6 283.8l43.1-62.9 43.1-21.8 43 21.8 43.1-64.9 43.1 34 48.5-64.2"/><path class="st4" d="M324.9 386.8l-82.5-.2-51.3 14.1c-4.3 29.1 6.6 43 29.4 45l84.6 11.5 2.7 72.5s164.1.8 164.1 0v-56.8l12.5 3.5-.2-74.1-36.8-17.4c-6.1-3.9-12-6.6-17.8-8.2l-104.7 10.1zm203.3 109.6h48.3v19.2h-48.3v-19.2z"/><path class="st1" d="M484.3 402.3c-14.6-6.8-27.6-12.9-36.2-17-12.3-8-33.1-16.2-68-18.8-11.4 1.2-26.7 12.6-37.6 20.4l-147.4-.4s-21.2 51.9 22.1 58.8l87.8 11.9c3.7 34 2.8 82.1 2.3 86.8m160.1-72.4l17.7 4.9m43.2 12l-.1 27"/><path class="st6" d="M352.4 515.6s.8 27.6 2.1 54.2"/><path d="M367.5 388.9s19 3.3 30.3-14.7" fill-rule="evenodd" clip-rule="evenodd" fill="none" stroke="#1a1a1a" stroke-width="1.308" stroke-miterlimit="10"/><path class="st0" d="M352.1 517.5c-12-46.4-16.9-86.4 1.7-145 15.8-9.1 32.5-6.9 49.4-2.8-1.9 58.4-21.2 106.3-51.1 147.8z"/><path class="st8" d="M349.6 346.3l5.9 23.1c6.7 30.4 31.5 20.8 46 .8 0-6-17.6-38.4-17.6-38.4l-34.3 14.5z"/><path class="st9" d="M317 337.3c-7.9 2.3-32.8-.1-29.1-25.8 2.5-17.2-4.7-25.5-15.6-28.8-26.4-8-5.7-58.4 24.5-43.5 5.4 2.7 23 7.2 30.4-10.7 10.5-25.2 38.9-34.4 73.6-8.9 25.2-12.2 65.1-3.5 57.8 32.5-4 19.8-.8 28.9 22.8 37.7 28.1 14.5 22.1 42.9 11.6 54.1-12.7 13.7-33.2 19.1-48.1 3.9-7-7.1-22.2-12.1-31.1.7-9.6 13.9-27 16.5-34.8 1.9-16.2-29.5-33.3-21.5-62-13.1z"/><path class="st5" d="M335.1 237c-19.9 32.3-52 84.8-7.5 113.7 35.3 19.1 62.6-3.9 79.3-26.8 3.5 2.5 7.7 4 12.3 4 11.9.2 21.7-9.2 21.9-21.1.2-11.8-9.3-21.6-21.2-21.8-1.8 0-3.5.2-5.2.5.5-.8.9-1.7 1.3-2.5 3.8-9 5.3-27-20.2-30.6-12.1-1.7-17.9-9.4-20.7-17-4 2.3-9.3 3.8-15.9 2.8-13.1-1.8-16.8-3.1-24.1-1.2z"/><path class="st1" d="M417.1 327.7c-6.5-.8-12-4.5-15.4-9.5m26.8-18.2c-4.4-4.3-11.4-4.1-15.7.3-2.3 2.4-3.4 5.6-3.1 8.7m-31.4-118c9.5 5.1 18.2 15.7 21.2 25.3M341.3 269c-2.1 8.7-10.6 17.3-21.1 15.1-11.2-2.2-14.9-13.3-12.1-22.5 2.5-8.3 10.6-15 20.3-12.9 10.5 2.3 15 11.7 12.9 20.3zm46.6 12.6l23.6 9.7m-23.8-9.7c-2.6 10.5-12.1 18.2-22.3 16-10.2-2.2-16.4-12.1-13.6-23.4 2.8-11.2 12.4-16.9 22.6-14.8s15.4 13 13.3 22.2z"/><path class="st3" d="M370 279.4c-.8 3.1-4.1 5-7.4 4.3-3.3-.7-5.4-3.8-4.6-6.8.8-3.1 4.1-5 7.4-4.3 3.3.6 5.3 3.7 4.6 6.8zm-38.1-11.2c-.7 2.6-3.5 4.2-6.3 3.6-2.8-.6-4.6-3.2-3.9-5.8.7-2.6 3.5-4.2 6.3-3.6 2.8.6 4.5 3.2 3.9 5.8z"/><path class="st1" d="M338 261.7c-3.1-4.9-9.9-6.6-15.3-3.7m53.3 11.7c-3.1-4.9-9.9-6.6-15.3-3.7m38.9-49.7c-6.4-29 17.2-36 24.9-28.4 11.4 11.2-5.9 24.9-13.2 12.2"/><path class="st3" d="M357.2 383.7c7.6 7.9 34.2 7.4 42.4 4.5l-31.4 25.6 11.2 70.3-27.9 34.3-18.9-38.3 27.6-66.9-12.2-15.4 9.2-14.1z"/><path class="st5" d="M367.8 388.3l18.4 40.1c21.2-18.7 14.8-23.5 26-48.3l-12.4-14.3c-6.1 10.6-19.1 19.6-32 22.5z"/><path class="st0" d="M373.1 391.2l18.1 38.7c21-18.9 14.7-23.6 25.6-48.5l-12.1-15.7c-5 10.7-16.1 19.8-31.6 25.5z"/><path d="M368 388.9l-36.4 22.9 3.3-21 20.8-20.3c2.7 8.7 6.8 16.6 12.3 18.4z" fill-rule="evenodd" clip-rule="evenodd" fill="#2482a3" stroke="#263138" stroke-width="2.835" stroke-miterlimit="22.926"/><path class="st8" d="M354.8 369.6c-15.5 4.6-32.1 15.2-46.3 34.3l24 7.4-30.9 17.1 50.8 88.9v-1.7c-13-74.4-9.3-113.2 2.4-146z"/><path class="st5" d="M402.7 364c-11.2 54.8-29.2 105.4-50.7 153.8l49.6-45 5.7-5.1 3.4-3.1 26-23.6-25.4-27.5 34.6-15.6c-8.9-15-15-28.2-43.2-33.9z"/><path class="st6" d="M439.4 380.5c7.8 4.3 17.3 14.3 20.8 29.7M322 244.4c7.5-6.6 15.3-9.9 29.2-7.2"/><circle class="st1" cx="368.6" cy="518.6" r="7.4"/><path class="st8" d="M239.9 379.9l.2-45.5h-37.8l-9.1 51.4c10.4 5.3 35.9 2.9 46.7-5.9z"/><path class="st8" d="M191 366.1c7.5 4.8 37.1 11.4 52.7-2.2l-1.8 29.5s-24.2 17.3-57.4 5.3l6.5-32.6z"/><path class="st6" d="M238.7 395.4c-2.4 11-12.7 17.4-21.3 19.9"/><path class="st1" d="M378.2 351c11.5-6.5 21.2-16.8 28.7-27.1 3.5 2.5 7.7 4 12.3 4 11.9.2 21.7-9.2 21.9-21.1.2-11.8-9.3-21.6-21.2-21.8-1.8 0-3.5.2-5.2.5.5-.8.9-1.7 1.3-2.5 3.8-9 5.3-27-20.2-30.6-12.1-1.7-17.9-9.4-20.7-17-4 2.3-9.3 3.8-15.9 2.8-13.1-1.9-16.8-3.2-24.1-1.3-19.9 32.3-52 84.8-7.5 113.7 15.1 8.2 28.8 8.7 40.8 4.7m-41.2-30.5c9.1-3.2 18.6-2.4 26.8 1.4"/><path class="st6" d="M364.4 397.9c-2.8 23.1-4.9 47.3-5.8 71.2"/><path class="st1" d="M312.8 336.8c-8.1 2.4-33.6-.1-29.8-26.4 2.5-17.6-5.4-26.8-14.2-28.7-27.4-5.9-13.9-58.1 21.2-46.2 5.9 2 25.6 8.3 33.2-10 10.7-25.8 40.9-35.1 76.3-9.1 25.7-12.5 65.5-3.6 58.1 33.2-4.1 20.3-.8 29.5 23.4 38.5 28.7 14.8 22.6 43.9 11.9 55.4-13 14-34 19.5-49.2 4-7.1-7.3-20.7-12.1-29.8 1-9.9 14.2-26.8 16.9-34.8 1.9"/><path d="M328.3 292.4c19.2-2.5 37.3 6.2 47.7 21.1-4.8 1.5-9.7 2.6-14.8 3.2-6.9.9-13.8 1-20.4.3-.4-1-.8-2.1-1.2-3.1-1.1-3.2-1.7-6.5-2.1-9.8-1.4 4.1-3.3 7.9-5.8 11.5-10.5-2.2-20.3-6.3-29.2-11.9 7.1-6 15.9-10 25.8-11.3z" fill-rule="evenodd" clip-rule="evenodd" fill="#d1d1d1" stroke="#263138" stroke-width="2.835" stroke-miterlimit="22.926"/><path class="st4" d="M339.5 288.8l-9.5-9.1 15.8-17.9-1.7 26.2z"/><path class="st1" d="M340.5 289.7l-10.5-10c8.2-6.4 14.7-14.6 18.9-24m-7.2 9.5c4.2-.4 8.2 1 11.3 3.5m48.4 96.4c-6 10.6-20.5 20.9-33.4 23.8l18.4 40.1"/><path class="st1" d="M425.9 451.1l10.4-9.4-25.4-27.5 34.6-15.6c-8.9-15.1-15-28.2-43.2-33.9-11.1 54.3-28.8 104.1-50.1 152.1l.1 1.6 32.9-29.9"/><path class="st0" d="M94 463.5h159.7v31.3H94z"/><path class="st12" d="M124.7 499.5h159.7v35H124.7z"/><path class="st1" d="M89.7 459.7h159.7v35H89.7zm30.5 35h159.7v35H120.2z"/><path class="st5" d="M97 466.9h102.4v20.6H97zm126 23.6c7.3 0 13.2-5.9 13.2-13.2 0-7.3-5.9-13.2-13.2-13.2-7.3 0-13.2 5.9-13.2 13.2 0 7.3 5.9 13.2 13.2 13.2zm30.5 35c7.3 0 13.2-5.9 13.2-13.2 0-7.3-5.9-13.2-13.2-13.2-7.3 0-13.2 5.9-13.2 13.2 0 7.3 5.9 13.2 13.2 13.2z"/><circle transform="rotate(-13.286 222.945 477.141)" class="st3" cx="223" cy="477.2" r="10.2"/><circle transform="rotate(-45.001 253.498 512.25)" class="st3" cx="253.5" cy="512.2" r="10.2"/><path class="st5" d="M128.4 501.9h102.4v20.6H128.4z"/><path class="st1" d="M167.4 512.2h49.3m-74.2 0h17.1m-23.6-35h49.3m-74.2 0h17.1"/><path class="st9" d="M135.7 575.8h541.2v203.9H135.7z"/><path class="st1" d="M129.1 775.7V569.8"/><path class="st9" d="M84.7 529.7h636v40.1h-636z"/><path class="st1" d="M720.7 569.8h-636v-40.1h443.4"/><circle transform="rotate(-45.001 291.75 134.192)" class="st8" cx="291.8" cy="134.2" r="78.2"/><path class="st1" d="M291.8 63.9v16.2m0 108.2v16.2m-54.1-70.3h-16.2m140.6 0h-16.2m-34.6-59.3l-27.2 82.5m32-29.7l-47.9 12.8"/><path class="st8" d="M291.8 140.6c3.5 0 6.4-2.9 6.4-6.4 0-3.5-2.9-6.4-6.4-6.4-3.5 0-6.4 2.9-6.4 6.4 0 3.5 2.8 6.4 6.4 6.4z"/><path class="st12" d="M246.6 340.2h-53.8l21.9-94.5s-6.1-32 9.2-32.6c28.8 3.3 28.9 35.5 17.4 51.3l7.2 75.8h-1.9z"/><path class="st1" d="M187.5 340.2l22.6-95.5s-1.6-30.9 13.7-31.6c28.8 3.3 28.9 35.5 17.4 51.3l7.2 75.8h-60.9z"/><path d="M222.3 224.1s3.2-8.8-12.7-14.7c-15.8-5.9-19.4 3.1-18.6 8.5.9 5.4 24 17.3 31.3 6.2z" fill-rule="evenodd" clip-rule="evenodd" fill="#00a120" stroke="#263138" stroke-width="2.835" stroke-miterlimit="22.926"/><path class="st4" d="M105.1 193.1l93.6-33 19.1 54.3 1.4 4 1.9 5.5 16.5 48.1-93.6 33z"/><path class="st1" d="M162 199l29.5-10.4m-26.2 19.7l29.4-10.4m-22.8 29.2l29.5-10.4m-26.2 19.6l29.4-10.3"/><path class="st14" d="M133.4 209.7l11.1 5.3 9.2-19.2m-10.2 42.4l11 5.3 9.3-19.3"/><path class="st1" d="M181.8 255.2l29.5-10.4m-26.2 19.7l29.4-10.4"/><path class="st14" d="M153.4 266.4l11 5.3 9.3-19.3"/><path class="st12" d="M243.5 226.1c-7.7-12.3-10.6-15.4-27.9-15.9-14.7-.4-18.9 18.6 6.2 20.3 6 .4 18-.1 21.7-4.4z"/><path class="st1" d="M246.9 231c-4.5-11.9-13.8-24.6-34.1-24.3-14.7.2-20.3 23.5 10.7 23.8"/><path class="st1" d="M223.1 229.4l14.5 42.6-93.6 33-38.9-111.9 93.6-33 16.4 46.6"/><path class="st12" d="M472 451.6h-54.2v8.8c-7.6.4-14.5 3.7-19.6 8.7-5.4 5.4-8.8 12.9-8.8 21.2 0 8.3 3.4 15.8 8.8 21.2 5.1 5.1 12 8.3 19.6 8.7v9.6H472v-78.2zm-54.3 17.7v41.9c-5.2-.4-9.8-2.6-13.3-6.1-3.8-3.8-6.1-9-6.1-14.8 0-5.8 2.3-11 6.1-14.8 3.5-3.5 8.1-5.8 13.3-6.2z"/><path class="st1" d="M472 451.6h-58.4v8.8c-7.6.4-14.5 3.7-19.6 8.7-5.4 5.4-8.8 12.9-8.8 21.2 0 8.3 3.4 15.8 8.8 21.2 5.1 5.1 12 8.3 19.6 8.7v9.6H472v-78.2zm-58.5 17.7v41.9c-5.2-.4-9.8-2.6-13.3-6.1-3.8-3.8-6.1-9-6.1-14.8 0-5.8 2.3-11 6.1-14.8 3.5-3.5 8.2-5.8 13.3-6.2z"/><path class="st4" d="M168.7 783H320v9.5H168.7zm-3.1-11.2h151.3v9.5H165.6zm17.6-11.2h151.3v9.5H183.2zm2.6-11.2h151.3v9.5H185.8zm-5.4-11.3h151.3v9.5H180.4zm2.1-11.6h151.3v9.5H182.5zm-5.1-11.5h151.3v9.5H177.4zm-26.8-11.6h151.3v9.5H150.6zm45.3-11.5h151.3v9.5H195.9zm-18.5-11.6h151.3v9.5H177.4zm1.1-11.5h151.3v9.5H178.5z"/><path class="st1" d="M168.5 783h151.6m-151.6-11.2h151.6m-136.9-11.2h151.5m-148.9-11.2h151.5m-156.9-11.6h151.5m-149.4-11.5h151.6m-165.6-11.5h151.6m-169.5-11.6h151.6m-106.3-11.5h151.5m-170-11.6h151.5m-151.5-11.5h151.5"/><path class="st4" d="M361.9 783h151.3v9.5H361.9zm-3.1-11.2h151.3v9.5H358.8zm17.6-11.2h151.3v9.5H376.4zm2.6-11.2h151.3v9.5H379zm-5.4-11.3h151.3v9.5H373.6zm2.1-11.6H527v9.5H375.7z"/><path class="st1" d="M361.7 783h151.6m-151.6-11.2h151.6m-136.9-11.2h151.5M379 749.4h151.5m-156.9-11.6h151.5m-149.4-11.5h151.6"/><path class="st4" d="M517.9 381h158.4v41.3H517.9z"/><path class="st15" d="M489.6 362.7h198.3v133.7H489.6z"/><path class="st1" d="M484.5 358h203.3v138.3H484.5z"/><path fill-rule="evenodd" clip-rule="evenodd" fill="#d2d2d2" stroke="#263138" stroke-width="2.835" stroke-miterlimit="22.926" d="M576.5 477.2h19.2v38.4h-19.2z"/><path class="st15" d="M524.9 520.1h130v9.7h-130z"/><path class="st1" d="M517.9 515.6H655v14.2H517.9z"/><path fill-rule="evenodd" clip-rule="evenodd" fill="#00a120" stroke="#263138" stroke-width="2.834" stroke-miterlimit="10" d="M514.1 381.2l-9.7 53.7 66.5 12.1 5.2-54.7z"/><path class="st1" d="M522.7 397.6l39.5 5.4m-41.2 7l39.5 5.4m-40.9 8l27.9 3.8"/><circle transform="rotate(-67.5 613.781 471.06)" class="st3" cx="613.8" cy="471.1" r="10.2"/><path class="st1" d="M699.7 731.7c0 23.6-19.3 42.9-42.9 42.9-23.6 0-42.9-19.3-42.9-42.9V471.1"/><path fill-rule="evenodd" clip-rule="evenodd" fill="#2482a3" stroke="#263138" stroke-width="2.834" stroke-miterlimit="10" d="M626.1 408.5l18.5 51.4 63.6-22.9-22.8-49.8z"/><path class="st1" d="M641.7 418.4l37-15.1M646.5 430l36.9-15.1M652 442.3l26-10.6"/></g></switch></svg>