<svg version="1.0" xmlns="http://www.w3.org/2000/svg" width="998.667" height="820" viewBox="0 0 749 615"><path d="M346 .6C282.3 6 230.5 20.1 177.4 46.4c-28.9 14.3-51.8 28.8-75.8 48-11.8 9.4-39.6 36.9-48.3 47.6-27.7 34.5-44.2 69.1-50.9 107-2.7 14.9-2.7 56.6-.1 72.3 9.2 54.8 34.5 108.8 74.3 158.7 13.6 17 45 48.5 61.6 61.8 48.7 38.8 99 61.3 157.8 70.5 18.4 2.9 65.1 3.1 83.5.4 46.1-6.8 82.6-18.5 125.5-40.3 96.7-49.2 183.8-136.9 222.4-224.1 15.2-34.4 23.3-74.2 20.7-102.8-2.1-24.4-7-42.4-17.1-63C689.8 98.2 576.8 27.4 449.5 6.1c-25.1-4.2-38.4-5.3-69-5.6-16.5-.1-32-.1-34.5.1z"/></svg>