<svg xmlns="http://www.w3.org/2000/svg" viewBox="0 0 256.7 330.54"><defs><clipPath id="clip-path"><circle cx="141.5" cy="115.2" r="115.2" fill="none"/></clipPath><style>.cls-13,.cls-5{fill:none}.cls-10,.cls-8{fill:#fff}.cls-4{fill:#fefefe}.cls-10,.cls-11,.cls-13,.cls-4,.cls-5,.cls-7,.cls-8{fill-rule:evenodd}.cls-13,.cls-5,.cls-8{stroke:#263138;stroke-width:2.83px}.cls-5,.cls-8{stroke-miterlimit:22.93}.cls-13{stroke-miterlimit:10}.cls-7{fill:#2482a3}.cls-11{fill:#263138}</style></defs><g id="Слой_2" data-name="Слой 2"><g clip-path="url(#clip-path)" id="Layer_1" data-name="Layer 1"><circle cx="141.5" cy="115.2" r="115.2" fill="#fff"/><path class="cls-4" d="M107.46 206.88l-64.82-.19-40.28 11.09c-3.36 22.86 5.19 33.78 23.06 35.37l66.5 9 2.15 57s129 .6 129 0v-44.64l9.82 2.73-.17-58.24-28.95-13.66a53.84 53.84 0 00-14-6.46l-82.34 8z"/><path class="cls-5" d="M232.72 219c-11.47-5.38-21.71-10.16-28.44-13.33-9.7-6.3-26-12.77-53.42-14.81-8.93 1-21 9.93-29.55 16L5.5 206.58s-16.68 40.79 17.4 46.23l69 9.36c2.93 26.74 2.21 64.56 1.8 68.22m125.72-56.88l13.94 3.86"/><path d="M141 208.46a24.41 24.41 0 0023.84-11.55" stroke-miterlimit="10" stroke="#1a1a1a" stroke-width="1.31" fill-rule="evenodd" fill="none"/><path class="cls-7" d="M128.83 309.53c-9.43-36.46-13.26-67.88 1.33-113.91 12.41-7.14 25.54-5.4 38.83-2.19-1.5 45.83-16.65 83.47-40.16 116.1z"/><path class="cls-8" d="M126.87 175l4.65 18.14c5.23 23.92 24.72 16.36 36.13.63 0-4.73-13.87-30.2-13.87-30.2z"/><path d="M101.3 168c-6.2 1.82-25.79-.05-22.89-20.29 1.94-13.56-3.71-20.11-12.24-22.71-20.71-6.25-4.44-45.88 19.22-34.22 4.28 2.11 18.08 5.66 23.93-8.41 8.25-19.83 30.58-27 57.81-7 19.77-9.58 51.19-2.75 45.45 25.55-3.17 15.59-.63 22.69 17.95 29.61 22.09 11.38 17.37 33.71 9.14 42.55-10 10.76-26.11 15-37.84 3.06-5.47-5.59-17.42-9.5-24.42.58-7.57 10.91-21.22 13-27.31 1.52-12.87-23.15-26.29-16.9-48.8-10.24z" fill="#d1d1d1" fill-rule="evenodd"/><path class="cls-10" d="M115.49 89.13c-15.64 25.35-40.83 66.67-5.91 89.31 27.78 15 49.18-3.09 62.3-21.08a16.88 16.88 0 1010.18-30.49 17.6 17.6 0 00-4.06.42 16.1 16.1 0 001-1.93c3-7.08 4.14-21.23-15.83-24-9.55-1.36-14.1-7.44-16.25-13.36a18.85 18.85 0 01-12.46 2.19c-10.29-1.55-13.23-2.53-18.97-1.06z"/><path class="cls-5" d="M179.93 160.43a17.16 17.16 0 01-12.12-7.49m21.09-14.3a8.79 8.79 0 00-14.81 7.1M149.47 53c7.46 4 14.34 12.37 16.7 19.89m-45.83 41.4c-1.68 6.81-8.3 13.6-16.58 11.83-8.82-1.74-11.73-10.47-9.54-17.65 2-6.55 8.36-11.77 16-10.15a12.79 12.79 0 0110.16 16zM157 124.2l18.51 7.66m-18.68-7.67c-2.06 8.24-9.51 14.31-17.5 12.6s-12.86-9.54-10.66-18.37 9.77-13.32 17.77-11.61 12.05 10.11 10.37 17.38z"/><path class="cls-11" d="M142.89 122.41a4.86 4.86 0 01-5.8 3.35 4.48 4.48 0 01-3.62-5.37 4.87 4.87 0 015.8-3.35 4.48 4.48 0 013.62 5.37zM113 113.63a4.15 4.15 0 01-5 2.86 3.81 3.81 0 01-3.09-4.58 4.14 4.14 0 015-2.86 3.82 3.82 0 013.09 4.58z"/><path class="cls-5" d="M117.81 108.54a9.18 9.18 0 00-12-2.89m41.82 9.2a9.17 9.17 0 00-12-2.89m30.54-39.11c-5-22.78 13.49-28.3 19.58-22.35 9 8.76-4.63 19.58-10.34 9.57"/><path class="cls-11" d="M132.87 204.44c6 6.23 26.85 5.85 33.34 3.54l-24.68 20.09 8.82 55.26-21.9 26.92-14.85-30.11 21.72-52.61-9.57-12.06z"/><path class="cls-10" d="M141.17 208.05l14.45 31.52c16.65-14.71 11.67-18.47 20.42-38l-9.75-11.2c-4.72 8.33-14.95 15.37-25.12 17.68z"/><path class="cls-7" d="M145.34 210.32l14.25 30.43c16.52-14.85 11.51-18.57 20.11-38.15l-9.52-12.35c-3.95 8.46-12.63 15.55-24.84 20.07z"/><path d="M141.39 208.51l-28.6 18 2.6-16.47 16.35-15.92c2.1 6.76 5.26 12.95 9.65 14.39z" fill="#2482a3" stroke-miterlimit="22.93" stroke="#263138" stroke-width="2.83" fill-rule="evenodd"/><path class="cls-8" d="M131 193.31c-12.16 3.62-25.21 11.95-36.41 27l18.84 5.83-24.3 13.43 39.93 69.84v-1.33c-10.2-58.49-7.25-89 1.94-114.77z"/><path class="cls-10" d="M168.62 188.93c-8.77 43.07-22.93 82.81-39.88 120.85l39-35.34 4.45-4 2.66-2.41 20.46-18.53-19.91-21.6 27.17-12.3c-7.02-11.84-11.78-22.17-33.95-26.67z"/><path class="cls-13" d="M197.46 201.85c6.14 3.41 13.62 11.26 16.35 23.34M105.24 94.92c5.88-5.22 12-7.81 22.92-5.7"/><path class="cls-5" d="M149.33 178.68c9.07-5.11 16.65-13.23 22.55-21.32a16.88 16.88 0 1010.18-30.49 17.6 17.6 0 00-4.06.42 16.1 16.1 0 001-1.93c3-7.08 4.14-21.23-15.83-24-9.55-1.36-14.1-7.44-16.25-13.36a18.85 18.85 0 01-12.46 2.19c-10.29-1.51-13.23-2.49-19-1-15.64 25.35-40.83 66.67-5.91 89.31 11.9 6.44 22.63 6.8 32 3.69m-32.29-24.05a27.82 27.82 0 0121 1.09"/><path class="cls-13" d="M138.55 215.6c-2.23 18.18-3.85 37.14-4.52 56"/><path class="cls-5" d="M98 167.54c-6.34 1.87-26.38 0-23.41-20.75 2-13.83-4.27-21.08-11.14-22.57-21.5-4.67-10.95-45.67 16.67-36.32 4.63 1.56 20.1 6.53 26.08-7.86 8.44-20.28 32.12-27.61 60-7.19 20.19-9.8 51.47-2.85 45.6 26.15-3.23 16-.64 23.21 18.37 30.29 22.59 11.63 17.76 34.47 9.34 43.51-10.24 11-26.7 15.36-38.69 3.13-5.61-5.71-16.25-9.5-23.41.81-7.74 11.15-21.09 13.25-27.31 1.52"/><path d="M110.12 132.67a39.44 39.44 0 0137.46 16.59 69.51 69.51 0 01-27.7 2.75c-.33-.8-.63-1.61-.91-2.45a35.94 35.94 0 01-1.62-7.67 35.15 35.15 0 01-4.54 9 68.92 68.92 0 01-22.93-9.38 39.26 39.26 0 0120.24-8.84z" fill="#d1d1d1" stroke-miterlimit="22.93" stroke="#263138" stroke-width="2.83" fill-rule="evenodd"/><path class="cls-4" d="M119 129.81l-7.48-7.11 12.4-14.09-1.36 20.58-3.56.62z"/><path class="cls-5" d="M119.78 130.56l-8.27-7.86a49.54 49.54 0 0014.86-18.85m-5.68 7.44a12.27 12.27 0 018.89 2.71m38.05 75.8c-4.73 8.3-16.08 16.4-26.24 18.71L155.84 240"/><path class="cls-5" d="M186.85 257.37L195 250l-19.9-21.63 27.18-12.29c-7-11.84-11.78-22.17-34-26.67-8.69 42.65-22.61 81.81-39.34 119.52l.06 1.22 25.85-23.5"/></g></g></svg>